<?xml version="1.0" encoding="UTF-8"?>
<svg width="145px" height="51px" viewBox="0 0 145 51" version="1.1" xmlns="http://www.w3.org/2000/svg" xmlns:xlink="http://www.w3.org/1999/xlink">
    <title>CTA</title>
    <g id="Page-1" stroke="none" stroke-width="1" fill="none" fill-rule="evenodd">
        <g id="NatGeo-Solan-Artículo-2" transform="translate(-510.000000, -1439.000000)">
            <g id="CTA" transform="translate(510.000000, 1439.000000)">
                <rect id="Rectangle" fill="#FFCC01" x="0" y="0" width="145" height="51"></rect>
                <path d="M37.155,29.12 C37.745,29.12 38.335,29 38.845,28.77 L38.845,26.61 C38.495,27.01 37.915,27.31 37.195,27.31 C36.065,27.31 35.215,26.48 35.215,25.35 C35.215,24.22 36.065,23.39 37.195,23.39 C37.915,23.39 38.495,23.69 38.845,24.09 L38.845,21.93 C38.335,21.7 37.745,21.58 37.155,21.58 C35.025,21.58 33.315,23.27 33.315,25.35 C33.315,27.43 35.025,29.12 37.155,29.12 Z M46.365,29.12 C48.465,29.12 50.145,27.43 50.145,25.35 C50.145,23.27 48.465,21.58 46.365,21.58 C44.265,21.58 42.585,23.27 42.585,25.35 C42.585,27.43 44.265,29.12 46.365,29.12 Z M46.365,27.36 C45.325,27.36 44.485,26.54 44.485,25.35 C44.485,24.16 45.325,23.34 46.365,23.34 C47.405,23.34 48.245,24.16 48.245,25.35 C48.245,26.54 47.405,27.36 46.365,27.36 Z M60.905,29.31 L60.905,21.7 L59.055,21.7 L59.055,25.51 L54.145,21.39 L54.145,29 L55.995,29 L55.995,25.2 L60.905,29.31 Z M68.835,29 L68.835,23.26 L71.005,23.26 L71.005,21.7 L64.765,21.7 L64.765,23.26 L66.935,23.26 L66.935,29 L68.835,29 Z M76.765,29 L76.765,21.7 L74.865,21.7 L74.865,29 L76.765,29 Z M87.835,29.31 L87.835,21.7 L85.985,21.7 L85.985,25.51 L81.075,21.39 L81.075,29 L82.925,29 L82.925,25.2 L87.835,29.31 Z M95.855,21.2 L97.685,19.5 L95.345,19.5 L94.265,21.2 L95.855,21.2 Z M95.125,29.12 C96.865,29.12 98.195,28.01 98.195,26.06 L98.195,21.7 L96.295,21.7 L96.295,26.07 C96.295,26.99 95.835,27.45 95.125,27.45 C94.415,27.45 93.955,26.99 93.955,26.07 L93.955,21.7 L92.055,21.7 L92.055,26.06 C92.055,28.01 93.385,29.12 95.125,29.12 Z M103.205,29 L103.725,27.98 L106.605,27.98 L107.115,29 L109.125,29 L105.165,21.38 L101.205,29 L103.205,29 Z M105.885,26.55 L104.445,26.55 L105.165,25.13 L105.885,26.55 Z" id="CONTINÚA" fill="#000000" fill-rule="nonzero"></path>
            </g>
        </g>
    </g>
</svg>