<?xml version="1.0" encoding="UTF-8"?>
<svg width="260px" height="44px" viewBox="0 0 260 44" version="1.1" xmlns="http://www.w3.org/2000/svg" xmlns:xlink="http://www.w3.org/1999/xlink">
    <title>CTA 1</title>
    <g id="Page-1" stroke="none" stroke-width="1" fill="none" fill-rule="evenodd">
        <g id="NatGeo-Solan-Landing-1" transform="translate(-500.000000, -590.000000)">
            <g id="Hero" transform="translate(-11.000000, 128.000000)">
                <g id="CTA-1" transform="translate(511.000000, 462.448000)">
                    <rect id="Rectangle" fill="#FFCC01" x="0" y="0" width="260" height="43"></rect>
                    <path d="M36.825,18 L37.345,16.98 L40.225,16.98 L40.735,18 L42.745,18 L38.785,10.38 L34.825,18 L36.825,18 Z M39.505,15.55 L38.065,15.55 L38.785,14.13 L39.505,15.55 Z M48.725,18.12 C49.315,18.12 49.905,18 50.415,17.77 L50.415,15.61 C50.065,16.01 49.485,16.31 48.765,16.31 C47.635,16.31 46.785,15.48 46.785,14.35 C46.785,13.22 47.635,12.39 48.765,12.39 C49.485,12.39 50.065,12.69 50.415,13.09 L50.415,10.93 C49.905,10.7 49.315,10.58 48.725,10.58 C46.595,10.58 44.885,12.27 44.885,14.35 C44.885,16.43 46.595,18.12 48.725,18.12 Z M57.495,18.12 C58.085,18.12 58.675,18 59.185,17.77 L59.185,15.61 C58.835,16.01 58.255,16.31 57.535,16.31 C56.405,16.31 55.555,15.48 55.555,14.35 C55.555,13.22 56.405,12.39 57.535,12.39 C58.255,12.39 58.835,12.69 59.185,13.09 L59.185,10.93 C58.675,10.7 58.085,10.58 57.495,10.58 C55.365,10.58 53.655,12.27 53.655,14.35 C53.655,16.43 55.365,18.12 57.495,18.12 Z M67.495,18 L67.495,16.44 L64.605,16.44 L64.605,15.05 L67.275,15.05 L67.275,13.49 L64.605,13.49 L64.605,12.26 L67.485,12.26 L67.485,10.7 L62.745,10.7 L62.745,18 L67.495,18 Z M73.585,18 C75.685,18 77.365,16.43 77.365,14.35 C77.365,12.27 75.685,10.7 73.585,10.7 L71.045,10.7 L71.045,18 L73.585,18 Z M73.445,16.44 L72.945,16.44 L72.945,12.26 L73.465,12.26 C74.675,12.26 75.465,13.23 75.465,14.35 C75.465,15.47 74.675,16.44 73.445,16.44 Z M85.615,18 L85.615,16.44 L82.725,16.44 L82.725,15.05 L85.395,15.05 L85.395,13.49 L82.725,13.49 L82.725,12.26 L85.605,12.26 L85.605,10.7 L80.865,10.7 L80.865,18 L85.615,18 Z M94.905,18 L95.425,16.98 L98.305,16.98 L98.815,18 L100.825,18 L96.865,10.38 L92.905,18 L94.905,18 Z M97.585,15.55 L96.145,15.55 L96.865,14.13 L97.585,15.55 Z M113.035,18 L113.035,16.44 L110.285,16.44 L110.285,10.7 L108.385,10.7 L108.385,18 L113.035,18 Z M117.635,18 L118.155,16.98 L121.035,16.98 L121.545,18 L123.555,18 L119.595,10.38 L115.635,18 L117.635,18 Z M120.315,15.55 L118.875,15.55 L119.595,14.13 L120.315,15.55 Z M135.865,18 L135.865,16.44 L132.975,16.44 L132.975,15.05 L135.645,15.05 L135.645,13.49 L132.975,13.49 L132.975,12.26 L135.855,12.26 L135.855,10.7 L131.115,10.7 L131.115,18 L135.865,18 Z M140.875,18 L142.595,15.59 L144.295,18 L146.445,18 L143.655,14.15 L146.145,10.7 L144.055,10.7 L142.615,12.74 L141.165,10.7 L139.015,10.7 L141.545,14.18 L138.785,18 L140.875,18 Z M151.535,18 L151.535,15.51 L152.045,15.51 C153.785,15.51 154.975,14.6 154.975,13.11 C154.975,11.61 153.785,10.7 152.045,10.7 L149.635,10.7 L149.635,18 L151.535,18 Z M152.035,13.97 L151.535,13.97 L151.535,12.24 L152.035,12.24 C152.665,12.24 153.045,12.58 153.045,13.11 C153.045,13.63 152.665,13.97 152.035,13.97 Z M163.005,18 L163.005,16.44 L160.115,16.44 L160.115,15.05 L162.785,15.05 L162.785,13.49 L160.115,13.49 L160.115,12.26 L162.995,12.26 L162.995,10.7 L158.255,10.7 L158.255,18 L163.005,18 Z M168.455,18 L168.455,15.46 L168.845,15.46 L170.495,18 L172.685,18 L170.745,15.06 C171.465,14.67 171.895,14 171.895,13.11 C171.895,11.61 170.695,10.7 168.965,10.7 L166.555,10.7 L166.555,18 L168.455,18 Z M168.955,13.97 L168.455,13.97 L168.455,12.24 L168.955,12.24 C169.585,12.24 169.965,12.58 169.965,13.11 C169.965,13.63 169.585,13.97 168.955,13.97 Z M177.845,18 L177.845,10.7 L175.945,10.7 L175.945,18 L177.845,18 Z M186.405,18 L186.405,16.44 L183.515,16.44 L183.515,15.05 L186.185,15.05 L186.185,13.49 L183.515,13.49 L183.515,12.26 L186.395,12.26 L186.395,10.7 L181.655,10.7 L181.655,18 L186.405,18 Z M196.715,18.31 L196.715,10.7 L194.865,10.7 L194.865,14.51 L189.955,10.39 L189.955,18 L191.805,18 L191.805,14.2 L196.715,18.31 Z M204.055,18.12 C204.645,18.12 205.235,18 205.745,17.77 L205.745,15.61 C205.395,16.01 204.815,16.31 204.095,16.31 C202.965,16.31 202.115,15.48 202.115,14.35 C202.115,13.22 202.965,12.39 204.095,12.39 C204.815,12.39 205.395,12.69 205.745,13.09 L205.745,10.93 C205.235,10.7 204.645,10.58 204.055,10.58 C201.925,10.58 200.215,12.27 200.215,14.35 C200.215,16.43 201.925,18.12 204.055,18.12 Z M211.205,18 L211.205,10.7 L209.305,10.7 L209.305,18 L211.205,18 Z M216.255,18 L216.775,16.98 L219.655,16.98 L220.165,18 L222.175,18 L218.215,10.38 L214.255,18 L216.255,18 Z M218.935,15.55 L217.495,15.55 L218.215,14.13 L218.935,15.55 Z M49.05,31.344 C50.5,31.344 51.86,30.424 51.86,28.844 C51.86,27.964 51.37,27.134 50.44,26.794 L52.05,23.924 L47.08,23.924 L47.08,25.484 L49.38,25.484 L48.11,27.694 C49.2,27.764 50.08,28.074 50.08,28.844 C50.08,29.424 49.54,29.774 48.89,29.774 C48.2,29.774 47.51,29.474 46.95,28.974 L46.95,30.734 C47.45,31.084 48.06,31.344 49.05,31.344 Z M57.6,31.344 C59.18,31.344 60.34,30.204 60.34,28.664 C60.34,27.234 59.3,26.174 57.88,26.144 L59.17,23.924 L57.17,23.924 L55.56,26.644 C55.05,27.504 54.87,28.064 54.87,28.674 C54.87,30.204 56.05,31.344 57.6,31.344 Z M57.6,29.724 C57.02,29.724 56.57,29.244 56.57,28.664 C56.57,28.084 57.02,27.604 57.6,27.604 C58.18,27.604 58.63,28.084 58.63,28.664 C58.63,29.244 58.18,29.724 57.6,29.724 Z M66.55,31.344 C68.33,31.344 69.7,29.804 69.7,27.574 C69.7,25.344 68.33,23.804 66.55,23.804 C64.77,23.804 63.4,25.344 63.4,27.574 C63.4,29.804 64.77,31.344 66.55,31.344 Z M66.55,29.644 C65.75,29.644 65.27,28.734 65.27,27.574 C65.27,26.414 65.75,25.504 66.55,25.504 C67.35,25.504 67.83,26.414 67.83,27.574 C67.83,28.734 67.35,29.644 66.55,29.644 Z M82.41,31.224 L82.41,29.664 L79.52,29.664 L79.52,28.274 L82.19,28.274 L82.19,26.714 L79.52,26.714 L79.52,25.484 L82.4,25.484 L82.4,23.924 L77.66,23.924 L77.66,31.224 L82.41,31.224 Z M92.72,31.534 L92.72,23.924 L90.87,23.924 L90.87,27.734 L85.96,23.614 L85.96,31.224 L87.81,31.224 L87.81,27.424 L92.72,31.534 Z M104.65,31.224 L104.65,25.484 L106.82,25.484 L106.82,23.924 L100.58,23.924 L100.58,25.484 L102.75,25.484 L102.75,31.224 L104.65,31.224 Z M113.15,31.344 C114.89,31.344 116.22,30.234 116.22,28.284 L116.22,23.924 L114.32,23.924 L114.32,28.294 C114.32,29.214 113.86,29.674 113.15,29.674 C112.44,29.674 111.98,29.214 111.98,28.294 L111.98,23.924 L110.08,23.924 L110.08,28.284 C110.08,30.234 111.41,31.344 113.15,31.344 Z M127.9,31.344 C130,31.344 131.68,29.654 131.68,27.574 C131.68,25.494 130,23.804 127.9,23.804 C125.8,23.804 124.12,25.494 124.12,27.574 C124.12,29.654 125.8,31.344 127.9,31.344 Z M127.9,29.584 C126.86,29.584 126.02,28.764 126.02,27.574 C126.02,26.384 126.86,25.564 127.9,25.564 C128.94,25.564 129.78,26.384 129.78,27.574 C129.78,28.764 128.94,29.584 127.9,29.584 Z M137.08,31.224 L137.08,28.684 L137.47,28.684 L139.12,31.224 L141.31,31.224 L139.37,28.284 C140.09,27.894 140.52,27.224 140.52,26.334 C140.52,24.834 139.32,23.924 137.59,23.924 L135.18,23.924 L135.18,31.224 L137.08,31.224 Z M137.58,27.194 L137.08,27.194 L137.08,25.464 L137.58,25.464 C138.21,25.464 138.59,25.804 138.59,26.334 C138.59,26.854 138.21,27.194 137.58,27.194 Z M147.11,31.224 C149.21,31.224 150.89,29.654 150.89,27.574 C150.89,25.494 149.21,23.924 147.11,23.924 L144.57,23.924 L144.57,31.224 L147.11,31.224 Z M146.97,29.664 L146.47,29.664 L146.47,25.484 L146.99,25.484 C148.2,25.484 148.99,26.454 148.99,27.574 C148.99,28.694 148.2,29.664 146.97,29.664 Z M159.14,31.224 L159.14,29.664 L156.25,29.664 L156.25,28.274 L158.92,28.274 L158.92,26.714 L156.25,26.714 L156.25,25.484 L159.13,25.484 L159.13,23.924 L154.39,23.924 L154.39,31.224 L159.14,31.224 Z M169.45,31.534 L169.45,23.924 L167.6,23.924 L167.6,27.734 L162.69,23.614 L162.69,31.224 L164.54,31.224 L164.54,27.424 L169.45,31.534 Z M174.51,31.224 L175.03,30.204 L177.91,30.204 L178.42,31.224 L180.43,31.224 L176.47,23.604 L172.51,31.224 L174.51,31.224 Z M177.19,28.774 L175.75,28.774 L176.47,27.354 L177.19,28.774 Z M186.03,31.224 C188.13,31.224 189.81,29.654 189.81,27.574 C189.81,25.494 188.13,23.924 186.03,23.924 L183.49,23.924 L183.49,31.224 L186.03,31.224 Z M185.89,29.664 L185.39,29.664 L185.39,25.484 L185.91,25.484 C187.12,25.484 187.91,26.454 187.91,27.574 C187.91,28.694 187.12,29.664 185.89,29.664 Z M196.77,31.344 C198.87,31.344 200.55,29.654 200.55,27.574 C200.55,25.494 198.87,23.804 196.77,23.804 C194.67,23.804 192.99,25.494 192.99,27.574 C192.99,29.654 194.67,31.344 196.77,31.344 Z M196.77,29.584 C195.73,29.584 194.89,28.764 194.89,27.574 C194.89,26.384 195.73,25.564 196.77,25.564 C197.81,25.564 198.65,26.384 198.65,27.574 C198.65,28.764 197.81,29.584 196.77,29.584 Z M205.95,31.224 L205.95,28.684 L206.34,28.684 L207.99,31.224 L210.18,31.224 L208.24,28.284 C208.96,27.894 209.39,27.224 209.39,26.334 C209.39,24.834 208.19,23.924 206.46,23.924 L204.05,23.924 L204.05,31.224 L205.95,31.224 Z M206.45,27.194 L205.95,27.194 L205.95,25.464 L206.45,25.464 C207.08,25.464 207.46,25.804 207.46,26.334 C207.46,26.854 207.08,27.194 206.45,27.194 Z" id="ACCEDEALAEXPERIENCIA360ENTUORDENADOR" fill="#000000" fill-rule="nonzero"></path>
                </g>
            </g>
        </g>
    </g>
</svg>