<?xml version="1.0" encoding="UTF-8"?>
<svg width="260px" height="44px" viewBox="0 0 260 44" version="1.1" xmlns="http://www.w3.org/2000/svg" xmlns:xlink="http://www.w3.org/1999/xlink">
    <title>CTA 1</title>
    <g id="Page-1" stroke="none" stroke-width="1" fill="none" fill-rule="evenodd">
        <g id="NatGeo-Solan-Landing-1" transform="translate(-511.000000, -543.000000)">
            <g id="Hero" transform="translate(0.000000, 121.000000)">
                <g id="CTA-1" transform="translate(511.000000, 422.448000)">
                    <rect id="Rectangle" fill="#FFCC01" x="0" y="0" width="260" height="43"></rect>
                    <path d="M61.29,25 L61.29,23.44 L58.4,23.44 L58.4,22.05 L61.07,22.05 L61.07,20.49 L58.4,20.49 L58.4,19.26 L61.28,19.26 L61.28,17.7 L56.54,17.7 L56.54,25 L61.29,25 Z M66.8,25 L68.52,22.59 L70.22,25 L72.37,25 L69.58,21.15 L72.07,17.7 L69.98,17.7 L68.54,19.74 L67.09,17.7 L64.94,17.7 L67.47,21.18 L64.71,25 L66.8,25 Z M77.96,25 L77.96,22.51 L78.47,22.51 C80.21,22.51 81.4,21.6 81.4,20.11 C81.4,18.61 80.21,17.7 78.47,17.7 L76.06,17.7 L76.06,25 L77.96,25 Z M78.46,20.97 L77.96,20.97 L77.96,19.24 L78.46,19.24 C79.09,19.24 79.47,19.58 79.47,20.11 C79.47,20.63 79.09,20.97 78.46,20.97 Z M89.83,25 L89.83,23.44 L87.08,23.44 L87.08,17.7 L85.18,17.7 L85.18,25 L89.83,25 Z M96.8,25.12 C98.9,25.12 100.58,23.43 100.58,21.35 C100.58,19.27 98.9,17.58 96.8,17.58 C94.7,17.58 93.02,19.27 93.02,21.35 C93.02,23.43 94.7,25.12 96.8,25.12 Z M96.8,23.36 C95.76,23.36 94.92,22.54 94.92,21.35 C94.92,20.16 95.76,19.34 96.8,19.34 C97.84,19.34 98.68,20.16 98.68,21.35 C98.68,22.54 97.84,23.36 96.8,23.36 Z M106.48,25 L106.48,22.46 L106.87,22.46 L108.52,25 L110.71,25 L108.77,22.06 C109.49,21.67 109.92,21 109.92,20.11 C109.92,18.61 108.72,17.7 106.99,17.7 L104.58,17.7 L104.58,25 L106.48,25 Z M106.98,20.97 L106.48,20.97 L106.48,19.24 L106.98,19.24 C107.61,19.24 107.99,19.58 107.99,20.11 C107.99,20.63 107.61,20.97 106.98,20.97 Z M115.51,25 L116.03,23.98 L118.91,23.98 L119.42,25 L121.43,25 L117.47,17.38 L113.51,25 L115.51,25 Z M118.19,22.55 L116.75,22.55 L117.47,21.13 L118.19,22.55 Z M134.74,25 L134.74,23.44 L131.85,23.44 L131.85,22.05 L134.52,22.05 L134.52,20.49 L131.85,20.49 L131.85,19.26 L134.73,19.26 L134.73,17.7 L129.99,17.7 L129.99,25 L134.74,25 Z M143.44,25 L143.44,23.44 L140.69,23.44 L140.69,17.7 L138.79,17.7 L138.79,25 L143.44,25 Z M156.79,25.2 L158.88,21.61 L159.92,25 L161.86,25 L159.51,17.38 L156.79,21.98 L154.07,17.38 L151.72,25 L153.66,25 L154.7,21.61 L156.79,25.2 Z M166.84,25 L167.36,23.98 L170.24,23.98 L170.75,25 L172.76,25 L168.8,17.38 L164.84,25 L166.84,25 Z M169.52,22.55 L168.08,22.55 L168.8,21.13 L169.52,22.55 Z M183.08,25.31 L183.08,17.7 L181.23,17.7 L181.23,21.51 L176.32,17.39 L176.32,25 L178.17,25 L178.17,21.2 L183.08,25.31 Z M188.64,25 L189.16,23.98 L192.04,23.98 L192.55,25 L194.56,25 L190.6,17.38 L186.64,25 L188.64,25 Z M191.32,22.55 L189.88,22.55 L190.6,21.13 L191.32,22.55 Z M204.88,25.31 L204.88,17.7 L203.03,17.7 L203.03,21.51 L198.12,17.39 L198.12,25 L199.97,25 L199.97,21.2 L204.88,25.31 Z M212.81,25 L212.81,19.26 L214.98,19.26 L214.98,17.7 L208.74,17.7 L208.74,19.26 L210.91,19.26 L210.91,25 L212.81,25 Z M220.74,25 L220.74,17.7 L218.84,17.7 L218.84,25 L220.74,25 Z M226.29,25 L226.81,23.98 L229.69,23.98 L230.2,25 L232.21,25 L228.25,17.38 L224.29,25 L226.29,25 Z M228.97,22.55 L227.53,22.55 L228.25,21.13 L228.97,22.55 Z M240.42,25 L240.42,23.44 L237.67,23.44 L237.67,17.7 L235.77,17.7 L235.77,25 L240.42,25 Z" id="EXPLORAELMANANTIAL" fill="#000000" fill-rule="nonzero"></path>
                    <path d="M29.1080131,22.113945 C30.3648086,22.1198281 42.0208335,22.2609537 42.0211309,25.4337531 C42.0211309,28.1159499 33.7794607,28.6285734 30.79449,28.7258058 C30.3981759,28.738729 30.0714015,28.4230317 30.0643244,28.0270254 C30.0569397,27.6304036 30.3729448,27.3039369 30.7686434,27.2919367 C35.7007222,27.144242 38.7512325,26.4189997 39.9820214,25.8365288 C40.3407964,25.6669876 40.3444887,25.1959032 39.9863292,25.0257466 C38.5656911,24.3518897 34.765938,23.5484923 29.0163077,23.5484923 C23.266985,23.5484923 19.4669243,24.351582 18.0459785,25.0257466 C17.687819,25.1965186 17.6915113,25.6669876 18.0496709,25.8365288 C19.2287667,26.395307 22.0835815,27.0830103 26.6590393,27.2691671 L26.6590393,27.2691671 L25.9374893,26.418692 C25.6808698,26.1165333 25.7181011,25.6639107 26.0199521,25.4072912 C26.3221108,25.1500563 26.7750411,25.1882108 27.0313529,25.489754 C27.2258945,25.7194885 27.4649175,26.0016661 27.7149311,26.2970031 L28.2196892,26.8935836 C28.469472,27.1890072 28.7079182,27.4714011 28.9015366,27.7014817 C29.1566176,28.0048712 29.1316942,28.4802634 28.8507666,28.7596525 L28.8507666,28.7596525 L26.8070416,30.7910695 C26.5261141,31.071074 26.0716453,31.0692278 25.7922562,30.7879926 L25.7922562,30.7879926 L25.7168574,30.6981585 C25.5159133,30.4170051 25.5422214,30.0237957 25.7953331,29.7728994 L25.7953331,29.7728994 L26.8618117,28.7122671 C23.6177599,28.5848804 16.0108691,28.0110251 16.0108691,25.4340608 C16.0108691,22.260964 27.6671716,22.1198284 28.9239859,22.113945 Z M20.6355584,13.5791022 C21.5595731,13.5791022 22.2583535,13.7486433 22.7318996,14.0877257 C23.2054456,14.426808 23.4423725,14.8769691 23.4423725,15.4388242 C23.4423725,15.8576001 23.3109857,16.2240675 23.04852,16.5382264 C22.7857466,16.8523852 22.4352794,17.0625424 21.9965032,17.1690057 L21.9965032,17.238853 C22.4983574,17.3287005 22.8955945,17.5237806 23.1882146,17.8247085 C23.4808346,18.1256364 23.6269908,18.5136426 23.6269908,18.9890348 C23.6269908,19.7201234 23.3479094,20.3053635 22.789439,20.7441397 C22.2309685,21.182916 21.4749564,21.4023041 20.5207873,21.4023041 C19.5967725,21.4016887 18.7490667,21.2435323 17.9782851,20.9281427 L17.9782851,19.5121201 L18.13798,19.5121201 C18.8992229,19.9478193 19.6121574,20.1650536 20.2767834,20.1650536 C20.8020226,20.1650536 21.2124907,20.0564364 21.5081877,19.8385868 C21.8038847,19.6210449 21.9518871,19.3025782 21.9518871,18.8838023 C21.9518871,18.5514893 21.8365006,18.2945621 21.60542,18.1136362 C21.3743394,17.9327102 20.8967933,17.8419395 20.1721664,17.8419395 L19.7333901,17.8419395 L19.7333901,16.7102291 L20.1472429,16.7102291 C21.2638761,16.7102291 21.8223466,16.3696083 21.8223466,15.6880589 C21.8223466,15.4022082 21.7026524,15.1852817 21.4632639,15.037587 C21.2238755,14.8895846 20.8832546,14.8157373 20.4410937,14.8157373 C19.8460073,14.8157373 19.14815,15.0283561 18.3472141,15.4539014 L18.1976733,15.4539014 L18.1976733,14.0529559 C19.0419944,13.7372585 19.8546228,13.5791022 20.6355584,13.5791022 Z M28.841228,13.5791022 C29.3003122,13.5791022 29.7092418,13.6206413 30.0683245,13.7037195 L30.0683245,14.9898939 L29.9233991,14.9898939 C29.6080095,14.8369684 29.2267726,14.7606595 28.7815347,14.7606595 C27.4224361,14.7606595 26.6645778,15.4720555 26.5082676,16.8945398 C27.166432,16.5022258 27.7612107,16.3062227 28.2929115,16.3062227 C29.0280002,16.3062227 29.6200097,16.517303 30.0704784,16.9394636 C30.5206394,17.3616241 30.7458738,17.9533259 30.7458738,18.7145688 C30.7458738,19.5056584 30.4760233,20.1512072 29.935707,20.6512152 C29.3953907,21.1518386 28.7018411,21.4016887 27.8541353,21.4016887 C26.8802736,21.4016887 26.1350309,21.1016839 25.6180995,20.5013666 C25.1011682,19.9016647 24.8427025,19.0351894 24.8427025,17.9016328 C24.8427025,16.5089951 25.1842465,15.4403627 25.8673343,14.6957354 C26.5504221,13.9514158 27.5415149,13.5791022 28.841228,13.5791022 Z M34.6302436,13.5794099 C35.6474906,13.5794099 36.3951949,13.8911071 36.8739717,14.514194 C37.3524409,15.1372809 37.5918294,16.1271429 37.5918294,17.4831646 C37.5918294,18.8625712 37.3542871,19.8604333 36.8788949,20.4770586 C36.4035027,21.0936838 35.6539522,21.4016887 34.6302436,21.4016887 C33.6099196,21.4016887 32.8612922,21.0915299 32.3843615,20.4721354 C31.9071231,19.8518178 31.6689655,18.8573404 31.6689655,17.4880877 C31.6689655,16.132066 31.9080462,15.1415887 32.3868231,14.5166556 C32.8656,13.8917225 33.6129965,13.5794099 34.6302436,13.5794099 Z M27.650132,17.4277791 C27.2781261,17.4280867 26.8956584,17.5210113 26.5036522,17.7071681 L26.4984213,17.9114791 C26.4950366,18.0210193 26.4934981,18.1093284 26.4934981,18.175791 C26.4934981,19.5785827 26.94889,20.2795169 27.8596738,20.2795169 C28.2252181,20.2795169 28.5202998,20.1502841 28.7443034,19.8905876 C28.9689223,19.6315066 29.0809241,19.2675008 29.0809241,18.7988779 C29.0809241,17.8847094 28.6036857,17.4277791 27.650132,17.4277791 Z M34.6302436,14.7406592 C34.1646977,14.7406592 33.8317693,14.9591242 33.630843,15.396362 C33.429609,15.833292 33.3292997,16.5323801 33.3292997,17.4927032 C33.3292997,18.4499492 33.4320706,19.1478065 33.6382277,19.5865828 C33.8443849,20.025359 34.1751594,20.2447471 34.6305513,20.2447471 C35.0859432,20.2447471 35.4167177,20.0222821 35.6228748,19.5770442 C35.829032,19.1314986 35.9321105,18.4336413 35.9321105,17.4828569 C35.9321105,16.5256108 35.8314935,15.829292 35.6305672,15.3939004 C35.4287179,14.9585088 35.0954818,14.7406592 34.6302436,14.7406592 Z M39.1712392,12 C40.0433533,12 40.7503414,12.7069881 40.7503414,13.5791022 C40.7503414,14.4512162 40.0433533,15.1582043 39.1712392,15.1582043 C38.2991252,15.1582043 37.5921371,14.4512162 37.5921371,13.5791022 C37.5921371,12.7069881 38.2991252,12 39.1712392,12 Z" id="Combined-Shape" fill="#000000" fill-rule="nonzero"></path>
                </g>
            </g>
        </g>
    </g>
</svg>