<?xml version="1.0" encoding="UTF-8"?>
<svg width="260px" height="59px" viewBox="0 0 260 59" version="1.1" xmlns="http://www.w3.org/2000/svg" xmlns:xlink="http://www.w3.org/1999/xlink">
    <title>CTA</title>
    <g id="Page-1" stroke="none" stroke-width="1" fill="none" fill-rule="evenodd">
        <g id="NatGeo-Solan-Artículo-2" transform="translate(-510.000000, -1439.000000)">
            <g id="CTA" transform="translate(510.000000, 1439.000000)">
                <rect id="Rectangle" fill="#FFCC01" x="0" y="0" width="260" height="59"></rect>
                <path d="M94.185,33 L94.185,30.51 L94.695,30.51 C96.435,30.51 97.625,29.6 97.625,28.11 C97.625,26.61 96.435,25.7 94.695,25.7 L92.285,25.7 L92.285,33 L94.185,33 Z M94.685,28.97 L94.185,28.97 L94.185,27.24 L94.685,27.24 C95.315,27.24 95.695,27.58 95.695,28.11 C95.695,28.63 95.315,28.97 94.685,28.97 Z M101.845,33 L102.365,31.98 L105.245,31.98 L105.755,33 L107.765,33 L103.805,25.38 L99.845,33 L101.845,33 Z M104.525,30.55 L103.085,30.55 L103.805,29.13 L104.525,30.55 Z M113.225,33 L113.225,30.46 L113.615,30.46 L115.265,33 L117.455,33 L115.515,30.06 C116.235,29.67 116.665,29 116.665,28.11 C116.665,26.61 115.465,25.7 113.735,25.7 L111.325,25.7 L111.325,33 L113.225,33 Z M113.725,28.97 L113.225,28.97 L113.225,27.24 L113.725,27.24 C114.355,27.24 114.735,27.58 114.735,28.11 C114.735,28.63 114.355,28.97 113.725,28.97 Z M124.275,33 L124.275,27.26 L126.445,27.26 L126.445,25.7 L120.205,25.7 L120.205,27.26 L122.375,27.26 L122.375,33 L124.275,33 Z M132.205,33 L132.205,25.7 L130.305,25.7 L130.305,33 L132.205,33 Z M140.035,33.12 C140.625,33.12 141.215,33 141.725,32.77 L141.725,30.61 C141.375,31.01 140.795,31.31 140.075,31.31 C138.945,31.31 138.095,30.48 138.095,29.35 C138.095,28.22 138.945,27.39 140.075,27.39 C140.795,27.39 141.375,27.69 141.725,28.09 L141.725,25.93 C141.215,25.7 140.625,25.58 140.035,25.58 C137.905,25.58 136.195,27.27 136.195,29.35 C136.195,31.43 137.905,33.12 140.035,33.12 Z M147.685,33 L147.685,25.7 L145.785,25.7 L145.785,33 L147.685,33 Z M153.895,33 L153.895,30.51 L154.405,30.51 C156.145,30.51 157.335,29.6 157.335,28.11 C157.335,26.61 156.145,25.7 154.405,25.7 L151.995,25.7 L151.995,33 L153.895,33 Z M154.395,28.97 L153.895,28.97 L153.895,27.24 L154.395,27.24 C155.025,27.24 155.405,27.58 155.405,28.11 C155.405,28.63 155.025,28.97 154.395,28.97 Z M161.555,33 L162.075,31.98 L164.955,31.98 L165.465,33 L167.475,33 L163.515,25.38 L159.555,33 L161.555,33 Z M164.235,30.55 L162.795,30.55 L163.515,29.13 L164.235,30.55 Z" id="PARTICIPA" fill="#000000" fill-rule="nonzero"></path>
            </g>
        </g>
    </g>
</svg>