<?xml version="1.0" encoding="UTF-8"?>
<svg width="260px" height="43px" viewBox="0 0 260 43" version="1.1" xmlns="http://www.w3.org/2000/svg" xmlns:xlink="http://www.w3.org/1999/xlink">
    <title>CTA</title>
    <g id="Page-1" stroke="none" stroke-width="1" fill="none" fill-rule="evenodd">
        <g id="NatGeo-Solan-Landing-1" transform="translate(-511.000000, -2341.000000)">
            <g id="Text" transform="translate(145.000000, 2106.000000)">
                <g id="CTA" transform="translate(366.000000, 235.000000)">
                    <rect id="Rectangle" fill="#FFCC01" x="0" y="0" width="260" height="43"></rect>
                    <path d="M100.24,25 L100.24,22.46 L100.63,22.46 L102.28,25 L104.47,25 L102.53,22.06 C103.25,21.67 103.68,21 103.68,20.11 C103.68,18.61 102.48,17.7 100.75,17.7 L98.34,17.7 L98.34,25 L100.24,25 Z M100.74,20.97 L100.24,20.97 L100.24,19.24 L100.74,19.24 C101.37,19.24 101.75,19.58 101.75,20.11 C101.75,20.63 101.37,20.97 100.74,20.97 Z M112.98,25 L112.98,23.44 L110.09,23.44 L110.09,22.05 L112.76,22.05 L112.76,20.49 L110.09,20.49 L110.09,19.26 L112.97,19.26 L112.97,17.7 L108.23,17.7 L108.23,25 L112.98,25 Z M119.57,25 C121.67,25 123.35,23.43 123.35,21.35 C123.35,19.27 121.67,17.7 119.57,17.7 L117.03,17.7 L117.03,25 L119.57,25 Z M119.43,23.44 L118.93,23.44 L118.93,19.26 L119.45,19.26 C120.66,19.26 121.45,20.23 121.45,21.35 C121.45,22.47 120.66,23.44 119.43,23.44 Z M130.32,25.12 C132.06,25.12 133.39,24.01 133.39,22.06 L133.39,17.7 L131.49,17.7 L131.49,22.07 C131.49,22.99 131.03,23.45 130.32,23.45 C129.61,23.45 129.15,22.99 129.15,22.07 L129.15,17.7 L127.25,17.7 L127.25,22.06 C127.25,24.01 128.58,25.12 130.32,25.12 Z M141.13,25.12 C141.72,25.12 142.31,25 142.82,24.77 L142.82,22.61 C142.47,23.01 141.89,23.31 141.17,23.31 C140.04,23.31 139.19,22.48 139.19,21.35 C139.19,20.22 140.04,19.39 141.17,19.39 C141.89,19.39 142.47,19.69 142.82,20.09 L142.82,17.93 C142.31,17.7 141.72,17.58 141.13,17.58 C139,17.58 137.29,19.27 137.29,21.35 C137.29,23.43 139,25.12 141.13,25.12 Z M148.78,25 L148.78,17.7 L146.88,17.7 L146.88,25 L148.78,25 Z M154.99,25 L154.99,22.46 L155.38,22.46 L157.03,25 L159.22,25 L157.28,22.06 C158,21.67 158.43,21 158.43,20.11 C158.43,18.61 157.23,17.7 155.5,17.7 L153.09,17.7 L153.09,25 L154.99,25 Z M155.49,20.97 L154.99,20.97 L154.99,19.24 L155.49,19.24 C156.12,19.24 156.5,19.58 156.5,20.11 C156.5,20.63 156.12,20.97 155.49,20.97 Z" id="REDUCIR" fill="#000000" fill-rule="nonzero"></path>
                </g>
            </g>
        </g>
    </g>
</svg>