<?xml version="1.0" encoding="UTF-8"?>
<svg width="260px" height="43px" viewBox="0 0 260 43" version="1.1" xmlns="http://www.w3.org/2000/svg" xmlns:xlink="http://www.w3.org/1999/xlink">
    <title>CTA</title>
    <g id="Page-1" stroke="none" stroke-width="1" fill="none" fill-rule="evenodd">
        <g id="NatGeo-Solan-Landing-1" transform="translate(-511.000000, -2341.000000)">
            <g id="Text" transform="translate(145.000000, 2106.000000)">
                <g id="CTA" transform="translate(366.000000, 235.000000)">
                    <rect id="Rectangle" fill="#FFCC01" x="0" y="0" width="260" height="43"></rect>
                    <path d="M98.48,25 L98.48,23.44 L95.73,23.44 L95.73,17.7 L93.83,17.7 L93.83,25 L98.48,25 Z M107.09,25 L107.09,23.44 L104.2,23.44 L104.2,22.05 L106.87,22.05 L106.87,20.49 L104.2,20.49 L104.2,19.26 L107.08,19.26 L107.08,17.7 L102.34,17.7 L102.34,25 L107.09,25 Z M115.89,25 L115.89,23.44 L113,23.44 L113,22.05 L115.67,22.05 L115.67,20.49 L113,20.49 L113,19.26 L115.88,19.26 L115.88,17.7 L111.14,17.7 L111.14,25 L115.89,25 Z M121.84,25 L121.84,22.46 L122.23,22.46 L123.88,25 L126.07,25 L124.13,22.06 C124.85,21.67 125.28,21 125.28,20.11 C125.28,18.61 124.08,17.7 122.35,17.7 L119.94,17.7 L119.94,25 L121.84,25 Z M122.34,20.97 L121.84,20.97 L121.84,19.24 L122.34,19.24 C122.97,19.24 123.35,19.58 123.35,20.11 C123.35,20.63 122.97,20.97 122.34,20.97 Z M139.32,25.2 L141.41,21.61 L142.45,25 L144.39,25 L142.04,17.38 L139.32,21.98 L136.6,17.38 L134.25,25 L136.19,25 L137.23,21.61 L139.32,25.2 Z M152.16,17.2 L153.99,15.5 L151.65,15.5 L150.57,17.2 L152.16,17.2 Z M149.37,25 L149.89,23.98 L152.77,23.98 L153.28,25 L155.29,25 L151.33,17.38 L147.37,25 L149.37,25 Z M152.05,22.55 L150.61,22.55 L151.33,21.13 L152.05,22.55 Z M160.81,25.12 C162.36,25.12 163.57,24.25 163.57,22.76 C163.57,21.66 162.95,21.12 161.76,20.61 L160.65,20.14 C160.4,20.03 160.28,19.89 160.28,19.68 C160.28,19.34 160.59,19.18 161.02,19.18 C161.77,19.18 162.54,19.63 163.12,20.19 L163.12,18.28 C162.77,17.95 161.97,17.58 161.1,17.58 C159.63,17.58 158.47,18.46 158.47,19.84 C158.47,20.93 159.15,21.42 159.99,21.81 L161.22,22.35 C161.5,22.47 161.78,22.61 161.78,22.96 C161.78,23.34 161.42,23.53 160.85,23.53 C159.98,23.53 159.16,23.01 158.51,22.53 L158.51,24.41 C159.01,24.77 159.84,25.12 160.81,25.12 Z" id="LEERMÃS" fill="#000000" fill-rule="nonzero"></path>
                </g>
            </g>
        </g>
    </g>
</svg>