<?xml version="1.0" encoding="UTF-8"?>
<svg width="405px" height="73px" viewBox="0 0 405 73" version="1.1" xmlns="http://www.w3.org/2000/svg" xmlns:xlink="http://www.w3.org/1999/xlink">
    <title>CTA 1</title>
    <g id="Page-1" stroke="none" stroke-width="1" fill="none" fill-rule="evenodd">
        <g id="NatGeo-Solan-Landing-1" transform="translate(-422.000000, -574.000000)">
            <g id="Hero" transform="translate(0.000000, 121.000000)">
                <g id="CTA-1" transform="translate(422.000000, 453.448000)">
                    <rect id="Rectangle" fill="#FFCC01" x="0" y="0" width="405" height="72"></rect>
                    <path d="M25.815,32 L26.335,30.98 L29.215,30.98 L29.725,32 L31.735,32 L27.775,24.38 L23.815,32 L25.815,32 Z M28.495,29.55 L27.055,29.55 L27.775,28.13 L28.495,29.55 Z M38.215,32.12 C38.805,32.12 39.395,32 39.905,31.77 L39.905,29.61 C39.555,30.01 38.975,30.31 38.255,30.31 C37.125,30.31 36.275,29.48 36.275,28.35 C36.275,27.22 37.125,26.39 38.255,26.39 C38.975,26.39 39.555,26.69 39.905,27.09 L39.905,24.93 C39.395,24.7 38.805,24.58 38.215,24.58 C36.085,24.58 34.375,26.27 34.375,28.35 C34.375,30.43 36.085,32.12 38.215,32.12 Z M47.485,32.12 C48.075,32.12 48.665,32 49.175,31.77 L49.175,29.61 C48.825,30.01 48.245,30.31 47.525,30.31 C46.395,30.31 45.545,29.48 45.545,28.35 C45.545,27.22 46.395,26.39 47.525,26.39 C48.245,26.39 48.825,26.69 49.175,27.09 L49.175,24.93 C48.665,24.7 48.075,24.58 47.485,24.58 C45.355,24.58 43.645,26.27 43.645,28.35 C43.645,30.43 45.355,32.12 47.485,32.12 Z M57.985,32 L57.985,30.44 L55.095,30.44 L55.095,29.05 L57.765,29.05 L57.765,27.49 L55.095,27.49 L55.095,26.26 L57.975,26.26 L57.975,24.7 L53.235,24.7 L53.235,32 L57.985,32 Z M64.575,32 C66.675,32 68.355,30.43 68.355,28.35 C68.355,26.27 66.675,24.7 64.575,24.7 L62.035,24.7 L62.035,32 L64.575,32 Z M64.435,30.44 L63.935,30.44 L63.935,26.26 L64.455,26.26 C65.665,26.26 66.455,27.23 66.455,28.35 C66.455,29.47 65.665,30.44 64.435,30.44 Z M77.105,32 L77.105,30.44 L74.215,30.44 L74.215,29.05 L76.885,29.05 L76.885,27.49 L74.215,27.49 L74.215,26.26 L77.095,26.26 L77.095,24.7 L72.355,24.7 L72.355,32 L77.105,32 Z M87.395,32 L87.915,30.98 L90.795,30.98 L91.305,32 L93.315,32 L89.355,24.38 L85.395,32 L87.395,32 Z M90.075,29.55 L88.635,29.55 L89.355,28.13 L90.075,29.55 Z M104.845,32.12 C106.585,32.12 107.915,31.01 107.915,29.06 L107.915,24.7 L106.015,24.7 L106.015,29.07 C106.015,29.99 105.555,30.45 104.845,30.45 C104.135,30.45 103.675,29.99 103.675,29.07 L103.675,24.7 L101.775,24.7 L101.775,29.06 C101.775,31.01 103.105,32.12 104.845,32.12 Z M118.895,32.31 L118.895,24.7 L117.045,24.7 L117.045,28.51 L112.135,24.39 L112.135,32 L113.985,32 L113.985,28.2 L118.895,32.31 Z M124.455,32 L124.975,30.98 L127.855,30.98 L128.365,32 L130.375,32 L126.415,24.38 L122.455,32 L124.455,32 Z M127.135,29.55 L125.695,29.55 L126.415,28.13 L127.135,29.55 Z M140.835,32 L140.835,24.7 L138.935,24.7 L138.935,32 L140.835,32 Z M151.905,32.31 L151.905,24.7 L150.055,24.7 L150.055,28.51 L145.145,24.39 L145.145,32 L146.995,32 L146.995,28.2 L151.905,32.31 Z M162.985,32.31 L162.985,24.7 L161.135,24.7 L161.135,28.51 L156.225,24.39 L156.225,32 L158.075,32 L158.075,28.2 L162.985,32.31 Z M170.765,32.12 C172.865,32.12 174.545,30.43 174.545,28.35 C174.545,26.27 172.865,24.58 170.765,24.58 C168.665,24.58 166.985,26.27 166.985,28.35 C166.985,30.43 168.665,32.12 170.765,32.12 Z M170.765,30.36 C169.725,30.36 168.885,29.54 168.885,28.35 C168.885,27.16 169.725,26.34 170.765,26.34 C171.805,26.34 172.645,27.16 172.645,28.35 C172.645,29.54 171.805,30.36 170.765,30.36 Z M181.145,32.32 L185.105,24.7 L183.075,24.7 L181.195,28.59 L179.285,24.7 L177.185,24.7 L181.145,32.32 Z M188.455,32 L188.975,30.98 L191.855,30.98 L192.365,32 L194.375,32 L190.415,24.38 L186.455,32 L188.455,32 Z M191.135,29.55 L189.695,29.55 L190.415,28.13 L191.135,29.55 Z M200.475,32 C202.575,32 204.255,30.43 204.255,28.35 C204.255,26.27 202.575,24.7 200.475,24.7 L197.935,24.7 L197.935,32 L200.475,32 Z M200.335,30.44 L199.835,30.44 L199.835,26.26 L200.355,26.26 C201.565,26.26 202.355,27.23 202.355,28.35 C202.355,29.47 201.565,30.44 200.335,30.44 Z M211.715,32.12 C213.815,32.12 215.495,30.43 215.495,28.35 C215.495,26.27 213.815,24.58 211.715,24.58 C209.615,24.58 207.935,26.27 207.935,28.35 C207.935,30.43 209.615,32.12 211.715,32.12 Z M211.715,30.36 C210.675,30.36 209.835,29.54 209.835,28.35 C209.835,27.16 210.675,26.34 211.715,26.34 C212.755,26.34 213.595,27.16 213.595,28.35 C213.595,29.54 212.755,30.36 211.715,30.36 Z M221.395,32 L221.395,29.46 L221.785,29.46 L223.435,32 L225.625,32 L223.685,29.06 C224.405,28.67 224.835,28 224.835,27.11 C224.835,25.61 223.635,24.7 221.905,24.7 L219.495,24.7 L219.495,32 L221.395,32 Z M221.895,27.97 L221.395,27.97 L221.395,26.24 L221.895,26.24 C222.525,26.24 222.905,26.58 222.905,27.11 C222.905,27.63 222.525,27.97 221.895,27.97 Z M230.425,32 L230.945,30.98 L233.825,30.98 L234.335,32 L236.345,32 L232.385,24.38 L228.425,32 L230.425,32 Z M233.105,29.55 L231.665,29.55 L232.385,28.13 L233.105,29.55 Z M249.655,32 L249.655,30.44 L246.765,30.44 L246.765,29.05 L249.435,29.05 L249.435,27.49 L246.765,27.49 L246.765,26.26 L249.645,26.26 L249.645,24.7 L244.905,24.7 L244.905,32 L249.655,32 Z M255.165,32 L256.885,29.59 L258.585,32 L260.735,32 L257.945,28.15 L260.435,24.7 L258.345,24.7 L256.905,26.74 L255.455,24.7 L253.305,24.7 L255.835,28.18 L253.075,32 L255.165,32 Z M266.325,32 L266.325,29.51 L266.835,29.51 C268.575,29.51 269.765,28.6 269.765,27.11 C269.765,25.61 268.575,24.7 266.835,24.7 L264.425,24.7 L264.425,32 L266.325,32 Z M266.825,27.97 L266.325,27.97 L266.325,26.24 L266.825,26.24 C267.455,26.24 267.835,26.58 267.835,27.11 C267.835,27.63 267.455,27.97 266.825,27.97 Z M278.295,32 L278.295,30.44 L275.405,30.44 L275.405,29.05 L278.075,29.05 L278.075,27.49 L275.405,27.49 L275.405,26.26 L278.285,26.26 L278.285,24.7 L273.545,24.7 L273.545,32 L278.295,32 Z M284.245,32 L284.245,29.46 L284.635,29.46 L286.285,32 L288.475,32 L286.535,29.06 C287.255,28.67 287.685,28 287.685,27.11 C287.685,25.61 286.485,24.7 284.755,24.7 L282.345,24.7 L282.345,32 L284.245,32 Z M284.745,27.97 L284.245,27.97 L284.245,26.24 L284.745,26.24 C285.375,26.24 285.755,26.58 285.755,27.11 C285.755,27.63 285.375,27.97 284.745,27.97 Z M294.135,32 L294.135,24.7 L292.235,24.7 L292.235,32 L294.135,32 Z M303.195,32 L303.195,30.44 L300.305,30.44 L300.305,29.05 L302.975,29.05 L302.975,27.49 L300.305,27.49 L300.305,26.26 L303.185,26.26 L303.185,24.7 L298.445,24.7 L298.445,32 L303.195,32 Z M314.005,32.31 L314.005,24.7 L312.155,24.7 L312.155,28.51 L307.245,24.39 L307.245,32 L309.095,32 L309.095,28.2 L314.005,32.31 Z M321.845,32.12 C322.435,32.12 323.025,32 323.535,31.77 L323.535,29.61 C323.185,30.01 322.605,30.31 321.885,30.31 C320.755,30.31 319.905,29.48 319.905,28.35 C319.905,27.22 320.755,26.39 321.885,26.39 C322.605,26.39 323.185,26.69 323.535,27.09 L323.535,24.93 C323.025,24.7 322.435,24.58 321.845,24.58 C319.715,24.58 318.005,26.27 318.005,28.35 C318.005,30.43 319.715,32.12 321.845,32.12 Z M329.495,32 L329.495,24.7 L327.595,24.7 L327.595,32 L329.495,32 Z M335.045,32 L335.565,30.98 L338.445,30.98 L338.955,32 L340.965,32 L337.005,24.38 L333.045,32 L335.045,32 Z M337.725,29.55 L336.285,29.55 L337.005,28.13 L337.725,29.55 Z M351.195,32.12 C352.645,32.12 354.005,31.2 354.005,29.62 C354.005,28.74 353.515,27.91 352.585,27.57 L354.195,24.7 L349.225,24.7 L349.225,26.26 L351.525,26.26 L350.255,28.47 C351.345,28.54 352.225,28.85 352.225,29.62 C352.225,30.2 351.685,30.55 351.035,30.55 C350.345,30.55 349.655,30.25 349.095,29.75 L349.095,31.51 C349.595,31.86 350.205,32.12 351.195,32.12 Z M360.245,32.12 C361.825,32.12 362.985,30.98 362.985,29.44 C362.985,28.01 361.945,26.95 360.525,26.92 L361.815,24.7 L359.815,24.7 L358.205,27.42 C357.695,28.28 357.515,28.84 357.515,29.45 C357.515,30.98 358.695,32.12 360.245,32.12 Z M360.245,30.5 C359.665,30.5 359.215,30.02 359.215,29.44 C359.215,28.86 359.665,28.38 360.245,28.38 C360.825,28.38 361.275,28.86 361.275,29.44 C361.275,30.02 360.825,30.5 360.245,30.5 Z M369.695,32.12 C371.475,32.12 372.845,30.58 372.845,28.35 C372.845,26.12 371.475,24.58 369.695,24.58 C367.915,24.58 366.545,26.12 366.545,28.35 C366.545,30.58 367.915,32.12 369.695,32.12 Z M369.695,30.42 C368.895,30.42 368.415,29.51 368.415,28.35 C368.415,27.19 368.895,26.28 369.695,26.28 C370.495,26.28 370.975,27.19 370.975,28.35 C370.975,29.51 370.495,30.42 369.695,30.42 Z M377.175,32.08 C377.795,32.08 378.295,31.6 378.295,30.97 C378.295,30.34 377.795,29.86 377.175,29.86 L377.155,29.86 C376.535,29.86 376.035,30.34 376.035,30.97 C376.035,31.6 376.535,32.08 377.155,32.08 L377.175,32.08 Z M48.14,45.224 C50.24,45.224 51.92,43.654 51.92,41.574 C51.92,39.494 50.24,37.924 48.14,37.924 L45.6,37.924 L45.6,45.224 L48.14,45.224 Z M48,43.664 L47.5,43.664 L47.5,39.484 L48.02,39.484 C49.23,39.484 50.02,40.454 50.02,41.574 C50.02,42.694 49.23,43.664 48,43.664 Z M57.82,45.224 L57.82,37.924 L55.92,37.924 L55.92,45.224 L57.82,45.224 Z M64.09,45.344 C65.64,45.344 66.85,44.474 66.85,42.984 C66.85,41.884 66.23,41.344 65.04,40.834 L63.93,40.364 C63.68,40.254 63.56,40.114 63.56,39.904 C63.56,39.564 63.87,39.404 64.3,39.404 C65.05,39.404 65.82,39.854 66.4,40.414 L66.4,38.504 C66.05,38.174 65.25,37.804 64.38,37.804 C62.91,37.804 61.75,38.684 61.75,40.064 C61.75,41.154 62.43,41.644 63.27,42.034 L64.5,42.574 C64.78,42.694 65.06,42.834 65.06,43.184 C65.06,43.564 64.7,43.754 64.13,43.754 C63.26,43.754 62.44,43.234 61.79,42.754 L61.79,44.634 C62.29,44.994 63.12,45.344 64.09,45.344 Z M72.63,45.224 L72.63,42.364 L75.21,42.364 L75.21,40.804 L72.63,40.804 L72.63,39.484 L75.43,39.484 L75.43,37.924 L70.77,37.924 L70.77,45.224 L72.63,45.224 Z M81.26,45.224 L81.26,42.684 L81.65,42.684 L83.3,45.224 L85.49,45.224 L83.55,42.284 C84.27,41.894 84.7,41.224 84.7,40.334 C84.7,38.834 83.5,37.924 81.77,37.924 L79.36,37.924 L79.36,45.224 L81.26,45.224 Z M81.76,41.194 L81.26,41.194 L81.26,39.464 L81.76,39.464 C82.39,39.464 82.77,39.804 82.77,40.334 C82.77,40.854 82.39,41.194 81.76,41.194 Z M91.92,45.344 C93.66,45.344 94.99,44.234 94.99,42.284 L94.99,37.924 L93.09,37.924 L93.09,42.294 C93.09,43.214 92.63,43.674 91.92,43.674 C91.21,43.674 90.75,43.214 90.75,42.294 L90.75,37.924 L88.85,37.924 L88.85,42.284 C88.85,44.234 90.18,45.344 91.92,45.344 Z M102.82,45.224 L102.82,39.484 L104.99,39.484 L104.99,37.924 L98.75,37.924 L98.75,39.484 L100.92,39.484 L100.92,45.224 L102.82,45.224 Z M109.09,45.224 L109.61,44.204 L112.49,44.204 L113,45.224 L115.01,45.224 L111.05,37.604 L107.09,45.224 L109.09,45.224 Z M111.77,42.774 L110.33,42.774 L111.05,41.354 L111.77,42.774 Z M124.81,45.224 L125.33,44.204 L128.21,44.204 L128.72,45.224 L130.73,45.224 L126.77,37.604 L122.81,45.224 L124.81,45.224 Z M127.49,42.774 L126.05,42.774 L126.77,41.354 L127.49,42.774 Z M138.94,45.224 L138.94,43.664 L136.19,43.664 L136.19,37.924 L134.29,37.924 L134.29,45.224 L138.94,45.224 Z M152.29,45.424 L154.38,41.834 L155.42,45.224 L157.36,45.224 L155.01,37.604 L152.29,42.204 L149.57,37.604 L147.22,45.224 L149.16,45.224 L150.2,41.834 L152.29,45.424 Z M165.13,37.424 L166.96,35.724 L164.62,35.724 L163.54,37.424 L165.13,37.424 Z M162.34,45.224 L162.86,44.204 L165.74,44.204 L166.25,45.224 L168.26,45.224 L164.3,37.604 L160.34,45.224 L162.34,45.224 Z M165.02,42.774 L163.58,42.774 L164.3,41.354 L165.02,42.774 Z M173.28,45.224 L175,42.814 L176.7,45.224 L178.85,45.224 L176.06,41.374 L178.55,37.924 L176.46,37.924 L175.02,39.964 L173.57,37.924 L171.42,37.924 L173.95,41.404 L171.19,45.224 L173.28,45.224 Z M184.44,45.224 L184.44,37.924 L182.54,37.924 L182.54,45.224 L184.44,45.224 Z M193.24,45.424 L195.33,41.834 L196.37,45.224 L198.31,45.224 L195.96,37.604 L193.24,42.204 L190.52,37.604 L188.17,45.224 L190.11,45.224 L191.15,41.834 L193.24,45.424 Z M205.16,45.344 C207.26,45.344 208.94,43.654 208.94,41.574 C208.94,39.494 207.26,37.804 205.16,37.804 C203.06,37.804 201.38,39.494 201.38,41.574 C201.38,43.654 203.06,45.344 205.16,45.344 Z M205.16,43.584 C204.12,43.584 203.28,42.764 203.28,41.574 C203.28,40.384 204.12,39.564 205.16,39.564 C206.2,39.564 207.04,40.384 207.04,41.574 C207.04,42.764 206.2,43.584 205.16,43.584 Z M222.69,45.224 L222.69,43.664 L219.8,43.664 L219.8,42.274 L222.47,42.274 L222.47,40.714 L219.8,40.714 L219.8,39.484 L222.68,39.484 L222.68,37.924 L217.94,37.924 L217.94,45.224 L222.69,45.224 Z M233.5,45.534 L233.5,37.924 L231.65,37.924 L231.65,41.734 L226.74,37.614 L226.74,45.224 L228.59,45.224 L228.59,41.424 L233.5,45.534 Z M246.43,45.224 L246.43,39.484 L248.6,39.484 L248.6,37.924 L242.36,37.924 L242.36,39.484 L244.53,39.484 L244.53,45.224 L246.43,45.224 Z M255.43,45.344 C257.17,45.344 258.5,44.234 258.5,42.284 L258.5,37.924 L256.6,37.924 L256.6,42.294 C256.6,43.214 256.14,43.674 255.43,43.674 C254.72,43.674 254.26,43.214 254.26,42.294 L254.26,37.924 L252.36,37.924 L252.36,42.284 C252.36,44.234 253.69,45.344 255.43,45.344 Z M271.18,45.344 C273.28,45.344 274.96,43.654 274.96,41.574 C274.96,39.494 273.28,37.804 271.18,37.804 C269.08,37.804 267.4,39.494 267.4,41.574 C267.4,43.654 269.08,45.344 271.18,45.344 Z M271.18,43.584 C270.14,43.584 269.3,42.764 269.3,41.574 C269.3,40.384 270.14,39.564 271.18,39.564 C272.22,39.564 273.06,40.384 273.06,41.574 C273.06,42.764 272.22,43.584 271.18,43.584 Z M280.86,45.224 L280.86,42.684 L281.25,42.684 L282.9,45.224 L285.09,45.224 L283.15,42.284 C283.87,41.894 284.3,41.224 284.3,40.334 C284.3,38.834 283.1,37.924 281.37,37.924 L278.96,37.924 L278.96,45.224 L280.86,45.224 Z M281.36,41.194 L280.86,41.194 L280.86,39.464 L281.36,39.464 C281.99,39.464 282.37,39.804 282.37,40.334 C282.37,40.854 281.99,41.194 281.36,41.194 Z M291.39,45.224 C293.49,45.224 295.17,43.654 295.17,41.574 C295.17,39.494 293.49,37.924 291.39,37.924 L288.85,37.924 L288.85,45.224 L291.39,45.224 Z M291.25,43.664 L290.75,43.664 L290.75,39.484 L291.27,39.484 C292.48,39.484 293.27,40.454 293.27,41.574 C293.27,42.694 292.48,43.664 291.25,43.664 Z M303.92,45.224 L303.92,43.664 L301.03,43.664 L301.03,42.274 L303.7,42.274 L303.7,40.714 L301.03,40.714 L301.03,39.484 L303.91,39.484 L303.91,37.924 L299.17,37.924 L299.17,45.224 L303.92,45.224 Z M314.73,45.534 L314.73,37.924 L312.88,37.924 L312.88,41.734 L307.97,37.614 L307.97,45.224 L309.82,45.224 L309.82,41.424 L314.73,45.534 Z M320.29,45.224 L320.81,44.204 L323.69,44.204 L324.2,45.224 L326.21,45.224 L322.25,37.604 L318.29,45.224 L320.29,45.224 Z M322.97,42.774 L321.53,42.774 L322.25,41.354 L322.97,42.774 Z M332.31,45.224 C334.41,45.224 336.09,43.654 336.09,41.574 C336.09,39.494 334.41,37.924 332.31,37.924 L329.77,37.924 L329.77,45.224 L332.31,45.224 Z M332.17,43.664 L331.67,43.664 L331.67,39.484 L332.19,39.484 C333.4,39.484 334.19,40.454 334.19,41.574 C334.19,42.694 333.4,43.664 332.17,43.664 Z M343.55,45.344 C345.65,45.344 347.33,43.654 347.33,41.574 C347.33,39.494 345.65,37.804 343.55,37.804 C341.45,37.804 339.77,39.494 339.77,41.574 C339.77,43.654 341.45,45.344 343.55,45.344 Z M343.55,43.584 C342.51,43.584 341.67,42.764 341.67,41.574 C341.67,40.384 342.51,39.564 343.55,39.564 C344.59,39.564 345.43,40.384 345.43,41.574 C345.43,42.764 344.59,43.584 343.55,43.584 Z M353.23,45.224 L353.23,42.684 L353.62,42.684 L355.27,45.224 L357.46,45.224 L355.52,42.284 C356.24,41.894 356.67,41.224 356.67,40.334 C356.67,38.834 355.47,37.924 353.74,37.924 L351.33,37.924 L351.33,45.224 L353.23,45.224 Z M353.73,41.194 L353.23,41.194 L353.23,39.464 L353.73,39.464 C354.36,39.464 354.74,39.804 354.74,40.334 C354.74,40.854 354.36,41.194 353.73,41.194 Z" id="ACCEDEAUNAINNOVADORAEXPERIENCIA360.DISFRUTAALMÃXIMOENTUORDENADOR" fill="#000000" fill-rule="nonzero"></path>
                </g>
            </g>
        </g>
    </g>
</svg>