<?xml version="1.0" encoding="UTF-8"?>
<svg width="260px" height="44px" viewBox="0 0 260 44" version="1.1" xmlns="http://www.w3.org/2000/svg" xmlns:xlink="http://www.w3.org/1999/xlink">
    <title>CTA 1</title>
    <g id="Page-1" stroke="none" stroke-width="1" fill="none" fill-rule="evenodd">
        <g id="NatGeo-Solan-Landing-1" transform="translate(-511.000000, -583.000000)">
            <g id="Hero" transform="translate(0.000000, 121.000000)">
                <g id="CTA-1" transform="translate(511.000000, 462.448000)">
                    <rect id="Rectangle" fill="#FFCC01" x="0" y="0" width="260" height="43"></rect>
                    <path d="M50.27,25 C52.37,25 54.05,23.43 54.05,21.35 C54.05,19.27 52.37,17.7 50.27,17.7 L47.73,17.7 L47.73,25 L50.27,25 Z M50.13,23.44 L49.63,23.44 L49.63,19.26 L50.15,19.26 C51.36,19.26 52.15,20.23 52.15,21.35 C52.15,22.47 51.36,23.44 50.13,23.44 Z M62.8,25 L62.8,23.44 L59.91,23.44 L59.91,22.05 L62.58,22.05 L62.58,20.49 L59.91,20.49 L59.91,19.26 L62.79,19.26 L62.79,17.7 L58.05,17.7 L58.05,25 L62.8,25 Z M68.91,25.12 C70.46,25.12 71.67,24.25 71.67,22.76 C71.67,21.66 71.05,21.12 69.86,20.61 L68.75,20.14 C68.5,20.03 68.38,19.89 68.38,19.68 C68.38,19.34 68.69,19.18 69.12,19.18 C69.87,19.18 70.64,19.63 71.22,20.19 L71.22,18.28 C70.87,17.95 70.07,17.58 69.2,17.58 C67.73,17.58 66.57,18.46 66.57,19.84 C66.57,20.93 67.25,21.42 68.09,21.81 L69.32,22.35 C69.6,22.47 69.88,22.61 69.88,22.96 C69.88,23.34 69.52,23.53 68.95,23.53 C68.08,23.53 67.26,23.01 66.61,22.53 L66.61,24.41 C67.11,24.77 67.94,25.12 68.91,25.12 Z M79.11,25.12 C79.7,25.12 80.29,25 80.8,24.77 L80.8,22.61 C80.45,23.01 79.87,23.31 79.15,23.31 C78.02,23.31 77.17,22.48 77.17,21.35 C77.17,20.22 78.02,19.39 79.15,19.39 C79.87,19.39 80.45,19.69 80.8,20.09 L80.8,17.93 C80.29,17.7 79.7,17.58 79.11,17.58 C76.98,17.58 75.27,19.27 75.27,21.35 C75.27,23.43 76.98,25.12 79.11,25.12 Z M87.83,25.12 C89.57,25.12 90.9,24.01 90.9,22.06 L90.9,17.7 L89,17.7 L89,22.07 C89,22.99 88.54,23.45 87.83,23.45 C87.12,23.45 86.66,22.99 86.66,22.07 L86.66,17.7 L84.76,17.7 L84.76,22.06 C84.76,24.01 86.09,25.12 87.83,25.12 Z M98.02,25 C99.71,25 100.67,24.15 100.67,22.87 C100.67,22.06 100.12,21.39 99.37,21.14 C99.8,20.89 100.23,20.4 100.23,19.68 C100.23,18.48 99.36,17.7 97.65,17.7 L95.12,17.7 L95.12,25 L98.02,25 Z M97.55,20.65 L96.97,20.65 L96.97,19.26 L97.55,19.26 C98.07,19.26 98.39,19.51 98.39,19.96 C98.39,20.4 98.07,20.65 97.55,20.65 Z M97.89,23.44 L96.97,23.44 L96.97,22.03 L97.89,22.03 C98.43,22.03 98.74,22.34 98.74,22.73 C98.74,23.13 98.43,23.44 97.89,23.44 Z M106.55,25 L106.55,22.46 L106.94,22.46 L108.59,25 L110.78,25 L108.84,22.06 C109.56,21.67 109.99,21 109.99,20.11 C109.99,18.61 108.79,17.7 107.06,17.7 L104.65,17.7 L104.65,25 L106.55,25 Z M107.05,20.97 L106.55,20.97 L106.55,19.24 L107.05,19.24 C107.68,19.24 108.06,19.58 108.06,20.11 C108.06,20.63 107.68,20.97 107.05,20.97 Z M119.29,25 L119.29,23.44 L116.4,23.44 L116.4,22.05 L119.07,22.05 L119.07,20.49 L116.4,20.49 L116.4,19.26 L119.28,19.26 L119.28,17.7 L114.54,17.7 L114.54,25 L119.29,25 Z M131.31,25.12 C133.05,25.12 134.38,24.01 134.38,22.06 L134.38,17.7 L132.48,17.7 L132.48,22.07 C132.48,22.99 132.02,23.45 131.31,23.45 C130.6,23.45 130.14,22.99 130.14,22.07 L130.14,17.7 L128.24,17.7 L128.24,22.06 C128.24,24.01 129.57,25.12 131.31,25.12 Z M145.36,25.31 L145.36,17.7 L143.51,17.7 L143.51,21.51 L138.6,17.39 L138.6,25 L140.45,25 L140.45,21.2 L145.36,25.31 Z M155.92,25 L156.44,23.98 L159.32,23.98 L159.83,25 L161.84,25 L157.88,17.38 L153.92,25 L155.92,25 Z M158.6,22.55 L157.16,22.55 L157.88,21.13 L158.6,22.55 Z M167.15,25.32 L171.11,17.7 L169.08,17.7 L167.2,21.59 L165.29,17.7 L163.19,17.7 L167.15,25.32 Z M174.46,25 L174.98,23.98 L177.86,23.98 L178.37,25 L180.38,25 L176.42,17.38 L172.46,25 L174.46,25 Z M177.14,22.55 L175.7,22.55 L176.42,21.13 L177.14,22.55 Z M190.7,25.31 L190.7,17.7 L188.85,17.7 L188.85,21.51 L183.94,17.39 L183.94,25 L185.79,25 L185.79,21.2 L190.7,25.31 Z M198.54,25.12 C199.13,25.12 199.72,25 200.23,24.77 L200.23,22.61 C199.88,23.01 199.3,23.31 198.58,23.31 C197.45,23.31 196.6,22.48 196.6,21.35 C196.6,20.22 197.45,19.39 198.58,19.39 C199.3,19.39 199.88,19.69 200.23,20.09 L200.23,17.93 C199.72,17.7 199.13,17.58 198.54,17.58 C196.41,17.58 194.7,19.27 194.7,21.35 C194.7,23.43 196.41,25.12 198.54,25.12 Z M209.04,25 L209.04,23.44 L206.15,23.44 L206.15,22.05 L208.82,22.05 L208.82,20.49 L206.15,20.49 L206.15,19.26 L209.03,19.26 L209.03,17.7 L204.29,17.7 L204.29,25 L209.04,25 Z" id="DESCUBREUNAVANCE" fill="#000000" fill-rule="nonzero"></path>
                </g>
            </g>
        </g>
    </g>
</svg>