<?xml version="1.0" standalone="no"?>
<!DOCTYPE svg PUBLIC "-//W3C//DTD SVG 1.1//EN" "http://www.w3.org/Graphics/SVG/1.1/DTD/svg11.dtd" >
<svg xmlns="http://www.w3.org/2000/svg" xmlns:xlink="http://www.w3.org/1999/xlink" version="1.1">
<metadata>
Created by FontForge 20170731 at Fri Jun 11 11:34:24 2021
 By Aleksey,,,
(c) 2017 Klim Type Foundry. All Rights Reserved.
</metadata>
<defs>
<font id="Geograph-Bold" horiz-adv-x="1228" >
  <font-face 
    font-family="Geograph"
    font-weight="700"
    font-stretch="normal"
    units-per-em="2048"
    panose-1="2 11 8 3 3 2 2 6 2 3"
    ascent="1587"
    descent="-461"
    x-height="1055"
    cap-height="1495"
    bbox="-434 -508 2210 2085"
    underline-thickness="153"
    underline-position="-468"
    unicode-range="U+0020-2212"
  />
<missing-glyph horiz-adv-x="1241" 
 />
    <glyph glyph-name=".notdef" horiz-adv-x="1241" 
 />
    <glyph glyph-name=".null" horiz-adv-x="972" 
 />
    <glyph glyph-name="nonmarkingreturn" horiz-adv-x="682" 
 />
    <glyph glyph-name="space" unicode=" " horiz-adv-x="425" 
 />
    <glyph glyph-name="exclam" unicode="!" horiz-adv-x="610" 
d="M104 1495h402l-74 -985h-254zM307 379q83 0 141 -56.5t58 -140.5t-58 -140t-141 -56h-4q-84 0 -141.5 56t-57.5 140t57.5 140.5t141.5 56.5h4z" />
    <glyph glyph-name="quotedbl" unicode="&#x22;" horiz-adv-x="915" 
d="M135 891l-61 604h340l-62 -604h-217zM563 891l-61 604h340l-62 -604h-217z" />
    <glyph glyph-name="numbersign" unicode="#" horiz-adv-x="1701" 
d="M150 0l153 393h-197v219h285l105 271h-283v219h371l153 393h267l-154 -393h280l154 393h266l-153 -393h198v-219h-284l-107 -271h285v-219h-371l-153 -393h-269l154 393h-281l-153 -393h-266zM657 612h281l104 271h-280z" />
    <glyph glyph-name="dollar" unicode="$" horiz-adv-x="1181" 
d="M70 143v301q209 -161 413 -188v397l-94 33q-149 52 -234 142t-85 237q0 164 114.5 276.5t298.5 143.5v160h226v-158q99 -13 185.5 -50t139.5 -83v-299q-149 136 -325 176v-357l47 -16q189 -63 276.5 -158t87.5 -249q0 -170 -113 -285.5t-298 -151.5v-168h-226v156
q-123 10 -230.5 48.5t-182.5 92.5zM477 952l6 -2v283q-145 -31 -145 -141q0 -50 34 -81.5t105 -58.5zM856 420q0 56 -36.5 89t-110.5 64v-305q147 41 147 152z" />
    <glyph glyph-name="percent" unicode="%" horiz-adv-x="1662" 
d="M410 1520q141 0 241.5 -100t100.5 -242q0 -144 -100 -244t-242 -100q-141 0 -240.5 100t-99.5 244q0 142 99.5 242t240.5 100zM186 0l1002 1495h287l-1002 -1495h-287zM410 1315q-56 0 -95 -40t-39 -97q0 -58 39 -98t95 -40t94.5 40t38.5 98q0 57 -39 97t-94 40z
M1251 -25q-141 0 -240.5 100t-99.5 242q0 144 99.5 244.5t240.5 100.5q142 0 242 -100.5t100 -244.5q0 -142 -100.5 -242t-241.5 -100zM1251 180q55 0 94 40t39 97q0 58 -38.5 98t-94.5 40t-94.5 -40t-38.5 -98q0 -57 39 -97t94 -40z" />
    <glyph glyph-name="ampersand" unicode="&#x26;" horiz-adv-x="1542" 
d="M1065 1137q0 -64 -22.5 -120t-64 -100t-86.5 -77t-104 -66l195 -203l182 205h361l-359 -399l361 -377h-387l-164 172q-106 -98 -212 -147.5t-226 -49.5q-214 0 -347 119.5t-133 302.5q0 271 301 422l-20 21q-121 128 -121 290q0 113 60 204t157.5 139.5t212.5 48.5
q111 0 205.5 -47t152.5 -136t58 -202zM584 989l47 -49q151 85 151 182q0 60 -38 100t-99 40q-56 0 -95.5 -35.5t-39.5 -93.5q0 -64 74 -144zM354 436q0 -85 56.5 -138.5t142.5 -53.5q68 0 122.5 29t117.5 92l-273 286q-78 -40 -122 -91t-44 -124z" />
    <glyph glyph-name="quotesingle" unicode="'" horiz-adv-x="487" 
d="M135 891l-61 604h340l-62 -604h-217z" />
    <glyph glyph-name="parenleft" unicode="(" horiz-adv-x="792" 
d="M461 -242q-161 171 -260 406t-99 493t99 493t260 406h323q-177 -200 -276.5 -430.5t-99.5 -468.5t99.5 -468.5t276.5 -430.5h-323z" />
    <glyph glyph-name="parenright" unicode=")" horiz-adv-x="792" 
d="M332 -242h-324q177 200 277 430.5t100 468.5t-100 468.5t-277 430.5h324q161 -170 259.5 -405t98.5 -494t-98.5 -494t-259.5 -405z" />
    <glyph glyph-name="asterisk" unicode="*" horiz-adv-x="815" 
d="M256 1206l-190 107l79 133l187 -107v217h155v-217l185 107l80 -133l-189 -107l189 -108l-80 -133l-185 106v-215h-155v215l-187 -106l-79 133z" />
    <glyph glyph-name="plus" unicode="+" 
d="M1161 586h-424v-422h-248v422h-421v250h421v421h248v-421h424v-250z" />
    <glyph glyph-name="comma" unicode="," horiz-adv-x="561" 
d="M211 -295l-203 59l146 609l344 -113z" />
    <glyph glyph-name="hyphen" unicode="-" horiz-adv-x="743" 
d="M100 766h545v-309h-545v309z" />
    <glyph glyph-name="period" unicode="." horiz-adv-x="561" 
d="M283 379q83 0 140.5 -56.5t57.5 -140.5t-57.5 -140t-140.5 -56h-4q-84 0 -141.5 56t-57.5 140t57.5 140.5t141.5 56.5h4z" />
    <glyph glyph-name="slash" unicode="/" horiz-adv-x="1148" 
d="M41 -242l750 1798h317l-750 -1798h-317z" />
    <glyph glyph-name="zero" unicode="0" horiz-adv-x="1384" 
d="M692 1520q132 0 247.5 -57.5t198.5 -158t131 -245t48 -311.5q0 -223 -81.5 -400t-224.5 -275t-319 -98t-318.5 98t-224 275t-81.5 400t81.5 400t224 274.5t318.5 97.5zM692 1227q-136 0 -218.5 -136.5t-82.5 -342.5t82.5 -343t218.5 -137t218.5 137t82.5 343t-82.5 342.5
t-218.5 136.5z" />
    <glyph glyph-name="one" unicode="1" horiz-adv-x="862" 
d="M711 1550v-1550h-328v1100l-340 -156v318z" />
    <glyph glyph-name="two" unicode="2" horiz-adv-x="1114" 
d="M539 270h522v-270h-1086l447 561q67 85 103.5 133.5t81.5 117.5t65 123.5t20 102.5q0 87 -54 137t-155 50q-105 0 -218 -59t-199 -136v316q88 76 211.5 125t257.5 49q215 0 349 -124t134 -319q0 -131 -59.5 -247.5t-184.5 -270.5z" />
    <glyph glyph-name="three" unicode="3" horiz-adv-x="1091" 
d="M78 1225v270h985l-358 -592q153 -44 241 -159t88 -265q0 -115 -46.5 -211t-125 -159.5t-180 -98.5t-211.5 -35q-250 0 -426 127v310q87 -78 190.5 -121t208.5 -43q119 0 201 64t82 167q0 86 -59 145.5t-153 87.5t-218 31l301 482h-520z" />
    <glyph glyph-name="four" unicode="4" horiz-adv-x="1304" 
d="M985 1495l-516 -917h303v305h291v-305h221v-256h-221v-322h-291v322h-762l656 1173h319z" />
    <glyph glyph-name="five" unicode="5" horiz-adv-x="1067" 
d="M479 1225l-33 -248q117 -11 215.5 -46.5t177 -95.5t123 -153t44.5 -211q0 -150 -75 -264t-205 -173t-294 -59q-107 0 -212.5 31.5t-170.5 81.5v309q71 -63 173 -106t202 -43q119 0 195.5 56t76.5 163q0 72 -47 125.5t-129 83.5t-176.5 44t-204.5 15l90 760h746v-270h-496
z" />
    <glyph glyph-name="six" unicode="6" horiz-adv-x="1214" 
d="M641 1030q220 0 367 -146.5t147 -367.5q0 -152 -71.5 -276t-197.5 -194.5t-280 -70.5q-231 0 -389 155t-158 384q0 91 30.5 181t103.5 216l346 584h344l-275 -467q12 2 33 2zM606 776q-106 0 -179 -75.5t-73 -184.5q0 -108 73.5 -184t178.5 -76q106 0 179 76t73 184
q0 109 -72.5 184.5t-179.5 75.5z" />
    <glyph glyph-name="seven" unicode="7" horiz-adv-x="1181" 
d="M1178 1495l-607 -1495h-333l503 1225h-698v270h1135z" />
    <glyph glyph-name="eight" unicode="8" horiz-adv-x="1204" 
d="M1143 418q0 -126 -71.5 -227.5t-195.5 -158.5t-274 -57t-274 57t-195.5 158.5t-71.5 227.5q0 124 71 217t165 133q-80 47 -133 133.5t-53 190.5q0 124 67.5 222.5t179 152t244.5 53.5t245 -53.5t179.5 -152t67.5 -222.5q0 -104 -53.5 -190.5t-133.5 -133.5
q94 -40 165 -133t71 -217zM602 1274q-88 0 -144.5 -52.5t-56.5 -134.5t56.5 -135t144.5 -53t144.5 53t56.5 135t-56.5 134.5t-144.5 52.5zM602 643q-98 0 -162.5 -58.5t-64.5 -146.5q0 -89 64.5 -148t162.5 -59t162.5 59t64.5 148q0 88 -64.5 146.5t-162.5 58.5z" />
    <glyph glyph-name="nine" unicode="9" horiz-adv-x="1214" 
d="M573 465q-220 0 -367 146.5t-147 367.5q0 152 71.5 276t197.5 194.5t280 70.5q231 0 389 -155t158 -384q0 -91 -30 -181.5t-103 -215.5l-346 -584h-344l274 467q-12 -2 -33 -2zM608 719q106 0 179 75.5t73 184.5q0 108 -73.5 184t-178.5 76q-106 0 -179 -76t-73 -184
q0 -109 72.5 -184.5t179.5 -75.5z" />
    <glyph glyph-name="colon" unicode=":" horiz-adv-x="561" 
d="M283 1042q82 0 140 -56.5t58 -139.5q0 -84 -57.5 -140.5t-140.5 -56.5h-4q-84 0 -141.5 56.5t-57.5 140.5q0 83 57.5 139.5t141.5 56.5h4zM283 379q83 0 140.5 -56.5t57.5 -140.5t-57.5 -140t-140.5 -56h-4q-84 0 -141.5 56t-57.5 140t57.5 140.5t141.5 56.5h4z" />
    <glyph glyph-name="semicolon" unicode=";" horiz-adv-x="561" 
d="M283 1042q82 0 140 -56.5t58 -139.5q0 -84 -57.5 -140.5t-140.5 -56.5h-4q-84 0 -141.5 56.5t-57.5 140.5q0 83 57.5 139.5t141.5 56.5h4zM211 -295l-203 59l146 609l344 -113z" />
    <glyph glyph-name="less" unicode="&#x3c;" 
d="M86 532v351l1057 448v-301l-817 -323l817 -324v-299z" />
    <glyph glyph-name="equal" unicode="=" 
d="M76 825v230h1077v-230h-1077zM76 369v229h1077v-229h-1077z" />
    <glyph glyph-name="greater" unicode="&#x3e;" 
d="M1143 883v-351l-1057 -448v299l817 324l-817 323v301z" />
    <glyph glyph-name="question" unicode="?" horiz-adv-x="1052" 
d="M322 510l208 258q5 6 24 29.5t23.5 29.5t20.5 26.5t20.5 28t16.5 26t16 28t11.5 26t10 29.5t5 28.5t2.5 31.5q0 77 -53.5 122.5t-145.5 45.5q-101 0 -214 -55.5t-201 -147.5v346q77 66 198.5 112t243.5 46q225 0 362.5 -129.5t137.5 -323.5q0 -60 -19 -119.5t-60 -124
t-71 -103.5t-86 -108l-84 -102h-366zM506 379q83 0 141 -56.5t58 -140.5t-58 -140t-141 -56h-4q-84 0 -141.5 56t-57.5 140t57.5 140.5t141.5 56.5h4z" />
    <glyph glyph-name="at" unicode="@" horiz-adv-x="1863" 
d="M1333 61q-136 0 -223 80q-99 -86 -256 -86q-139 0 -238.5 83t-99.5 220q0 127 102 205t248 78q61 0 118 -16.5t85 -38.5v37q0 60 -51 96.5t-144 36.5q-128 0 -251 -70v236q124 67 307 67q195 0 301 -93t106 -265v-367q20 -14 52 -14q37 0 72 20t66 59.5t49.5 107.5
t18.5 155q0 175 -84.5 309t-229 204.5t-325.5 70.5q-141 0 -266 -49.5t-217 -137.5t-145.5 -218.5t-53.5 -283.5q0 -135 43.5 -247t115 -187t165.5 -127.5t194 -76t203 -23.5q310 0 543 141v-198q-96 -62 -239.5 -98t-301.5 -36q-141 0 -275 35.5t-250.5 107t-204.5 171.5
t-138.5 239t-50.5 299q0 183 67.5 346t183.5 280t278.5 185t346.5 68q234 0 424 -99t299 -276.5t109 -396.5q0 -122 -37.5 -224.5t-100.5 -169t-144.5 -103t-170.5 -36.5zM1073 358q0 48 -45.5 77.5t-105.5 29.5q-61 0 -105.5 -29t-44.5 -78q0 -51 44.5 -80.5t105.5 -29.5
q60 0 105.5 29.5t45.5 80.5z" />
    <glyph glyph-name="A" unicode="A" horiz-adv-x="1554" 
d="M778 1556l783 -1556h-347l-131 270h-614l-131 -270h-344zM778 905l-186 -385h373z" />
    <glyph glyph-name="B" unicode="B" horiz-adv-x="1292" 
d="M150 0v1495h468q250 0 383.5 -107t133.5 -292q0 -107 -55 -186t-140 -119q127 -38 207 -134.5t80 -226.5q0 -198 -143 -314t-392 -116h-542zM467 874h133q101 0 159 45.5t58 129.5q0 85 -58 130.5t-159 45.5h-133v-351zM467 270h203q102 0 163.5 50.5t61.5 132.5
t-61.5 132t-163.5 50h-203v-365z" />
    <glyph glyph-name="C" unicode="C" horiz-adv-x="1308" 
d="M858 287q112 0 205.5 41t157.5 112v-374q-168 -91 -369 -91q-159 0 -303.5 61.5t-248 165t-165 246.5t-61.5 300t61.5 300t165 246.5t248 164.5t303.5 61q203 0 369 -90v-375q-64 71 -157.5 112t-205.5 41q-194 0 -325.5 -132t-131.5 -328t131.5 -328.5t325.5 -132.5z
" />
    <glyph glyph-name="D" unicode="D" horiz-adv-x="1480" 
d="M150 1495h487q158 0 300.5 -57.5t245.5 -156t163.5 -237.5t60.5 -296q0 -209 -102.5 -381t-279.5 -269.5t-388 -97.5h-487v1495zM616 1225h-141v-955h137q137 0 244.5 65.5t165 174t57.5 238.5t-57.5 238.5t-164 173.5t-241.5 65z" />
    <glyph glyph-name="E" unicode="E" horiz-adv-x="1183" 
d="M150 0v1495h942v-270h-623v-326h575v-270h-575v-359h627v-270h-946z" />
    <glyph glyph-name="F" unicode="F" horiz-adv-x="1132" 
d="M150 0v1495h921v-270h-602v-340h553v-271h-553v-614h-319z" />
    <glyph glyph-name="G" unicode="G" horiz-adv-x="1581" 
d="M1468 852v-586q-97 -132 -261 -211.5t-367 -79.5q-209 0 -385 102.5t-278.5 279t-102.5 386.5q0 159 60 301t165 247.5t258 167t330 61.5q161 0 294 -49.5t214 -118.5v-381q-96 109 -230.5 177.5t-277.5 68.5q-215 0 -350.5 -133t-135.5 -341q0 -199 130 -334t325 -135
q177 0 291 88v220h-344l76 270h589z" />
    <glyph glyph-name="H" unicode="H" horiz-adv-x="1576" 
d="M1100 0v629h-625v-629h-325v1495h325v-596h625v596h327v-1495h-327z" />
    <glyph glyph-name="I" unicode="I" horiz-adv-x="622" 
d="M150 1495h325v-1495h-325v1495z" />
    <glyph glyph-name="J" unicode="J" horiz-adv-x="983" 
d="M858 510q0 -248 -143 -391.5t-377 -143.5q-158 0 -277 66v315q102 -92 238 -92q106 0 169.5 67t63.5 189v975h326v-985z" />
    <glyph glyph-name="K" unicode="K" horiz-adv-x="1433" 
d="M809 813l610 -813h-381l-563 745v-745h-325v1495h325v-657l518 657h385z" />
    <glyph glyph-name="L" unicode="L" horiz-adv-x="1105" 
d="M150 0v1495h325v-1225h590v-270h-915z" />
    <glyph glyph-name="M" unicode="M" horiz-adv-x="2082" 
d="M1042 541l551 1015l461 -1556h-334l-229 795l-449 -836l-452 836l-228 -795h-333l458 1556z" />
    <glyph glyph-name="N" unicode="N" horiz-adv-x="1648" 
d="M1180 616v879h319v-1554l-1032 936v-877h-320v1554z" />
    <glyph glyph-name="O" unicode="O" horiz-adv-x="1685" 
d="M842 1520q158 0 300.5 -61t245.5 -164.5t163.5 -246.5t60.5 -300t-60.5 -300t-163.5 -246.5t-245.5 -165t-300.5 -61.5q-157 0 -299.5 61.5t-245 165t-163 246.5t-60.5 300q0 210 102.5 387.5t279.5 281t386 103.5zM842 1217q-185 0 -313 -133.5t-128 -335.5t128 -335.5
t313 -133.5q186 0 314 133.5t128 335.5t-128 335.5t-314 133.5z" />
    <glyph glyph-name="P" unicode="P" horiz-adv-x="1216" 
d="M604 545h-129v-545h-325v1495h454q260 0 420 -128t160 -349q0 -146 -74 -254t-204.5 -163.5t-301.5 -55.5zM475 1229v-418h127q115 0 182.5 55.5t67.5 151.5q0 99 -67.5 155t-182.5 56h-127z" />
    <glyph glyph-name="Q" unicode="Q" horiz-adv-x="1685" 
d="M1628 0h-366l-60 66q-169 -91 -360 -91q-157 0 -299.5 61.5t-245 165t-163 246.5t-60.5 300q0 210 102.5 387.5t279.5 281t386 103.5q158 0 300.5 -61t245.5 -164.5t163.5 -246.5t60.5 -300q0 -145 -51 -277.5t-144 -237.5zM842 1217q-185 0 -313 -133.5t-128 -335.5
t128 -335.5t313 -133.5q76 0 147 24l-336 373h367l184 -205q80 119 80 277q0 202 -128 335.5t-314 133.5z" />
    <glyph glyph-name="R" unicode="R" horiz-adv-x="1376" 
d="M475 553v-553h-325v1495h454q259 0 419.5 -128t160.5 -349q0 -142 -70 -245.5t-196 -160.5l434 -612h-379l-387 553h-111zM475 1229v-418h127q115 0 182.5 55.5t67.5 151.5q0 99 -67.5 155t-182.5 56h-127z" />
    <glyph glyph-name="S" unicode="S" horiz-adv-x="1138" 
d="M68 453q253 -201 469 -201q104 0 165.5 40.5t61.5 115.5q0 59 -34 92.5t-103 66.5l-252 115q-71 34 -119.5 66t-94 78t-68.5 108.5t-23 140.5q0 132 68.5 234t185 156.5t260.5 54.5q122 0 232 -43t175 -103v-334q-94 92 -203 147.5t-219 55.5q-84 0 -135 -37t-51 -104
q0 -45 28 -75.5t83 -57.5l231 -105q182 -79 265 -173.5t83 -250.5q0 -142 -73 -249t-195.5 -161.5t-274.5 -54.5q-137 0 -259 42.5t-203 105.5v330z" />
    <glyph glyph-name="T" unicode="T" horiz-adv-x="1335" 
d="M1294 1225h-463v-1225h-327v1225h-463v270h1253v-270z" />
    <glyph glyph-name="U" unicode="U" horiz-adv-x="1468" 
d="M451 596q0 -161 76.5 -246.5t207.5 -85.5t207 85.5t76 246.5v899h328v-899q0 -191 -81.5 -334t-219 -215t-310.5 -72q-129 0 -240.5 42.5t-193.5 120.5t-129 196t-47 262v899h326v-899z" />
    <glyph glyph-name="V" unicode="V" horiz-adv-x="1554" 
d="M778 -61l-784 1556h360l432 -909l426 909h349z" />
    <glyph glyph-name="W" unicode="W" horiz-adv-x="2136" 
d="M1067 868l-412 -929l-659 1556h354l344 -842l381 883l383 -883l344 842h336l-657 -1556z" />
    <glyph glyph-name="X" unicode="X" horiz-adv-x="1544" 
d="M1159 0l-391 541l-393 -541h-361l574 784l-522 711h368l338 -465l336 465h360l-516 -707l578 -788h-371z" />
    <glyph glyph-name="Y" unicode="Y" horiz-adv-x="1433" 
d="M881 0h-328v657l-559 838h368l353 -534l356 534h369l-559 -838v-657z" />
    <glyph glyph-name="Z" unicode="Z" horiz-adv-x="1370" 
d="M563 270h729v-270h-1249l756 1225h-715v270h1233z" />
    <glyph glyph-name="bracketleft" unicode="[" horiz-adv-x="761" 
d="M461 1313v-1311h248v-244h-545v1798h545v-243h-248z" />
    <glyph glyph-name="backslash" unicode="\" horiz-adv-x="1148" 
d="M1108 -242h-317l-750 1798h317z" />
    <glyph glyph-name="bracketright" unicode="]" horiz-adv-x="761" 
d="M301 1313h-248v243h545v-1798h-545v244h248v1311z" />
    <glyph glyph-name="asciicircum" unicode="^" horiz-adv-x="974" 
d="M356 1495h265l319 -539h-289l-164 295l-161 -295h-291z" />
    <glyph glyph-name="underscore" unicode="_" horiz-adv-x="792" 
d="M100 -68h594v-276h-594v276z" />
    <glyph glyph-name="grave" unicode="`" 
d="M864 1206h-239l-260 350h354z" />
    <glyph glyph-name="a" unicode="a" horiz-adv-x="1144" 
d="M711 0v66q-32 -35 -101.5 -63t-154.5 -28q-107 0 -197 42.5t-145.5 125t-55.5 189.5q0 150 118.5 245t289.5 95q75 0 144 -23t102 -53v45q0 73 -62.5 119.5t-177.5 46.5q-141 0 -291 -84v276q65 35 163.5 57.5t199.5 22.5q226 0 351.5 -112t125.5 -314v-653h-309z
M715 332q0 58 -54.5 92.5t-125.5 34.5q-74 0 -128.5 -34.5t-54.5 -92.5q0 -60 54.5 -94.5t128.5 -34.5q71 0 125.5 34.5t54.5 94.5z" />
    <glyph glyph-name="b" unicode="b" horiz-adv-x="1341" 
d="M770 1079q214 0 360 -158.5t146 -394.5q0 -234 -146 -392.5t-360 -158.5q-104 0 -188 39.5t-129 98.5v-113h-320v1556h320v-614q45 58 129 97.5t188 39.5zM702 805q-111 0 -184.5 -79t-73.5 -200q0 -120 73.5 -199t184.5 -79q108 0 182 79.5t74 198.5q0 120 -74 199.5
t-182 79.5z" />
    <glyph glyph-name="c" unicode="c" horiz-adv-x="935" 
d="M647 254q113 0 207 65v-301q-93 -43 -225 -43q-150 0 -278.5 70.5t-206.5 198t-78 282.5q0 157 78 285t206.5 198t278.5 70q127 0 225 -45v-299q-100 66 -207 66q-113 0 -194.5 -77t-81.5 -198q0 -119 81.5 -195.5t194.5 -76.5z" />
    <glyph glyph-name="d" unicode="d" horiz-adv-x="1341" 
d="M571 1079q104 0 188.5 -40t129.5 -97v614h319v-1556h-319v113q-45 -58 -129.5 -98t-188.5 -40q-214 0 -359.5 158.5t-145.5 392.5q0 236 145.5 394.5t359.5 158.5zM639 805q-108 0 -182 -79.5t-74 -199.5q0 -119 74 -198.5t182 -79.5q111 0 184.5 79t73.5 199
q0 121 -73.5 200t-184.5 79z" />
    <glyph glyph-name="e" unicode="e" horiz-adv-x="1179" 
d="M68 524q0 117 44.5 221t118.5 176.5t172.5 115t204.5 42.5q108 0 196.5 -32.5t148.5 -91t99 -138.5t53 -174.5t5 -200.5h-743q26 -99 112.5 -151.5t216.5 -52.5q87 0 177.5 27.5t156.5 74.5v-272q-149 -93 -375 -93q-164 0 -298.5 70t-211.5 196t-77 283zM604 825
q-82 0 -142.5 -47.5t-86.5 -132.5h440q-8 72 -63.5 126t-147.5 54z" />
    <glyph glyph-name="f" unicode="f" horiz-adv-x="784" 
d="M762 1552v-264q-40 25 -98 25q-67 0 -106.5 -39.5t-39.5 -110.5v-108h223v-254h-223v-801h-315v801h-166v254h166v125q0 185 106 293t287 108q104 0 166 -29z" />
    <glyph glyph-name="g" unicode="g" horiz-adv-x="1335" 
d="M1202 1055v-957q0 -113 -35 -206.5t-94.5 -156.5t-140.5 -106.5t-171.5 -63.5t-189.5 -20q-108 0 -209.5 25.5t-168.5 67.5v313q151 -125 372 -125q135 0 226.5 64.5t91.5 187.5v84q-47 -56 -129.5 -94.5t-184.5 -38.5q-134 0 -248 67t-182.5 188t-68.5 269
q0 149 68.5 270.5t182.5 188.5t248 67q101 0 183.5 -39.5t130.5 -95.5v111h319zM887 553q0 108 -73.5 179t-176.5 71t-176.5 -71t-73.5 -179t73.5 -180t176.5 -72t176.5 72t73.5 180z" />
    <glyph glyph-name="h" unicode="h" horiz-adv-x="1249" 
d="M453 594v-594h-320v1556h320v-606q45 58 119.5 93.5t166.5 35.5q178 0 281.5 -108.5t103.5 -288.5v-682h-321v594q0 84 -45.5 140.5t-128.5 56.5q-82 0 -129 -57t-47 -140z" />
    <glyph glyph-name="i" unicode="i" horiz-adv-x="583" 
d="M295 1550q74 0 127 -52t53 -128q0 -74 -53 -126t-127 -52h-4q-75 0 -127.5 51.5t-52.5 126.5q0 76 52.5 128t127.5 52h4zM133 1055h320v-1055h-320v1055z" />
    <glyph glyph-name="j" unicode="j" horiz-adv-x="583" 
d="M295 1550q74 0 127 -52t53 -128q0 -74 -53 -126t-127 -52h-4q-75 0 -127.5 51.5t-52.5 126.5q0 76 52.5 128t127.5 52h4zM133 -33v1088h320v-1073q0 -190 -122 -306t-306 -116q-57 0 -101 8v256q31 -8 60 -8q70 0 109.5 40t39.5 111z" />
    <glyph glyph-name="k" unicode="k" horiz-adv-x="1218" 
d="M133 1556h318v-956l356 455h373l-406 -492l420 -563h-375l-368 514v-514h-318v1556z" />
    <glyph glyph-name="l" unicode="l" horiz-adv-x="583" 
d="M133 1556h320v-1556h-320v1556z" />
    <glyph glyph-name="m" unicode="m" horiz-adv-x="1841" 
d="M1083 618v-618h-319v618q0 73 -41.5 123t-114.5 50q-72 0 -113.5 -49.5t-41.5 -123.5v-618h-320v1055h320v-105q40 59 114.5 94t165.5 35q185 0 291 -143q128 143 326 143q168 0 267 -107t99 -288v-684h-321v618q0 73 -41 123t-113 50q-74 0 -116 -49.5t-42 -123.5z" />
    <glyph glyph-name="n" unicode="n" horiz-adv-x="1249" 
d="M453 594v-594h-320v1055h320v-105q45 58 119.5 93.5t166.5 35.5q178 0 281.5 -108.5t103.5 -288.5v-682h-321v594q0 84 -45.5 140.5t-128.5 56.5q-82 0 -129 -57t-47 -140z" />
    <glyph glyph-name="o" unicode="o" horiz-adv-x="1271" 
d="M635 -25q-153 0 -282.5 70.5t-207 197.5t-77.5 283t77.5 283.5t207.5 198.5t282 71q153 0 283.5 -71t208 -198.5t77.5 -283.5t-77.5 -283t-207.5 -197.5t-284 -70.5zM635 805q-108 0 -180 -78.5t-72 -200.5q0 -121 72 -198.5t180 -77.5q109 0 180.5 77.5t71.5 198.5
q0 122 -71.5 200.5t-180.5 78.5z" />
    <glyph glyph-name="p" unicode="p" horiz-adv-x="1341" 
d="M770 1079q214 0 360 -158.5t146 -394.5q0 -234 -146 -392.5t-360 -158.5q-104 0 -188 39.5t-129 98.5v-543h-320v1485h320v-113q45 58 129 97.5t188 39.5zM702 805q-111 0 -184.5 -79t-73.5 -200q0 -120 73.5 -199t184.5 -79q108 0 182 79.5t74 198.5q0 120 -74 199.5
t-182 79.5z" />
    <glyph glyph-name="q" unicode="q" horiz-adv-x="1341" 
d="M571 1079q104 0 188.5 -40t129.5 -97v113h319v-1485h-319v543q-45 -58 -129.5 -98t-188.5 -40q-214 0 -359.5 158.5t-145.5 392.5q0 236 145.5 394.5t359.5 158.5zM639 805q-108 0 -182 -79.5t-74 -199.5q0 -119 74 -198.5t182 -79.5q111 0 184.5 79t73.5 199
q0 121 -73.5 200t-184.5 79z" />
    <glyph glyph-name="r" unicode="r" horiz-adv-x="833" 
d="M776 1073v-321q-149 20 -237 -43t-88 -213v-496h-322v1055h322v-148q49 77 133.5 123.5t191.5 42.5z" />
    <glyph glyph-name="s" unicode="s" horiz-adv-x="917" 
d="M80 360q71 -65 167.5 -102t188.5 -37q54 0 88.5 20.5t34.5 57.5q0 28 -16.5 43.5t-57.5 34.5l-198 82q-94 40 -145.5 104t-51.5 174q0 143 114 242.5t288 99.5q166 0 299 -86v-280q-158 116 -297 116q-51 0 -79 -19t-28 -54q0 -29 21 -46.5t73 -39.5l183 -78
q98 -39 147 -104.5t49 -168.5q0 -105 -61 -184.5t-156.5 -119.5t-206.5 -40q-205 0 -356 97v288z" />
    <glyph glyph-name="t" unicode="t" horiz-adv-x="870" 
d="M512 387q0 -67 36.5 -102t98.5 -35q85 0 150 53v-283q-88 -45 -213 -45q-173 0 -282 97.5t-109 279.5v449h-168v254h168v225l319 96v-321h264v-254h-264v-414z" />
    <glyph glyph-name="u" unicode="u" horiz-adv-x="1245" 
d="M791 455v600h321v-1055h-321v102q-44 -56 -119 -91.5t-166 -35.5q-178 0 -279.5 108.5t-101.5 287.5v684h321v-600q0 -85 44 -141t126 -56t128.5 57t46.5 140z" />
    <glyph glyph-name="v" unicode="v" horiz-adv-x="1210" 
d="M614 514l265 541h338l-613 -1112l-610 1112h354z" />
    <glyph glyph-name="w" unicode="w" horiz-adv-x="1724" 
d="M866 1100l279 -584l250 539h336l-566 -1114l-303 610l-301 -610l-567 1114h342l252 -539z" />
    <glyph glyph-name="x" unicode="x" horiz-adv-x="1183" 
d="M813 0l-229 326l-230 -326h-342l398 535l-371 520h356l203 -295l209 295h338l-369 -508l393 -547h-356z" />
    <glyph glyph-name="y" unicode="y" horiz-adv-x="1208" 
d="M104 -430l334 614l-446 871h346l268 -547l268 547h343l-781 -1485h-332z" />
    <glyph glyph-name="z" unicode="z" horiz-adv-x="1067" 
d="M518 252h475v-252h-954l491 801h-458v254h936z" />
    <glyph glyph-name="braceleft" unicode="{" horiz-adv-x="806" 
d="M549 1202v-270q0 -128 -64.5 -199t-165.5 -76q101 -5 165.5 -75.5t64.5 -198.5v-270q0 -59 21.5 -85t68.5 -26h115v-244h-205q-139 0 -215 76.5t-76 226.5v289q0 172 -156 172h-61v271h61q156 0 156 172v288q0 150 76 226.5t215 76.5h205v-243h-115q-47 0 -68.5 -26
t-21.5 -85z" />
    <glyph glyph-name="bar" unicode="|" horiz-adv-x="626" 
d="M164 0v1495h301v-1495h-301z" />
    <glyph glyph-name="braceright" unicode="}" horiz-adv-x="806" 
d="M246 1202q0 59 -21.5 85t-68.5 26h-115v243h205q139 0 215 -76.5t76 -226.5v-288q0 -172 155 -172h62v-271h-62q-155 0 -155 -172v-289q0 -150 -76 -226.5t-215 -76.5h-205v244h115q47 0 68.5 26t21.5 85v270q0 128 64 198.5t165 75.5q-100 5 -164.5 76t-64.5 199v270z
" />
    <glyph glyph-name="asciitilde" unicode="~" horiz-adv-x="1050" 
d="M313 469h-213q0 173 65.5 269t184.5 96q51 0 98 -21.5t75 -47.5t62.5 -47.5t63.5 -21.5q88 0 88 125h215q0 -171 -66 -266.5t-186 -95.5q-51 0 -97.5 21.5t-74.5 47t-62 47t-63 21.5q-90 0 -90 -127z" />
    <glyph glyph-name="uni00A0" unicode="&#xa0;" horiz-adv-x="425" 
 />
    <glyph glyph-name="exclamdown" unicode="&#xa1;" horiz-adv-x="610" 
d="M307 1116h-4q-84 0 -141.5 56.5t-57.5 140.5t57.5 140t141.5 56h4q83 0 141 -56t58 -140t-58 -140.5t-141 -56.5zM104 0l74 985h254l74 -985h-402z" />
    <glyph glyph-name="cent" unicode="&#xa2;" horiz-adv-x="1009" 
d="M504 -154v177q-187 48 -307.5 192t-120.5 336q0 194 120 338t308 192v207h223v-186q108 -12 193 -49v-269q-89 60 -193 68v-600q106 8 193 67v-270q-96 -36 -193 -47v-156h-223zM344 551q0 -91 42.5 -158.5t117.5 -103.5v526q-75 -36 -117.5 -104t-42.5 -160z" />
    <glyph glyph-name="sterling" unicode="&#xa3;" horiz-adv-x="1193" 
d="M102 623v241h174v92q0 252 159 408t405 156q181 0 288 -70v-287q-120 74 -264 74q-131 0 -207.5 -82.5t-76.5 -226.5v-64h301v-241h-301v-129q0 -70 -20.5 -132.5t-53.5 -95.5h639v-266h-1073v266h39q165 0 165 211v146h-174z" />
    <glyph glyph-name="yen" unicode="&#xa5;" horiz-adv-x="1417" 
d="M250 289v215h303v121h-303v215h231l-475 655h369l334 -502l333 502h369l-475 -655h231v-215h-303v-121h303v-215h-303v-289h-311v289h-303z" />
    <glyph glyph-name="section" unicode="&#xa7;" horiz-adv-x="1124" 
d="M954 295q0 -140 -118.5 -230t-296.5 -90q-106 0 -200 29t-159 76v274q77 -57 174.5 -94t175.5 -37q48 0 78.5 20.5t30.5 53.5q0 24 -13 40.5t-42 35.5l-285 143q-209 105 -209 277q0 81 39 142t111 95q-70 73 -70 170q0 140 119 230t299 90q104 0 197.5 -29t158.5 -76
v-274q-76 57 -173.5 94t-174.5 37q-50 0 -79.5 -20t-29.5 -54q0 -24 13 -40.5t43 -35.5l282 -143q211 -106 211 -277q0 -166 -151 -237q69 -72 69 -170zM449 729l235 -133q27 7 44 30t17 50t-16 47t-53 43l-234 133q-28 -7 -45.5 -30t-17.5 -50q0 -26 17 -46.5t53 -43.5z
" />
    <glyph glyph-name="dieresis" unicode="&#xa8;" 
d="M408 1542q69 0 118 -48t49 -118q0 -69 -49 -116.5t-118 -47.5h-2q-69 0 -118.5 47.5t-49.5 116.5q0 70 49 118t119 48h2zM823 1542q70 0 119 -48t49 -118q0 -69 -49.5 -116.5t-118.5 -47.5h-2q-69 0 -118.5 47.5t-49.5 116.5q0 70 49 118t119 48h2z" />
    <glyph glyph-name="copyright" unicode="&#xa9;" horiz-adv-x="1654" 
d="M827 1520q122 0 236.5 -39t206 -110.5t161 -166.5t107 -212.5t37.5 -243.5q0 -157 -59 -300t-159 -246.5t-239 -165t-291 -61.5t-290.5 61.5t-238.5 165t-159 246.5t-59 300t59 300t159 246.5t238.5 164.5t290.5 61zM827 80q175 0 322.5 90t233 243.5t85.5 334.5
t-85.5 334.5t-233 243t-322.5 89.5t-322.5 -89.5t-233 -243t-85.5 -334.5t85.5 -334.5t233 -243.5t322.5 -90zM887 500q130 0 209 82v-271q-104 -55 -232 -55q-135 0 -248.5 65.5t-179 178t-65.5 245.5q0 132 65.5 245.5t179.5 180t248 66.5q130 0 232 -57v-269
q-82 82 -209 82q-113 0 -188.5 -70.5t-75.5 -177.5q0 -105 75.5 -175t188.5 -70z" />
    <glyph glyph-name="ordfeminine" unicode="&#xaa;" horiz-adv-x="880" 
d="M524 745v41q-20 -21 -68.5 -39t-105.5 -18q-120 0 -202 69t-82 187q0 109 89 174.5t216 65.5q86 0 153 -43v41q0 36 -41 62t-123 26q-101 0 -208 -58v211q114 56 266 56q168 0 261 -81t93 -231v-463h-248zM528 985q0 37 -33.5 58.5t-78.5 21.5q-48 0 -83.5 -21t-35.5 -59
t35.5 -59t83.5 -21q45 0 78.5 21.5t33.5 58.5zM84 442v205h690v-205h-690z" />
    <glyph glyph-name="guillemotleft" unicode="&#xab;" horiz-adv-x="1150" 
d="M305 942h318l-258 -418l258 -418h-318l-260 418zM788 942h318l-258 -418l258 -418h-318l-260 418z" />
    <glyph glyph-name="registered" unicode="&#xae;" horiz-adv-x="985" 
d="M59 1081q0 188 127 313.5t308 125.5q179 0 305.5 -125.5t126.5 -313.5t-126 -313t-306 -125q-181 0 -308 125t-127 313zM133 1081q0 -159 104.5 -262.5t256.5 -103.5q150 0 253 103.5t103 262.5q0 158 -103.5 262.5t-252.5 104.5q-151 0 -256 -104.5t-105 -262.5z
M457 1004h-27v-150h-125v459h187q79 0 131.5 -41t52.5 -113q0 -46 -26.5 -81t-63.5 -50l145 -174h-153zM483 1106q30 0 48 13t18 36q0 26 -18 39.5t-48 13.5h-53v-102h53z" />
    <glyph glyph-name="macron" unicode="&#xaf;" 
d="M319 1227v221h590v-221h-590z" />
    <glyph glyph-name="degree" unicode="&#xb0;" horiz-adv-x="854" 
d="M426 1520q137 0 233.5 -97.5t96.5 -238.5q0 -139 -96.5 -237.5t-233.5 -98.5q-135 0 -231.5 98.5t-96.5 237.5q0 140 96 238t232 98zM426 1335q-60 0 -102.5 -43.5t-42.5 -107.5q0 -63 42.5 -107.5t102.5 -44.5q61 0 104 44.5t43 107.5q0 64 -42.5 107.5t-104.5 43.5z
" />
    <glyph glyph-name="twosuperior" unicode="&#xb2;" horiz-adv-x="729" 
d="M420 868h231v-194h-628l227 303q137 179 137 244q0 71 -84 71q-94 0 -227 -102v225q49 41 121.5 67.5t150.5 26.5q123 0 202 -73t79 -183q0 -66 -27 -124.5t-86 -137.5z" />
    <glyph glyph-name="threesuperior" unicode="&#xb3;" horiz-adv-x="729" 
d="M96 1298v197h574l-187 -317q78 -30 121 -89.5t43 -142.5q0 -87 -47 -154t-120 -100t-158 -33q-136 0 -238 70v219q103 -90 217 -90q51 0 84 23.5t33 64.5q0 103 -209 117l141 235h-254z" />
    <glyph glyph-name="acute" unicode="&#xb4;" 
d="M365 1206l145 350h354l-260 -350h-239z" />
    <glyph glyph-name="paragraph" unicode="&#xb6;" horiz-adv-x="1269" 
d="M907 0v1495h215v-1495h-215zM557 0v625q-71 0 -142 18.5t-134.5 55.5t-112.5 88.5t-78 121.5t-29 150q0 99 44 183t115.5 138.5t159 84.5t177.5 30h215v-1495h-215z" />
    <glyph glyph-name="periodcentered" unicode="&#xb7;" horiz-adv-x="561" 
d="M283 803q83 0 140.5 -56.5t57.5 -140.5t-57.5 -140t-140.5 -56h-4q-84 0 -141.5 56t-57.5 140t57.5 140.5t141.5 56.5h4z" />
    <glyph glyph-name="cedilla" unicode="&#xb8;" 
d="M575 -455q-124 0 -196 54v170q67 -64 164 -64q88 0 88 59q0 69 -166 76l72 183h143l-39 -93q90 -11 145.5 -58t55.5 -126q0 -91 -79 -146t-188 -55z" />
    <glyph glyph-name="onesuperior" unicode="&#xb9;" horiz-adv-x="729" 
d="M111 674v194h168v346l-173 -73v221l414 170v-664h135v-194h-544z" />
    <glyph glyph-name="ordmasculine" unicode="&#xba;" horiz-adv-x="958" 
d="M479 729q-170 0 -290.5 112.5t-120.5 282.5t120.5 283t290.5 113q169 0 289.5 -113t120.5 -283t-120.5 -282.5t-289.5 -112.5zM479 1303q-69 0 -114.5 -50t-45.5 -129t45 -128.5t115 -49.5q69 0 113.5 49.5t44.5 128.5t-44.5 129t-113.5 50zM131 442v205h696v-205h-696z
" />
    <glyph glyph-name="guillemotright" unicode="&#xbb;" horiz-adv-x="1150" 
d="M846 942l260 -418l-260 -418h-318l258 418l-258 418h318zM362 942l261 -418l-261 -418h-317l258 418l-258 418h317z" />
    <glyph glyph-name="onequarter" unicode="&#xbc;" horiz-adv-x="1871" 
d="M111 674v194h168v346l-173 -73v221l414 170v-664h135v-194h-544zM293 0l999 1495h287l-999 -1495h-287zM1573 821l-232 -495h136v161h213v-161h100v-172h-100v-154h-213v154h-457l323 667h230z" />
    <glyph glyph-name="onehalf" unicode="&#xbd;" horiz-adv-x="1871" 
d="M111 674v194h168v346l-173 -73v221l414 170v-664h135v-194h-544zM293 0l999 1495h287l-999 -1495h-287zM1563 197h231v-197h-629l228 303q137 179 137 246q0 69 -84 69q-94 0 -227 -102v225q48 42 120.5 68.5t151.5 26.5q124 0 202.5 -72.5t78.5 -183.5q0 -66 -27 -125.5
t-86 -137.5z" />
    <glyph glyph-name="threequarters" unicode="&#xbe;" horiz-adv-x="1871" 
d="M293 0l999 1495h287l-999 -1495h-287zM96 1298v197h574l-187 -317q78 -30 121 -89.5t43 -142.5q0 -87 -47 -154t-120 -100t-158 -33q-136 0 -238 70v219q103 -90 217 -90q51 0 84 23.5t33 64.5q0 103 -209 117l141 235h-254zM1573 821l-232 -495h136v161h213v-161h100
v-172h-100v-154h-213v154h-457l323 667h230z" />
    <glyph glyph-name="questiondown" unicode="&#xbf;" horiz-adv-x="1052" 
d="M547 1116q-84 0 -141.5 56.5t-57.5 140.5t57.5 140t141.5 56h4q84 0 141.5 -56t57.5 -140t-57.5 -140.5t-141.5 -56.5h-4zM729 985l-207 -258q-85 -105 -107 -142q-42 -72 -42 -141q0 -77 53 -122.5t145 -45.5q101 0 214.5 55.5t201.5 147.5v-346q-77 -66 -198.5 -112
t-243.5 -46q-225 0 -362.5 129.5t-137.5 323.5q0 60 19 119.5t60 124t71 103.5t86 108l81 102h367z" />
    <glyph glyph-name="Agrave" unicode="&#xc0;" horiz-adv-x="1554" 
d="M934 1610h-277l-362 327h412zM778 1556l783 -1556h-347l-131 270h-614l-131 -270h-344zM778 905l-186 -385h373z" />
    <glyph glyph-name="Aacute" unicode="&#xc1;" horiz-adv-x="1554" 
d="M643 1610l227 327h412l-362 -327h-277zM778 1556l783 -1556h-347l-131 270h-614l-131 -270h-344zM778 905l-186 -385h373z" />
    <glyph glyph-name="Acircumflex" unicode="&#xc2;" horiz-adv-x="1554" 
d="M926 1937l256 -327h-236l-168 153l-168 -153h-235l256 327h295zM778 1556l783 -1556h-347l-131 270h-614l-131 -270h-344zM778 905l-186 -385h373z" />
    <glyph glyph-name="Atilde" unicode="&#xc3;" horiz-adv-x="1554" 
d="M948 1937h195q0 -144 -56.5 -238.5t-162.5 -94.5q-39 0 -75.5 16t-60.5 35t-54 35t-56 16q-33 0 -51.5 -26t-18.5 -70h-192q0 147 56 241.5t163 94.5q49 0 93.5 -26t82 -51.5t68.5 -25.5q33 0 51 26t18 68zM778 1556l783 -1556h-347l-131 270h-614l-131 -270h-344z
M778 905l-186 -385h373z" />
    <glyph glyph-name="Adieresis" unicode="&#xc4;" horiz-adv-x="1554" 
d="M569 1931q70 0 119 -48t49 -118q0 -69 -49.5 -116t-118.5 -47h-2q-69 0 -117.5 47t-48.5 116q0 70 48.5 118t117.5 48h2zM989 1931q69 0 117.5 -48t48.5 -118q0 -69 -48.5 -116t-117.5 -47h-2q-69 0 -118.5 47t-49.5 116q0 70 49 118t119 48h2zM778 1556l783 -1556h-347
l-131 270h-614l-131 -270h-344zM778 905l-186 -385h373z" />
    <glyph glyph-name="Aring" unicode="&#xc5;" horiz-adv-x="1554" 
d="M778 2085q114 0 192.5 -76t78.5 -186t-78.5 -186t-192.5 -76t-192 76t-78 186t78 186t192 76zM778 1927q-43 0 -73.5 -30t-30.5 -74t30.5 -74.5t73.5 -30.5t74 30.5t31 74.5t-31 74t-74 30zM778 1556l783 -1556h-347l-131 270h-614l-131 -270h-344zM778 905l-186 -385
h373z" />
    <glyph glyph-name="AE" unicode="&#xc6;" horiz-adv-x="2181" 
d="M1145 0v371h-553l-232 -371h-346l938 1495h1137v-270h-623v-326h576v-270h-576v-359h627v-270h-948zM762 645h383v612z" />
    <glyph glyph-name="Ccedilla" unicode="&#xc7;" horiz-adv-x="1308" 
d="M858 287q112 0 205.5 41t157.5 112v-374q-168 -91 -369 -91h-21l-18 -45q90 -11 145.5 -58t55.5 -126q0 -91 -79 -146t-187 -55q-125 0 -197 54v170q67 -64 164 -64q88 0 88 59q0 69 -166 76l59 152q-176 35 -318 142.5t-223 269t-81 344.5q0 157 61.5 300t165 246.5
t248 164.5t303.5 61q203 0 369 -90v-375q-64 71 -157.5 112t-205.5 41q-194 0 -325.5 -132t-131.5 -328t131.5 -328.5t325.5 -132.5z" />
    <glyph glyph-name="Egrave" unicode="&#xc8;" horiz-adv-x="1183" 
d="M778 1610h-276l-363 327h412zM150 0v1495h942v-270h-623v-326h575v-270h-575v-359h627v-270h-946z" />
    <glyph glyph-name="Eacute" unicode="&#xc9;" horiz-adv-x="1183" 
d="M487 1610l228 327h411l-362 -327h-277zM150 0v1495h942v-270h-623v-326h575v-270h-575v-359h627v-270h-946z" />
    <glyph glyph-name="Ecircumflex" unicode="&#xca;" horiz-adv-x="1183" 
d="M788 1937l256 -327h-235l-168 153l-168 -153h-235l256 327h294zM150 0v1495h942v-270h-623v-326h575v-270h-575v-359h627v-270h-946z" />
    <glyph glyph-name="Edieresis" unicode="&#xcb;" horiz-adv-x="1183" 
d="M430 1931q70 0 119 -48t49 -118q0 -69 -49.5 -116t-118.5 -47h-2q-69 0 -117.5 47t-48.5 116q0 70 48.5 118t117.5 48h2zM850 1931q69 0 117.5 -48t48.5 -118q0 -69 -48.5 -116t-117.5 -47h-2q-69 0 -118.5 47t-49.5 116q0 70 49 118t119 48h2zM150 0v1495h942v-270h-623
v-326h575v-270h-575v-359h627v-270h-946z" />
    <glyph glyph-name="Igrave" unicode="&#xcc;" horiz-adv-x="622" 
d="M451 1610h-277l-362 327h411zM150 1495h325v-1495h-325v1495z" />
    <glyph glyph-name="Iacute" unicode="&#xcd;" horiz-adv-x="622" 
d="M162 1610l227 327h412l-363 -327h-276zM150 1495h325v-1495h-325v1495z" />
    <glyph glyph-name="Icircumflex" unicode="&#xce;" horiz-adv-x="622" 
d="M461 1937l256 -327h-236l-168 153l-168 -153h-235l256 327h295zM150 1495h325v-1495h-325v1495z" />
    <glyph glyph-name="Idieresis" unicode="&#xcf;" horiz-adv-x="622" 
d="M102 1931q70 0 119 -48t49 -118q0 -69 -49.5 -116t-118.5 -47h-2q-69 0 -117.5 47t-48.5 116q0 70 48.5 118t117.5 48h2zM522 1931q69 0 117.5 -48t48.5 -118q0 -69 -48.5 -116t-117.5 -47h-2q-69 0 -118.5 47t-49.5 116q0 70 49 118t119 48h2zM150 1495h325v-1495h-325
v1495z" />
    <glyph glyph-name="Eth" unicode="&#xd0;" horiz-adv-x="1511" 
d="M53 629v270h127v596h488q158 0 300.5 -57.5t245.5 -156t163.5 -237.5t60.5 -296q0 -209 -102.5 -381t-279.5 -269.5t-388 -97.5h-488v629h-127zM647 1225h-141v-326h285v-270h-285v-359h137q137 0 244.5 65.5t165 174t57.5 238.5t-57.5 238.5t-164 173.5t-241.5 65z" />
    <glyph glyph-name="Ntilde" unicode="&#xd1;" horiz-adv-x="1648" 
d="M983 1937h195q0 -144 -57 -238.5t-163 -94.5q-39 0 -75.5 16t-60 35t-53.5 35t-56 16q-33 0 -51.5 -26t-18.5 -70h-192q0 147 56 241.5t163 94.5q39 0 75.5 -16t60 -35.5t52.5 -35.5t55 -16q33 0 51.5 26t18.5 68zM1180 616v879h319v-1554l-1032 936v-877h-320v1554z" />
    <glyph glyph-name="Ograve" unicode="&#xd2;" horiz-adv-x="1685" 
d="M981 1610h-276l-363 327h412zM842 1520q158 0 300.5 -61t245.5 -164.5t163.5 -246.5t60.5 -300t-60.5 -300t-163.5 -246.5t-245.5 -165t-300.5 -61.5q-157 0 -299.5 61.5t-245 165t-163 246.5t-60.5 300q0 210 102.5 387.5t279.5 281t386 103.5zM842 1217
q-185 0 -313 -133.5t-128 -335.5t128 -335.5t313 -133.5q186 0 314 133.5t128 335.5t-128 335.5t-314 133.5z" />
    <glyph glyph-name="Oacute" unicode="&#xd3;" horiz-adv-x="1685" 
d="M692 1610l228 327h411l-362 -327h-277zM842 1520q158 0 300.5 -61t245.5 -164.5t163.5 -246.5t60.5 -300t-60.5 -300t-163.5 -246.5t-245.5 -165t-300.5 -61.5q-157 0 -299.5 61.5t-245 165t-163 246.5t-60.5 300q0 210 102.5 387.5t279.5 281t386 103.5zM842 1217
q-185 0 -313 -133.5t-128 -335.5t128 -335.5t313 -133.5q186 0 314 133.5t128 335.5t-128 335.5t-314 133.5z" />
    <glyph glyph-name="Ocircumflex" unicode="&#xd4;" horiz-adv-x="1685" 
d="M991 1937l256 -327h-235l-168 153l-168 -153h-236l256 327h295zM842 1520q158 0 300.5 -61t245.5 -164.5t163.5 -246.5t60.5 -300t-60.5 -300t-163.5 -246.5t-245.5 -165t-300.5 -61.5q-157 0 -299.5 61.5t-245 165t-163 246.5t-60.5 300q0 210 102.5 387.5t279.5 281
t386 103.5zM842 1217q-185 0 -313 -133.5t-128 -335.5t128 -335.5t313 -133.5q186 0 314 133.5t128 335.5t-128 335.5t-314 133.5z" />
    <glyph glyph-name="Otilde" unicode="&#xd5;" horiz-adv-x="1685" 
d="M1012 1937h194q0 -144 -56.5 -238.5t-162.5 -94.5q-39 0 -75.5 16t-60.5 35t-54 35t-56 16q-33 0 -51 -26t-18 -70h-193q0 147 56 241.5t163 94.5q49 0 93.5 -26t82 -51.5t68.5 -25.5q33 0 51.5 26t18.5 68zM842 1520q158 0 300.5 -61t245.5 -164.5t163.5 -246.5
t60.5 -300t-60.5 -300t-163.5 -246.5t-245.5 -165t-300.5 -61.5q-157 0 -299.5 61.5t-245 165t-163 246.5t-60.5 300q0 210 102.5 387.5t279.5 281t386 103.5zM842 1217q-185 0 -313 -133.5t-128 -335.5t128 -335.5t313 -133.5q186 0 314 133.5t128 335.5t-128 335.5
t-314 133.5z" />
    <glyph glyph-name="Odieresis" unicode="&#xd6;" horiz-adv-x="1685" 
d="M633 1931q70 0 119 -48t49 -118q0 -69 -49.5 -116t-118.5 -47h-2q-69 0 -117.5 47t-48.5 116q0 70 48.5 118t117.5 48h2zM1053 1931q69 0 117.5 -48t48.5 -118q0 -69 -48.5 -116t-117.5 -47h-2q-69 0 -118.5 47t-49.5 116q0 70 49 118t119 48h2zM842 1520
q158 0 300.5 -61t245.5 -164.5t163.5 -246.5t60.5 -300t-60.5 -300t-163.5 -246.5t-245.5 -165t-300.5 -61.5q-157 0 -299.5 61.5t-245 165t-163 246.5t-60.5 300q0 210 102.5 387.5t279.5 281t386 103.5zM842 1217q-185 0 -313 -133.5t-128 -335.5t128 -335.5t313 -133.5
q186 0 314 133.5t128 335.5t-128 335.5t-314 133.5z" />
    <glyph glyph-name="multiply" unicode="&#xd7;" 
d="M440 709l-334 333l177 177l331 -332l330 332l178 -177l-331 -333l331 -330l-178 -178l-330 331l-331 -331l-177 176z" />
    <glyph glyph-name="Oslash" unicode="&#xd8;" horiz-adv-x="1685" 
d="M70 70l178 188q-174 212 -174 490q0 210 102.5 387.5t279.5 281t386 103.5q256 0 463 -154l147 156l158 -152l-152 -160q154 -207 154 -462q0 -157 -60.5 -300t-163.5 -246.5t-245.5 -165t-300.5 -61.5q-239 0 -434 136l-181 -191zM842 1229q-190 0 -322.5 -136.5
t-132.5 -344.5q0 -149 74 -269l637 670q-116 80 -256 80zM1298 748q0 127 -55 237l-629 -657q108 -62 228 -62q191 0 323.5 137t132.5 345z" />
    <glyph glyph-name="Ugrave" unicode="&#xd9;" horiz-adv-x="1468" 
d="M874 1610h-276l-362 327h411zM451 596q0 -161 76.5 -246.5t207.5 -85.5t207 85.5t76 246.5v899h328v-899q0 -191 -81.5 -334t-219 -215t-310.5 -72q-129 0 -240.5 42.5t-193.5 120.5t-129 196t-47 262v899h326v-899z" />
    <glyph glyph-name="Uacute" unicode="&#xda;" horiz-adv-x="1468" 
d="M584 1610l227 327h412l-363 -327h-276zM451 596q0 -161 76.5 -246.5t207.5 -85.5t207 85.5t76 246.5v899h328v-899q0 -191 -81.5 -334t-219 -215t-310.5 -72q-129 0 -240.5 42.5t-193.5 120.5t-129 196t-47 262v899h326v-899z" />
    <glyph glyph-name="Ucircumflex" unicode="&#xdb;" horiz-adv-x="1468" 
d="M883 1937l256 -327h-236l-168 153l-168 -153h-235l256 327h295zM451 596q0 -161 76.5 -246.5t207.5 -85.5t207 85.5t76 246.5v899h328v-899q0 -191 -81.5 -334t-219 -215t-310.5 -72q-129 0 -240.5 42.5t-193.5 120.5t-129 196t-47 262v899h326v-899z" />
    <glyph glyph-name="Udieresis" unicode="&#xdc;" horiz-adv-x="1468" 
d="M526 1931q70 0 119 -48t49 -118q0 -69 -49.5 -116t-118.5 -47h-2q-69 0 -117.5 47t-48.5 116q0 70 48.5 118t117.5 48h2zM946 1931q69 0 117.5 -48t48.5 -118q0 -69 -48.5 -116t-117.5 -47h-2q-69 0 -118.5 47t-49.5 116q0 70 49 118t119 48h2zM451 596
q0 -161 76.5 -246.5t207.5 -85.5t207 85.5t76 246.5v899h328v-899q0 -191 -81.5 -334t-219 -215t-310.5 -72q-129 0 -240.5 42.5t-193.5 120.5t-129 196t-47 262v899h326v-899z" />
    <glyph glyph-name="Yacute" unicode="&#xdd;" horiz-adv-x="1433" 
d="M586 1610l227 327h412l-363 -327h-276zM881 0h-328v657l-559 838h368l353 -534l356 534h369l-559 -838v-657z" />
    <glyph glyph-name="Thorn" unicode="&#xde;" horiz-adv-x="1216" 
d="M604 285h-129v-285h-325v1495h325v-258h129q260 0 420 -128t160 -349q0 -220 -160 -347.5t-420 -127.5zM475 971v-418h127q115 0 182.5 55.5t67.5 151.5q0 98 -67.5 154.5t-182.5 56.5h-127z" />
    <glyph glyph-name="germandbls" unicode="&#xdf;" horiz-adv-x="1316" 
d="M446 1075v-1075h-313v1090q0 217 142 354t368 137q210 0 332.5 -111t122.5 -282q0 -102 -46 -178t-118 -115q142 -40 229.5 -154t87.5 -268q0 -148 -69.5 -260.5t-185.5 -170.5t-259 -58q-85 0 -149 22v256q38 -16 100 -16q108 0 182 63.5t74 173.5q0 113 -81 174.5
t-214 61.5h-49v270h43q74 0 122 48.5t48 119.5q0 72 -46 117t-124 45q-92 0 -144.5 -65.5t-52.5 -178.5z" />
    <glyph glyph-name="agrave" unicode="&#xe0;" horiz-adv-x="1146" 
d="M692 1206h-239l-260 350h354zM711 0v66q-32 -35 -101.5 -63t-154.5 -28q-107 0 -197 42.5t-145.5 125t-55.5 189.5q0 150 118.5 245t289.5 95q75 0 144 -23t102 -53v45q0 73 -62.5 119.5t-177.5 46.5q-141 0 -291 -84v276q65 35 163.5 57.5t199.5 22.5q226 0 351.5 -112
t125.5 -314v-653h-309zM715 332q0 58 -54.5 92.5t-125.5 34.5q-74 0 -128.5 -34.5t-54.5 -92.5q0 -60 54.5 -94.5t128.5 -34.5q71 0 125.5 34.5t54.5 94.5z" />
    <glyph glyph-name="aacute" unicode="&#xe1;" horiz-adv-x="1146" 
d="M434 1206l146 350h354l-260 -350h-240zM711 0v66q-32 -35 -101.5 -63t-154.5 -28q-107 0 -197 42.5t-145.5 125t-55.5 189.5q0 150 118.5 245t289.5 95q75 0 144 -23t102 -53v45q0 73 -62.5 119.5t-177.5 46.5q-141 0 -291 -84v276q65 35 163.5 57.5t199.5 22.5
q226 0 351.5 -112t125.5 -314v-653h-309zM715 332q0 58 -54.5 92.5t-125.5 34.5q-74 0 -128.5 -34.5t-54.5 -92.5q0 -60 54.5 -94.5t128.5 -34.5q71 0 125.5 34.5t54.5 94.5z" />
    <glyph glyph-name="acircumflex" unicode="&#xe2;" horiz-adv-x="1146" 
d="M715 1556l225 -350h-219l-152 162l-151 -162h-219l225 350h291zM711 0v66q-32 -35 -101.5 -63t-154.5 -28q-107 0 -197 42.5t-145.5 125t-55.5 189.5q0 150 118.5 245t289.5 95q75 0 144 -23t102 -53v45q0 73 -62.5 119.5t-177.5 46.5q-141 0 -291 -84v276
q65 35 163.5 57.5t199.5 22.5q226 0 351.5 -112t125.5 -314v-653h-309zM715 332q0 58 -54.5 92.5t-125.5 34.5q-74 0 -128.5 -34.5t-54.5 -92.5q0 -60 54.5 -94.5t128.5 -34.5q71 0 125.5 34.5t54.5 94.5z" />
    <glyph glyph-name="atilde" unicode="&#xe3;" horiz-adv-x="1146" 
d="M737 1544h195q0 -143 -57 -238.5t-162 -95.5q-39 0 -75.5 16t-60.5 35.5t-54 35.5t-56 16q-33 0 -51.5 -26t-18.5 -70h-192q0 147 56 241t163 94q39 0 75.5 -16t60.5 -35t53 -35t55 -16q33 0 51 26t18 68zM711 0v66q-32 -35 -101.5 -63t-154.5 -28q-107 0 -197 42.5
t-145.5 125t-55.5 189.5q0 150 118.5 245t289.5 95q75 0 144 -23t102 -53v45q0 73 -62.5 119.5t-177.5 46.5q-141 0 -291 -84v276q65 35 163.5 57.5t199.5 22.5q226 0 351.5 -112t125.5 -314v-653h-309zM715 332q0 58 -54.5 92.5t-125.5 34.5q-74 0 -128.5 -34.5
t-54.5 -92.5q0 -60 54.5 -94.5t128.5 -34.5q71 0 125.5 34.5t54.5 94.5z" />
    <glyph glyph-name="adieresis" unicode="&#xe4;" horiz-adv-x="1146" 
d="M360 1542q70 0 119 -48t49 -118q0 -69 -49.5 -116.5t-118.5 -47.5h-2q-69 0 -118.5 47.5t-49.5 116.5q0 70 49 118t119 48h2zM776 1542q70 0 119 -48t49 -118q0 -69 -49.5 -116.5t-118.5 -47.5h-2q-69 0 -118.5 47.5t-49.5 116.5q0 70 49 118t119 48h2zM711 0v66
q-32 -35 -101.5 -63t-154.5 -28q-107 0 -197 42.5t-145.5 125t-55.5 189.5q0 150 118.5 245t289.5 95q75 0 144 -23t102 -53v45q0 73 -62.5 119.5t-177.5 46.5q-141 0 -291 -84v276q65 35 163.5 57.5t199.5 22.5q226 0 351.5 -112t125.5 -314v-653h-309zM715 332
q0 58 -54.5 92.5t-125.5 34.5q-74 0 -128.5 -34.5t-54.5 -92.5q0 -60 54.5 -94.5t128.5 -34.5q71 0 125.5 34.5t54.5 94.5z" />
    <glyph glyph-name="aring" unicode="&#xe5;" horiz-adv-x="1146" 
d="M567 1645q104 0 175 -69.5t71 -170.5q0 -100 -71 -169t-175 -69t-174.5 69t-70.5 169q0 101 70.5 170.5t174.5 69.5zM567 1499q-40 0 -67 -27t-27 -67t27 -67t67 -27t67.5 27t27.5 67t-27.5 67t-67.5 27zM711 0v66q-32 -35 -101.5 -63t-154.5 -28q-107 0 -197 42.5
t-145.5 125t-55.5 189.5q0 150 118.5 245t289.5 95q75 0 144 -23t102 -53v45q0 73 -62.5 119.5t-177.5 46.5q-141 0 -291 -84v276q65 35 163.5 57.5t199.5 22.5q226 0 351.5 -112t125.5 -314v-653h-309zM715 332q0 58 -54.5 92.5t-125.5 34.5q-74 0 -128.5 -34.5
t-54.5 -92.5q0 -60 54.5 -94.5t128.5 -34.5q71 0 125.5 34.5t54.5 94.5z" />
    <glyph glyph-name="ae" unicode="&#xe6;" horiz-adv-x="1794" 
d="M1724 442h-741q26 -99 112.5 -151.5t215.5 -52.5q88 0 179 27.5t157 74.5v-272q-75 -47 -175.5 -70t-201.5 -23q-130 0 -241 46t-189 129q-63 -80 -167.5 -127.5t-217.5 -47.5q-174 0 -286 88t-112 242q0 159 123 249.5t330 90.5h199q4 16 4 23q-12 67 -74 104t-166 37
q-143 0 -293 -84v274q67 35 164.5 57.5t198.5 22.5q227 0 346 -125q144 125 336 125q135 0 237.5 -50t162.5 -137.5t85.5 -202t13.5 -247.5zM1221 825q-82 0 -143 -47.5t-87 -132.5h441q-8 72 -63.5 126t-147.5 54zM494 205q76 0 135.5 38.5t91.5 108.5q-14 50 -19 90h-149
q-97 0 -150 -30.5t-53 -89.5t40 -88t104 -29z" />
    <glyph glyph-name="ccedilla" unicode="&#xe7;" horiz-adv-x="935" 
d="M647 254q113 0 207 65v-301q-93 -43 -225 -43h-25l-18 -45q90 -11 145 -58t55 -126q0 -91 -79 -146t-187 -55q-124 0 -196 54v170q67 -64 163 -64q88 0 88 59q0 69 -165 76l61 158q-176 49 -290.5 192.5t-114.5 335.5q0 157 78 285t206.5 198t278.5 70q127 0 225 -45
v-299q-100 66 -207 66q-113 0 -194.5 -77t-81.5 -198q0 -119 81.5 -195.5t194.5 -76.5z" />
    <glyph glyph-name="egrave" unicode="&#xe8;" horiz-adv-x="1175" 
d="M748 1206h-240l-260 350h354zM68 524q0 117 44.5 221t118.5 176.5t172.5 115t204.5 42.5q108 0 196.5 -32.5t148.5 -91t99 -138.5t53 -174.5t5 -200.5h-743q26 -99 112.5 -151.5t216.5 -52.5q87 0 177.5 27.5t156.5 74.5v-272q-149 -93 -375 -93q-164 0 -298.5 70
t-211.5 196t-77 283zM604 825q-82 0 -142.5 -47.5t-86.5 -132.5h440q-8 72 -63.5 126t-147.5 54z" />
    <glyph glyph-name="eacute" unicode="&#xe9;" horiz-adv-x="1175" 
d="M489 1206l146 350h354l-260 -350h-240zM68 524q0 117 44.5 221t118.5 176.5t172.5 115t204.5 42.5q108 0 196.5 -32.5t148.5 -91t99 -138.5t53 -174.5t5 -200.5h-743q26 -99 112.5 -151.5t216.5 -52.5q87 0 177.5 27.5t156.5 74.5v-272q-149 -93 -375 -93
q-164 0 -298.5 70t-211.5 196t-77 283zM604 825q-82 0 -142.5 -47.5t-86.5 -132.5h440q-8 72 -63.5 126t-147.5 54z" />
    <glyph glyph-name="ecircumflex" unicode="&#xea;" horiz-adv-x="1175" 
d="M770 1556l225 -350h-219l-151 162l-152 -162h-219l225 350h291zM68 524q0 117 44.5 221t118.5 176.5t172.5 115t204.5 42.5q108 0 196.5 -32.5t148.5 -91t99 -138.5t53 -174.5t5 -200.5h-743q26 -99 112.5 -151.5t216.5 -52.5q87 0 177.5 27.5t156.5 74.5v-272
q-149 -93 -375 -93q-164 0 -298.5 70t-211.5 196t-77 283zM604 825q-82 0 -142.5 -47.5t-86.5 -132.5h440q-8 72 -63.5 126t-147.5 54z" />
    <glyph glyph-name="edieresis" unicode="&#xeb;" horiz-adv-x="1175" 
d="M416 1542q70 0 119 -48t49 -118q0 -69 -49.5 -116.5t-118.5 -47.5h-2q-69 0 -118.5 47.5t-49.5 116.5q0 70 49 118t119 48h2zM831 1542q70 0 119 -48t49 -118q0 -69 -49.5 -116.5t-118.5 -47.5h-2q-69 0 -118 47.5t-49 116.5q0 70 49 118t118 48h2zM68 524
q0 117 44.5 221t118.5 176.5t172.5 115t204.5 42.5q108 0 196.5 -32.5t148.5 -91t99 -138.5t53 -174.5t5 -200.5h-743q26 -99 112.5 -151.5t216.5 -52.5q87 0 177.5 27.5t156.5 74.5v-272q-149 -93 -375 -93q-164 0 -298.5 70t-211.5 196t-77 283zM604 825
q-82 0 -142.5 -47.5t-86.5 -132.5h440q-8 72 -63.5 126t-147.5 54z" />
    <glyph glyph-name="igrave" unicode="&#xec;" horiz-adv-x="583" 
d="M416 1206h-240l-260 350h354zM133 1055h320v-1055h-320v1055z" />
    <glyph glyph-name="iacute" unicode="&#xed;" horiz-adv-x="583" 
d="M160 1206l145 350h354l-260 -350h-239zM133 1055h320v-1055h-320v1055z" />
    <glyph glyph-name="icircumflex" unicode="&#xee;" horiz-adv-x="583" 
d="M438 1556l226 -350h-220l-151 162l-152 -162h-219l225 350h291zM133 1055h320v-1055h-320v1055z" />
    <glyph glyph-name="idieresis" unicode="&#xef;" horiz-adv-x="583" 
d="M86 1542q70 0 119 -48t49 -118q0 -69 -49.5 -116.5t-118.5 -47.5h-2q-69 0 -118.5 47.5t-49.5 116.5q0 70 49 118t119 48h2zM502 1542q70 0 119 -48t49 -118q0 -69 -49.5 -116.5t-118.5 -47.5h-2q-69 0 -118.5 47.5t-49.5 116.5q0 70 49 118t119 48h2zM133 1055h320
v-1055h-320v1055z" />
    <glyph glyph-name="eth" unicode="&#xf0;" horiz-adv-x="1267" 
d="M268 1286l178 66q-148 123 -278 204h371q87 -50 168 -110l301 108v-219l-123 -45q317 -329 317 -712q0 -138 -45.5 -253t-123 -190.5t-180.5 -117.5t-218 -42q-154 0 -284 70.5t-207.5 197.5t-77.5 283q0 119 45 220t122.5 169t180.5 106t219 38q63 0 125 -19
q-68 82 -140 154l-350 -129v221zM635 805q-109 0 -180.5 -78.5t-71.5 -200.5q0 -121 71.5 -199.5t180.5 -78.5q108 0 180 78.5t72 199.5q0 122 -72 200.5t-180 78.5z" />
    <glyph glyph-name="ntilde" unicode="&#xf1;" horiz-adv-x="1249" 
d="M799 1544h194q0 -143 -57 -238.5t-162 -95.5q-39 0 -75.5 16t-60.5 35.5t-54 35.5t-56 16q-33 0 -51 -26t-18 -70h-193q0 147 56 241t163 94q39 0 75.5 -16t60.5 -35t53 -35t55 -16q33 0 51.5 26t18.5 68zM453 594v-594h-320v1055h320v-105q45 58 119.5 93.5t166.5 35.5
q178 0 281.5 -108.5t103.5 -288.5v-682h-321v594q0 84 -45.5 140.5t-128.5 56.5q-82 0 -129 -57t-47 -140z" />
    <glyph glyph-name="ograve" unicode="&#xf2;" horiz-adv-x="1267" 
d="M766 1206h-240l-260 350h355zM635 -25q-153 0 -282.5 70.5t-207 197.5t-77.5 283t77.5 283.5t207.5 198.5t282 71q153 0 283.5 -71t208 -198.5t77.5 -283.5t-77.5 -283t-207.5 -197.5t-284 -70.5zM635 805q-108 0 -180 -78.5t-72 -200.5q0 -121 72 -198.5t180 -77.5
q109 0 180.5 77.5t71.5 198.5q0 122 -71.5 200.5t-180.5 78.5z" />
    <glyph glyph-name="oacute" unicode="&#xf3;" horiz-adv-x="1267" 
d="M510 1206l145 350h355l-260 -350h-240zM635 -25q-153 0 -282.5 70.5t-207 197.5t-77.5 283t77.5 283.5t207.5 198.5t282 71q153 0 283.5 -71t208 -198.5t77.5 -283.5t-77.5 -283t-207.5 -197.5t-284 -70.5zM635 805q-108 0 -180 -78.5t-72 -200.5q0 -121 72 -198.5
t180 -77.5q109 0 180.5 77.5t71.5 198.5q0 122 -71.5 200.5t-180.5 78.5z" />
    <glyph glyph-name="ocircumflex" unicode="&#xf4;" horiz-adv-x="1267" 
d="M788 1556l226 -350h-219l-152 162l-151 -162h-220l226 350h290zM635 -25q-153 0 -282.5 70.5t-207 197.5t-77.5 283t77.5 283.5t207.5 198.5t282 71q153 0 283.5 -71t208 -198.5t77.5 -283.5t-77.5 -283t-207.5 -197.5t-284 -70.5zM635 805q-108 0 -180 -78.5t-72 -200.5
q0 -121 72 -198.5t180 -77.5q109 0 180.5 77.5t71.5 198.5q0 122 -71.5 200.5t-180.5 78.5z" />
    <glyph glyph-name="otilde" unicode="&#xf5;" horiz-adv-x="1267" 
d="M813 1544h195q0 -143 -57.5 -238.5t-162.5 -95.5q-39 0 -75.5 16t-60 35.5t-53.5 35.5t-56 16q-33 0 -51.5 -26t-18.5 -70h-192q0 147 56 241t163 94q39 0 75.5 -16t60 -35t52.5 -35t55 -16q33 0 51.5 26t18.5 68zM635 -25q-153 0 -282.5 70.5t-207 197.5t-77.5 283
t77.5 283.5t207.5 198.5t282 71q153 0 283.5 -71t208 -198.5t77.5 -283.5t-77.5 -283t-207.5 -197.5t-284 -70.5zM635 805q-108 0 -180 -78.5t-72 -200.5q0 -121 72 -198.5t180 -77.5q109 0 180.5 77.5t71.5 198.5q0 122 -71.5 200.5t-180.5 78.5z" />
    <glyph glyph-name="odieresis" unicode="&#xf6;" horiz-adv-x="1267" 
d="M436 1542q70 0 119 -48t49 -118q0 -69 -49.5 -116.5t-118.5 -47.5h-2q-69 0 -118.5 47.5t-49.5 116.5q0 70 49 118t119 48h2zM852 1542q70 0 119 -48t49 -118q0 -69 -49.5 -116.5t-118.5 -47.5h-2q-69 0 -118.5 47.5t-49.5 116.5q0 70 49 118t119 48h2zM635 -25
q-153 0 -282.5 70.5t-207 197.5t-77.5 283t77.5 283.5t207.5 198.5t282 71q153 0 283.5 -71t208 -198.5t77.5 -283.5t-77.5 -283t-207.5 -197.5t-284 -70.5zM635 805q-108 0 -180 -78.5t-72 -200.5q0 -121 72 -198.5t180 -77.5q109 0 180.5 77.5t71.5 198.5
q0 122 -71.5 200.5t-180.5 78.5z" />
    <glyph glyph-name="divide" unicode="&#xf7;" 
d="M449 989v316h329v-316h-329zM68 586v250h1093v-250h-1093zM449 115v317h329v-317h-329z" />
    <glyph glyph-name="oslash" unicode="&#xf8;" horiz-adv-x="1271" 
d="M66 61l127 125q-119 148 -119 340q0 156 77.5 283.5t208 198.5t283.5 71q193 0 344 -110l111 110l112 -110l-110 -109q112 -147 112 -334q0 -156 -78 -283t-208 -197.5t-283 -70.5q-189 0 -336 103l-129 -127zM643 825q-119 0 -195.5 -84.5t-76.5 -214.5q0 -70 26 -137
l398 391q-67 45 -152 45zM913 526q0 69 -22 127l-389 -385q61 -39 141 -39q118 0 194 84t76 213z" />
    <glyph glyph-name="ugrave" unicode="&#xf9;" horiz-adv-x="1245" 
d="M741 1206h-239l-260 350h354zM791 455v600h321v-1055h-321v102q-44 -56 -119 -91.5t-166 -35.5q-178 0 -279.5 108.5t-101.5 287.5v684h321v-600q0 -85 44 -141t126 -56t128.5 57t46.5 140z" />
    <glyph glyph-name="uacute" unicode="&#xfa;" horiz-adv-x="1245" 
d="M485 1206l146 350h354l-260 -350h-240zM791 455v600h321v-1055h-321v102q-44 -56 -119 -91.5t-166 -35.5q-178 0 -279.5 108.5t-101.5 287.5v684h321v-600q0 -85 44 -141t126 -56t128.5 57t46.5 140z" />
    <glyph glyph-name="ucircumflex" unicode="&#xfb;" horiz-adv-x="1245" 
d="M764 1556l225 -350h-219l-152 162l-151 -162h-219l225 350h291zM791 455v600h321v-1055h-321v102q-44 -56 -119 -91.5t-166 -35.5q-178 0 -279.5 108.5t-101.5 287.5v684h321v-600q0 -85 44 -141t126 -56t128.5 57t46.5 140z" />
    <glyph glyph-name="udieresis" unicode="&#xfc;" horiz-adv-x="1245" 
d="M412 1542q70 0 119 -48t49 -118q0 -69 -49.5 -116.5t-118.5 -47.5h-2q-69 0 -118.5 47.5t-49.5 116.5q0 70 49 118t119 48h2zM827 1542q70 0 119 -48t49 -118q0 -69 -49.5 -116.5t-118.5 -47.5h-2q-69 0 -118.5 47.5t-49.5 116.5q0 70 49 118t119 48h2zM791 455v600h321
v-1055h-321v102q-44 -56 -119 -91.5t-166 -35.5q-178 0 -279.5 108.5t-101.5 287.5v684h321v-600q0 -85 44 -141t126 -56t128.5 57t46.5 140z" />
    <glyph glyph-name="yacute" unicode="&#xfd;" horiz-adv-x="1208" 
d="M492 1206l145 350h354l-260 -350h-239zM104 -430l334 614l-446 871h346l268 -547l268 547h343l-781 -1485h-332z" />
    <glyph glyph-name="thorn" unicode="&#xfe;" horiz-adv-x="1341" 
d="M770 1079q214 0 360 -158.5t146 -394.5q0 -234 -146 -392.5t-360 -158.5q-104 0 -188 39.5t-129 98.5v-543h-320v1986h320v-614q45 58 129 97.5t188 39.5zM702 805q-111 0 -184.5 -79t-73.5 -200q0 -120 73.5 -199t184.5 -79q108 0 182 79.5t74 198.5q0 120 -74 199.5
t-182 79.5z" />
    <glyph glyph-name="ydieresis" unicode="&#xff;" horiz-adv-x="1208" 
d="M416 1542q70 0 119 -48t49 -118q0 -69 -49.5 -116.5t-118.5 -47.5h-2q-69 0 -118.5 47.5t-49.5 116.5q0 70 49 118t119 48h2zM831 1542q70 0 119 -48t49 -118q0 -69 -49.5 -116.5t-118.5 -47.5h-2q-69 0 -118 47.5t-49 116.5q0 70 49 118t118 48h2zM104 -430l334 614
l-446 871h346l268 -547l268 547h343l-781 -1485h-332z" />
    <glyph glyph-name="Amacron" unicode="&#x100;" horiz-adv-x="1554" 
d="M430 1618v221h696v-221h-696zM778 1556l783 -1556h-347l-131 270h-614l-131 -270h-344zM778 905l-186 -385h373z" />
    <glyph glyph-name="amacron" unicode="&#x101;" horiz-adv-x="1146" 
d="M272 1227v221h590v-221h-590zM711 0v66q-32 -35 -101.5 -63t-154.5 -28q-107 0 -197 42.5t-145.5 125t-55.5 189.5q0 150 118.5 245t289.5 95q75 0 144 -23t102 -53v45q0 73 -62.5 119.5t-177.5 46.5q-141 0 -291 -84v276q65 35 163.5 57.5t199.5 22.5q226 0 351.5 -112
t125.5 -314v-653h-309zM715 332q0 58 -54.5 92.5t-125.5 34.5q-74 0 -128.5 -34.5t-54.5 -92.5q0 -60 54.5 -94.5t128.5 -34.5q71 0 125.5 34.5t54.5 94.5z" />
    <glyph glyph-name="Abreve" unicode="&#x102;" horiz-adv-x="1554" 
d="M1133 1937q-9 -159 -110 -251.5t-245 -92.5q-142 0 -243.5 92.5t-110.5 251.5h233q3 -57 36 -91t85 -34t85 34t36 91h234zM778 1556l783 -1556h-347l-131 270h-614l-131 -270h-344zM778 905l-186 -385h373z" />
    <glyph glyph-name="abreve" unicode="&#x103;" horiz-adv-x="1146" 
d="M893 1544q0 -169 -91 -264.5t-235 -95.5q-143 0 -233 95.5t-90 264.5h213q0 -69 30 -109t80 -40t80.5 40.5t30.5 108.5h215zM711 0v66q-32 -35 -101.5 -63t-154.5 -28q-107 0 -197 42.5t-145.5 125t-55.5 189.5q0 150 118.5 245t289.5 95q75 0 144 -23t102 -53v45
q0 73 -62.5 119.5t-177.5 46.5q-141 0 -291 -84v276q65 35 163.5 57.5t199.5 22.5q226 0 351.5 -112t125.5 -314v-653h-309zM715 332q0 58 -54.5 92.5t-125.5 34.5q-74 0 -128.5 -34.5t-54.5 -92.5q0 -60 54.5 -94.5t128.5 -34.5q71 0 125.5 34.5t54.5 94.5z" />
    <glyph glyph-name="Aogonek" unicode="&#x104;" horiz-adv-x="1554" 
d="M778 1556l783 -1556h-156q-90 -100 -114.5 -133.5t-24.5 -65.5q0 -24 15 -37.5t40 -13.5q39 0 88 33v-195q-65 -43 -145 -43q-93 0 -150 46.5t-57 134.5q0 65 38 126.5t117 149.5l-129 268h-614l-131 -270h-344zM778 905l-186 -385h373z" />
    <glyph glyph-name="aogonek" unicode="&#x105;" horiz-adv-x="1146" 
d="M903 -412q-65 -43 -145 -43q-93 0 -150 46.5t-57 134.5q0 65 39 127t121 153v60q-32 -35 -101.5 -63t-154.5 -28q-107 0 -197 42.5t-145.5 125t-55.5 189.5q0 150 118.5 245t289.5 95q75 0 144 -23t102 -53v45q0 73 -62.5 119.5t-177.5 46.5q-141 0 -291 -84v276
q65 35 163.5 57.5t199.5 22.5q226 0 351.5 -112t125.5 -314v-653h-121q-90 -100 -114.5 -133.5t-24.5 -65.5q0 -24 15 -37.5t40 -13.5q39 0 88 33v-195zM715 332q0 58 -54.5 92.5t-125.5 34.5q-74 0 -128.5 -34.5t-54.5 -92.5q0 -60 54.5 -94.5t128.5 -34.5q71 0 125.5 34.5
t54.5 94.5z" />
    <glyph glyph-name="Cacute" unicode="&#x106;" horiz-adv-x="1308" 
d="M680 1610l227 327h412l-363 -327h-276zM858 287q112 0 205.5 41t157.5 112v-374q-168 -91 -369 -91q-159 0 -303.5 61.5t-248 165t-165 246.5t-61.5 300t61.5 300t165 246.5t248 164.5t303.5 61q203 0 369 -90v-375q-64 71 -157.5 112t-205.5 41q-194 0 -325.5 -132
t-131.5 -328t131.5 -328.5t325.5 -132.5z" />
    <glyph glyph-name="cacute" unicode="&#x107;" horiz-adv-x="935" 
d="M471 1206l145 350h355l-260 -350h-240zM647 254q113 0 207 65v-301q-93 -43 -225 -43q-150 0 -278.5 70.5t-206.5 198t-78 282.5q0 157 78 285t206.5 198t278.5 70q127 0 225 -45v-299q-100 66 -207 66q-113 0 -194.5 -77t-81.5 -198q0 -119 81.5 -195.5t194.5 -76.5z
" />
    <glyph glyph-name="Ccircumflex" unicode="&#x108;" horiz-adv-x="1308" 
d="M981 1937l256 -327h-236l-167 153l-168 -153h-236l256 327h295zM858 287q112 0 205.5 41t157.5 112v-374q-168 -91 -369 -91q-159 0 -303.5 61.5t-248 165t-165 246.5t-61.5 300t61.5 300t165 246.5t248 164.5t303.5 61q203 0 369 -90v-375q-64 71 -157.5 112t-205.5 41
q-194 0 -325.5 -132t-131.5 -328t131.5 -328.5t325.5 -132.5z" />
    <glyph glyph-name="ccircumflex" unicode="&#x109;" horiz-adv-x="935" 
d="M752 1556l225 -350h-219l-152 162l-151 -162h-219l225 350h291zM647 254q113 0 207 65v-301q-93 -43 -225 -43q-150 0 -278.5 70.5t-206.5 198t-78 282.5q0 157 78 285t206.5 198t278.5 70q127 0 225 -45v-299q-100 66 -207 66q-113 0 -194.5 -77t-81.5 -198
q0 -119 81.5 -195.5t194.5 -76.5z" />
    <glyph glyph-name="Cdotaccent" unicode="&#x10a;" horiz-adv-x="1308" 
d="M836 1954q74 0 127 -52t53 -128q0 -75 -53 -127t-127 -52h-5q-74 0 -127 52t-53 127q0 76 53 128t127 52h5zM858 287q112 0 205.5 41t157.5 112v-374q-168 -91 -369 -91q-159 0 -303.5 61.5t-248 165t-165 246.5t-61.5 300t61.5 300t165 246.5t248 164.5t303.5 61
q203 0 369 -90v-375q-64 71 -157.5 112t-205.5 41q-194 0 -325.5 -132t-131.5 -328t131.5 -328.5t325.5 -132.5z" />
    <glyph glyph-name="cdotaccent" unicode="&#x10b;" horiz-adv-x="935" 
d="M608 1550q74 0 127 -52t53 -128q0 -74 -53 -126t-127 -52h-4q-74 0 -127 52t-53 126q0 76 53 128t127 52h4zM647 254q113 0 207 65v-301q-93 -43 -225 -43q-150 0 -278.5 70.5t-206.5 198t-78 282.5q0 157 78 285t206.5 198t278.5 70q127 0 225 -45v-299q-100 66 -207 66
q-113 0 -194.5 -77t-81.5 -198q0 -119 81.5 -195.5t194.5 -76.5z" />
    <glyph glyph-name="Ccaron" unicode="&#x10c;" horiz-adv-x="1308" 
d="M981 1610h-295l-256 327h236l168 -153l167 153h236zM858 287q112 0 205.5 41t157.5 112v-374q-168 -91 -369 -91q-159 0 -303.5 61.5t-248 165t-165 246.5t-61.5 300t61.5 300t165 246.5t248 164.5t303.5 61q203 0 369 -90v-375q-64 71 -157.5 112t-205.5 41
q-194 0 -325.5 -132t-131.5 -328t131.5 -328.5t325.5 -132.5z" />
    <glyph glyph-name="ccaron" unicode="&#x10d;" horiz-adv-x="935" 
d="M752 1206h-291l-225 350h219l151 -161l152 161h219zM647 254q113 0 207 65v-301q-93 -43 -225 -43q-150 0 -278.5 70.5t-206.5 198t-78 282.5q0 157 78 285t206.5 198t278.5 70q127 0 225 -45v-299q-100 66 -207 66q-113 0 -194.5 -77t-81.5 -198q0 -119 81.5 -195.5
t194.5 -76.5z" />
    <glyph glyph-name="Dcaron" unicode="&#x10e;" horiz-adv-x="1480" 
d="M811 1610h-295l-256 327h236l168 -153l167 153h236zM150 1495h487q158 0 300.5 -57.5t245.5 -156t163.5 -237.5t60.5 -296q0 -209 -102.5 -381t-279.5 -269.5t-388 -97.5h-487v1495zM616 1225h-141v-955h137q137 0 244.5 65.5t165 174t57.5 238.5t-57.5 238.5t-164 173.5
t-241.5 65z" />
    <glyph glyph-name="dcaron" unicode="&#x10f;" horiz-adv-x="1662" 
d="M571 1079q104 0 188.5 -40t129.5 -97v614h319v-1556h-319v113q-45 -58 -129.5 -98t-188.5 -40q-214 0 -359.5 158.5t-145.5 392.5q0 236 145.5 394.5t359.5 158.5zM1544 1159h-213l64 397h301zM639 805q-108 0 -182 -79.5t-74 -199.5q0 -119 74 -198.5t182 -79.5
q111 0 184.5 79t73.5 199q0 121 -73.5 200t-184.5 79z" />
    <glyph glyph-name="Dcroat" unicode="&#x110;" horiz-adv-x="1511" 
d="M53 629v270h127v596h488q158 0 300.5 -57.5t245.5 -156t163.5 -237.5t60.5 -296q0 -209 -102.5 -381t-279.5 -269.5t-388 -97.5h-488v629h-127zM647 1225h-141v-326h285v-270h-285v-359h137q137 0 244.5 65.5t165 174t57.5 238.5t-57.5 238.5t-164 173.5t-241.5 65z" />
    <glyph glyph-name="dcroat" unicode="&#x111;" horiz-adv-x="1341" 
d="M571 1079q104 0 188.5 -40t129.5 -97v221h-217v221h217v172h319v-172h115v-221h-115v-1163h-319v113q-45 -58 -129.5 -98t-188.5 -40q-214 0 -359.5 158.5t-145.5 392.5q0 236 145.5 394.5t359.5 158.5zM639 805q-108 0 -182 -79.5t-74 -199.5q0 -119 74 -198.5
t182 -79.5q111 0 184.5 79t73.5 199q0 121 -73.5 200t-184.5 79z" />
    <glyph glyph-name="Emacron" unicode="&#x112;" horiz-adv-x="1183" 
d="M291 1618v221h696v-221h-696zM150 0v1495h942v-270h-623v-326h575v-270h-575v-359h627v-270h-946z" />
    <glyph glyph-name="emacron" unicode="&#x113;" horiz-adv-x="1175" 
d="M328 1227v221h590v-221h-590zM68 524q0 117 44.5 221t118.5 176.5t172.5 115t204.5 42.5q108 0 196.5 -32.5t148.5 -91t99 -138.5t53 -174.5t5 -200.5h-743q26 -99 112.5 -151.5t216.5 -52.5q87 0 177.5 27.5t156.5 74.5v-272q-149 -93 -375 -93q-164 0 -298.5 70
t-211.5 196t-77 283zM604 825q-82 0 -142.5 -47.5t-86.5 -132.5h440q-8 72 -63.5 126t-147.5 54z" />
    <glyph glyph-name="Ebreve" unicode="&#x114;" horiz-adv-x="1183" 
d="M993 1937q-9 -159 -110 -251.5t-244 -92.5q-142 0 -243.5 92.5t-110.5 251.5h233q3 -57 36 -91t85 -34t85 34t36 91h233zM150 0v1495h942v-270h-623v-326h575v-270h-575v-359h627v-270h-946z" />
    <glyph glyph-name="ebreve" unicode="&#x115;" horiz-adv-x="1175" 
d="M948 1544q0 -169 -90.5 -264.5t-234.5 -95.5t-234 95.5t-90 264.5h213q0 -68 30.5 -108.5t80.5 -40.5t80 40t30 109h215zM68 524q0 117 44.5 221t118.5 176.5t172.5 115t204.5 42.5q108 0 196.5 -32.5t148.5 -91t99 -138.5t53 -174.5t5 -200.5h-743q26 -99 112.5 -151.5
t216.5 -52.5q87 0 177.5 27.5t156.5 74.5v-272q-149 -93 -375 -93q-164 0 -298.5 70t-211.5 196t-77 283zM604 825q-82 0 -142.5 -47.5t-86.5 -132.5h440q-8 72 -63.5 126t-147.5 54z" />
    <glyph glyph-name="Edotaccent" unicode="&#x116;" horiz-adv-x="1183" 
d="M643 1954q74 0 127 -52t53 -128q0 -75 -53 -127t-127 -52h-4q-74 0 -127 52t-53 127q0 76 53 128t127 52h4zM150 0v1495h942v-270h-623v-326h575v-270h-575v-359h627v-270h-946z" />
    <glyph glyph-name="edotaccent" unicode="&#x117;" horiz-adv-x="1175" 
d="M627 1550q74 0 127 -52t53 -128q0 -74 -53 -126t-127 -52h-4q-74 0 -127.5 52t-53.5 126q0 76 53.5 128t127.5 52h4zM68 524q0 117 44.5 221t118.5 176.5t172.5 115t204.5 42.5q108 0 196.5 -32.5t148.5 -91t99 -138.5t53 -174.5t5 -200.5h-743q26 -99 112.5 -151.5
t216.5 -52.5q87 0 177.5 27.5t156.5 74.5v-272q-149 -93 -375 -93q-164 0 -298.5 70t-211.5 196t-77 283zM604 825q-82 0 -142.5 -47.5t-86.5 -132.5h440q-8 72 -63.5 126t-147.5 54z" />
    <glyph glyph-name="Eogonek" unicode="&#x118;" horiz-adv-x="1183" 
d="M150 0v1495h942v-270h-623v-326h575v-270h-575v-359h627v-270h-105q-90 -100 -114.5 -133.5t-24.5 -65.5q0 -24 15 -37.5t40 -13.5q39 0 88 33v-195q-65 -43 -145 -43q-93 0 -150 46.5t-57 134.5q0 64 38 125.5t116 148.5h-647z" />
    <glyph glyph-name="eogonek" unicode="&#x119;" horiz-adv-x="1175" 
d="M68 524q0 117 44.5 221t118.5 176.5t172.5 115t204.5 42.5q108 0 196.5 -32.5t148.5 -91t99 -138.5t53 -174.5t5 -200.5h-743q26 -99 112.5 -151.5t216.5 -52.5q87 0 177.5 27.5t156.5 74.5v-272q-66 -39 -147 -64q-95 -103 -120.5 -137t-25.5 -66q0 -24 15.5 -37.5
t40.5 -13.5q39 0 88 33v-195q-65 -43 -146 -43q-93 0 -150 46.5t-57 134.5q0 58 33 115.5t101 133.5h-7q-164 0 -298.5 70t-211.5 196t-77 283zM604 825q-82 0 -142.5 -47.5t-86.5 -132.5h440q-8 72 -63.5 126t-147.5 54z" />
    <glyph glyph-name="Ecaron" unicode="&#x11a;" horiz-adv-x="1183" 
d="M788 1610h-294l-256 327h235l168 -153l168 153h235zM150 0v1495h942v-270h-623v-326h575v-270h-575v-359h627v-270h-946z" />
    <glyph glyph-name="ecaron" unicode="&#x11b;" horiz-adv-x="1175" 
d="M770 1206h-291l-225 350h219l152 -161l151 161h219zM68 524q0 117 44.5 221t118.5 176.5t172.5 115t204.5 42.5q108 0 196.5 -32.5t148.5 -91t99 -138.5t53 -174.5t5 -200.5h-743q26 -99 112.5 -151.5t216.5 -52.5q87 0 177.5 27.5t156.5 74.5v-272q-149 -93 -375 -93
q-164 0 -298.5 70t-211.5 196t-77 283zM604 825q-82 0 -142.5 -47.5t-86.5 -132.5h440q-8 72 -63.5 126t-147.5 54z" />
    <glyph glyph-name="Gcircumflex" unicode="&#x11c;" horiz-adv-x="1581" 
d="M1024 1937l256 -327h-236l-167 153l-168 -153h-236l256 327h295zM1468 852v-586q-97 -132 -261 -211.5t-367 -79.5q-209 0 -385 102.5t-278.5 279t-102.5 386.5q0 159 60 301t165 247.5t258 167t330 61.5q161 0 294 -49.5t214 -118.5v-381q-96 109 -230.5 177.5
t-277.5 68.5q-215 0 -350.5 -133t-135.5 -341q0 -199 130 -334t325 -135q177 0 291 88v220h-344l76 270h589z" />
    <glyph glyph-name="gcircumflex" unicode="&#x11d;" horiz-adv-x="1335" 
d="M831 1556l226 -350h-219l-152 162l-151 -162h-220l226 350h290zM1202 1055v-957q0 -113 -35 -206.5t-94.5 -156.5t-140.5 -106.5t-171.5 -63.5t-189.5 -20q-108 0 -209.5 25.5t-168.5 67.5v313q151 -125 372 -125q135 0 226.5 64.5t91.5 187.5v84q-47 -56 -129.5 -94.5
t-184.5 -38.5q-134 0 -248 67t-182.5 188t-68.5 269q0 149 68.5 270.5t182.5 188.5t248 67q101 0 183.5 -39.5t130.5 -95.5v111h319zM887 553q0 108 -73.5 179t-176.5 71t-176.5 -71t-73.5 -179t73.5 -180t176.5 -72t176.5 72t73.5 180z" />
    <glyph glyph-name="Gbreve" unicode="&#x11e;" horiz-adv-x="1581" 
d="M1229 1937q-9 -159 -110 -251.5t-245 -92.5q-142 0 -243.5 92.5t-110.5 251.5h234q3 -57 35.5 -91t84.5 -34t85 34t36 91h234zM1468 852v-586q-97 -132 -261 -211.5t-367 -79.5q-209 0 -385 102.5t-278.5 279t-102.5 386.5q0 159 60 301t165 247.5t258 167t330 61.5
q161 0 294 -49.5t214 -118.5v-381q-96 109 -230.5 177.5t-277.5 68.5q-215 0 -350.5 -133t-135.5 -341q0 -199 130 -334t325 -135q177 0 291 88v220h-344l76 270h589z" />
    <glyph glyph-name="gbreve" unicode="&#x11f;" horiz-adv-x="1335" 
d="M1010 1544q0 -169 -91 -264.5t-235 -95.5t-234 95.5t-90 264.5h213q0 -68 30.5 -108.5t80.5 -40.5t80.5 40.5t30.5 108.5h215zM1202 1055v-957q0 -113 -35 -206.5t-94.5 -156.5t-140.5 -106.5t-171.5 -63.5t-189.5 -20q-108 0 -209.5 25.5t-168.5 67.5v313
q151 -125 372 -125q135 0 226.5 64.5t91.5 187.5v84q-47 -56 -129.5 -94.5t-184.5 -38.5q-134 0 -248 67t-182.5 188t-68.5 269q0 149 68.5 270.5t182.5 188.5t248 67q101 0 183.5 -39.5t130.5 -95.5v111h319zM887 553q0 108 -73.5 179t-176.5 71t-176.5 -71t-73.5 -179
t73.5 -180t176.5 -72t176.5 72t73.5 180z" />
    <glyph glyph-name="Gdotaccent" unicode="&#x120;" horiz-adv-x="1581" 
d="M879 1954q74 0 127 -52t53 -128q0 -75 -53 -127t-127 -52h-5q-74 0 -127 52t-53 127q0 76 53 128t127 52h5zM1468 852v-586q-97 -132 -261 -211.5t-367 -79.5q-209 0 -385 102.5t-278.5 279t-102.5 386.5q0 159 60 301t165 247.5t258 167t330 61.5q161 0 294 -49.5
t214 -118.5v-381q-96 109 -230.5 177.5t-277.5 68.5q-215 0 -350.5 -133t-135.5 -341q0 -199 130 -334t325 -135q177 0 291 88v220h-344l76 270h589z" />
    <glyph glyph-name="gdotaccent" unicode="&#x121;" horiz-adv-x="1335" 
d="M688 1550q74 0 127 -52t53 -128q0 -74 -53 -126t-127 -52h-4q-74 0 -127 52t-53 126q0 76 53 128t127 52h4zM1202 1055v-957q0 -113 -35 -206.5t-94.5 -156.5t-140.5 -106.5t-171.5 -63.5t-189.5 -20q-108 0 -209.5 25.5t-168.5 67.5v313q151 -125 372 -125
q135 0 226.5 64.5t91.5 187.5v84q-47 -56 -129.5 -94.5t-184.5 -38.5q-134 0 -248 67t-182.5 188t-68.5 269q0 149 68.5 270.5t182.5 188.5t248 67q101 0 183.5 -39.5t130.5 -95.5v111h319zM887 553q0 108 -73.5 179t-176.5 71t-176.5 -71t-73.5 -179t73.5 -180t176.5 -72
t176.5 72t73.5 180z" />
    <glyph glyph-name="uni0122" unicode="&#x122;" horiz-adv-x="1581" 
d="M1468 852v-586q-97 -132 -261 -211.5t-367 -79.5q-209 0 -385 102.5t-278.5 279t-102.5 386.5q0 159 60 301t165 247.5t258 167t330 61.5q161 0 294 -49.5t214 -118.5v-381q-96 109 -230.5 177.5t-277.5 68.5q-215 0 -350.5 -133t-135.5 -341q0 -199 130 -334t325 -135
q177 0 291 88v220h-344l76 270h589zM825 -508l-184 62l98 374l295 -104z" />
    <glyph glyph-name="uni0123" unicode="&#x123;" horiz-adv-x="1335" 
d="M733 1593l185 -61l-99 -375l-295 105zM1202 1055v-957q0 -113 -35 -206.5t-94.5 -156.5t-140.5 -106.5t-171.5 -63.5t-189.5 -20q-108 0 -209.5 25.5t-168.5 67.5v313q151 -125 372 -125q135 0 226.5 64.5t91.5 187.5v84q-47 -56 -129.5 -94.5t-184.5 -38.5
q-134 0 -248 67t-182.5 188t-68.5 269q0 149 68.5 270.5t182.5 188.5t248 67q101 0 183.5 -39.5t130.5 -95.5v111h319zM887 553q0 108 -73.5 179t-176.5 71t-176.5 -71t-73.5 -179t73.5 -180t176.5 -72t176.5 72t73.5 180z" />
    <glyph glyph-name="Hcircumflex" unicode="&#x124;" horiz-adv-x="1576" 
d="M936 1937l256 -327h-236l-168 153l-167 -153h-236l256 327h295zM1100 0v629h-625v-629h-325v1495h325v-596h625v596h327v-1495h-327z" />
    <glyph glyph-name="hcircumflex" unicode="&#x125;" horiz-adv-x="1249" 
d="M776 1937l256 -327h-235l-168 153l-168 -153h-236l256 327h295zM453 594v-594h-320v1556h320v-606q45 58 119.5 93.5t166.5 35.5q178 0 281.5 -108.5t103.5 -288.5v-682h-321v594q0 84 -45.5 140.5t-128.5 56.5q-82 0 -129 -57t-47 -140z" />
    <glyph glyph-name="Hbar" unicode="&#x126;" horiz-adv-x="1638" 
d="M53 969v270h127v256h326v-256h624v256h328v-256h127v-270h-127v-969h-328v502h-624v-502h-326v969h-127zM506 772h624v197h-624v-197z" />
    <glyph glyph-name="hbar" unicode="&#x127;" horiz-adv-x="1249" 
d="M453 594v-594h-320v1163h-106v221h106v172h320v-172h225v-221h-225v-213q45 58 119.5 93.5t166.5 35.5q178 0 281.5 -108.5t103.5 -288.5v-682h-321v594q0 84 -45.5 140.5t-128.5 56.5q-82 0 -129 -57t-47 -140z" />
    <glyph glyph-name="Itilde" unicode="&#x128;" horiz-adv-x="622" 
d="M481 1937h195q0 -144 -56.5 -238.5t-162.5 -94.5q-39 0 -75.5 16t-60.5 35t-54 35t-56 16q-33 0 -51.5 -26t-18.5 -70h-192q0 147 56 241.5t163 94.5q49 0 93.5 -26t82 -51.5t68.5 -25.5q33 0 51 26t18 68zM150 1495h325v-1495h-325v1495z" />
    <glyph glyph-name="itilde" unicode="&#x129;" horiz-adv-x="583" 
d="M463 1544h194q0 -143 -57 -238.5t-162 -95.5q-39 0 -75.5 16t-60 35.5t-53.5 35.5t-56 16q-33 0 -51.5 -26t-18.5 -70h-193q0 146 56.5 240.5t163.5 94.5q39 0 75.5 -16t60 -35t52.5 -35t55 -16q33 0 51.5 26t18.5 68zM133 1055h320v-1055h-320v1055z" />
    <glyph glyph-name="Imacron" unicode="&#x12a;" horiz-adv-x="622" 
d="M-37 1618v221h696v-221h-696zM150 1495h325v-1495h-325v1495z" />
    <glyph glyph-name="imacron" unicode="&#x12b;" horiz-adv-x="583" 
d="M-2 1227v221h590v-221h-590zM133 1055h320v-1055h-320v1055z" />
    <glyph glyph-name="Ibreve" unicode="&#x12c;" horiz-adv-x="622" 
d="M666 1937q-9 -159 -110 -251.5t-245 -92.5q-142 0 -243.5 92.5t-110.5 251.5h233q3 -57 36 -91t85 -34t85 34t36 91h234zM150 1495h325v-1495h-325v1495z" />
    <glyph glyph-name="ibreve" unicode="&#x12d;" horiz-adv-x="583" 
d="M616 1544q0 -169 -90.5 -264.5t-234.5 -95.5t-234 95.5t-90 264.5h213q0 -68 30.5 -108.5t80.5 -40.5t80 40t30 109h215zM133 1055h320v-1055h-320v1055z" />
    <glyph glyph-name="Iogonek" unicode="&#x12e;" horiz-adv-x="622" 
d="M150 1495h325v-1495h-8q-90 -100 -114.5 -133.5t-24.5 -65.5q0 -24 15 -37.5t40 -13.5q39 0 88 33v-195q-65 -43 -145 -43q-93 0 -150 46.5t-57 134.5q0 64 37.5 126t115.5 148h-122v1495z" />
    <glyph glyph-name="iogonek" unicode="&#x12f;" horiz-adv-x="583" 
d="M295 1550q74 0 127 -52t53 -128q0 -74 -53 -126t-127 -52h-4q-75 0 -127.5 51.5t-52.5 126.5q0 76 52.5 128t127.5 52h4zM133 1055h320v-1047h2l-2 -2v-6h-7q-90 -100 -114.5 -133.5t-24.5 -65.5q0 -24 15 -37.5t40 -13.5q40 0 89 33v-195q-65 -43 -146 -43
q-93 0 -150 46.5t-57 134.5q0 64 38 125.5t116 148.5h-119v1055z" />
    <glyph glyph-name="Idotaccent" unicode="&#x130;" horiz-adv-x="622" 
d="M315 1954q74 0 127.5 -52t53.5 -128q0 -74 -53.5 -126.5t-127.5 -52.5h-4q-74 0 -127 52t-53 127q0 76 53 128t127 52h4zM150 1495h325v-1495h-325v1495z" />
    <glyph glyph-name="dotlessi" unicode="&#x131;" horiz-adv-x="583" 
d="M133 1055h320v-1055h-320v1055z" />
    <glyph glyph-name="Jcircumflex" unicode="&#x134;" horiz-adv-x="983" 
d="M840 1937l256 -327h-236l-168 153l-168 -153h-235l256 327h295zM858 510q0 -248 -143 -391.5t-377 -143.5q-158 0 -277 66v315q102 -92 238 -92q106 0 169.5 67t63.5 189v975h326v-985z" />
    <glyph glyph-name="jcircumflex" unicode="&#x135;" horiz-adv-x="583" 
d="M432 1556l225 -350h-219l-151 162l-152 -162h-219l225 350h291zM133 -33v1088h320v-1073q0 -190 -122 -306t-306 -116q-57 0 -101 8v256q31 -8 60 -8q70 0 109.5 40t39.5 111z" />
    <glyph glyph-name="uni0136" unicode="&#x136;" horiz-adv-x="1433" 
d="M809 813l610 -813h-381l-563 745v-745h-325v1495h325v-657l518 657h385zM678 -508l-184 62l98 374l295 -104z" />
    <glyph glyph-name="uni0137" unicode="&#x137;" horiz-adv-x="1218" 
d="M133 1556h318v-956l356 455h373l-406 -492l420 -563h-375l-368 514v-514h-318v1556zM569 -508l-184 62l98 374l295 -104z" />
    <glyph glyph-name="kgreenlandic" unicode="&#x138;" horiz-adv-x="1218" 
d="M133 1055h318v-455l356 455h373l-406 -492l420 -563h-375l-368 514v-514h-318v1055z" />
    <glyph glyph-name="Lacute" unicode="&#x139;" horiz-adv-x="1105" 
d="M186 1610l228 327h411l-362 -327h-277zM150 0v1495h325v-1225h590v-270h-915z" />
    <glyph glyph-name="lacute" unicode="&#x13a;" horiz-adv-x="583" 
d="M141 1610l228 327h411l-362 -327h-277zM133 1556h320v-1556h-320v1556z" />
    <glyph glyph-name="uni013B" unicode="&#x13b;" horiz-adv-x="1105" 
d="M150 0v1495h325v-1225h590v-270h-915zM555 -508l-184 62l98 374l295 -104z" />
    <glyph glyph-name="uni013C" unicode="&#x13c;" horiz-adv-x="583" 
d="M133 1556h320v-1556h-320v1556zM242 -508l-185 62l99 374l295 -104z" />
    <glyph glyph-name="Lcaron" unicode="&#x13d;" horiz-adv-x="1105" 
d="M150 0v1495h325v-1225h590v-270h-915zM864 1098h-213l64 397h301z" />
    <glyph glyph-name="lcaron" unicode="&#x13e;" horiz-adv-x="905" 
d="M133 1556h320v-1556h-320v1556zM786 1159h-213l64 397h301z" />
    <glyph glyph-name="Ldot" unicode="&#x13f;" horiz-adv-x="1105" 
d="M150 0v1495h325v-1225h590v-270h-915zM881 1028q74 0 127 -52t53 -128q0 -74 -53 -126t-127 -52h-4q-74 0 -127.5 52t-53.5 126q0 76 53.5 128t127.5 52h4z" />
    <glyph glyph-name="ldot" unicode="&#x140;" horiz-adv-x="897" 
d="M133 1556h320v-1556h-320v1556zM739 961q74 0 127.5 -52.5t53.5 -128.5q0 -74 -53.5 -126t-127.5 -52h-4q-74 0 -127 52t-53 126q0 76 53 128.5t127 52.5h4z" />
    <glyph glyph-name="Lslash" unicode="&#x141;" horiz-adv-x="1130" 
d="M172 0v567l-123 -39v273l123 39v655h326v-549l323 105v-275l-323 -104v-402h589v-270h-915z" />
    <glyph glyph-name="lslash" unicode="&#x142;" horiz-adv-x="665" 
d="M25 506v264l149 74v712h320v-555l147 74v-262l-147 -74v-739h-320v580z" />
    <glyph glyph-name="Nacute" unicode="&#x143;" horiz-adv-x="1648" 
d="M629 1610l227 327h412l-363 -327h-276zM1180 616v879h319v-1554l-1032 936v-877h-320v1554z" />
    <glyph glyph-name="nacute" unicode="&#x144;" horiz-adv-x="1249" 
d="M496 1206l145 350h354l-260 -350h-239zM453 594v-594h-320v1055h320v-105q45 58 119.5 93.5t166.5 35.5q178 0 281.5 -108.5t103.5 -288.5v-682h-321v594q0 84 -45.5 140.5t-128.5 56.5q-82 0 -129 -57t-47 -140z" />
    <glyph glyph-name="uni0145" unicode="&#x145;" horiz-adv-x="1648" 
d="M1180 616v879h319v-1554l-1032 936v-877h-320v1554zM829 -508l-184 62l98 374l295 -104z" />
    <glyph glyph-name="uni0146" unicode="&#x146;" horiz-adv-x="1249" 
d="M453 594v-594h-320v1055h320v-105q45 58 119.5 93.5t166.5 35.5q178 0 281.5 -108.5t103.5 -288.5v-682h-321v594q0 84 -45.5 140.5t-128.5 56.5q-82 0 -129 -57t-47 -140zM578 -508l-185 62l99 374l294 -104z" />
    <glyph glyph-name="Ncaron" unicode="&#x147;" horiz-adv-x="1648" 
d="M946 1610h-295l-256 327h236l168 -153l168 153h235zM1180 616v879h319v-1554l-1032 936v-877h-320v1554z" />
    <glyph glyph-name="ncaron" unicode="&#x148;" horiz-adv-x="1249" 
d="M774 1206h-291l-225 350h219l152 -161l151 161h219zM453 594v-594h-320v1055h320v-105q45 58 119.5 93.5t166.5 35.5q178 0 281.5 -108.5t103.5 -288.5v-682h-321v594q0 84 -45.5 140.5t-128.5 56.5q-82 0 -129 -57t-47 -140z" />
    <glyph glyph-name="Eng" unicode="&#x14a;" horiz-adv-x="1628" 
d="M1161 1503h318v-1521q0 -190 -121.5 -306t-306.5 -116q-58 0 -99 8v256q31 -8 60 -8q68 0 108.5 40t40.5 111v86l-694 924v-977h-317v1495h296l715 -963v971z" />
    <glyph glyph-name="eng" unicode="&#x14b;" horiz-adv-x="1249" 
d="M453 950q45 58 119.5 93.5t166.5 35.5q178 0 281.5 -108.5t103.5 -288.5v-700q0 -190 -122.5 -306t-307.5 -116q-57 0 -98 8v256q31 -8 59 -8q68 0 108 40t40 111v627q0 84 -45.5 140.5t-128.5 56.5q-82 0 -129 -57t-47 -140v-594h-320v1055h320v-105z" />
    <glyph glyph-name="Omacron" unicode="&#x14c;" horiz-adv-x="1685" 
d="M494 1618v221h696v-221h-696zM842 1520q158 0 300.5 -61t245.5 -164.5t163.5 -246.5t60.5 -300t-60.5 -300t-163.5 -246.5t-245.5 -165t-300.5 -61.5q-157 0 -299.5 61.5t-245 165t-163 246.5t-60.5 300q0 210 102.5 387.5t279.5 281t386 103.5zM842 1217
q-185 0 -313 -133.5t-128 -335.5t128 -335.5t313 -133.5q186 0 314 133.5t128 335.5t-128 335.5t-314 133.5z" />
    <glyph glyph-name="omacron" unicode="&#x14d;" horiz-adv-x="1267" 
d="M348 1227v221h590v-221h-590zM635 -25q-153 0 -282.5 70.5t-207 197.5t-77.5 283t77.5 283.5t207.5 198.5t282 71q153 0 283.5 -71t208 -198.5t77.5 -283.5t-77.5 -283t-207.5 -197.5t-284 -70.5zM635 805q-108 0 -180 -78.5t-72 -200.5q0 -121 72 -198.5t180 -77.5
q109 0 180.5 77.5t71.5 198.5q0 122 -71.5 200.5t-180.5 78.5z" />
    <glyph glyph-name="Obreve" unicode="&#x14e;" horiz-adv-x="1685" 
d="M1196 1937q-9 -159 -110 -251.5t-244 -92.5q-142 0 -244 92.5t-111 251.5h234q3 -57 36 -91t85 -34t85 34t36 91h233zM842 1520q158 0 300.5 -61t245.5 -164.5t163.5 -246.5t60.5 -300t-60.5 -300t-163.5 -246.5t-245.5 -165t-300.5 -61.5q-157 0 -299.5 61.5t-245 165
t-163 246.5t-60.5 300q0 210 102.5 387.5t279.5 281t386 103.5zM842 1217q-185 0 -313 -133.5t-128 -335.5t128 -335.5t313 -133.5q186 0 314 133.5t128 335.5t-128 335.5t-314 133.5z" />
    <glyph glyph-name="obreve" unicode="&#x14f;" horiz-adv-x="1267" 
d="M967 1544q0 -169 -91 -264.5t-235 -95.5t-234 95.5t-90 264.5h213q0 -68 30.5 -108.5t80.5 -40.5t80.5 40.5t30.5 108.5h215zM635 -25q-153 0 -282.5 70.5t-207 197.5t-77.5 283t77.5 283.5t207.5 198.5t282 71q153 0 283.5 -71t208 -198.5t77.5 -283.5t-77.5 -283
t-207.5 -197.5t-284 -70.5zM635 805q-108 0 -180 -78.5t-72 -200.5q0 -121 72 -198.5t180 -77.5q109 0 180.5 77.5t71.5 198.5q0 122 -71.5 200.5t-180.5 78.5z" />
    <glyph glyph-name="Ohungarumlaut" unicode="&#x150;" horiz-adv-x="1685" 
d="M510 1610l211 327h344l-330 -327h-225zM920 1610l210 327h345l-328 -327h-227zM842 1520q158 0 300.5 -61t245.5 -164.5t163.5 -246.5t60.5 -300t-60.5 -300t-163.5 -246.5t-245.5 -165t-300.5 -61.5q-157 0 -299.5 61.5t-245 165t-163 246.5t-60.5 300
q0 210 102.5 387.5t279.5 281t386 103.5zM842 1217q-185 0 -313 -133.5t-128 -335.5t128 -335.5t313 -133.5q186 0 314 133.5t128 335.5t-128 335.5t-314 133.5z" />
    <glyph glyph-name="ohungarumlaut" unicode="&#x151;" horiz-adv-x="1267" 
d="M311 1206l129 350h338l-243 -350h-224zM713 1206l129 350h338l-242 -350h-225zM635 -25q-153 0 -282.5 70.5t-207 197.5t-77.5 283t77.5 283.5t207.5 198.5t282 71q153 0 283.5 -71t208 -198.5t77.5 -283.5t-77.5 -283t-207.5 -197.5t-284 -70.5zM635 805
q-108 0 -180 -78.5t-72 -200.5q0 -121 72 -198.5t180 -77.5q109 0 180.5 77.5t71.5 198.5q0 122 -71.5 200.5t-180.5 78.5z" />
    <glyph glyph-name="OE" unicode="&#x152;" horiz-adv-x="2039" 
d="M844 0q-211 0 -388 97.5t-279.5 269.5t-102.5 381q0 157 60.5 296t163.5 237.5t245.5 156t300.5 57.5h1106v-270h-619v-326h572v-270h-572v-359h621v-270h-1108zM1006 1225h-142q-135 0 -241.5 -65t-164 -173.5t-57.5 -238.5t57.5 -238.5t165 -174t244.5 -65.5h138v955z
" />
    <glyph glyph-name="oe" unicode="&#x153;" horiz-adv-x="2002" 
d="M1931 442h-741q26 -99 112.5 -151.5t217.5 -52.5q87 0 177 27.5t156 74.5v-272q-149 -93 -376 -93q-127 0 -239 47t-191 130q-80 -82 -187.5 -129.5t-224.5 -47.5q-153 0 -283 70.5t-207 197.5t-77 283t77 283.5t207 198.5t283 71q118 0 224.5 -46.5t184.5 -129.5
q76 83 177.5 129.5t210.5 46.5q135 0 237.5 -50t162.5 -137.5t85.5 -202t13.5 -247.5zM1427 825q-82 0 -142.5 -47.5t-86.5 -132.5h440q-8 72 -63.5 126t-147.5 54zM635 805q-108 0 -180 -78.5t-72 -200.5q0 -121 72 -199.5t180 -78.5q109 0 180.5 78.5t71.5 199.5
q0 122 -71.5 200.5t-180.5 78.5z" />
    <glyph glyph-name="Racute" unicode="&#x154;" horiz-adv-x="1376" 
d="M459 1610l227 327h412l-363 -327h-276zM475 553v-553h-325v1495h454q259 0 419.5 -128t160.5 -349q0 -142 -70 -245.5t-196 -160.5l434 -612h-379l-387 553h-111zM475 1229v-418h127q115 0 182.5 55.5t67.5 151.5q0 99 -67.5 155t-182.5 56h-127z" />
    <glyph glyph-name="racute" unicode="&#x155;" horiz-adv-x="833" 
d="M336 1206l145 350h355l-261 -350h-239zM776 1073v-321q-149 20 -237 -43t-88 -213v-496h-322v1055h322v-148q49 77 133.5 123.5t191.5 42.5z" />
    <glyph glyph-name="uni0156" unicode="&#x156;" horiz-adv-x="1376" 
d="M475 553v-553h-325v1495h454q259 0 419.5 -128t160.5 -349q0 -142 -70 -245.5t-196 -160.5l434 -612h-379l-387 553h-111zM475 1229v-418h127q115 0 182.5 55.5t67.5 151.5q0 99 -67.5 155t-182.5 56h-127zM641 -508l-184 62l98 374l295 -104z" />
    <glyph glyph-name="uni0157" unicode="&#x157;" horiz-adv-x="833" 
d="M776 1073v-321q-149 20 -237 -43t-88 -213v-496h-322v1055h322v-148q49 77 133.5 123.5t191.5 42.5zM229 -508l-184 62l98 374l295 -104z" />
    <glyph glyph-name="Rcaron" unicode="&#x158;" horiz-adv-x="1376" 
d="M758 1610h-295l-256 327h235l168 -153l168 153h236zM475 553v-553h-325v1495h454q259 0 419.5 -128t160.5 -349q0 -142 -70 -245.5t-196 -160.5l434 -612h-379l-387 553h-111zM475 1229v-418h127q115 0 182.5 55.5t67.5 151.5q0 99 -67.5 155t-182.5 56h-127z" />
    <glyph glyph-name="rcaron" unicode="&#x159;" horiz-adv-x="833" 
d="M614 1206h-290l-226 350h219l152 -161l152 161h219zM776 1073v-321q-149 20 -237 -43t-88 -213v-496h-322v1055h322v-148q49 77 133.5 123.5t191.5 42.5z" />
    <glyph glyph-name="Sacute" unicode="&#x15a;" horiz-adv-x="1138" 
d="M438 1610l228 327h411l-362 -327h-277zM68 453q253 -201 469 -201q104 0 165.5 40.5t61.5 115.5q0 59 -34 92.5t-103 66.5l-252 115q-71 34 -119.5 66t-94 78t-68.5 108.5t-23 140.5q0 132 68.5 234t185 156.5t260.5 54.5q122 0 232 -43t175 -103v-334q-94 92 -203 147.5
t-219 55.5q-84 0 -135 -37t-51 -104q0 -45 28 -75.5t83 -57.5l231 -105q182 -79 265 -173.5t83 -250.5q0 -142 -73 -249t-195.5 -161.5t-274.5 -54.5q-137 0 -259 42.5t-203 105.5v330z" />
    <glyph glyph-name="sacute" unicode="&#x15b;" horiz-adv-x="917" 
d="M367 1206l145 350h354l-260 -350h-239zM80 360q71 -65 167.5 -102t188.5 -37q54 0 88.5 20.5t34.5 57.5q0 28 -16.5 43.5t-57.5 34.5l-198 82q-94 40 -145.5 104t-51.5 174q0 143 114 242.5t288 99.5q166 0 299 -86v-280q-158 116 -297 116q-51 0 -79 -19t-28 -54
q0 -29 21 -46.5t73 -39.5l183 -78q98 -39 147 -104.5t49 -168.5q0 -105 -61 -184.5t-156.5 -119.5t-206.5 -40q-205 0 -356 97v288z" />
    <glyph glyph-name="Scircumflex" unicode="&#x15c;" horiz-adv-x="1138" 
d="M731 1937l256 -327h-235l-168 153l-168 -153h-236l256 327h295zM68 453q253 -201 469 -201q104 0 165.5 40.5t61.5 115.5q0 59 -34 92.5t-103 66.5l-252 115q-71 34 -119.5 66t-94 78t-68.5 108.5t-23 140.5q0 132 68.5 234t185 156.5t260.5 54.5q122 0 232 -43t175 -103
v-334q-94 92 -203 147.5t-219 55.5q-84 0 -135 -37t-51 -104q0 -45 28 -75.5t83 -57.5l231 -105q182 -79 265 -173.5t83 -250.5q0 -142 -73 -249t-195.5 -161.5t-274.5 -54.5q-137 0 -259 42.5t-203 105.5v330z" />
    <glyph glyph-name="scircumflex" unicode="&#x15d;" horiz-adv-x="917" 
d="M647 1556l225 -350h-219l-151 162l-152 -162h-219l225 350h291zM80 360q71 -65 167.5 -102t188.5 -37q54 0 88.5 20.5t34.5 57.5q0 28 -16.5 43.5t-57.5 34.5l-198 82q-94 40 -145.5 104t-51.5 174q0 143 114 242.5t288 99.5q166 0 299 -86v-280q-158 116 -297 116
q-51 0 -79 -19t-28 -54q0 -29 21 -46.5t73 -39.5l183 -78q98 -39 147 -104.5t49 -168.5q0 -105 -61 -184.5t-156.5 -119.5t-206.5 -40q-205 0 -356 97v288z" />
    <glyph glyph-name="uni015E" unicode="&#x15e;" horiz-adv-x="1138" 
d="M68 453q253 -201 469 -201q104 0 165.5 40.5t61.5 115.5q0 59 -34 92.5t-103 66.5l-252 115q-71 34 -119.5 66t-94 78t-68.5 108.5t-23 140.5q0 132 68.5 234t185 156.5t260.5 54.5q122 0 232 -43t175 -103v-334q-94 92 -203 147.5t-219 55.5q-84 0 -135 -37t-51 -104
q0 -45 28 -75.5t83 -57.5l231 -105q182 -79 265 -173.5t83 -250.5q0 -190 -125.5 -312t-324.5 -146l-21 -52q90 -11 145.5 -58t55.5 -126q0 -91 -79 -146t-187 -55q-125 0 -197 54v170q67 -64 164 -64q88 0 88 59q0 69 -166 76l53 137q-122 7 -229.5 48t-181.5 98v330z" />
    <glyph glyph-name="uni015F" unicode="&#x15f;" horiz-adv-x="917" 
d="M80 360q71 -65 167.5 -102t188.5 -37q54 0 88.5 20.5t34.5 57.5q0 28 -16.5 43.5t-57.5 34.5l-198 82q-94 40 -145.5 104t-51.5 174q0 143 114 242.5t288 99.5q166 0 299 -86v-280q-158 116 -297 116q-51 0 -79 -19t-28 -54q0 -29 21 -46.5t73 -39.5l183 -78
q98 -39 147 -104.5t49 -168.5q0 -140 -102.5 -230.5t-255.5 -108.5l-21 -50q90 -11 145.5 -58t55.5 -126q0 -91 -79 -146t-187 -55q-125 0 -197 54v170q67 -64 164 -64q88 0 88 59q0 69 -166 76l55 140q-160 15 -280 92v288z" />
    <glyph glyph-name="Scaron" unicode="&#x160;" horiz-adv-x="1138" 
d="M735 1610h-295l-256 327h236l168 -153l168 153h235zM68 453q253 -201 469 -201q104 0 165.5 40.5t61.5 115.5q0 59 -34 92.5t-103 66.5l-252 115q-71 34 -119.5 66t-94 78t-68.5 108.5t-23 140.5q0 132 68.5 234t185 156.5t260.5 54.5q122 0 232 -43t175 -103v-334
q-94 92 -203 147.5t-219 55.5q-84 0 -135 -37t-51 -104q0 -45 28 -75.5t83 -57.5l231 -105q182 -79 265 -173.5t83 -250.5q0 -142 -73 -249t-195.5 -161.5t-274.5 -54.5q-137 0 -259 42.5t-203 105.5v330z" />
    <glyph glyph-name="scaron" unicode="&#x161;" horiz-adv-x="917" 
d="M647 1206h-291l-225 350h219l152 -161l151 161h219zM80 360q71 -65 167.5 -102t188.5 -37q54 0 88.5 20.5t34.5 57.5q0 28 -16.5 43.5t-57.5 34.5l-198 82q-94 40 -145.5 104t-51.5 174q0 143 114 242.5t288 99.5q166 0 299 -86v-280q-158 116 -297 116q-51 0 -79 -19
t-28 -54q0 -29 21 -46.5t73 -39.5l183 -78q98 -39 147 -104.5t49 -168.5q0 -105 -61 -184.5t-156.5 -119.5t-206.5 -40q-205 0 -356 97v288z" />
    <glyph glyph-name="Tcommaaccent" unicode="&#x162;" horiz-adv-x="1335" 
d="M625 -455q-125 0 -197 54v170q67 -64 164 -64q88 0 88 59q0 69 -166 76l64 160h-74v1225h-463v270h1253v-270h-463v-1225h-112l-29 -70q90 -11 145.5 -58t55.5 -126q0 -91 -79 -146t-187 -55z" />
    <glyph glyph-name="tcommaaccent" unicode="&#x163;" horiz-adv-x="870" 
d="M512 387q0 -67 36.5 -102t98.5 -35q85 0 150 53v-283q-88 -45 -213 -45q-31 0 -45 2l-21 -47q90 -11 145.5 -58t55.5 -126q0 -91 -79 -146t-187 -55q-125 0 -197 54v170q67 -64 164 -64q88 0 88 59q0 69 -166 76l66 166q-100 40 -157.5 128t-57.5 218v449h-168v254h168
v225l319 96v-321h264v-254h-264v-414z" />
    <glyph glyph-name="Tcaron" unicode="&#x164;" horiz-adv-x="1335" 
d="M815 1610h-295l-256 327h236l168 -153l168 153h235zM1294 1225h-463v-1225h-327v1225h-463v270h1253v-270z" />
    <glyph glyph-name="tcaron" unicode="&#x165;" horiz-adv-x="870" 
d="M807 1159h-213l63 397h301zM512 387q0 -67 36.5 -102t98.5 -35q85 0 150 53v-283q-88 -45 -213 -45q-173 0 -282 97.5t-109 279.5v449h-168v254h168v225l319 96v-321h264v-254h-264v-414z" />
    <glyph glyph-name="Tbar" unicode="&#x166;" horiz-adv-x="1335" 
d="M250 629v270h254v326h-463v270h1253v-270h-463v-326h254v-270h-254v-629h-327v629h-254z" />
    <glyph glyph-name="tbar" unicode="&#x167;" horiz-adv-x="870" 
d="M25 459v221h168v151h-168v224h168v225l319 96v-321h264v-224h-264v-151h266v-221h-266v-72q0 -67 36.5 -102t98.5 -35q85 0 150 53v-283q-88 -45 -213 -45q-173 0 -282 97.5t-109 279.5v107h-168z" />
    <glyph glyph-name="Utilde" unicode="&#x168;" horiz-adv-x="1468" 
d="M905 1937h195q0 -144 -56.5 -238.5t-162.5 -94.5q-39 0 -75.5 16t-60.5 35t-54 35t-56 16q-33 0 -51.5 -26t-18.5 -70h-192q0 147 56 241.5t163 94.5q49 0 93.5 -26t82 -51.5t68.5 -25.5q33 0 51 26t18 68zM451 596q0 -161 76.5 -246.5t207.5 -85.5t207 85.5t76 246.5
v899h328v-899q0 -191 -81.5 -334t-219 -215t-310.5 -72q-129 0 -240.5 42.5t-193.5 120.5t-129 196t-47 262v899h326v-899z" />
    <glyph glyph-name="utilde" unicode="&#x169;" horiz-adv-x="1245" 
d="M788 1544h195q0 -143 -57 -238.5t-162 -95.5q-39 0 -75.5 16t-60.5 35.5t-54 35.5t-56 16q-33 0 -51 -26t-18 -70h-193q0 147 56 241t163 94q39 0 75.5 -16t60.5 -35t53 -35t55 -16q33 0 51 26t18 68zM791 455v600h321v-1055h-321v102q-44 -56 -119 -91.5t-166 -35.5
q-178 0 -279.5 108.5t-101.5 287.5v684h321v-600q0 -85 44 -141t126 -56t128.5 57t46.5 140z" />
    <glyph glyph-name="Umacron" unicode="&#x16a;" horiz-adv-x="1468" 
d="M387 1618v221h696v-221h-696zM451 596q0 -161 76.5 -246.5t207.5 -85.5t207 85.5t76 246.5v899h328v-899q0 -191 -81.5 -334t-219 -215t-310.5 -72q-129 0 -240.5 42.5t-193.5 120.5t-129 196t-47 262v899h326v-899z" />
    <glyph glyph-name="umacron" unicode="&#x16b;" horiz-adv-x="1245" 
d="M324 1227v221h589v-221h-589zM791 455v600h321v-1055h-321v102q-44 -56 -119 -91.5t-166 -35.5q-178 0 -279.5 108.5t-101.5 287.5v684h321v-600q0 -85 44 -141t126 -56t128.5 57t46.5 140z" />
    <glyph glyph-name="Ubreve" unicode="&#x16c;" horiz-adv-x="1468" 
d="M1090 1937q-9 -159 -110 -251.5t-245 -92.5q-142 0 -243.5 92.5t-110.5 251.5h233q3 -57 36 -91t85 -34t85 34t36 91h234zM451 596q0 -161 76.5 -246.5t207.5 -85.5t207 85.5t76 246.5v899h328v-899q0 -191 -81.5 -334t-219 -215t-310.5 -72q-129 0 -240.5 42.5
t-193.5 120.5t-129 196t-47 262v899h326v-899z" />
    <glyph glyph-name="ubreve" unicode="&#x16d;" horiz-adv-x="1245" 
d="M942 1544q0 -169 -91 -264.5t-235 -95.5q-143 0 -233 95.5t-90 264.5h213q0 -69 30 -109t80 -40t80.5 40.5t30.5 108.5h215zM791 455v600h321v-1055h-321v102q-44 -56 -119 -91.5t-166 -35.5q-178 0 -279.5 108.5t-101.5 287.5v684h321v-600q0 -85 44 -141t126 -56
t128.5 57t46.5 140z" />
    <glyph glyph-name="Uring" unicode="&#x16e;" horiz-adv-x="1468" 
d="M735 2085q114 0 192.5 -76t78.5 -186t-78.5 -186t-192.5 -76t-192 76t-78 186t78 186t192 76zM735 1927q-43 0 -73.5 -30t-30.5 -74t30.5 -74.5t73.5 -30.5t74 30.5t31 74.5t-31 74t-74 30zM451 596q0 -161 76.5 -246.5t207.5 -85.5t207 85.5t76 246.5v899h328v-899
q0 -191 -81.5 -334t-219 -215t-310.5 -72q-129 0 -240.5 42.5t-193.5 120.5t-129 196t-47 262v899h326v-899z" />
    <glyph glyph-name="uring" unicode="&#x16f;" horiz-adv-x="1245" 
d="M618 1645q104 0 175 -69.5t71 -170.5q0 -100 -71 -169t-175 -69t-174.5 69t-70.5 169q0 101 70.5 170.5t174.5 69.5zM618 1499q-40 0 -67 -27t-27 -67t27 -67t67 -27t67.5 27t27.5 67t-27.5 67t-67.5 27zM791 455v600h321v-1055h-321v102q-44 -56 -119 -91.5t-166 -35.5
q-178 0 -279.5 108.5t-101.5 287.5v684h321v-600q0 -85 44 -141t126 -56t128.5 57t46.5 140z" />
    <glyph glyph-name="Uhungarumlaut" unicode="&#x170;" horiz-adv-x="1468" 
d="M403 1610l211 327h344l-329 -327h-226zM813 1610l211 327h344l-328 -327h-227zM451 596q0 -161 76.5 -246.5t207.5 -85.5t207 85.5t76 246.5v899h328v-899q0 -191 -81.5 -334t-219 -215t-310.5 -72q-129 0 -240.5 42.5t-193.5 120.5t-129 196t-47 262v899h326v-899z" />
    <glyph glyph-name="uhungarumlaut" unicode="&#x171;" horiz-adv-x="1245" 
d="M285 1206l129 350h338l-244 -350h-223zM686 1206l129 350h338l-242 -350h-225zM791 455v600h321v-1055h-321v102q-44 -56 -119 -91.5t-166 -35.5q-178 0 -279.5 108.5t-101.5 287.5v684h321v-600q0 -85 44 -141t126 -56t128.5 57t46.5 140z" />
    <glyph glyph-name="Uogonek" unicode="&#x172;" horiz-adv-x="1468" 
d="M451 596q0 -161 76.5 -246.5t207.5 -85.5t207 85.5t76 246.5v899h328v-899q0 -239 -121.5 -396t-323.5 -206q-86 -95 -110.5 -128.5t-24.5 -64.5q0 -24 15 -37.5t40 -13.5q39 0 88 33v-195q-65 -43 -145 -43q-93 0 -150 46.5t-57 134.5q0 59 33 116t100 135
q-249 14 -407 179t-158 440v899h326v-899z" />
    <glyph glyph-name="uogonek" unicode="&#x173;" horiz-adv-x="1245" 
d="M791 455v600h321v-1055h-131q-90 -100 -114.5 -133.5t-24.5 -65.5q0 -24 15 -37.5t40 -13.5q39 0 88 33v-195q-65 -43 -145 -43q-93 0 -150 46.5t-57 134.5q0 64 38.5 126t119.5 152v98q-44 -56 -119 -91.5t-166 -35.5q-178 0 -279.5 108.5t-101.5 287.5v684h321v-600
q0 -85 44 -141t126 -56t128.5 57t46.5 140z" />
    <glyph glyph-name="Wcircumflex" unicode="&#x174;" horiz-adv-x="2129" 
d="M1212 1937l256 -327h-235l-168 153l-168 -153h-235l256 327h294zM1067 868l-412 -929l-659 1556h354l344 -842l381 883l383 -883l344 842h336l-657 -1556z" />
    <glyph glyph-name="wcircumflex" unicode="&#x175;" horiz-adv-x="1718" 
d="M1026 1556l225 -350h-219l-151 162l-152 -162h-219l225 350h291zM866 1100l279 -584l250 539h336l-566 -1114l-303 610l-301 -610l-567 1114h342l252 -539z" />
    <glyph glyph-name="Ycircumflex" unicode="&#x176;" horiz-adv-x="1433" 
d="M864 1937l256 -327h-235l-168 153l-168 -153h-236l256 327h295zM881 0h-328v657l-559 838h368l353 -534l356 534h369l-559 -838v-657z" />
    <glyph glyph-name="ycircumflex" unicode="&#x177;" horiz-adv-x="1208" 
d="M770 1556l225 -350h-219l-151 162l-152 -162h-219l225 350h291zM104 -430l334 614l-446 871h346l268 -547l268 547h343l-781 -1485h-332z" />
    <glyph glyph-name="Ydieresis" unicode="&#x178;" horiz-adv-x="1433" 
d="M506 1931q70 0 119 -48t49 -118q0 -69 -49.5 -116t-118.5 -47h-2q-69 0 -117.5 47t-48.5 116q0 70 48.5 118t117.5 48h2zM926 1931q69 0 117.5 -48t48.5 -118q0 -69 -48.5 -116t-117.5 -47h-2q-69 0 -118.5 47t-49.5 116q0 70 49 118t119 48h2zM881 0h-328v657l-559 838
h368l353 -534l356 534h369l-559 -838v-657z" />
    <glyph glyph-name="Zacute" unicode="&#x179;" horiz-adv-x="1370" 
d="M528 1610l228 327h411l-362 -327h-277zM563 270h729v-270h-1249l756 1225h-715v270h1233z" />
    <glyph glyph-name="zacute" unicode="&#x17a;" horiz-adv-x="1067" 
d="M408 1206l145 350h354l-260 -350h-239zM518 252h475v-252h-954l491 801h-458v254h936z" />
    <glyph glyph-name="Zdotaccent" unicode="&#x17b;" horiz-adv-x="1370" 
d="M684 1954q74 0 127 -52t53 -128q0 -75 -53 -127t-127 -52h-4q-74 0 -127 52t-53 127q0 76 53 128t127 52h4zM563 270h729v-270h-1249l756 1225h-715v270h1233z" />
    <glyph glyph-name="zdotaccent" unicode="&#x17c;" horiz-adv-x="1067" 
d="M545 1550q74 0 127 -52t53 -128q0 -74 -53 -126t-127 -52h-4q-74 0 -127.5 52t-53.5 126q0 76 53.5 128t127.5 52h4zM518 252h475v-252h-954l491 801h-458v254h936z" />
    <glyph glyph-name="Zcaron" unicode="&#x17d;" horiz-adv-x="1370" 
d="M829 1610h-294l-256 327h235l168 -153l168 153h235zM563 270h729v-270h-1249l756 1225h-715v270h1233z" />
    <glyph glyph-name="zcaron" unicode="&#x17e;" horiz-adv-x="1067" 
d="M686 1206h-291l-225 350h219l152 -161l151 161h219zM518 252h475v-252h-954l491 801h-458v254h936z" />
    <glyph glyph-name="uni0192" unicode="&#x192;" horiz-adv-x="1099" 
d="M203 676v244h213l24 198q22 185 141 293.5t300 108.5q104 0 161 -29v-268q-51 28 -127 28q-68 0 -111.5 -41.5t-53.5 -122.5l-21 -167h213v-244h-244l-39 -299q-22 -185 -140 -293.5t-300 -108.5q-103 0 -162 29v268q54 -28 127 -28q69 0 112.5 41t53.5 123l35 268h-182z
" />
    <glyph glyph-name="AEacute" unicode="&#x1fc;" horiz-adv-x="2181" 
d="M1292 1610l228 327h411l-362 -327h-277zM1145 0v371h-553l-232 -371h-346l938 1495h1137v-270h-623v-326h576v-270h-576v-359h627v-270h-948zM762 645h383v612z" />
    <glyph glyph-name="aeacute" unicode="&#x1fd;" horiz-adv-x="1792" 
d="M760 1206l145 350h355l-261 -350h-239zM1724 442h-741q26 -99 112.5 -151.5t215.5 -52.5q88 0 179 27.5t157 74.5v-272q-75 -47 -175.5 -70t-201.5 -23q-130 0 -241 46t-189 129q-63 -80 -167.5 -127.5t-217.5 -47.5q-174 0 -286 88t-112 242q0 159 123 249.5t330 90.5
h199q4 16 4 23q-12 67 -74 104t-166 37q-143 0 -293 -84v274q67 35 164.5 57.5t198.5 22.5q227 0 346 -125q144 125 336 125q135 0 237.5 -50t162.5 -137.5t85.5 -202t13.5 -247.5zM1221 825q-82 0 -143 -47.5t-87 -132.5h441q-8 72 -63.5 126t-147.5 54zM494 205
q76 0 135.5 38.5t91.5 108.5q-14 50 -19 90h-149q-97 0 -150 -30.5t-53 -89.5t40 -88t104 -29z" />
    <glyph glyph-name="Oslashacute" unicode="&#x1fe;" horiz-adv-x="1685" 
d="M690 1610l228 327h411l-362 -327h-277zM70 70l178 188q-174 212 -174 490q0 210 102.5 387.5t279.5 281t386 103.5q256 0 463 -154l147 156l158 -152l-152 -160q154 -207 154 -462q0 -157 -60.5 -300t-163.5 -246.5t-245.5 -165t-300.5 -61.5q-239 0 -434 136l-181 -191z
M842 1229q-190 0 -322.5 -136.5t-132.5 -344.5q0 -149 74 -269l637 670q-116 80 -256 80zM1298 748q0 127 -55 237l-629 -657q108 -62 228 -62q191 0 323.5 137t132.5 345z" />
    <glyph glyph-name="oslashacute" unicode="&#x1ff;" horiz-adv-x="1267" 
d="M508 1206l145 350h355l-260 -350h-240zM66 61l127 125q-119 148 -119 340q0 156 77.5 283.5t208 198.5t283.5 71q193 0 344 -110l111 110l112 -110l-110 -109q112 -147 112 -334q0 -156 -78 -283t-208 -197.5t-283 -70.5q-189 0 -336 103l-129 -127zM643 825
q-119 0 -195.5 -84.5t-76.5 -214.5q0 -70 26 -137l398 391q-67 45 -152 45zM913 526q0 69 -22 127l-389 -385q61 -39 141 -39q118 0 194 84t76 213z" />
    <glyph glyph-name="uni0218" unicode="&#x218;" horiz-adv-x="1138" 
d="M68 453q253 -201 469 -201q104 0 165.5 40.5t61.5 115.5q0 59 -34 92.5t-103 66.5l-252 115q-71 34 -119.5 66t-94 78t-68.5 108.5t-23 140.5q0 132 68.5 234t185 156.5t260.5 54.5q122 0 232 -43t175 -103v-334q-94 92 -203 147.5t-219 55.5q-84 0 -135 -37t-51 -104
q0 -45 28 -75.5t83 -57.5l231 -105q182 -79 265 -173.5t83 -250.5q0 -142 -73 -249t-195.5 -161.5t-274.5 -54.5q-137 0 -259 42.5t-203 105.5v330zM532 -508l-184 62l98 374l295 -104z" />
    <glyph glyph-name="uni0219" unicode="&#x219;" horiz-adv-x="917" 
d="M80 360q71 -65 167.5 -102t188.5 -37q54 0 88.5 20.5t34.5 57.5q0 28 -16.5 43.5t-57.5 34.5l-198 82q-94 40 -145.5 104t-51.5 174q0 143 114 242.5t288 99.5q166 0 299 -86v-280q-158 116 -297 116q-51 0 -79 -19t-28 -54q0 -29 21 -46.5t73 -39.5l183 -78
q98 -39 147 -104.5t49 -168.5q0 -105 -61 -184.5t-156.5 -119.5t-206.5 -40q-205 0 -356 97v288zM416 -508l-185 62l99 374l295 -104z" />
    <glyph glyph-name="uni021A" unicode="&#x21a;" horiz-adv-x="1335" 
d="M1294 1225h-463v-1225h-327v1225h-463v270h1253v-270zM616 -508l-184 62l98 374l295 -104z" />
    <glyph glyph-name="uni021B" unicode="&#x21b;" horiz-adv-x="870" 
d="M512 387q0 -67 36.5 -102t98.5 -35q85 0 150 53v-283q-88 -45 -213 -45q-173 0 -282 97.5t-109 279.5v449h-168v254h168v225l319 96v-321h264v-254h-264v-414zM444 -508l-184 62l98 374l295 -104z" />
    <glyph glyph-name="uni0237" unicode="&#x237;" horiz-adv-x="583" 
d="M133 -33v1088h320v-1073q0 -190 -122 -306t-306 -116q-57 0 -101 8v256q31 -8 60 -8q70 0 109.5 40t39.5 111z" />
    <glyph glyph-name="circumflex" unicode="&#x2c6;" 
d="M748 1556l225 -350h-219l-152 162l-151 -162h-220l226 350h291z" />
    <glyph glyph-name="caron" unicode="&#x2c7;" 
d="M748 1206h-291l-226 350h220l151 -161l152 161h219z" />
    <glyph glyph-name="breve" unicode="&#x2d8;" 
d="M928 1544q0 -169 -91 -264.5t-235 -95.5q-143 0 -233 95.5t-90 264.5h213q0 -69 30 -109t80 -40t80.5 40.5t30.5 108.5h215z" />
    <glyph glyph-name="dotaccent" unicode="&#x2d9;" 
d="M616 1550q74 0 127.5 -52t53.5 -128q0 -74 -53.5 -126t-127.5 -52h-4q-74 0 -127 52t-53 126q0 76 53 128t127 52h4z" />
    <glyph glyph-name="ring" unicode="&#x2da;" 
d="M614 1645q104 0 175 -69.5t71 -170.5q0 -100 -71 -169t-175 -69t-174.5 69t-70.5 169q0 101 70.5 170.5t174.5 69.5zM614 1499q-40 0 -67 -27t-27 -67t27 -67t67 -27t67.5 27t27.5 67t-27.5 67t-67.5 27z" />
    <glyph glyph-name="ogonek" unicode="&#x2db;" 
d="M600 8h195q-97 -107 -122.5 -141t-25.5 -66q0 -24 15 -37.5t40 -13.5q40 0 89 33v-195q-65 -43 -146 -43q-93 0 -150 46.5t-57 134.5q0 65 39 127t123 155z" />
    <glyph glyph-name="tilde" unicode="&#x2dc;" 
d="M784 1544h195q0 -143 -57 -238.5t-162 -95.5q-39 0 -75.5 16t-60.5 35.5t-54 35.5t-56 16q-33 0 -51.5 -26t-18.5 -70h-192q0 147 56 241t163 94q39 0 75.5 -16t60.5 -35t53 -35t55 -16q33 0 51 26t18 68z" />
    <glyph glyph-name="hungarumlaut" unicode="&#x2dd;" 
d="M180 1206l129 350h338l-244 -350h-223zM582 1206l129 350h338l-242 -350h-225z" />
    <glyph glyph-name="Wgrave" unicode="&#x1e80;" horiz-adv-x="2129" 
d="M1229 1610h-277l-362 327h411zM1067 868l-412 -929l-659 1556h354l344 -842l381 883l383 -883l344 842h336l-657 -1556z" />
    <glyph glyph-name="wgrave" unicode="&#x1e81;" horiz-adv-x="1718" 
d="M1006 1206h-240l-260 350h354zM866 1100l279 -584l250 539h336l-566 -1114l-303 610l-301 -610l-567 1114h342l252 -539z" />
    <glyph glyph-name="Wacute" unicode="&#x1e82;" horiz-adv-x="2129" 
d="M938 1610l227 327h412l-363 -327h-276zM1067 868l-412 -929l-659 1556h354l344 -842l381 883l383 -883l344 842h336l-657 -1556z" />
    <glyph glyph-name="wacute" unicode="&#x1e83;" horiz-adv-x="1718" 
d="M750 1206l145 350h354l-260 -350h-239zM866 1100l279 -584l250 539h336l-566 -1114l-303 610l-301 -610l-567 1114h342l252 -539z" />
    <glyph glyph-name="Wdieresis" unicode="&#x1e84;" horiz-adv-x="2129" 
d="M856 1931q70 0 119 -48t49 -118q0 -69 -49.5 -116t-118.5 -47h-2q-69 0 -117.5 47t-48.5 116q0 70 48.5 118t117.5 48h2zM1276 1931q69 0 117.5 -48t48.5 -118q0 -69 -48.5 -116t-117.5 -47h-2q-69 0 -118.5 47t-49.5 116q0 70 49 118t119 48h2zM1067 868l-412 -929
l-659 1556h354l344 -842l381 883l383 -883l344 842h336l-657 -1556z" />
    <glyph glyph-name="wdieresis" unicode="&#x1e85;" horiz-adv-x="1718" 
d="M672 1542q70 0 119 -48t49 -118q0 -69 -49.5 -116.5t-118.5 -47.5h-2q-69 0 -118.5 47.5t-49.5 116.5q0 70 49 118t119 48h2zM1087 1542q70 0 119 -48t49 -118q0 -69 -49.5 -116.5t-118.5 -47.5h-2q-69 0 -118 47.5t-49 116.5q0 70 49 118t118 48h2zM866 1100l279 -584
l250 539h336l-566 -1114l-303 610l-301 -610l-567 1114h342l252 -539z" />
    <glyph glyph-name="Ygrave" unicode="&#x1ef2;" horiz-adv-x="1433" 
d="M877 1610h-277l-362 327h411zM881 0h-328v657l-559 838h368l353 -534l356 534h369l-559 -838v-657z" />
    <glyph glyph-name="ygrave" unicode="&#x1ef3;" horiz-adv-x="1208" 
d="M748 1206h-240l-260 350h354zM104 -430l334 614l-446 871h346l268 -547l268 547h343l-781 -1485h-332z" />
    <glyph glyph-name="endash" unicode="&#x2013;" horiz-adv-x="1030" 
d="M100 756h830v-291h-830v291z" />
    <glyph glyph-name="emdash" unicode="&#x2014;" horiz-adv-x="1562" 
d="M100 756h1362v-291h-1362v291z" />
    <glyph glyph-name="quoteleft" unicode="&#x2018;" horiz-adv-x="602" 
d="M350 1530l203 -60l-145 -608l-345 113z" />
    <glyph glyph-name="quoteright" unicode="&#x2019;" horiz-adv-x="602" 
d="M252 856l-203 59l146 609l344 -113z" />
    <glyph glyph-name="quotesinglbase" unicode="&#x201a;" horiz-adv-x="602" 
d="M252 -315l-203 59l146 608l344 -112z" />
    <glyph glyph-name="quotedblleft" unicode="&#x201c;" horiz-adv-x="1069" 
d="M819 1530l203 -60l-145 -608l-345 113zM350 1530l203 -60l-145 -608l-345 113z" />
    <glyph glyph-name="quotedblright" unicode="&#x201d;" horiz-adv-x="1071" 
d="M252 856l-203 59l146 609l344 -113zM721 856l-203 59l146 609l344 -113z" />
    <glyph glyph-name="quotedblbase" unicode="&#x201e;" horiz-adv-x="1071" 
d="M252 -315l-203 59l146 608l344 -112zM721 -315l-203 59l146 608l344 -112z" />
    <glyph glyph-name="dagger" unicode="&#x2020;" horiz-adv-x="806" 
d="M743 1137h-235v-451h-207v451h-238v200h238v222h207v-222h235v-200z" />
    <glyph glyph-name="daggerdbl" unicode="&#x2021;" horiz-adv-x="808" 
d="M745 860h-243v-174h-195v174h-244v178h244v166h-244v180h244v175h195v-175h243v-180h-243v-166h243v-178z" />
    <glyph glyph-name="bullet" unicode="&#x2022;" horiz-adv-x="974" 
d="M874 629q0 -161 -113.5 -275t-273.5 -114t-273.5 114t-113.5 275q0 160 113.5 273.5t273.5 113.5t273.5 -113.5t113.5 -273.5z" />
    <glyph glyph-name="ellipsis" unicode="&#x2026;" horiz-adv-x="1671" 
d="M283 379q83 0 140.5 -56.5t57.5 -140.5t-57.5 -140t-140.5 -56h-4q-84 0 -141.5 56t-57.5 140t57.5 140.5t141.5 56.5h4zM838 379q84 0 141 -56.5t57 -140.5t-57 -140t-141 -56h-4q-84 0 -141.5 56t-57.5 140t57.5 140.5t141.5 56.5h4zM1395 379q84 0 141 -56.5
t57 -140.5t-57 -140t-141 -56h-4q-84 0 -141.5 56t-57.5 140t57.5 140.5t141.5 56.5h4z" />
    <glyph glyph-name="guilsinglleft" unicode="&#x2039;" horiz-adv-x="665" 
d="M305 942h318l-258 -418l258 -418h-318l-260 418z" />
    <glyph glyph-name="guilsinglright" unicode="&#x203a;" horiz-adv-x="665" 
d="M360 942l261 -418l-261 -418h-317l258 418l-258 418h317z" />
    <glyph glyph-name="fraction" unicode="&#x2044;" horiz-adv-x="1662" 
d="M188 0l1000 1495h287l-1000 -1495h-287z" />
    <glyph glyph-name="Euro" unicode="&#x20ac;" horiz-adv-x="1239" 
d="M57 496v198h109q-2 16 -2 54q0 35 2 51h-109v198h142q67 232 240.5 377.5t396.5 145.5q182 0 325 -90v-351q-53 70 -132 111t-171 41q-113 0 -202.5 -62t-139.5 -172h412l-37 -198h-422q-2 -16 -2 -51q0 -38 2 -54h401l-36 -198h-316q50 -109 139 -170.5t201 -61.5
q92 0 171 41t132 111v-350q-145 -91 -325 -91q-222 0 -395 145t-242 376h-142z" />
    <glyph glyph-name="trademark" unicode="&#x2122;" horiz-adv-x="1628" 
d="M70 1325v170h540v-170h-170v-455h-202v455h-168zM1141 870h-133l-115 349l-78 -349h-178l131 625h172l137 -352l137 352h172l132 -625h-187l-76 349z" />
    <glyph glyph-name="uni2153" unicode="&#x2153;" horiz-adv-x="1871" 
d="M111 674v194h168v346l-173 -73v221l414 170v-664h135v-194h-544zM293 0l999 1495h287l-999 -1495h-287zM1239 623v196h573l-186 -317q78 -31 121 -90.5t43 -141.5q0 -130 -97 -208t-229 -78q-139 0 -237 67v221q103 -90 217 -90q51 0 84 23.5t33 64.5q0 101 -209 115
l141 238h-254z" />
    <glyph glyph-name="uni2154" unicode="&#x2154;" horiz-adv-x="1871" 
d="M420 868h231v-194h-628l227 303q137 179 137 244q0 71 -84 71q-94 0 -227 -102v225q49 41 121.5 67.5t150.5 26.5q123 0 202 -73t79 -183q0 -66 -27 -124.5t-86 -137.5zM293 0l999 1495h287l-999 -1495h-287zM1239 623v196h573l-186 -317q78 -31 121 -90.5t43 -141.5
q0 -130 -97 -208t-229 -78q-139 0 -237 67v221q103 -90 217 -90q51 0 84 23.5t33 64.5q0 101 -209 115l141 238h-254z" />
    <glyph glyph-name="uni215B" unicode="&#x215b;" horiz-adv-x="1871" 
d="M111 674v194h168v346l-173 -73v221l414 170v-664h135v-194h-544zM293 0l999 1495h287l-999 -1495h-287zM1223 584q0 110 83.5 178.5t200.5 68.5t202 -68.5t85 -178.5q0 -103 -86 -176q40 -24 74.5 -70.5t34.5 -110.5q0 -107 -89.5 -176t-220.5 -69q-130 0 -219.5 69
t-89.5 176q0 64 35 111t76 70q-86 70 -86 176zM1591 578q0 38 -24.5 61t-59.5 23q-34 0 -58 -23t-24 -61q0 -36 24 -58t58 -22q35 0 59.5 22t24.5 58zM1597 242q0 40 -26.5 65t-63.5 25t-63.5 -25t-26.5 -65q0 -38 26.5 -62t63.5 -24t63.5 24t26.5 62z" />
    <glyph glyph-name="uni215C" unicode="&#x215c;" horiz-adv-x="1871" 
d="M293 0l999 1495h287l-999 -1495h-287zM96 1298v197h574l-187 -317q78 -30 121 -89.5t43 -142.5q0 -87 -47 -154t-120 -100t-158 -33q-136 0 -238 70v219q103 -90 217 -90q51 0 84 23.5t33 64.5q0 103 -209 117l141 235h-254zM1223 584q0 110 83.5 178.5t200.5 68.5
t202 -68.5t85 -178.5q0 -103 -86 -176q40 -24 74.5 -70.5t34.5 -110.5q0 -107 -89.5 -176t-220.5 -69q-130 0 -219.5 69t-89.5 176q0 64 35 111t76 70q-86 70 -86 176zM1591 578q0 38 -24.5 61t-59.5 23q-34 0 -58 -23t-24 -61q0 -36 24 -58t58 -22q35 0 59.5 22t24.5 58z
M1597 242q0 40 -26.5 65t-63.5 25t-63.5 -25t-26.5 -65q0 -38 26.5 -62t63.5 -24t63.5 24t26.5 62z" />
    <glyph glyph-name="uni215D" unicode="&#x215d;" horiz-adv-x="1871" 
d="M293 0l999 1495h287l-999 -1495h-287zM358 1298l-12 -84q132 -24 210.5 -90.5t78.5 -183.5q0 -129 -92.5 -205t-239.5 -76q-58 0 -117 17.5t-92 44.5v215q36 -31 91.5 -54.5t111.5 -23.5q48 0 80.5 21t32.5 59q0 104 -281 115l49 442h438v-197h-258zM1223 584
q0 110 83.5 178.5t200.5 68.5t202 -68.5t85 -178.5q0 -103 -86 -176q40 -24 74.5 -70.5t34.5 -110.5q0 -107 -89.5 -176t-220.5 -69q-130 0 -219.5 69t-89.5 176q0 64 35 111t76 70q-86 70 -86 176zM1591 578q0 38 -24.5 61t-59.5 23q-34 0 -58 -23t-24 -61q0 -36 24 -58
t58 -22q35 0 59.5 22t24.5 58zM1597 242q0 40 -26.5 65t-63.5 25t-63.5 -25t-26.5 -65q0 -38 26.5 -62t63.5 -24t63.5 24t26.5 62z" />
    <glyph glyph-name="uni215E" unicode="&#x215e;" horiz-adv-x="1871" 
d="M293 0l999 1495h287l-999 -1495h-287zM758 1493l-330 -821h-244l256 626h-352v195h670zM1223 584q0 110 83.5 178.5t200.5 68.5t202 -68.5t85 -178.5q0 -103 -86 -176q40 -24 74.5 -70.5t34.5 -110.5q0 -107 -89.5 -176t-220.5 -69q-130 0 -219.5 69t-89.5 176
q0 64 35 111t76 70q-86 70 -86 176zM1591 578q0 38 -24.5 61t-59.5 23q-34 0 -58 -23t-24 -61q0 -36 24 -58t58 -22q35 0 59.5 22t24.5 58zM1597 242q0 40 -26.5 65t-63.5 25t-63.5 -25t-26.5 -65q0 -38 26.5 -62t63.5 -24t63.5 24t26.5 62z" />
    <glyph glyph-name="minus" unicode="&#x2212;" 
d="M68 586v250h1093v-250h-1093z" />
    <glyph glyph-name="i.dot" horiz-adv-x="583" 
d="M295 1550q74 0 127 -52t53 -128q0 -74 -53 -126t-127 -52h-4q-75 0 -127.5 51.5t-52.5 126.5q0 76 52.5 128t127.5 52h4zM133 1055h320v-1055h-320v1055z" />
    <glyph glyph-name="caron.Slovak" 
d="M659 1159h-213l64 397h301z" />
    <glyph glyph-name="commaturn" 
d="M629 1593l184 -61l-98 -375l-295 105z" />
    <glyph glyph-name="uni00200326" 
d="M600 -508l-184 62l98 374l295 -104z" />
    <glyph glyph-name="uni0192.lt" 
d="M264 676v244h213l25 198q22 185 140.5 293.5t299.5 108.5q105 0 162 -29v-268q-51 28 -127 28q-68 0 -112 -41.5t-54 -122.5l-20 -167h213v-244h-244l-39 -299q-22 -185 -140 -293.5t-300 -108.5q-103 0 -162 29v268q54 -28 127 -28q69 0 112.5 41t53.5 123l34 268h-182z
" />
    <glyph glyph-name="Euro.lt" 
d="M57 496v198h109q-2 16 -2 54q0 35 2 51h-109v198h142q67 232 240.5 377.5t396.5 145.5q182 0 325 -90v-351q-53 70 -132 111t-171 41q-113 0 -202.5 -62t-139.5 -172h412l-37 -198h-422q-2 -16 -2 -51q0 -38 2 -54h401l-36 -198h-316q50 -109 139 -170.5t201 -61.5
q92 0 171 41t132 111v-350q-145 -91 -325 -91q-222 0 -395 145t-242 376h-142z" />
    <glyph glyph-name="dollar.lt" 
d="M86 143v301q209 -161 414 -188v397l-94 33q-149 52 -234.5 142t-85.5 237q0 164 115 276t299 144v160h225v-158q99 -13 186 -50t140 -83v-299q-149 136 -326 176v-357l47 -16q189 -63 277 -158t88 -249q0 -170 -113.5 -285.5t-298.5 -151.5v-168h-225v156
q-124 10 -232 49t-182 92zM494 952l6 -2v283q-146 -31 -146 -141q0 -50 34.5 -81.5t105.5 -58.5zM872 420q0 56 -36.5 89t-110.5 64v-305q147 41 147 152z" />
    <glyph glyph-name="cent.lt" 
d="M598 -154v177q-187 48 -307.5 192t-120.5 336q0 194 120 338t308 192v207h223v-186q108 -12 193 -49v-269q-89 60 -193 68v-600q106 8 193 67v-270q-96 -36 -193 -47v-156h-223zM438 551q0 -91 42.5 -158.5t117.5 -103.5v526q-75 -36 -117.5 -104t-42.5 -160z" />
    <glyph glyph-name="sterling.lt" 
d="M111 623v241h174v92q0 252 158.5 408t404.5 156q182 0 289 -70v-287q-120 74 -265 74q-131 0 -207.5 -82.5t-76.5 -226.5v-64h301v-241h-301v-129q0 -70 -20.5 -132.5t-53.5 -95.5h639v-266h-1073v266h39q166 0 166 211v146h-174z" />
    <glyph glyph-name="yen.lt" 
d="M156 289v215h301v121h-301v215h241l-387 655h352l250 -453l252 453h353l-388 -655h244v-215h-303v-121h303v-215h-303v-289h-313v289h-301z" />
    <glyph glyph-name="zero.lt" 
d="M612 1518q158 0 285.5 -98t200.5 -275t73 -400t-73 -400t-200.5 -274.5t-285.5 -97.5q-157 0 -283.5 97.5t-199 274.5t-72.5 400t72.5 400t199 275t283.5 98zM612 1225q-119 0 -183 -132.5t-64 -347.5t64 -347t183 -132q122 0 187 132t65 347t-65 347.5t-187 132.5z" />
    <glyph glyph-name="one.lt" 
d="M166 0v270h344v830l-340 -156v318l668 288v-1280h288v-270h-960z" />
    <glyph glyph-name="two.lt" 
d="M592 270h522v-270h-1085l446 561q67 85 103.5 133.5t81.5 117.5t65 123.5t20 102.5q0 87 -53.5 137t-154.5 50q-105 0 -218.5 -59.5t-199.5 -135.5v316q88 76 211.5 125t257.5 49q215 0 349 -124t134 -319q0 -131 -59.5 -247.5t-184.5 -270.5z" />
    <glyph glyph-name="three.lt" 
d="M147 1225v270h986l-359 -592q153 -44 241.5 -159t88.5 -265q0 -115 -46.5 -211t-125 -159.5t-180 -98.5t-211.5 -35q-250 0 -426 127v310q87 -78 190.5 -121t208.5 -43q119 0 201 64t82 167q0 86 -59 145.5t-153 87.5t-218 31l301 482h-521z" />
    <glyph glyph-name="four.lt" 
d="M944 1495l-471 -917h279v305h292v-305h152v-256h-152v-322h-292v322h-736l615 1173h313z" />
    <glyph glyph-name="five.lt" 
d="M551 1225l-33 -248q117 -11 215 -46.5t176.5 -95.5t123 -153t44.5 -211q0 -226 -161 -361t-412 -135q-107 0 -212.5 31.5t-170.5 81.5v309q71 -63 173 -106t202 -43q119 0 195.5 56t76.5 163q0 72 -47 125.5t-129 83.5t-176.5 44t-204.5 15l90 760h746v-270h-496z" />
    <glyph glyph-name="six.lt" 
d="M647 1030q220 0 367 -146.5t147 -367.5q0 -152 -71.5 -276t-197.5 -194.5t-280 -70.5q-152 0 -277 70t-197 194t-72 275q0 91 30 181.5t103 215.5l346 584h344l-275 -467q12 2 33 2zM612 776q-106 0 -179 -75.5t-73 -184.5q0 -108 73.5 -184t178.5 -76q106 0 179 76
t73 184q0 109 -72.5 184.5t-179.5 75.5z" />
    <glyph glyph-name="seven.lt" 
d="M1202 1495l-606 -1495h-334l504 1225h-698v270h1134z" />
    <glyph glyph-name="eight.lt" 
d="M1155 418q0 -126 -71.5 -227.5t-195.5 -158.5t-274 -57t-273.5 57t-195 158.5t-71.5 227.5q0 124 70.5 217t164.5 133q-80 47 -133 133.5t-53 190.5q0 124 67.5 222.5t179 152t244.5 53.5t245 -53.5t179.5 -152t67.5 -222.5q0 -104 -53 -190.5t-133 -133.5
q94 -40 164.5 -133t70.5 -217zM614 1274q-88 0 -144 -52.5t-56 -134.5t56 -135t144 -53t144.5 53t56.5 135t-56.5 134.5t-144.5 52.5zM614 643q-98 0 -162.5 -58.5t-64.5 -146.5q0 -89 64.5 -148t162.5 -59t163 59t65 148q0 88 -65 146.5t-163 58.5z" />
    <glyph glyph-name="nine.lt" 
d="M580 465q-220 0 -367 146.5t-147 367.5q0 152 71 276t197 194.5t280 70.5q231 0 389 -155t158 -384q0 -91 -30 -181.5t-103 -215.5l-346 -584h-344l274 467q-12 -2 -32 -2zM614 719q106 0 179 75.5t73 184.5q0 108 -73.5 184t-178.5 76q-106 0 -179 -76t-73 -184
q0 -109 72.5 -184.5t179.5 -75.5z" />
    <glyph glyph-name="percent.lt" 
d="M307 1520q129 0 218 -89.5t89 -218.5t-89 -218t-218 -89q-126 0 -214.5 89t-88.5 218t88.5 218.5t214.5 89.5zM-29 0l1016 1495h270l-1015 -1495h-271zM307 1331q-46 0 -79 -35t-33 -84t33 -83.5t79 -34.5q49 0 82 34t33 84t-33 84.5t-82 34.5zM922 -25
q-129 0 -218.5 89.5t-89.5 218.5t89.5 218t218.5 89q126 0 214.5 -89t88.5 -218t-88.5 -218.5t-214.5 -89.5zM922 164q46 0 79 35t33 84t-33 83.5t-79 34.5q-49 0 -82 -34t-33 -84t33 -84.5t82 -34.5z" />
    <glyph glyph-name="period.tab" horiz-adv-x="614" 
d="M309 379q83 0 141 -56.5t58 -140.5t-58 -140t-141 -56h-4q-84 0 -141.5 56t-57.5 140t57.5 140.5t141.5 56.5h4z" />
    <glyph glyph-name="comma.tab" horiz-adv-x="614" 
d="M236 -295l-203 59l145 609l344 -113z" />
    <glyph glyph-name="colon.tab" horiz-adv-x="614" 
d="M309 1042q82 0 140.5 -56.5t58.5 -139.5q0 -84 -58 -140.5t-141 -56.5h-4q-84 0 -141.5 56.5t-57.5 140.5q0 83 57.5 139.5t141.5 56.5h4zM309 379q83 0 141 -56.5t58 -140.5t-58 -140t-141 -56h-4q-84 0 -141.5 56t-57.5 140t57.5 140.5t141.5 56.5h4z" />
    <glyph glyph-name="semicolon.tab" horiz-adv-x="614" 
d="M309 1042q82 0 140.5 -56.5t58.5 -139.5q0 -84 -58 -140.5t-141 -56.5h-4q-84 0 -141.5 56.5t-57.5 140.5q0 83 57.5 139.5t141.5 56.5h4zM238 -295l-203 59l145 609l344 -113z" />
    <glyph glyph-name="space.tab" horiz-adv-x="614" 
 />
    <glyph glyph-name="uni0219.alt" horiz-adv-x="921" 
d="M453 -25q-152 0 -271 72t-162 203l263 100q53 -143 174 -143q50 0 79 26t29 66q0 36 -26.5 60.5t-69 39.5t-94 28.5t-103.5 35t-94.5 52.5t-69 86.5t-26.5 131.5q0 144 110 245t277 101q134 0 229.5 -62t141.5 -177l-252 -92q-10 43 -38 70.5t-75 27.5q-44 0 -72 -25.5
t-28 -66.5q0 -32 27 -54t70 -36t94.5 -28t103.5 -35.5t95 -52.5t70 -85.5t27 -128.5q0 -107 -58 -190t-150.5 -126t-200.5 -43zM414 -508l-185 62l99 374l295 -104z" />
    <glyph glyph-name="uni015E.alt" horiz-adv-x="1222" 
d="M569 -455q-124 0 -196 54v170q67 -64 164 -64q88 0 88 59q0 69 -166 76l55 142q-149 19 -279 92t-215 186l211 225q90 -116 180.5 -175.5t202.5 -59.5q95 0 161.5 49.5t66.5 130.5q0 45 -24.5 78.5t-66 55t-95 39t-113 34t-118.5 36.5t-112.5 51.5t-95 73t-66 106.5
t-24.5 147q0 200 145.5 334.5t370.5 134.5q283 0 477 -217l-190 -228q-128 174 -293 174q-83 0 -139 -44t-56 -124q0 -41 24.5 -71t66 -50t95.5 -36.5t114 -34t119.5 -38.5t113.5 -55t95.5 -78t66 -112.5t24.5 -154.5q0 -197 -144.5 -328.5t-361.5 -145.5l-20 -47
q90 -11 145.5 -58t55.5 -126q0 -91 -79 -146t-188 -55z" />
    <glyph glyph-name="aeacute.alt" horiz-adv-x="1837" 
d="M793 1206l145 350h354l-260 -350h-239zM496 641h213q5 20 6 23q-14 69 -76 107t-168 38q-141 0 -291 -84v274q65 35 163.5 57.5t199.5 22.5q226 0 348 -125q144 125 346 125q174 0 302.5 -85.5t187.5 -229.5t42 -320h-790q21 -101 92.5 -159t169.5 -58q156 0 213 109h303
q-48 -173 -187.5 -267t-330.5 -94q-119 0 -223 46t-178 129q-62 -80 -166.5 -127.5t-216.5 -47.5q-176 0 -287 87.5t-111 242.5q0 158 120 247t319 89zM1237 823q-87 0 -154 -48.5t-94 -133.5h469q-10 77 -68 129.5t-153 52.5zM494 203q78 0 137.5 38.5t93.5 110.5
q-14 40 -20 92h-158q-93 0 -146 -31.5t-53 -90.5t41 -89t105 -30z" />
    <glyph glyph-name="Gdotaccent.alt" horiz-adv-x="1642" 
d="M846 1954q74 0 127 -52t53 -128q0 -75 -53 -127t-127 -52h-4q-74 0 -127 52t-53 127q0 76 53 128t127 52h4zM854 811h713q16 -195 -36.5 -355.5t-154.5 -264t-240 -160t-296 -56.5q-156 0 -298 61.5t-244.5 165t-163 246.5t-60.5 300q0 210 102.5 387.5t279 281
t384.5 103.5q211 0 380 -102.5t267 -282.5l-279 -164q-55 112 -151.5 176.5t-216.5 64.5q-181 0 -310 -134.5t-129 -329.5q0 -197 130.5 -336.5t314.5 -139.5q141 0 239.5 70t141.5 199h-373v270z" />
    <glyph glyph-name="ugrave.alt" horiz-adv-x="1204" 
d="M741 1206h-239l-260 350h354zM434 449q0 -95 43 -148t125 -53t125 53t43 148v606h322v-613q0 -210 -136 -338.5t-354 -128.5q-217 0 -352 128.5t-135 338.5v613h319v-606z" />
    <glyph glyph-name="a.alt" horiz-adv-x="1341" 
d="M571 -25q-214 0 -359.5 158.5t-145.5 392.5q0 236 145.5 394.5t359.5 158.5q103 0 187 -39.5t131 -97.5v113h319v-1055h-319v113q-47 -59 -130.5 -98.5t-187.5 -39.5zM639 248q109 0 183.5 79.5t74.5 198.5q0 121 -74 200t-184 79q-109 0 -182.5 -79t-73.5 -200
q0 -120 73.5 -199t182.5 -79z" />
    <glyph glyph-name="umacron.alt" horiz-adv-x="1204" 
d="M307 1227v221h590v-221h-590zM434 449q0 -95 43 -148t125 -53t125 53t43 148v606h322v-613q0 -210 -136 -338.5t-354 -128.5q-217 0 -352 128.5t-135 338.5v613h319v-606z" />
    <glyph glyph-name="s.alt" horiz-adv-x="921" 
d="M453 -25q-152 0 -271 72t-162 203l263 100q53 -143 174 -143q50 0 79 26t29 66q0 36 -26.5 60.5t-69 39.5t-94 28.5t-103.5 35t-94.5 52.5t-69 86.5t-26.5 131.5q0 144 110 245t277 101q134 0 229.5 -62t141.5 -177l-252 -92q-10 43 -38 70.5t-75 27.5q-44 0 -72 -25.5
t-28 -66.5q0 -32 27 -54t70 -36t94.5 -28t103.5 -35.5t95 -52.5t70 -85.5t27 -128.5q0 -107 -58 -190t-150.5 -126t-200.5 -43z" />
    <glyph glyph-name="cedillacmb" horiz-adv-x="0" 
d="M-35 -455q-124 0 -196 54v170q67 -64 163 -64q88 0 88 59q0 69 -165 76l71 183h144l-39 -93q90 -11 145 -58t55 -126q0 -91 -79 -146t-187 -55z" />
    <glyph glyph-name="uogonek.alt" horiz-adv-x="1204" 
d="M434 449q0 -95 43 -148t125 -53t125 53t43 148v606h322v-613q0 -161 -84 -277.5t-228 -162.5q-91 -101 -116 -135t-25 -66q0 -24 15 -37.5t40 -13.5q39 0 88 33v-195q-65 -43 -145 -43q-93 0 -150 46.5t-57 134.5q0 59 33 116t100 135q-202 11 -325 138t-123 327v613h319
v-606z" />
    <glyph glyph-name="aacute.alt" horiz-adv-x="1341" 
d="M545 1206l145 350h354l-260 -350h-239zM571 -25q-214 0 -359.5 158.5t-145.5 392.5q0 236 145.5 394.5t359.5 158.5q103 0 187 -39.5t131 -97.5v113h319v-1055h-319v113q-47 -59 -130.5 -98.5t-187.5 -39.5zM639 248q109 0 183.5 79.5t74.5 198.5q0 121 -74 200t-184 79
q-109 0 -182.5 -79t-73.5 -200q0 -120 73.5 -199t182.5 -79z" />
    <glyph glyph-name="commaturncmb" horiz-adv-x="0" 
d="M12 1593l185 -61l-99 -375l-295 105z" />
    <glyph glyph-name="atilde.alt" horiz-adv-x="1341" 
d="M872 1544h195q0 -143 -57 -238.5t-162 -95.5q-39 0 -75.5 16t-60.5 35.5t-54 35.5t-56 16q-33 0 -51.5 -26t-18.5 -70h-192q0 147 56 241t163 94q39 0 75.5 -16t60.5 -35t53 -35t55 -16q33 0 51 26t18 68zM571 -25q-214 0 -359.5 158.5t-145.5 392.5q0 236 145.5 394.5
t359.5 158.5q103 0 187 -39.5t131 -97.5v113h319v-1055h-319v113q-47 -59 -130.5 -98.5t-187.5 -39.5zM639 248q109 0 183.5 79.5t74.5 198.5q0 121 -74 200t-184 79q-109 0 -182.5 -79t-73.5 -200q0 -120 73.5 -199t182.5 -79z" />
    <glyph glyph-name="hungarumlautcmb" horiz-adv-x="0" 
d="M-434 1206l129 350h338l-244 -350h-223zM-33 1206l129 350h338l-241 -350h-226z" />
    <glyph glyph-name="dieresisCap" 
d="M406 1931q69 0 118 -48t49 -118q0 -69 -49 -116t-118 -47h-3q-69 0 -117 47t-48 116q0 70 48 118t117 48h3zM825 1931q69 0 117.5 -48t48.5 -118q0 -69 -48.5 -116t-117.5 -47h-2q-69 0 -118.5 47t-49.5 116q0 70 49 118t119 48h2z" />
    <glyph glyph-name="dotaccentcmb" horiz-adv-x="0" 
d="M2 1550q74 0 127 -52t53 -128q0 -74 -53 -126t-127 -52h-4q-74 0 -127 52t-53 126q0 76 53 128t127 52h4z" />
    <glyph glyph-name="gravecmb" horiz-adv-x="0" 
d="M250 1206h-240l-260 350h354z" />
    <glyph glyph-name="G.alt" horiz-adv-x="1642" 
d="M854 811h713q16 -195 -36.5 -355.5t-154.5 -264t-240 -160t-296 -56.5q-156 0 -298 61.5t-244.5 165t-163 246.5t-60.5 300q0 210 102.5 387.5t279 281t384.5 103.5q211 0 380 -102.5t267 -282.5l-279 -164q-55 112 -151.5 176.5t-216.5 64.5q-181 0 -310 -134.5
t-129 -329.5q0 -197 130.5 -336.5t314.5 -139.5q141 0 239.5 70t141.5 199h-373v270z" />
    <glyph glyph-name="eacute.alt" horiz-adv-x="1220" 
d="M500 1206l145 350h354l-260 -350h-239zM1143 336q-48 -173 -188.5 -267t-331.5 -94q-149 0 -276 70.5t-203 197.5t-76 283q0 157 76.5 285t203 198t275.5 70q174 0 303 -87t188 -233.5t41 -322.5h-788q23 -97 93 -152t165 -55q156 0 215 107h303zM623 821
q-89 0 -155.5 -49t-94.5 -137h479q-10 74 -71.5 130t-157.5 56z" />
    <glyph glyph-name="agrave.alt" horiz-adv-x="1341" 
d="M852 1206h-240l-260 350h355zM571 -25q-214 0 -359.5 158.5t-145.5 392.5q0 236 145.5 394.5t359.5 158.5q103 0 187 -39.5t131 -97.5v113h319v-1055h-319v113q-47 -59 -130.5 -98.5t-187.5 -39.5zM639 248q109 0 183.5 79.5t74.5 198.5q0 121 -74 200t-184 79
q-109 0 -182.5 -79t-73.5 -200q0 -120 73.5 -199t182.5 -79z" />
    <glyph glyph-name="tcommaaccent.alt" horiz-adv-x="790" 
d="M532 0h-94l-28 -70q90 -11 145 -58t55 -126q0 -91 -79 -146t-187 -55q-125 0 -197 54v170q67 -64 164 -64q88 0 88 59q0 69 -166 76l64 160h-84v801h-184v254h184v284h319v-284h230v-254h-230v-801z" />
    <glyph glyph-name="acutecmb" horiz-adv-x="0" 
d="M-250 1206l146 350h354l-260 -350h-240z" />
    <glyph glyph-name="aogonek.alt" horiz-adv-x="1341" 
d="M571 -25q-214 0 -359.5 158.5t-145.5 392.5q0 236 145.5 394.5t359.5 158.5q103 0 187 -39.5t131 -97.5v113h319v-1055h-125q-106 -120 -124 -147q-17 -28 -17 -54q0 -24 15 -37.5t40 -13.5q39 0 88 33v-195q-65 -43 -145 -43q-93 0 -150 46.5t-57 134.5q0 64 38 125.5
t118 150.5v113q-47 -59 -130.5 -98.5t-187.5 -39.5zM639 248q109 0 183.5 79.5t74.5 198.5q0 121 -74 200t-184 79q-109 0 -182.5 -79t-73.5 -200q0 -120 73.5 -199t182.5 -79z" />
    <glyph glyph-name="egrave.alt" horiz-adv-x="1220" 
d="M748 1206h-240l-260 350h354zM1143 336q-48 -173 -188.5 -267t-331.5 -94q-149 0 -276 70.5t-203 197.5t-76 283q0 157 76.5 285t203 198t275.5 70q174 0 303 -87t188 -233.5t41 -322.5h-788q23 -97 93 -152t165 -55q156 0 215 107h303zM623 821q-89 0 -155.5 -49
t-94.5 -137h479q-10 74 -71.5 130t-157.5 56z" />
    <glyph glyph-name="acircumflex.alt" horiz-adv-x="1341" 
d="M842 1556l225 -350h-219l-152 162l-151 -162h-219l225 350h291zM571 -25q-214 0 -359.5 158.5t-145.5 392.5q0 236 145.5 394.5t359.5 158.5q103 0 187 -39.5t131 -97.5v113h319v-1055h-319v113q-47 -59 -130.5 -98.5t-187.5 -39.5zM639 248q109 0 183.5 79.5t74.5 198.5
q0 121 -74 200t-184 79q-109 0 -182.5 -79t-73.5 -200q0 -120 73.5 -199t182.5 -79z" />
    <glyph glyph-name="caroncmb" horiz-adv-x="0" 
d="M145 1206h-290l-226 350h219l152 -161l152 161h219z" />
    <glyph glyph-name="scircumflex.alt" horiz-adv-x="921" 
d="M627 1556l225 -350h-219l-152 162l-151 -162h-219l225 350h291zM453 -25q-152 0 -271 72t-162 203l263 100q53 -143 174 -143q50 0 79 26t29 66q0 36 -26.5 60.5t-69 39.5t-94 28.5t-103.5 35t-94.5 52.5t-69 86.5t-26.5 131.5q0 144 110 245t277 101q134 0 229.5 -62
t141.5 -177l-252 -92q-10 43 -38 70.5t-75 27.5q-44 0 -72 -25.5t-28 -66.5q0 -32 27 -54t70 -36t94.5 -28t103.5 -35.5t95 -52.5t70 -85.5t27 -128.5q0 -107 -58 -190t-150.5 -126t-200.5 -43z" />
    <glyph glyph-name="ogonekcmb" horiz-adv-x="0" 
d="M-16 8h194q-95 -105 -121 -140t-26 -67q0 -24 15 -37.5t40 -13.5q39 0 88 33v-195q-65 -43 -145 -43q-93 0 -150 46.5t-57 134.5q0 65 39 127t123 155z" />
    <glyph glyph-name="W.brandalt" horiz-adv-x="2201" 
d="M780 -61l-786 1556h348l446 -922l154 322l-301 600h334l127 -264l127 264h332l-299 -596l157 -328l443 924h348l-789 -1556l-319 639z" />
    <glyph glyph-name="Wcircumflex.brandalt" horiz-adv-x="2201" 
d="M1249 1937l256 -327h-235l-168 153l-168 -153h-236l256 327h295zM780 -61l-786 1556h348l446 -922l154 322l-301 600h334l127 -264l127 264h332l-299 -596l157 -328l443 924h348l-789 -1556l-319 639z" />
    <glyph glyph-name="uni0123.alt" horiz-adv-x="1335" 
d="M733 1593l185 -61l-99 -375l-295 105zM883 53v109q-47 -56 -129.5 -94.5t-184.5 -38.5q-134 0 -248 67t-182.5 188t-68.5 269q0 149 68.5 270.5t182.5 188.5t248 67q101 0 183.5 -39.5t130.5 -95.5v111h319v-985q0 -156 -78.5 -277.5t-207.5 -184.5t-283 -63
q-220 0 -372 112.5t-181 309.5h313q21 -74 82.5 -115.5t157.5 -41.5q106 0 178 63.5t72 179.5zM887 553q0 108 -73.5 179t-176.5 71t-176.5 -71t-73.5 -179t73.5 -180t176.5 -72t176.5 72t73.5 180z" />
    <glyph glyph-name="sacute.alt" horiz-adv-x="921" 
d="M346 1206l146 350h354l-260 -350h-240zM453 -25q-152 0 -271 72t-162 203l263 100q53 -143 174 -143q50 0 79 26t29 66q0 36 -26.5 60.5t-69 39.5t-94 28.5t-103.5 35t-94.5 52.5t-69 86.5t-26.5 131.5q0 144 110 245t277 101q134 0 229.5 -62t141.5 -177l-252 -92
q-10 43 -38 70.5t-75 27.5q-44 0 -72 -25.5t-28 -66.5q0 -32 27 -54t70 -36t94.5 -28t103.5 -35.5t95 -52.5t70 -85.5t27 -128.5q0 -107 -58 -190t-150.5 -126t-200.5 -43z" />
    <glyph glyph-name="commaaccentcmb" horiz-adv-x="0" 
d="M-12 -508l-185 62l99 374l295 -104z" />
    <glyph glyph-name="gcircumflex.alt" horiz-adv-x="1335" 
d="M831 1556l226 -350h-219l-152 162l-151 -162h-220l226 350h290zM883 53v109q-47 -56 -129.5 -94.5t-184.5 -38.5q-134 0 -248 67t-182.5 188t-68.5 269q0 149 68.5 270.5t182.5 188.5t248 67q101 0 183.5 -39.5t130.5 -95.5v111h319v-985q0 -156 -78.5 -277.5
t-207.5 -184.5t-283 -63q-220 0 -372 112.5t-181 309.5h313q21 -74 82.5 -115.5t157.5 -41.5q106 0 178 63.5t72 179.5zM887 553q0 108 -73.5 179t-176.5 71t-176.5 -71t-73.5 -179t73.5 -180t176.5 -72t176.5 72t73.5 180z" />
    <glyph glyph-name="uring.alt" horiz-adv-x="1204" 
d="M602 1645q104 0 175 -69.5t71 -170.5q0 -100 -71 -169t-175 -69t-175 69t-71 169q0 101 71 170.5t175 69.5zM602 1499q-40 0 -67 -27t-27 -67t27 -67t67 -27t67 27t27 67t-27 67t-67 27zM434 449q0 -95 43 -148t125 -53t125 53t43 148v606h322v-613q0 -210 -136 -338.5
t-354 -128.5q-217 0 -352 128.5t-135 338.5v613h319v-606z" />
    <glyph glyph-name="colon.mid" horiz-adv-x="561" 
d="M283 1276q82 0 140 -57t58 -140q0 -84 -57.5 -140t-140.5 -56h-4q-84 0 -141.5 56t-57.5 140q0 83 58 140t141 57h4zM283 612q83 0 140.5 -56t57.5 -140t-57.5 -140.5t-140.5 -56.5h-4q-84 0 -141.5 56.5t-57.5 140.5t57.5 140t141.5 56h4z" />
    <glyph glyph-name="brevecmb" horiz-adv-x="0" 
d="M326 1544q0 -169 -91.5 -264.5t-236.5 -95.5q-144 0 -234 95.5t-90 264.5h213q0 -68 30.5 -108.5t80.5 -40.5q51 0 82 40t31 109h215z" />
    <glyph glyph-name="uacute.alt" horiz-adv-x="1204" 
d="M481 1206l146 350h354l-260 -350h-240zM434 449q0 -95 43 -148t125 -53t125 53t43 148v606h322v-613q0 -210 -136 -338.5t-354 -128.5q-217 0 -352 128.5t-135 338.5v613h319v-606z" />
    <glyph glyph-name="ecircumflex.alt" horiz-adv-x="1220" 
d="M770 1556l225 -350h-219l-151 162l-152 -162h-219l225 350h291zM1143 336q-48 -173 -188.5 -267t-331.5 -94q-149 0 -276 70.5t-203 197.5t-76 283q0 157 76.5 285t203 198t275.5 70q174 0 303 -87t188 -233.5t41 -322.5h-788q23 -97 93 -152t165 -55q156 0 215 107h303z
M623 821q-89 0 -155.5 -49t-94.5 -137h479q-10 74 -71.5 130t-157.5 56z" />
    <glyph glyph-name="ae.alt" horiz-adv-x="1837" 
d="M496 641h213q5 20 6 23q-14 69 -76 107t-168 38q-141 0 -291 -84v274q65 35 163.5 57.5t199.5 22.5q226 0 348 -125q144 125 346 125q174 0 302.5 -85.5t187.5 -229.5t42 -320h-790q21 -101 92.5 -159t169.5 -58q156 0 213 109h303q-48 -173 -187.5 -267t-330.5 -94
q-119 0 -223 46t-178 129q-62 -80 -166.5 -127.5t-216.5 -47.5q-176 0 -287 87.5t-111 242.5q0 158 120 247t319 89zM1237 823q-87 0 -154 -48.5t-94 -133.5h469q-10 77 -68 129.5t-153 52.5zM494 203q78 0 137.5 38.5t93.5 110.5q-14 40 -20 92h-158q-93 0 -146 -31.5
t-53 -90.5t41 -89t105 -30z" />
    <glyph glyph-name="ucircumflex.alt" horiz-adv-x="1204" 
d="M750 1556l225 -350h-219l-152 162l-151 -162h-220l226 350h291zM434 449q0 -95 43 -148t125 -53t125 53t43 148v606h322v-613q0 -210 -136 -338.5t-354 -128.5q-217 0 -352 128.5t-135 338.5v613h319v-606z" />
    <glyph glyph-name="gbreve.alt" horiz-adv-x="1335" 
d="M1010 1544q0 -169 -91 -264.5t-235 -95.5t-234 95.5t-90 264.5h213q0 -68 30.5 -108.5t80.5 -40.5t80.5 40.5t30.5 108.5h215zM883 53v109q-47 -56 -129.5 -94.5t-184.5 -38.5q-134 0 -248 67t-182.5 188t-68.5 269q0 149 68.5 270.5t182.5 188.5t248 67
q101 0 183.5 -39.5t130.5 -95.5v111h319v-985q0 -156 -78.5 -277.5t-207.5 -184.5t-283 -63q-220 0 -372 112.5t-181 309.5h313q21 -74 82.5 -115.5t157.5 -41.5q106 0 178 63.5t72 179.5zM887 553q0 108 -73.5 179t-176.5 71t-176.5 -71t-73.5 -179t73.5 -180t176.5 -72
t176.5 72t73.5 180z" />
    <glyph glyph-name="circumflexcmb" horiz-adv-x="0" 
d="M145 1556l226 -350h-219l-152 162l-152 -162h-219l226 350h290z" />
    <glyph glyph-name="gdotaccent.alt" horiz-adv-x="1335" 
d="M688 1550q74 0 127 -52t53 -128q0 -74 -53 -126t-127 -52h-4q-74 0 -127 52t-53 126q0 76 53 128t127 52h4zM883 53v109q-47 -56 -129.5 -94.5t-184.5 -38.5q-134 0 -248 67t-182.5 188t-68.5 269q0 149 68.5 270.5t182.5 188.5t248 67q101 0 183.5 -39.5t130.5 -95.5
v111h319v-985q0 -156 -78.5 -277.5t-207.5 -184.5t-283 -63q-220 0 -372 112.5t-181 309.5h313q21 -74 82.5 -115.5t157.5 -41.5q106 0 178 63.5t72 179.5zM887 553q0 108 -73.5 179t-176.5 71t-176.5 -71t-73.5 -179t73.5 -180t176.5 -72t176.5 72t73.5 180z" />
    <glyph glyph-name="adieresis.alt" horiz-adv-x="1341" 
d="M492 1542q69 0 118 -48t49 -118q0 -69 -49 -116.5t-118 -47.5h-3q-69 0 -118 47.5t-49 116.5q0 70 49 118t118 48h3zM907 1542q70 0 119 -48t49 -118q0 -69 -49.5 -116.5t-118.5 -47.5h-2q-69 0 -118.5 47.5t-49.5 116.5q0 70 49 118t119 48h2zM571 -25
q-214 0 -359.5 158.5t-145.5 392.5q0 236 145.5 394.5t359.5 158.5q103 0 187 -39.5t131 -97.5v113h319v-1055h-319v113q-47 -59 -130.5 -98.5t-187.5 -39.5zM639 248q109 0 183.5 79.5t74.5 198.5q0 121 -74 200t-184 79q-109 0 -182.5 -79t-73.5 -200q0 -120 73.5 -199
t182.5 -79z" />
    <glyph glyph-name="Wgrave.brandalt" horiz-adv-x="2201" 
d="M1262 1610h-277l-362 327h411zM780 -61l-786 1556h348l446 -922l154 322l-301 600h334l127 -264l127 264h332l-299 -596l157 -328l443 924h348l-789 -1556l-319 639z" />
    <glyph glyph-name="macroncmb" horiz-adv-x="0" 
d="M-295 1227v221h590v-221h-590z" />
    <glyph glyph-name="utilde.alt" horiz-adv-x="1204" 
d="M772 1544h195q0 -143 -57 -238.5t-162 -95.5q-39 0 -75.5 16t-60.5 35.5t-54 35.5t-56 16q-33 0 -51.5 -26t-18.5 -70h-192q0 147 56 241t163 94q39 0 75.5 -16t60 -35t52.5 -35t55 -16q33 0 51.5 26t18.5 68zM434 449q0 -95 43 -148t125 -53t125 53t43 148v606h322v-613
q0 -210 -136 -338.5t-354 -128.5q-217 0 -352 128.5t-135 338.5v613h319v-606z" />
    <glyph glyph-name="udieresis.alt" horiz-adv-x="1204" 
d="M395 1542q70 0 119 -48t49 -118q0 -69 -49.5 -116.5t-118.5 -47.5h-2q-69 0 -118.5 47.5t-49.5 116.5q0 70 49 118t119 48h2zM811 1542q70 0 119 -48t49 -118q0 -69 -49.5 -116.5t-118.5 -47.5h-2q-69 0 -118.5 47.5t-49.5 116.5q0 70 49 118t119 48h2zM434 449
q0 -95 43 -148t125 -53t125 53t43 148v606h322v-613q0 -210 -136 -338.5t-354 -128.5q-217 0 -352 128.5t-135 338.5v613h319v-606z" />
    <glyph glyph-name="dotaccentCap" 
d="M616 1954q74 0 127.5 -52t53.5 -128q0 -74 -53.5 -126.5t-127.5 -52.5h-4q-74 0 -127 52t-53 127q0 76 53 128t127 52h4z" />
    <glyph glyph-name="uni0122.alt" horiz-adv-x="1642" 
d="M854 811h713q16 -195 -36.5 -355.5t-154.5 -264t-240 -160t-296 -56.5q-156 0 -298 61.5t-244.5 165t-163 246.5t-60.5 300q0 210 102.5 387.5t279 281t384.5 103.5q211 0 380 -102.5t267 -282.5l-279 -164q-55 112 -151.5 176.5t-216.5 64.5q-181 0 -310 -134.5
t-129 -329.5q0 -197 130.5 -336.5t314.5 -139.5q141 0 239.5 70t141.5 199h-373v270zM791 -508l-185 62l99 374l294 -104z" />
    <glyph glyph-name="emacron.alt" horiz-adv-x="1220" 
d="M328 1227v221h590v-221h-590zM1143 336q-48 -173 -188.5 -267t-331.5 -94q-149 0 -276 70.5t-203 197.5t-76 283q0 157 76.5 285t203 198t275.5 70q174 0 303 -87t188 -233.5t41 -322.5h-788q23 -97 93 -152t165 -55q156 0 215 107h303zM623 821q-89 0 -155.5 -49
t-94.5 -137h479q-10 74 -71.5 130t-157.5 56z" />
    <glyph glyph-name="Gbreve.alt" horiz-adv-x="1642" 
d="M1196 1937q-9 -159 -110 -251.5t-244 -92.5q-142 0 -244 92.5t-111 251.5h234q3 -57 36 -91t85 -34t85 34t36 91h233zM854 811h713q16 -195 -36.5 -355.5t-154.5 -264t-240 -160t-296 -56.5q-156 0 -298 61.5t-244.5 165t-163 246.5t-60.5 300q0 210 102.5 387.5t279 281
t384.5 103.5q211 0 380 -102.5t267 -282.5l-279 -164q-55 112 -151.5 176.5t-216.5 64.5q-181 0 -310 -134.5t-129 -329.5q0 -197 130.5 -336.5t314.5 -139.5q141 0 239.5 70t141.5 199h-373v270z" />
    <glyph glyph-name="uhungarumlaut.alt" horiz-adv-x="1204" 
d="M285 1206l129 350h338l-244 -350h-223zM686 1206l129 350h338l-242 -350h-225zM434 449q0 -95 43 -148t125 -53t125 53t43 148v606h322v-613q0 -210 -136 -338.5t-354 -128.5q-217 0 -352 128.5t-135 338.5v613h319v-606z" />
    <glyph glyph-name="uni021B.alt" horiz-adv-x="790" 
d="M532 0h-319v801h-184v254h184v284h319v-284h230v-254h-230v-801zM324 -508l-185 62l99 374l294 -104z" />
    <glyph glyph-name="commaaboverightcmb" horiz-adv-x="0" 
d="M31 1159h-213l63 397h301z" />
    <glyph glyph-name="aring.alt" horiz-adv-x="1341" 
d="M698 1645q104 0 175 -69.5t71 -170.5q0 -100 -71 -169t-175 -69t-174.5 69t-70.5 169q0 101 70.5 170.5t174.5 69.5zM698 1499q-40 0 -67 -27t-27 -67t27 -67t67 -27t67.5 27t27.5 67t-27.5 67t-67.5 27zM571 -25q-214 0 -359.5 158.5t-145.5 392.5q0 236 145.5 394.5
t359.5 158.5q103 0 187 -39.5t131 -97.5v113h319v-1055h-319v113q-47 -59 -130.5 -98.5t-187.5 -39.5zM639 248q109 0 183.5 79.5t74.5 198.5q0 121 -74 200t-184 79q-109 0 -182.5 -79t-73.5 -200q0 -120 73.5 -199t182.5 -79z" />
    <glyph glyph-name="ubreve.alt" horiz-adv-x="1204" 
d="M928 1544q0 -169 -91 -264.5t-235 -95.5q-143 0 -233 95.5t-90 264.5h213q0 -69 30 -109t80 -40t80.5 40.5t30.5 108.5h215zM434 449q0 -95 43 -148t125 -53t125 53t43 148v606h322v-613q0 -210 -136 -338.5t-354 -128.5q-217 0 -352 128.5t-135 338.5v613h319v-606z" />
    <glyph glyph-name="tcaron.alt" horiz-adv-x="790" 
d="M827 1159h-213l64 397h301zM532 0h-319v801h-184v254h184v284h319v-284h230v-254h-230v-801z" />
    <glyph glyph-name="CR" horiz-adv-x="655" 
 />
    <glyph glyph-name="edieresis.alt" horiz-adv-x="1220" 
d="M416 1542q70 0 119 -48t49 -118q0 -69 -49.5 -116.5t-118.5 -47.5h-2q-69 0 -118.5 47.5t-49.5 116.5q0 70 49 118t119 48h2zM831 1542q70 0 119 -48t49 -118q0 -69 -49.5 -116.5t-118.5 -47.5h-2q-69 0 -118 47.5t-49 116.5q0 70 49 118t118 48h2zM1143 336
q-48 -173 -188.5 -267t-331.5 -94q-149 0 -276 70.5t-203 197.5t-76 283q0 157 76.5 285t203 198t275.5 70q174 0 303 -87t188 -233.5t41 -322.5h-788q23 -97 93 -152t165 -55q156 0 215 107h303zM623 821q-89 0 -155.5 -49t-94.5 -137h479q-10 74 -71.5 130t-157.5 56z" />
    <glyph glyph-name="edotaccent.alt" horiz-adv-x="1220" 
d="M627 1550q74 0 127 -52t53 -128q0 -74 -53 -126t-127 -52h-4q-74 0 -127.5 52t-53.5 126q0 76 53.5 128t127.5 52h4zM1143 336q-48 -173 -188.5 -267t-331.5 -94q-149 0 -276 70.5t-203 197.5t-76 283q0 157 76.5 285t203 198t275.5 70q174 0 303 -87t188 -233.5
t41 -322.5h-788q23 -97 93 -152t165 -55q156 0 215 107h303zM623 821q-89 0 -155.5 -49t-94.5 -137h479q-10 74 -71.5 130t-157.5 56z" />
    <glyph glyph-name="t.alt" horiz-adv-x="790" 
d="M532 0h-319v801h-184v254h184v284h319v-284h230v-254h-230v-801z" />
    <glyph glyph-name="S.alt" horiz-adv-x="1222" 
d="M608 -25q-175 0 -331.5 77t-256.5 208l211 225q90 -116 180.5 -175.5t202.5 -59.5q95 0 161.5 49.5t66.5 130.5q0 45 -24.5 78.5t-66 55t-95 39t-113 34t-118.5 36.5t-112.5 51.5t-95 73t-66 106.5t-24.5 147q0 200 145.5 334.5t370.5 134.5q283 0 477 -217l-190 -228
q-128 174 -293 174q-83 0 -139 -44t-56 -124q0 -41 24.5 -71t66 -50t95.5 -36.5t114 -34t119.5 -38.5t113.5 -55t95.5 -78t66 -112.5t24.5 -154.5q0 -138 -74.5 -248t-200.5 -169t-278 -59z" />
    <glyph glyph-name="tbar.alt" horiz-adv-x="790" 
d="M532 0h-319v410h-182v221h182v170h-184v254h184v284h319v-284h230v-254h-230v-170h230v-221h-230v-410z" />
    <glyph glyph-name="u.alt" horiz-adv-x="1204" 
d="M434 449q0 -95 43 -148t125 -53t125 53t43 148v606h322v-613q0 -210 -136 -338.5t-354 -128.5q-217 0 -352 128.5t-135 338.5v613h319v-606z" />
    <glyph glyph-name="Sacute.alt" horiz-adv-x="1222" 
d="M500 1610l227 327h412l-363 -327h-276zM608 -25q-175 0 -331.5 77t-256.5 208l211 225q90 -116 180.5 -175.5t202.5 -59.5q95 0 161.5 49.5t66.5 130.5q0 45 -24.5 78.5t-66 55t-95 39t-113 34t-118.5 36.5t-112.5 51.5t-95 73t-66 106.5t-24.5 147q0 200 145.5 334.5
t370.5 134.5q283 0 477 -217l-190 -228q-128 174 -293 174q-83 0 -139 -44t-56 -124q0 -41 24.5 -71t66 -50t95.5 -36.5t114 -34t119.5 -38.5t113.5 -55t95.5 -78t66 -112.5t24.5 -154.5q0 -138 -74.5 -248t-200.5 -169t-278 -59z" />
    <glyph glyph-name="dieresiscmb" horiz-adv-x="0" 
d="M-207 1542q70 0 119 -48t49 -118q0 -69 -49.5 -116.5t-118.5 -47.5h-2q-69 0 -118.5 47.5t-49.5 116.5q0 70 49 118t119 48h2zM209 1542q70 0 119 -48t49 -118q0 -69 -49.5 -116.5t-118.5 -47.5h-2q-69 0 -118.5 47.5t-49.5 116.5q0 70 49 118t119 48h2z" />
    <glyph glyph-name="e.alt" horiz-adv-x="1224" 
d="M1143 336q-48 -173 -188.5 -267t-331.5 -94q-149 0 -276 70.5t-203 197.5t-76 283q0 157 76.5 285t203 198t275.5 70q174 0 303 -87t188 -233.5t41 -322.5h-788q23 -97 93 -152t165 -55q156 0 215 107h303zM623 821q-89 0 -155.5 -49t-94.5 -137h479q-10 74 -71.5 130
t-157.5 56z" />
    <glyph glyph-name="j.brandalt" horiz-adv-x="583" 
d="M295 1550q74 0 127 -52t53 -128q0 -74 -53 -126t-127 -52h-4q-75 0 -127.5 51.5t-52.5 126.5q0 76 52.5 128t127.5 52h4zM133 1055h320v-1485h-320v1485z" />
    <glyph glyph-name="Scircumflex.alt" horiz-adv-x="1222" 
d="M784 1937l256 -327h-235l-168 153l-168 -153h-236l256 327h295zM608 -25q-175 0 -331.5 77t-256.5 208l211 225q90 -116 180.5 -175.5t202.5 -59.5q95 0 161.5 49.5t66.5 130.5q0 45 -24.5 78.5t-66 55t-95 39t-113 34t-118.5 36.5t-112.5 51.5t-95 73t-66 106.5
t-24.5 147q0 200 145.5 334.5t370.5 134.5q283 0 477 -217l-190 -228q-128 174 -293 174q-83 0 -139 -44t-56 -124q0 -41 24.5 -71t66 -50t95.5 -36.5t114 -34t119.5 -38.5t113.5 -55t95.5 -78t66 -112.5t24.5 -154.5q0 -138 -74.5 -248t-200.5 -169t-278 -59z" />
    <glyph glyph-name="abreve.alt" horiz-adv-x="1341" 
d="M1020 1544q0 -169 -91 -264.5t-235 -95.5q-143 0 -233 95.5t-90 264.5h213q0 -69 30 -109t80 -40t80.5 40.5t30.5 108.5h215zM571 -25q-214 0 -359.5 158.5t-145.5 392.5q0 236 145.5 394.5t359.5 158.5q103 0 187 -39.5t131 -97.5v113h319v-1055h-319v113
q-47 -59 -130.5 -98.5t-187.5 -39.5zM639 248q109 0 183.5 79.5t74.5 198.5q0 121 -74 200t-184 79q-109 0 -182.5 -79t-73.5 -200q0 -120 73.5 -199t182.5 -79z" />
    <glyph glyph-name="uni0218.alt" horiz-adv-x="1222" 
d="M608 -25q-175 0 -331.5 77t-256.5 208l211 225q90 -116 180.5 -175.5t202.5 -59.5q95 0 161.5 49.5t66.5 130.5q0 45 -24.5 78.5t-66 55t-95 39t-113 34t-118.5 36.5t-112.5 51.5t-95 73t-66 106.5t-24.5 147q0 200 145.5 334.5t370.5 134.5q283 0 477 -217l-190 -228
q-128 174 -293 174q-83 0 -139 -44t-56 -124q0 -41 24.5 -71t66 -50t95.5 -36.5t114 -34t119.5 -38.5t113.5 -55t95.5 -78t66 -112.5t24.5 -154.5q0 -138 -74.5 -248t-200.5 -169t-278 -59zM573 -508l-184 62l98 374l295 -104z" />
    <glyph glyph-name="Wacute.brandalt" horiz-adv-x="2201" 
d="M991 1610l228 327h411l-362 -327h-277zM780 -61l-786 1556h348l446 -922l154 322l-301 600h334l127 -264l127 264h332l-299 -596l157 -328l443 924h348l-789 -1556l-319 639z" />
    <glyph glyph-name="ecaron.alt" horiz-adv-x="1220" 
d="M766 1206h-291l-225 350h219l152 -161l151 161h219zM1143 336q-48 -173 -188.5 -267t-331.5 -94q-149 0 -276 70.5t-203 197.5t-76 283q0 157 76.5 285t203 198t275.5 70q174 0 303 -87t188 -233.5t41 -322.5h-788q23 -97 93 -152t165 -55q156 0 215 107h303zM623 821
q-89 0 -155.5 -49t-94.5 -137h479q-10 74 -71.5 130t-157.5 56z" />
    <glyph glyph-name="uni015F.alt" horiz-adv-x="921" 
d="M416 -455q-125 0 -197 54v170q67 -64 164 -64q88 0 88 59q0 69 -166 76l55 144q-122 20 -213.5 88t-126.5 178l263 100q53 -143 174 -143q50 0 79 26t29 66q0 36 -26.5 60.5t-69 39.5t-94 28.5t-103.5 35t-94.5 52.5t-69 86.5t-26.5 131.5q0 144 110 245t277 101
q134 0 229.5 -62t141.5 -177l-252 -92q-10 43 -38 70.5t-75 27.5q-44 0 -72 -25.5t-28 -66.5q0 -32 27 -54t70 -36t94.5 -28t103.5 -35.5t95 -52.5t70 -85.5t27 -128.5q0 -148 -104 -244.5t-256 -112.5l-21 -47q90 -11 145.5 -58t55.5 -126q0 -91 -79 -146t-187 -55z" />
    <glyph glyph-name="scaron.alt" horiz-adv-x="921" 
d="M618 1206h-290l-226 350h220l151 -161l152 161h219zM453 -25q-152 0 -271 72t-162 203l263 100q53 -143 174 -143q50 0 79 26t29 66q0 36 -26.5 60.5t-69 39.5t-94 28.5t-103.5 35t-94.5 52.5t-69 86.5t-26.5 131.5q0 144 110 245t277 101q134 0 229.5 -62t141.5 -177
l-252 -92q-10 43 -38 70.5t-75 27.5q-44 0 -72 -25.5t-28 -66.5q0 -32 27 -54t70 -36t94.5 -28t103.5 -35.5t95 -52.5t70 -85.5t27 -128.5q0 -107 -58 -190t-150.5 -126t-200.5 -43z" />
    <glyph glyph-name="Gcircumflex.alt" horiz-adv-x="1642" 
d="M989 1937l256 -327h-235l-168 153l-168 -153h-236l256 327h295zM854 811h713q16 -195 -36.5 -355.5t-154.5 -264t-240 -160t-296 -56.5q-156 0 -298 61.5t-244.5 165t-163 246.5t-60.5 300q0 210 102.5 387.5t279 281t384.5 103.5q211 0 380 -102.5t267 -282.5l-279 -164
q-55 112 -151.5 176.5t-216.5 64.5q-181 0 -310 -134.5t-129 -329.5q0 -197 130.5 -336.5t314.5 -139.5q141 0 239.5 70t141.5 199h-373v270z" />
    <glyph glyph-name="ebreve.alt" horiz-adv-x="1220" 
d="M948 1544q0 -169 -90.5 -264.5t-234.5 -95.5t-234 95.5t-90 264.5h213q0 -68 30.5 -108.5t80.5 -40.5t80 40t30 109h215zM1143 336q-48 -173 -188.5 -267t-331.5 -94q-149 0 -276 70.5t-203 197.5t-76 283q0 157 76.5 285t203 198t275.5 70q174 0 303 -87t188 -233.5
t41 -322.5h-788q23 -97 93 -152t165 -55q156 0 215 107h303zM623 821q-89 0 -155.5 -49t-94.5 -137h479q-10 74 -71.5 130t-157.5 56z" />
    <glyph glyph-name="oe.alt" horiz-adv-x="2043" 
d="M1661 336h303q-48 -173 -187.5 -267t-330.5 -94q-119 0 -223.5 46t-178.5 129q-80 -82 -186 -128.5t-223 -46.5q-154 0 -284 70.5t-207.5 197.5t-77.5 283t77.5 283.5t208 198.5t283.5 71q118 0 223.5 -46.5t183.5 -129.5q76 84 179.5 130t222.5 46q174 0 302.5 -87
t187.5 -233t42 -323h-788q23 -97 94 -153t166 -56q156 0 213 109zM1444 823q-90 0 -157 -51t-95 -141h481q-10 78 -71.5 135t-157.5 57zM635 805q-109 0 -180.5 -78.5t-71.5 -200.5q0 -121 71.5 -199.5t180.5 -78.5q108 0 180 78.5t72 199.5q0 122 -72 200.5t-180 78.5z" />
    <glyph glyph-name="Wdieresis.brandalt" horiz-adv-x="2201" 
d="M893 1931q70 0 119 -48t49 -118q0 -69 -49.5 -116t-118.5 -47h-2q-69 0 -117.5 47t-48.5 116q0 70 48.5 118t117.5 48h2zM1313 1931q69 0 117.5 -48t48.5 -118q0 -69 -48.5 -116t-117.5 -47h-2q-69 0 -118.5 47t-49.5 116q0 70 49 118t119 48h2zM780 -61l-786 1556h348
l446 -922l154 322l-301 600h334l127 -264l127 264h332l-299 -596l157 -328l443 924h348l-789 -1556l-319 639z" />
    <glyph glyph-name="g.alt" horiz-adv-x="1335" 
d="M883 53v109q-47 -56 -129.5 -94.5t-184.5 -38.5q-134 0 -248 67t-182.5 188t-68.5 269q0 149 68.5 270.5t182.5 188.5t248 67q101 0 183.5 -39.5t130.5 -95.5v111h319v-985q0 -156 -78.5 -277.5t-207.5 -184.5t-283 -63q-220 0 -372 112.5t-181 309.5h313
q21 -74 82.5 -115.5t157.5 -41.5q106 0 178 63.5t72 179.5zM887 553q0 108 -73.5 179t-176.5 71t-176.5 -71t-73.5 -179t73.5 -180t176.5 -72t176.5 72t73.5 180z" />
    <glyph glyph-name="tildecmb" horiz-adv-x="0" 
d="M170 1544h195q0 -143 -57.5 -238.5t-162.5 -95.5q-39 0 -76 16t-61 35.5t-54 35.5t-56 16q-33 0 -51.5 -26t-18.5 -70h-193q0 146 56.5 240.5t163.5 94.5q39 0 76 -16t60.5 -35t53 -35t55.5 -16q33 0 51.5 26t18.5 68z" />
    <glyph glyph-name="eogonek.alt" horiz-adv-x="1220" 
d="M829 -412q-65 -43 -145 -43q-93 0 -150 46.5t-57 134.5q0 59 33 116.5t100 132.5q-147 3 -270.5 74t-197.5 197t-74 280q0 157 76.5 285t203 198t275.5 70q174 0 303 -87t188 -233.5t41 -322.5h-788q23 -97 93 -152t165 -55q156 0 215 107h303q-33 -122 -115 -205.5
t-199 -122.5h5q-97 -107 -122.5 -141t-25.5 -66q0 -24 15 -37.5t40 -13.5q39 0 88 33v-195zM623 821q-89 0 -155.5 -49t-94.5 -137h479q-10 74 -71.5 130t-157.5 56z" />
    <glyph glyph-name="amacron.alt" horiz-adv-x="1341" 
d="M418 1227v221h590v-221h-590zM571 -25q-214 0 -359.5 158.5t-145.5 392.5q0 236 145.5 394.5t359.5 158.5q103 0 187 -39.5t131 -97.5v113h319v-1055h-319v113q-47 -59 -130.5 -98.5t-187.5 -39.5zM639 248q109 0 183.5 79.5t74.5 198.5q0 121 -74 200t-184 79
q-109 0 -182.5 -79t-73.5 -200q0 -120 73.5 -199t182.5 -79z" />
    <glyph glyph-name="Scaron.alt" horiz-adv-x="1222" 
d="M799 1610h-295l-256 327h235l168 -153l168 153h236zM608 -25q-175 0 -331.5 77t-256.5 208l211 225q90 -116 180.5 -175.5t202.5 -59.5q95 0 161.5 49.5t66.5 130.5q0 45 -24.5 78.5t-66 55t-95 39t-113 34t-118.5 36.5t-112.5 51.5t-95 73t-66 106.5t-24.5 147
q0 200 145.5 334.5t370.5 134.5q283 0 477 -217l-190 -228q-128 174 -293 174q-83 0 -139 -44t-56 -124q0 -41 24.5 -71t66 -50t95.5 -36.5t114 -34t119.5 -38.5t113.5 -55t95.5 -78t66 -112.5t24.5 -154.5q0 -138 -74.5 -248t-200.5 -169t-278 -59z" />
    <glyph glyph-name="ringcmb" horiz-adv-x="0" 
d="M0 1645q104 0 175 -69.5t71 -170.5q0 -100 -71 -169t-175 -69t-175 69t-71 169q0 101 71 170.5t175 69.5zM0 1499q-40 0 -67 -27t-27 -67t27 -67t67 -27t67 27t27 67t-27 67t-67 27z" />
    </font>
</defs>
</svg>
