<?xml version="1.0" standalone="no"?>
<!DOCTYPE svg PUBLIC "-//W3C//DTD SVG 1.1//EN" "http://www.w3.org/Graphics/SVG/1.1/DTD/svg11.dtd" >
<svg xmlns="http://www.w3.org/2000/svg" xmlns:xlink="http://www.w3.org/1999/xlink" version="1.1">
<metadata>
Created by FontForge 20170731 at Fri Jun 11 11:34:23 2021
 By Aleksey,,,
(c) 2017 Klim Type Foundry. All Rights Reserved.
</metadata>
<defs>
<font id="Geograph-Medium" horiz-adv-x="1228" >
  <font-face 
    font-family="Geograph Medium"
    font-weight="500"
    font-stretch="normal"
    units-per-em="2048"
    panose-1="2 11 6 3 3 2 2 6 2 3"
    ascent="1587"
    descent="-461"
    x-height="1049"
    cap-height="1495"
    bbox="-403 -494 2189 2064"
    underline-thickness="153"
    underline-position="-468"
    unicode-range="U+0020-2212"
  />
<missing-glyph horiz-adv-x="1232" 
 />
    <glyph glyph-name=".notdef" horiz-adv-x="1232" 
 />
    <glyph glyph-name=".null" horiz-adv-x="753" 
 />
    <glyph glyph-name="nonmarkingreturn" horiz-adv-x="682" 
 />
    <glyph glyph-name="space" unicode=" " horiz-adv-x="438" 
 />
    <glyph glyph-name="exclam" unicode="!" horiz-adv-x="581" 
d="M123 1495h338l-62 -1001h-215zM293 332q72 0 123 -50t51 -122q0 -73 -51 -123.5t-123 -50.5h-4q-72 0 -123 50.5t-51 123.5q0 72 51 122t123 50h4z" />
    <glyph glyph-name="quotedbl" unicode="&#x22;" horiz-adv-x="849" 
d="M137 922l-53 573h291l-53 -573h-185zM528 922l-53 573h291l-53 -573h-185z" />
    <glyph glyph-name="numbersign" unicode="#" horiz-adv-x="1669" 
d="M174 0l152 412h-215v188h284l111 295h-285v188h354l152 412h227l-151 -412h311l152 412h227l-152 -412h218v-188h-287l-109 -295h285v-188h-354l-152 -412h-227l151 412h-313l-152 -412h-227zM623 600h313l108 295h-311z" />
    <glyph glyph-name="dollar" unicode="$" horiz-adv-x="1159" 
d="M70 145v261q206 -167 419 -189v455l-96 37q-70 27 -122.5 57.5t-97.5 74.5t-69 104t-24 134q0 161 113.5 271t295.5 137v164h193v-162q100 -11 188 -49t148 -88v-258q-155 142 -336 176v-414l68 -25q179 -65 262.5 -156t83.5 -239q0 -167 -114.5 -279.5t-299.5 -144.5
v-176h-193v166q-125 7 -235 46.5t-184 96.5zM475 934l14 -6v344q-86 -15 -133 -59.5t-47 -112.5q0 -59 42 -96t124 -70zM700 592l-18 6v-371q89 20 137.5 68t48.5 117q0 66 -41 105t-127 75z" />
    <glyph glyph-name="percent" unicode="%" horiz-adv-x="1622" 
d="M408 1520q138 0 234.5 -97.5t96.5 -236.5q0 -138 -96.5 -236t-234.5 -98t-235 98t-97 236q0 139 97 236.5t235 97.5zM190 0l996 1495h246l-998 -1495h-244zM408 1341q-63 0 -107.5 -45.5t-44.5 -109.5q0 -65 44.5 -110.5t107.5 -45.5t107 45.5t44 110.5t-44 110t-107 45z
M1217 -25q-138 0 -235 97.5t-97 236.5q0 138 97 236t235 98q136 0 232.5 -98t96.5 -236q0 -139 -96 -236.5t-233 -97.5zM1217 154q63 0 107 45t44 110t-44 110.5t-107 45.5q-64 0 -109 -45.5t-45 -110.5t45 -110t109 -45z" />
    <glyph glyph-name="ampersand" unicode="&#x26;" horiz-adv-x="1531" 
d="M1042 1147q0 -64 -23.5 -120t-66.5 -100t-91 -77.5t-111 -65.5l239 -247l211 241h303l-354 -405l358 -373h-329l-189 195q-110 -108 -219 -164t-233 -56q-210 0 -342 120t-132 302q0 82 26 151t73.5 120t100.5 88t120 69l-25 25q-125 132 -125 293q0 165 121 272t291 107
q167 0 282 -105t115 -270zM565 977l51 -53q187 94 187 213q0 69 -45 116t-117 47q-66 0 -114 -44t-48 -111q0 -79 86 -168zM313 430q0 -100 68 -162.5t168 -62.5q78 0 143.5 37.5t138.5 115.5l-311 324q-96 -45 -151.5 -105t-55.5 -147z" />
    <glyph glyph-name="quotesingle" unicode="'" horiz-adv-x="458" 
d="M137 922l-53 573h291l-53 -573h-185z" />
    <glyph glyph-name="parenleft" unicode="(" horiz-adv-x="759" 
d="M471 -242q-165 170 -267 403t-102 496t102 496t267 403h274q-179 -197 -282 -426t-103 -473t103 -473t282 -426h-274z" />
    <glyph glyph-name="parenright" unicode=")" horiz-adv-x="759" 
d="M289 -242h-275q179 197 282 426t103 473t-103 473t-282 426h275q165 -169 266.5 -402.5t101.5 -496.5t-101.5 -496.5t-266.5 -402.5z" />
    <glyph glyph-name="asterisk" unicode="*" horiz-adv-x="800" 
d="M266 1212l-196 113l69 117l195 -111v225h135v-225l195 111l67 -117l-196 -113l196 -110l-67 -119l-195 113v-224h-135v224l-195 -113l-69 119z" />
    <glyph glyph-name="plus" unicode="+" 
d="M1153 602h-432v-432h-213v432h-434v213h434v432h213v-432h432v-213z" />
    <glyph glyph-name="comma" unicode="," horiz-adv-x="542" 
d="M201 -285l-174 49l141 566l295 -97z" />
    <glyph glyph-name="hyphen" unicode="-" horiz-adv-x="761" 
d="M115 737h534v-262h-534v262z" />
    <glyph glyph-name="period" unicode="." horiz-adv-x="542" 
d="M272 332q72 0 123 -50t51 -122q0 -73 -51 -123.5t-123 -50.5h-4q-72 0 -122 50.5t-50 123.5q0 72 50 122t122 50h4z" />
    <glyph glyph-name="slash" unicode="/" horiz-adv-x="1114" 
d="M41 -242l762 1798h270l-762 -1798h-270z" />
    <glyph glyph-name="zero" unicode="0" horiz-adv-x="1361" 
d="M680 1520q130 0 242.5 -57.5t192.5 -159t125.5 -245t45.5 -310.5q0 -222 -78 -399t-216.5 -275.5t-311.5 -98.5q-172 0 -310.5 98.5t-217 275.5t-78.5 399q0 166 46 310t126 245.5t192.5 159t241.5 57.5zM680 1272q-149 0 -241.5 -150t-92.5 -374t92.5 -374.5
t241.5 -150.5q100 0 177 70.5t117 189t40 265.5t-40 265.5t-117 188.5t-177 70z" />
    <glyph glyph-name="one" unicode="1" horiz-adv-x="847" 
d="M680 1544v-1544h-277v1161l-352 -166v271z" />
    <glyph glyph-name="two" unicode="2" horiz-adv-x="1099" 
d="M463 229h577v-229h-1058l462 563q68 84 107 135t84.5 120.5t66.5 127.5t21 111q0 98 -61.5 154.5t-174.5 56.5q-107 0 -220.5 -58.5t-196.5 -136.5v270q83 77 205 127t253 50q211 0 340 -120t129 -310q0 -138 -64.5 -260.5t-197.5 -278.5z" />
    <glyph glyph-name="three" unicode="3" horiz-adv-x="1081" 
d="M82 1266v229h958l-378 -594q162 -37 259 -154t97 -276q0 -111 -45.5 -205.5t-122 -157.5t-176 -98t-207.5 -35q-248 0 -424 129v267q87 -79 190.5 -121.5t210.5 -42.5q131 0 222.5 74.5t91.5 189.5q0 93 -60.5 160t-159 98t-223.5 31h-8l334 506h-559z" />
    <glyph glyph-name="four" unicode="4" horiz-adv-x="1282" 
d="M950 1495l-547 -938h371v326h248v-326h240v-219h-240v-338h-248v338h-762l666 1157h272z" />
    <glyph glyph-name="five" unicode="5" horiz-adv-x="1056" 
d="M451 1266l-41 -301q94 -6 177.5 -27t158 -61.5t128 -97t84.5 -137t31 -177.5q0 -147 -73.5 -259.5t-199.5 -171.5t-284 -59q-112 0 -215 31.5t-170 83.5v266q71 -65 173 -107t204 -42q130 0 217.5 67.5t87.5 186.5q0 79 -45.5 138t-124.5 92t-173 49t-204 16h-32l90 739
h723v-229h-512z" />
    <glyph glyph-name="six" unicode="6" horiz-adv-x="1204" 
d="M631 1024q215 0 361.5 -148t146.5 -366q0 -149 -70 -272t-193.5 -193t-273.5 -70q-226 0 -381 154t-155 379q0 90 27.5 177t96.5 204l361 606h291l-283 -481q42 10 72 10zM602 807q-121 0 -204 -86t-83 -211t83 -211t204 -86t204 86t83 211t-83 211t-204 86z" />
    <glyph glyph-name="seven" unicode="7" horiz-adv-x="1153" 
d="M1147 1495l-623 -1495h-282l532 1266h-737v229h1110z" />
    <glyph glyph-name="eight" unicode="8" horiz-adv-x="1191" 
d="M1126 416q0 -125 -70 -226t-191 -158t-269 -57q-226 0 -378 125.5t-152 315.5q0 127 73.5 223.5t175.5 136.5q-86 47 -142 133.5t-56 192.5q0 119 64.5 215.5t174 149.5t240.5 53q200 0 339.5 -119t139.5 -299q0 -106 -56.5 -192.5t-144.5 -133.5q104 -40 178 -136.5
t74 -223.5zM596 1311q-102 0 -166.5 -60.5t-64.5 -152.5q0 -90 64.5 -150.5t166.5 -60.5q100 0 165.5 60.5t65.5 150.5q0 91 -65 152t-166 61zM596 670q-115 0 -190.5 -68.5t-75.5 -169.5q0 -102 75.5 -170.5t190.5 -68.5t190.5 68.5t75.5 170.5q0 101 -75.5 169.5
t-190.5 68.5z" />
    <glyph glyph-name="nine" unicode="9" horiz-adv-x="1204" 
d="M573 471q-215 0 -361 148t-146 366q0 227 154 381t382 154q226 0 381.5 -154t155.5 -379q0 -90 -28 -176.5t-97 -204.5l-361 -606h-291l283 481q-42 -10 -72 -10zM602 688q121 0 204 86t83 211t-83 211t-204 86t-204 -86t-83 -211t83 -211t204 -86z" />
    <glyph glyph-name="colon" unicode=":" horiz-adv-x="542" 
d="M272 1028q72 0 123 -50t51 -122q0 -73 -51 -123.5t-123 -50.5h-4q-72 0 -122 50.5t-50 123.5q0 72 50 122t122 50h4zM272 332q72 0 123 -50t51 -122q0 -73 -51 -123.5t-123 -50.5h-4q-72 0 -122 50.5t-50 123.5q0 72 50 122t122 50h4z" />
    <glyph glyph-name="semicolon" unicode=";" horiz-adv-x="542" 
d="M272 1028q72 0 123 -50t51 -122q0 -73 -51 -123.5t-123 -50.5h-4q-72 0 -122 50.5t-50 123.5q0 72 50 122t122 50h4zM201 -285l-174 49l141 566l295 -97z" />
    <glyph glyph-name="less" unicode="&#x3c;" 
d="M102 559v293l1024 446v-256l-815 -337l815 -336v-256z" />
    <glyph glyph-name="equal" unicode="=" 
d="M90 831v199h1049v-199h-1049zM90 391v197h1049v-197h-1049z" />
    <glyph glyph-name="greater" unicode="&#x3e;" 
d="M1126 852v-293l-1024 -446v256l816 336l-816 337v256z" />
    <glyph glyph-name="question" unicode="?" horiz-adv-x="1034" 
d="M340 494l213 264q87 107 111 150q45 77 45 155q0 88 -61.5 144.5t-166.5 56.5t-216.5 -55t-194.5 -148v297q74 69 192 115.5t240 46.5q219 0 351 -128.5t132 -316.5q0 -60 -17.5 -118.5t-52.5 -115.5t-66 -98.5t-78 -99.5l-15 -18l-105 -131h-311zM494 332
q73 0 123.5 -50t50.5 -122q0 -74 -50 -124t-124 -50h-2q-72 0 -123.5 50.5t-51.5 123.5q0 72 51.5 122t123.5 50h2z" />
    <glyph glyph-name="at" unicode="@" horiz-adv-x="1865" 
d="M1346 68q-144 0 -224 86q-42 -42 -108.5 -68.5t-145.5 -26.5q-137 0 -235 82t-98 215q0 124 100 201.5t242 77.5q67 0 126 -20t87 -48v66q0 66 -54 107.5t-147 41.5q-127 0 -252 -71v204q132 68 297 68q183 0 284 -90.5t101 -253.5v-377q21 -24 67 -24q87 0 154.5 90
t67.5 262q0 179 -85 317.5t-233 212.5t-334 74q-143 0 -270.5 -52t-220.5 -143.5t-147 -223.5t-54 -286q0 -131 42 -244t113 -191.5t164 -134.5t196 -82.5t208 -26.5q315 0 539 143v-180q-96 -64 -238 -99.5t-299 -35.5q-140 0 -272.5 37t-246.5 110t-200 174t-135 238
t-49 292q0 182 67.5 344t182.5 278.5t277 184.5t343 68q174 0 326.5 -58.5t262 -160t172.5 -245t63 -308.5q0 -122 -37 -223t-98.5 -165.5t-139 -100t-159.5 -35.5zM1092 356q0 57 -50.5 90t-117.5 33q-69 0 -119.5 -33t-50.5 -90q0 -60 50.5 -93.5t119.5 -33.5
q67 0 117.5 34t50.5 93z" />
    <glyph glyph-name="A" unicode="A" horiz-adv-x="1533" 
d="M766 1554l762 -1554h-291l-152 322h-636l-152 -322h-293zM766 997l-217 -462h436z" />
    <glyph glyph-name="B" unicode="B" horiz-adv-x="1257" 
d="M160 0v1495h430q246 0 377 -105.5t131 -289.5q0 -110 -58.5 -191.5t-150.5 -120.5q133 -35 217 -130.5t84 -231.5q0 -198 -142 -312t-386 -114h-502zM430 862h143q119 0 186.5 52t67.5 149q0 98 -67.5 150.5t-186.5 52.5h-143v-404zM430 229h215q119 0 191.5 58t72.5 157
q0 98 -72.5 155.5t-191.5 57.5h-215v-428z" />
    <glyph glyph-name="C" unicode="C" horiz-adv-x="1327" 
d="M854 240q116 0 215 42t166 117v-319q-171 -105 -387 -105q-157 0 -299.5 61.5t-245.5 165t-164 246.5t-61 300q0 210 103 387.5t280.5 281t386.5 103.5q216 0 387 -105v-319q-67 75 -166 117t-215 42q-212 0 -356 -146t-144 -361t144 -361.5t356 -146.5z" />
    <glyph glyph-name="D" unicode="D" horiz-adv-x="1466" 
d="M160 1495h461q158 0 299.5 -57.5t244.5 -156t163.5 -237.5t60.5 -296q0 -209 -102.5 -381t-278.5 -269.5t-387 -97.5h-461v1495zM604 1266h-168v-1037h166q147 0 264.5 70t181.5 188.5t64 260.5t-64 260t-181 188t-263 70z" />
    <glyph glyph-name="E" unicode="E" horiz-adv-x="1181" 
d="M160 0v1495h921v-229h-651v-387h600v-232h-600v-418h655v-229h-925z" />
    <glyph glyph-name="F" unicode="F" horiz-adv-x="1122" 
d="M160 0v1495h897v-229h-627v-400h576v-229h-576v-637h-270z" />
    <glyph glyph-name="G" unicode="G" horiz-adv-x="1579" 
d="M1460 836v-568q-100 -135 -261 -214t-359 -79q-125 0 -241 38.5t-210 109.5t-164 165.5t-108.5 211.5t-38.5 243q0 158 59.5 300.5t163.5 248t254 167t322 61.5q163 0 298 -53.5t218 -133.5v-325q-96 115 -232.5 185.5t-283.5 70.5q-227 0 -375 -148t-148 -373
q0 -217 143 -366.5t355 -149.5q205 0 336 121v258h-373l66 230h579z" />
    <glyph glyph-name="H" unicode="H" horiz-adv-x="1568" 
d="M1133 0v647h-697v-647h-276v1495h276v-616h697v616h276v-1495h-276z" />
    <glyph glyph-name="I" unicode="I" horiz-adv-x="593" 
d="M160 1495h276v-1495h-276v1495z" />
    <glyph glyph-name="J" unicode="J" horiz-adv-x="966" 
d="M836 496q0 -242 -137.5 -381.5t-362.5 -139.5q-159 0 -277 72v272q100 -100 246 -100q117 0 185.5 74t68.5 209v993h277v-999z" />
    <glyph glyph-name="K" unicode="K" horiz-adv-x="1392" 
d="M721 807l653 -807h-325l-613 754v-754h-276v1495h276v-672l568 672h327z" />
    <glyph glyph-name="L" unicode="L" horiz-adv-x="1089" 
d="M160 0v1495h276v-1266h613v-229h-889z" />
    <glyph glyph-name="M" unicode="M" horiz-adv-x="2060" 
d="M1030 477l549 1077l444 -1554h-284l-240 877l-469 -920l-469 920l-239 -877h-283l442 1554z" />
    <glyph glyph-name="N" unicode="N" horiz-adv-x="1642" 
d="M1212 539v956h271v-1552l-1053 1013v-956h-270v1552z" />
    <glyph glyph-name="O" unicode="O" horiz-adv-x="1683" 
d="M842 1520q208 0 384 -103.5t278 -281t102 -387.5q0 -157 -60 -300t-162.5 -246.5t-244 -165t-297.5 -61.5t-297.5 61.5t-244 165t-162.5 246.5t-60 300q0 210 102 387.5t278 281t384 103.5zM842 1264q-134 0 -245.5 -67t-177 -185.5t-65.5 -263.5t65.5 -264t177 -186
t245.5 -67q133 0 245 67t177 186t65 264t-65 263.5t-176.5 185.5t-245.5 67z" />
    <glyph glyph-name="P" unicode="P" horiz-adv-x="1187" 
d="M582 571h-146v-571h-276v1495h422q254 0 409.5 -123.5t155.5 -339.5q0 -143 -72 -248t-199.5 -159t-293.5 -54zM436 1268v-469h146q130 0 207 61t77 172q0 112 -77 174t-207 62h-146z" />
    <glyph glyph-name="Q" unicode="Q" horiz-adv-x="1683" 
d="M1604 0h-312l-71 78q-173 -103 -379 -103q-156 0 -297.5 61.5t-244 165t-162.5 246.5t-60 300q0 210 102 387.5t278 281t384 103.5t384 -103.5t278 -281t102 -387.5q0 -150 -54 -286t-151 -241zM842 1264q-134 0 -245.5 -67t-177 -185.5t-65.5 -263.5t65.5 -264t177 -186
t245.5 -67q111 0 198 43l-354 388h311l224 -244q108 140 108 330q0 145 -65 263.5t-176.5 185.5t-245.5 67z" />
    <glyph glyph-name="R" unicode="R" horiz-adv-x="1349" 
d="M436 578v-578h-276v1495h422q166 0 293 -54t199.5 -159.5t72.5 -249.5q0 -149 -77 -253t-216 -156l465 -623h-322l-428 578h-133zM436 1268v-469h146q130 0 207 61t77 172q0 112 -77 174t-207 62h-146z" />
    <glyph glyph-name="S" unicode="S" horiz-adv-x="1124" 
d="M68 408q243 -197 462 -197q117 0 187.5 50t70.5 140q0 66 -38 106.5t-119 80.5l-250 119q-68 33 -116 64.5t-93 77t-67.5 106t-22.5 135.5q0 192 139.5 311t351.5 119q120 0 228.5 -43t175.5 -105v-287q-91 91 -198.5 145t-215.5 54q-97 0 -158 -45.5t-61 -126.5
q0 -57 35.5 -94t105.5 -72l234 -108q86 -40 144 -78t102.5 -86.5t65 -109.5t20.5 -138q0 -136 -70.5 -239.5t-189.5 -157.5t-267 -54q-134 0 -255 43t-201 107v283z" />
    <glyph glyph-name="T" unicode="T" horiz-adv-x="1314" 
d="M1274 1266h-477v-1266h-277v1266h-479v229h1233v-229z" />
    <glyph glyph-name="U" unicode="U" horiz-adv-x="1454" 
d="M408 592q0 -178 87 -275.5t232 -97.5q146 0 233 97.5t87 275.5v903h276v-905q0 -190 -79.5 -331t-213.5 -212.5t-303 -71.5q-168 0 -302 71.5t-214 213t-80 330.5v905h277v-903z" />
    <glyph glyph-name="V" unicode="V" horiz-adv-x="1533" 
d="M766 -59l-762 1554h305l465 -1001l461 1001h293z" />
    <glyph glyph-name="W" unicode="W" horiz-adv-x="2123" 
d="M1061 942l-416 -1001l-635 1554h299l363 -928l397 971l395 -971l361 928h286l-632 -1554z" />
    <glyph glyph-name="X" unicode="X" horiz-adv-x="1513" 
d="M1178 0l-424 580l-426 -580h-305l577 784l-526 711h313l371 -502l366 502h306l-521 -707l582 -788h-313z" />
    <glyph glyph-name="Y" unicode="Y" horiz-adv-x="1404" 
d="M842 0h-279v672l-559 823h313l383 -567l387 567h312l-557 -823v-672z" />
    <glyph glyph-name="Z" unicode="Z" horiz-adv-x="1351" 
d="M494 229h782v-229h-1227l809 1266h-768v229h1210z" />
    <glyph glyph-name="bracketleft" unicode="[" horiz-adv-x="722" 
d="M416 1348v-1381h243v-209h-495v1798h495v-208h-243z" />
    <glyph glyph-name="backslash" unicode="\" horiz-adv-x="1114" 
d="M1073 -242h-270l-762 1798h270z" />
    <glyph glyph-name="bracketright" unicode="]" horiz-adv-x="722" 
d="M307 1348h-244v208h496v-1798h-496v209h244v1381z" />
    <glyph glyph-name="asciicircum" unicode="^" horiz-adv-x="925" 
d="M348 1495h232l303 -514h-248l-172 307l-172 -307h-246z" />
    <glyph glyph-name="underscore" unicode="_" horiz-adv-x="802" 
d="M115 -74h573v-235h-573v235z" />
    <glyph glyph-name="grave" unicode="`" 
d="M842 1217h-205l-250 339h303z" />
    <glyph glyph-name="a" unicode="a" horiz-adv-x="1128" 
d="M727 0v80q-33 -42 -105 -73.5t-163 -31.5q-106 0 -195 42t-143.5 123.5t-54.5 185.5q0 149 116.5 244.5t284.5 95.5q83 0 153.5 -27.5t106.5 -65.5v78q0 82 -66.5 135.5t-181.5 53.5q-148 0 -295 -86v237q65 36 160 59t193 23q211 0 331.5 -108.5t120.5 -300.5v-664h-262
zM731 326q0 68 -63.5 109.5t-147.5 41.5t-145.5 -41t-61.5 -110t61.5 -109.5t145.5 -40.5t147.5 41t63.5 109z" />
    <glyph glyph-name="b" unicode="b" horiz-adv-x="1343" 
d="M760 1073q216 0 363 -158.5t147 -390.5q0 -153 -67 -279t-184 -198t-259 -72q-112 0 -204.5 49.5t-137.5 122.5v-147h-271v1556h271v-655q45 73 137.5 122.5t204.5 49.5zM707 840q-126 0 -211.5 -90.5t-85.5 -225.5t85.5 -226t211.5 -91q125 0 211 91t86 226
q0 134 -86 225t-211 91z" />
    <glyph glyph-name="c" unicode="c" horiz-adv-x="960" 
d="M645 211q128 0 227 80v-258q-103 -58 -243 -58q-111 0 -212.5 42t-177 114t-120.5 175t-45 218t45 218t120.5 175t177 114t212.5 42q141 0 243 -57v-258q-100 78 -227 78q-129 0 -221 -89t-92 -223q0 -135 92 -224t221 -89z" />
    <glyph glyph-name="d" unicode="d" horiz-adv-x="1343" 
d="M584 1073q112 0 204.5 -49.5t137.5 -122.5v655h270v-1556h-270v147q-45 -73 -137.5 -122.5t-204.5 -49.5q-142 0 -259 72t-184 198t-67 279q0 232 147 390.5t363 158.5zM637 840q-125 0 -211 -91t-86 -225q0 -135 86 -226t211 -91q126 0 211.5 91t85.5 226t-85.5 225.5
t-211.5 90.5z" />
    <glyph glyph-name="e" unicode="e" horiz-adv-x="1189" 
d="M76 522q0 115 44 218.5t117.5 175.5t172 114.5t204.5 42.5q121 0 217.5 -43t157.5 -118.5t93 -175.5t32 -218q0 -40 -2 -63h-782q22 -120 118 -187t242 -67q94 0 186.5 30.5t159.5 85.5v-237q-75 -52 -175.5 -78.5t-203.5 -26.5q-248 0 -414.5 156t-166.5 391zM610 856
q-98 0 -171 -59.5t-101 -161.5h522q-10 91 -75.5 156t-174.5 65z" />
    <glyph glyph-name="f" unicode="f" horiz-adv-x="757" 
d="M733 1554v-225q-48 25 -100 25q-72 0 -115 -45t-43 -127v-133h236v-215h-236v-834h-266v834h-172v215h172v149q0 175 100.5 279t270.5 104q92 0 153 -27z" />
    <glyph glyph-name="g" unicode="g" horiz-adv-x="1339" 
d="M1192 1049v-963q0 -136 -50 -242t-136 -170t-193.5 -96.5t-230.5 -32.5q-108 0 -208.5 26t-168.5 71v268q147 -127 373 -127q95 0 171 30t124.5 96.5t48.5 162.5v118q-46 -70 -137 -118.5t-201 -48.5q-136 0 -251 68t-183 189t-68 267q0 111 40 209t108 167t160.5 109.5
t193.5 40.5q109 0 200.5 -49t137.5 -119v144h270zM928 547q0 125 -85 209t-204 84q-120 0 -204.5 -83.5t-84.5 -209.5q0 -125 84.5 -209t204.5 -84q119 0 204 84.5t85 208.5z" />
    <glyph glyph-name="h" unicode="h" horiz-adv-x="1236" 
d="M418 600v-600h-271v1556h271v-630q43 66 121.5 106.5t175.5 40.5q178 0 280.5 -110.5t102.5 -288.5v-674h-271v602q0 97 -53.5 162t-150.5 65q-94 0 -149.5 -66t-55.5 -163z" />
    <glyph glyph-name="i" unicode="i" horiz-adv-x="563" 
d="M283 1524q66 0 111.5 -45t45.5 -111t-45.5 -111t-111.5 -45h-2q-66 0 -112 45t-46 111t46 111t112 45h2zM147 1049h271v-1049h-271v1049z" />
    <glyph glyph-name="j" unicode="j" horiz-adv-x="563" 
d="M283 1524q66 0 111.5 -45t45.5 -111t-45.5 -111t-111.5 -45h-2q-66 0 -112 45t-46 111t46 111t112 45h2zM147 -45v1094h271v-1084q0 -180 -115 -292.5t-291 -112.5q-55 0 -94 10v217q33 -8 64 -8q78 0 121.5 47.5t43.5 128.5z" />
    <glyph glyph-name="k" unicode="k" horiz-adv-x="1183" 
d="M147 1556h269v-966l401 459h320l-445 -488l461 -561h-322l-415 520v-520h-269v1556z" />
    <glyph glyph-name="l" unicode="l" horiz-adv-x="563" 
d="M147 1556h271v-1556h-271v1556z" />
    <glyph glyph-name="m" unicode="m" horiz-adv-x="1845" 
d="M1061 621v-621h-270v623q0 89 -49 147.5t-138 58.5q-86 0 -136 -59t-50 -149v-621h-271v1049h271v-121q39 66 116.5 105.5t174.5 39.5q200 0 299 -166q122 166 331 166q168 0 266.5 -109t98.5 -288v-676h-270v623q0 89 -48.5 147.5t-138.5 58.5q-85 0 -135.5 -59.5
t-50.5 -148.5z" />
    <glyph glyph-name="n" unicode="n" horiz-adv-x="1236" 
d="M418 600v-600h-271v1049h271v-123q43 66 121.5 106.5t175.5 40.5q178 0 280.5 -110.5t102.5 -288.5v-674h-271v602q0 97 -53.5 162t-150.5 65q-94 0 -149.5 -66t-55.5 -163z" />
    <glyph glyph-name="o" unicode="o" horiz-adv-x="1271" 
d="M637 -25q-151 0 -279.5 70.5t-205 197.5t-76.5 281q0 153 76.5 280t205 198t279.5 71q150 0 278 -71t204.5 -198t76.5 -280q0 -154 -76.5 -281t-204.5 -197.5t-278 -70.5zM637 840q-125 0 -209 -90t-84 -226t84 -225.5t209 -89.5t208 89.5t83 225.5t-83 226t-208 90z" />
    <glyph glyph-name="p" unicode="p" horiz-adv-x="1343" 
d="M760 1073q216 0 363 -158.5t147 -390.5q0 -153 -67 -279t-184 -198t-259 -72q-112 0 -204.5 49.5t-137.5 122.5v-577h-271v1479h271v-148q45 73 137.5 122.5t204.5 49.5zM707 840q-126 0 -211.5 -90.5t-85.5 -225.5t85.5 -226t211.5 -91q125 0 211 91t86 226
q0 134 -86 225t-211 91z" />
    <glyph glyph-name="q" unicode="q" horiz-adv-x="1343" 
d="M584 1073q112 0 204.5 -49.5t137.5 -122.5v148h270v-1479h-270v577q-45 -73 -137.5 -122.5t-204.5 -49.5q-142 0 -259 72t-184 198t-67 279q0 232 147 390.5t363 158.5zM637 840q-125 0 -211 -91t-86 -225q0 -135 86 -226t211 -91q126 0 211.5 91t85.5 226t-85.5 225.5
t-211.5 90.5z" />
    <glyph glyph-name="r" unicode="r" horiz-adv-x="815" 
d="M752 1065v-270q-46 4 -64 4q-125 0 -200.5 -71t-75.5 -216v-512h-271v1049h271v-162q45 80 126 130t183 50q5 0 15.5 -1t15.5 -1z" />
    <glyph glyph-name="s" unicode="s" horiz-adv-x="905" 
d="M86 326q72 -66 164 -103t182 -37q67 0 108.5 27t41.5 76q0 36 -19.5 56.5t-70.5 45.5l-193 84q-46 20 -79 42.5t-62.5 54.5t-44.5 76t-15 100q0 138 108.5 231.5t272.5 93.5q168 0 297 -90v-244q-154 119 -295 119q-59 0 -95 -25.5t-36 -70.5q0 -37 24.5 -58t86.5 -49
l184 -80q97 -43 145 -106.5t48 -163.5q0 -148 -119.5 -239t-284.5 -91q-200 0 -348 99v252z" />
    <glyph glyph-name="t" unicode="t" horiz-adv-x="858" 
d="M471 369q0 -77 40.5 -118.5t113.5 -41.5q90 0 157 55v-239q-85 -50 -211 -50q-165 0 -267.5 95t-102.5 270v494h-172v215h172v243l270 86v-329h281v-215h-281v-465z" />
    <glyph glyph-name="u" unicode="u" horiz-adv-x="1232" 
d="M815 442v607h270v-1049h-270v123q-43 -66 -122 -107t-175 -41q-178 0 -278.5 110.5t-100.5 287.5v676h271v-607q0 -99 51.5 -163t148.5 -64q94 0 149.5 65.5t55.5 161.5z" />
    <glyph glyph-name="v" unicode="v" horiz-adv-x="1191" 
d="M602 432l299 617h285l-590 -1104l-590 1104h299z" />
    <glyph glyph-name="w" unicode="w" horiz-adv-x="1693" 
d="M852 1094l289 -648l266 603h283l-537 -1106l-305 659l-307 -659l-535 1106h289l266 -603z" />
    <glyph glyph-name="x" unicode="x" horiz-adv-x="1155" 
d="M831 0l-260 356l-262 -356h-291l404 535l-377 514h303l234 -324l239 324h289l-377 -506l404 -543h-306z" />
    <glyph glyph-name="y" unicode="y" horiz-adv-x="1183" 
d="M141 -430l312 584l-451 895h291l301 -619l301 619h287l-760 -1479h-281z" />
    <glyph glyph-name="z" unicode="z" horiz-adv-x="1054" 
d="M457 215h520v-215h-928l537 834h-504v215h911z" />
    <glyph glyph-name="braceleft" unicode="{" horiz-adv-x="786" 
d="M512 1217v-297q0 -122 -61.5 -189t-151.5 -74q90 -7 151.5 -73.5t61.5 -188.5v-297q0 -69 27 -101t82 -32h104v-207h-174q-138 0 -211.5 75.5t-73.5 221.5v310q0 180 -160 180h-65v225h65q160 0 160 180v310q0 146 73.5 221t211.5 75h174v-206h-104q-55 0 -82 -32
t-27 -101z" />
    <glyph glyph-name="bar" unicode="|" horiz-adv-x="614" 
d="M180 0v1495h254v-1495h-254z" />
    <glyph glyph-name="braceright" unicode="}" horiz-adv-x="786" 
d="M254 1217q0 69 -27 101t-82 32h-104v206h174q138 0 211.5 -75t73.5 -221v-310q0 -180 159 -180h66v-225h-66q-159 0 -159 -180v-310q0 -146 -73.5 -221.5t-211.5 -75.5h-174v207h104q55 0 82 32t27 101v297q0 122 61.5 188.5t151.5 73.5q-90 7 -151.5 74t-61.5 189v297z
" />
    <glyph glyph-name="asciitilde" unicode="~" horiz-adv-x="1060" 
d="M299 469h-184q0 160 62.5 250t176.5 90q43 0 82 -15t67.5 -36.5t54.5 -43.5t53 -37t53 -15q98 0 98 137h186q0 -161 -63 -250.5t-178 -89.5q-51 0 -99 23t-78 50.5t-66 50.5t-67 23q-98 0 -98 -137z" />
    <glyph glyph-name="uni00A0" unicode="&#xa0;" horiz-adv-x="438" 
 />
    <glyph glyph-name="exclamdown" unicode="&#xa1;" horiz-adv-x="581" 
d="M293 1163h-4q-72 0 -123 50t-51 122q0 73 51 123.5t123 50.5h4q72 0 123 -50.5t51 -123.5q0 -72 -51 -122t-123 -50zM123 0l61 1001h215l62 -1001h-338z" />
    <glyph glyph-name="cent" unicode="&#xa2;" horiz-adv-x="1019" 
d="M516 -164v182q-189 45 -311.5 191t-122.5 340t122.5 339.5t311.5 190.5v205h193v-188q115 -8 217 -62v-231q-94 72 -217 80v-668q123 8 217 80v-234q-103 -51 -217 -59v-166h-193zM311 549q0 -108 55.5 -188.5t149.5 -118.5v614q-94 -38 -149.5 -118.5t-55.5 -188.5z" />
    <glyph glyph-name="sterling" unicode="&#xa3;" horiz-adv-x="1181" 
d="M96 637v207h185v114q0 252 151.5 407t394.5 155q174 0 287 -70v-246q-118 76 -266 76q-144 0 -226.5 -92t-82.5 -250v-94h311v-207h-311v-172q0 -77 -24 -142t-62 -98h680v-225h-1065v225h36q91 0 134 62t43 164v186h-185z" />
    <glyph glyph-name="yen" unicode="&#xa5;" horiz-adv-x="1376" 
d="M240 319v185h315v141h-315v184h249l-479 666h314l362 -541l367 541h311l-479 -666h250v-184h-316v-141h316v-185h-316v-319h-264v319h-315z" />
    <glyph glyph-name="section" unicode="&#xa7;" horiz-adv-x="1110" 
d="M930 281q0 -134 -112.5 -220t-280.5 -86q-98 0 -187.5 28t-152.5 73v235q73 -56 162 -90.5t169 -34.5q58 0 96 26.5t38 70.5q0 33 -16.5 53.5t-55.5 46.5l-291 158q-100 54 -151.5 119t-51.5 153q0 162 150 234q-66 72 -66 167q0 134 112.5 220t280.5 86q98 0 187.5 -28
t152.5 -73v-235q-74 56 -164 90.5t-169 34.5q-57 0 -95.5 -27t-38.5 -70q0 -33 17 -53.5t57 -46.5l289 -158q101 -54 153 -119t52 -153q0 -162 -152 -233q68 -71 68 -168zM428 723l268 -158q31 9 51.5 36.5t20.5 60.5t-20.5 56.5t-65.5 53.5l-268 158q-31 -9 -51.5 -36
t-20.5 -60t20.5 -57.5t65.5 -53.5z" />
    <glyph glyph-name="dieresis" unicode="&#xa8;" 
d="M416 1518q62 0 104.5 -42.5t42.5 -103.5t-42.5 -102t-104.5 -41h-2q-62 0 -104 41t-42 102q0 62 42 104t104 42h2zM815 1518q61 0 103.5 -42t42.5 -104q0 -61 -42 -102t-104 -41h-2q-62 0 -104.5 41t-42.5 102t42.5 103.5t104.5 42.5h2z" />
    <glyph glyph-name="copyright" unicode="&#xa9;" horiz-adv-x="1671" 
d="M836 1520q152 0 290.5 -61t238.5 -164.5t159 -246.5t59 -300t-59 -300t-159 -246.5t-238.5 -165t-290.5 -61.5t-291 61.5t-239 165t-159 246.5t-59 300q0 126 37.5 243.5t107 212.5t161 166.5t206 110.5t236.5 39zM836 74q177 0 326.5 90.5t236 245.5t86.5 338
q0 137 -51 261.5t-138 214.5t-207 143.5t-253 53.5t-253 -53.5t-207 -143.5t-138.5 -214.5t-51.5 -261.5t51.5 -261.5t138 -215t207 -144t253.5 -53.5zM885 471q136 0 221 88v-231q-104 -64 -240 -64q-131 0 -241.5 64.5t-175 175t-64.5 241.5q0 97 38 186.5t102.5 154.5
t153.5 104t187 39q136 0 240 -64v-231q-86 86 -221 86q-121 0 -203 -78.5t-82 -196.5t82 -196t203 -78z" />
    <glyph glyph-name="ordfeminine" unicode="&#xaa;" horiz-adv-x="858" 
d="M530 758v49q-22 -25 -71.5 -45.5t-110.5 -20.5q-117 0 -197.5 67.5t-80.5 180.5q0 106 86.5 171t210.5 65q96 0 163 -54v64q0 43 -43.5 73.5t-126.5 30.5q-107 0 -206 -59v182q46 25 115 41.5t139 16.5q157 0 245 -78t88 -217v-467h-211zM535 989q0 45 -39.5 70.5
t-92.5 25.5q-55 0 -95 -25.5t-40 -70.5q0 -43 40 -68.5t95 -25.5q53 0 92.5 25.5t39.5 68.5zM90 471v174h653v-174h-653z" />
    <glyph glyph-name="guillemotleft" unicode="&#xab;" horiz-adv-x="1071" 
d="M311 928h271l-260 -408l260 -405h-271l-262 405zM752 928h270l-260 -408l260 -405h-270l-263 405z" />
    <glyph glyph-name="registered" unicode="&#xae;" horiz-adv-x="995" 
d="M63 1081q0 188 127 313.5t308 125.5q179 0 305.5 -125.5t126.5 -313.5t-126 -313t-306 -125q-181 0 -308 125t-127 313zM135 1081q0 -159 105 -263.5t258 -104.5q151 0 255.5 104.5t104.5 263.5t-104.5 264t-255.5 105q-153 0 -258 -105t-105 -264zM461 1012h-33v-156
h-113v459h181q77 0 128.5 -40.5t51.5 -111.5q0 -48 -28 -83t-68 -48l155 -176h-139zM492 1104q32 0 50.5 15.5t18.5 41.5q0 28 -18.5 43t-50.5 15h-64v-115h64z" />
    <glyph glyph-name="macron" unicode="&#xaf;" 
d="M330 1241v191h569v-191h-569z" />
    <glyph glyph-name="degree" unicode="&#xb0;" horiz-adv-x="821" 
d="M412 1520q131 0 223 -93.5t92 -228.5t-92 -228t-223 -93t-224.5 93.5t-93.5 227.5t93.5 228t224.5 94zM412 1360q-66 0 -112 -47t-46 -115q0 -69 46 -115.5t112 -46.5q65 0 111 47t46 115q0 67 -46 114.5t-111 47.5z" />
    <glyph glyph-name="twosuperior" unicode="&#xb2;" horiz-adv-x="729" 
d="M377 842h266v-168h-608l237 305q68 86 105 147.5t37 106.5q0 42 -26 65t-75 23q-57 0 -118 -31t-109 -71v194q47 42 117.5 69t146.5 27q121 0 197 -70.5t76 -178.5q0 -70 -30.5 -131.5t-96.5 -143.5z" />
    <glyph glyph-name="threesuperior" unicode="&#xb3;" horiz-adv-x="729" 
d="M102 1327v168h555l-198 -319q85 -25 133.5 -86.5t48.5 -147.5q0 -128 -94.5 -205.5t-224.5 -77.5q-134 0 -236 70v193q101 -91 219 -91q59 0 99 30t40 81q0 63 -61 95.5t-164 35.5l162 254h-279z" />
    <glyph glyph-name="acute" unicode="&#xb4;" 
d="M387 1217l152 339h303l-250 -339h-205z" />
    <glyph glyph-name="paragraph" unicode="&#xb6;" horiz-adv-x="1212" 
d="M866 0v1495h187v-1495h-187zM539 0v666q-84 0 -167 28t-152 79t-111.5 131.5t-42.5 176.5q0 77 28 144.5t75 116t108 83.5t128 52.5t134 17.5h186v-1495h-186z" />
    <glyph glyph-name="periodcentered" unicode="&#xb7;" horiz-adv-x="542" 
d="M272 774q72 0 123 -50t51 -122q0 -73 -51 -123.5t-123 -50.5h-4q-72 0 -122 50.5t-50 123.5q0 72 50 122t122 50h4z" />
    <glyph glyph-name="cedilla" unicode="&#xb8;" 
d="M578 -455q-119 0 -193 52v151q65 -65 166 -65q42 0 69 17.5t27 51.5q0 75 -172 82l72 186h123l-39 -104q88 -11 142 -57t54 -121q0 -88 -73.5 -140.5t-175.5 -52.5z" />
    <glyph glyph-name="onesuperior" unicode="&#xb9;" horiz-adv-x="729" 
d="M115 674v168h180v411l-182 -79v190l389 164v-686h147v-168h-534z" />
    <glyph glyph-name="ordmasculine" unicode="&#xba;" horiz-adv-x="946" 
d="M473 741q-165 0 -282 111.5t-117 277.5q0 167 117 278.5t282 111.5t282 -111.5t117 -278.5q0 -166 -117 -277.5t-282 -111.5zM473 1333q-80 0 -132 -57t-52 -146t52 -145.5t132 -56.5t133 56.5t53 145.5t-53 146t-133 57zM139 471v174h668v-174h-668z" />
    <glyph glyph-name="guillemotright" unicode="&#xbb;" horiz-adv-x="1071" 
d="M760 928l262 -408l-262 -405h-271l261 405l-261 408h271zM319 928l263 -408l-263 -405h-270l260 405l-260 408h270z" />
    <glyph glyph-name="onequarter" unicode="&#xbc;" horiz-adv-x="1871" 
d="M115 674v168h180v411l-182 -79v190l389 164v-686h147v-168h-534zM315 0l996 1495h245l-995 -1495h-246zM1565 821l-250 -508h168v172h182v-172h107v-147h-107v-166h-182v166h-447l332 655h197z" />
    <glyph glyph-name="onehalf" unicode="&#xbd;" horiz-adv-x="1871" 
d="M115 674v168h180v411l-182 -79v190l389 164v-686h147v-168h-534zM315 0l996 1495h245l-995 -1495h-246zM1520 168h266v-168h-608l237 305q67 85 104 147.5t37 108.5q0 41 -26 64.5t-74 23.5q-57 0 -117.5 -31.5t-109.5 -72.5v196q47 41 117.5 68t146.5 27
q121 0 196.5 -70t75.5 -178q0 -70 -31 -132.5t-96 -144.5z" />
    <glyph glyph-name="threequarters" unicode="&#xbe;" horiz-adv-x="1871" 
d="M315 0l996 1495h245l-995 -1495h-246zM102 1327v168h555l-198 -319q85 -25 133.5 -86.5t48.5 -147.5q0 -128 -94.5 -205.5t-224.5 -77.5q-134 0 -236 70v193q101 -91 219 -91q59 0 99 30t40 81q0 63 -61 95.5t-164 35.5l162 254h-279zM1565 821l-250 -508h168v172h182
v-172h107v-147h-107v-166h-182v166h-447l332 655h197z" />
    <glyph glyph-name="questiondown" unicode="&#xbf;" horiz-adv-x="1034" 
d="M539 1163q-72 0 -123 50t-51 122q0 73 51 123.5t123 50.5h4q72 0 123 -50.5t51 -123.5q0 -72 -51 -122t-123 -50h-4zM694 1001l-213 -264q-87 -107 -112 -152q-43 -76 -43 -153q0 -88 61 -144.5t166 -56.5q103 0 215.5 55t196.5 148v-297q-74 -69 -193 -115.5t-240 -46.5
q-220 0 -351.5 128.5t-131.5 316.5q0 51 15.5 104.5t32 90t56 93.5t57 79.5t66.5 82.5l105 131h313z" />
    <glyph glyph-name="Agrave" unicode="&#xc0;" horiz-adv-x="1533" 
d="M901 1620h-237l-353 311h357zM766 1554l762 -1554h-291l-152 322h-636l-152 -322h-293zM766 997l-217 -462h436z" />
    <glyph glyph-name="Aacute" unicode="&#xc1;" horiz-adv-x="1533" 
d="M649 1620l234 311h356l-352 -311h-238zM766 1554l762 -1554h-291l-152 322h-636l-152 -322h-293zM766 997l-217 -462h436z" />
    <glyph glyph-name="Acircumflex" unicode="&#xc2;" horiz-adv-x="1533" 
d="M895 1931l252 -311h-203l-176 160l-176 -160h-203l252 311h254zM766 1554l762 -1554h-291l-152 322h-636l-152 -322h-293zM766 997l-217 -462h436z" />
    <glyph glyph-name="Atilde" unicode="&#xc3;" horiz-adv-x="1533" 
d="M950 1927h168q0 -136 -54 -224.5t-155 -88.5q-39 0 -76.5 18.5t-62 40t-55 40t-58.5 18.5q-36 0 -55.5 -31t-19.5 -80h-166q0 137 53.5 225t153.5 88q40 0 77.5 -18t62 -39t54.5 -39t57 -18q36 0 56 30t20 78zM766 1554l762 -1554h-291l-152 322h-636l-152 -322h-293z
M766 997l-217 -462h436z" />
    <glyph glyph-name="Adieresis" unicode="&#xc4;" horiz-adv-x="1533" 
d="M563 1909q62 0 105 -42.5t43 -103.5t-43 -102t-105 -41h-2q-61 0 -103 41t-42 102t42.5 103.5t102.5 42.5h2zM971 1909q60 0 102.5 -42.5t42.5 -103.5t-42 -102t-103 -41h-2q-62 0 -105 41t-43 102t43 103.5t105 42.5h2zM766 1554l762 -1554h-291l-152 322h-636
l-152 -322h-293zM766 997l-217 -462h436z" />
    <glyph glyph-name="Aring" unicode="&#xc5;" horiz-adv-x="1533" 
d="M766 2064q107 0 182.5 -72.5t75.5 -176.5t-75.5 -177t-182.5 -73t-182.5 73t-75.5 177t75.5 176.5t182.5 72.5zM766 1927q-46 0 -79.5 -32.5t-33.5 -79.5q0 -49 33 -81t80 -32t80 32t33 81q0 47 -33.5 79.5t-79.5 32.5zM766 1554l762 -1554h-291l-152 322h-636l-152 -322
h-293zM766 997l-217 -462h436z" />
    <glyph glyph-name="AE" unicode="&#xc6;" horiz-adv-x="2179" 
d="M1157 0v401h-582l-260 -401h-292l970 1495h1086v-229h-649v-387h600v-232h-600v-418h653v-229h-926zM725 635h432v668z" />
    <glyph glyph-name="Ccedilla" unicode="&#xc7;" horiz-adv-x="1327" 
d="M854 240q116 0 215 42t166 117v-319q-171 -105 -387 -105h-17l-22 -59q89 -11 143 -57t54 -121q0 -88 -74 -140.5t-176 -52.5q-119 0 -193 52v151q65 -65 166 -65q42 0 69 17.5t27 51.5q0 75 -172 82l60 154q-179 31 -324 139t-228 271.5t-83 349.5q0 210 103 387.5
t280.5 281t386.5 103.5q216 0 387 -105v-319q-67 75 -166 117t-215 42q-212 0 -356 -146t-144 -361t144 -361.5t356 -146.5z" />
    <glyph glyph-name="Egrave" unicode="&#xc8;" horiz-adv-x="1181" 
d="M758 1620h-238l-352 311h356zM160 0v1495h921v-229h-651v-387h600v-232h-600v-418h655v-229h-925z" />
    <glyph glyph-name="Eacute" unicode="&#xc9;" horiz-adv-x="1181" 
d="M506 1620l233 311h357l-353 -311h-237zM160 0v1495h921v-229h-651v-387h600v-232h-600v-418h655v-229h-925z" />
    <glyph glyph-name="Ecircumflex" unicode="&#xca;" horiz-adv-x="1181" 
d="M764 1931l252 -311h-203l-176 160l-176 -160h-203l252 311h254zM160 0v1495h921v-229h-651v-387h600v-232h-600v-418h655v-229h-925z" />
    <glyph glyph-name="Edieresis" unicode="&#xcb;" horiz-adv-x="1181" 
d="M434 1909q62 0 105 -42.5t43 -103.5t-43 -102t-105 -41h-2q-61 0 -103 41t-42 102t42.5 103.5t102.5 42.5h2zM842 1909q60 0 102.5 -42.5t42.5 -103.5t-42 -102t-103 -41h-2q-62 0 -105 41t-43 102t43 103.5t105 42.5h2zM160 0v1495h921v-229h-651v-387h600v-232h-600
v-418h655v-229h-925z" />
    <glyph glyph-name="Igrave" unicode="&#xcc;" horiz-adv-x="593" 
d="M420 1620h-238l-352 311h356zM160 1495h276v-1495h-276v1495z" />
    <glyph glyph-name="Iacute" unicode="&#xcd;" horiz-adv-x="593" 
d="M166 1620l233 311h357l-353 -311h-237zM160 1495h276v-1495h-276v1495z" />
    <glyph glyph-name="Icircumflex" unicode="&#xce;" horiz-adv-x="593" 
d="M426 1931l252 -311h-203l-176 160l-176 -160h-203l252 311h254zM160 1495h276v-1495h-276v1495z" />
    <glyph glyph-name="Idieresis" unicode="&#xcf;" horiz-adv-x="593" 
d="M94 1909q62 0 105 -42.5t43 -103.5t-43 -102t-105 -41h-2q-61 0 -103 41t-42 102t42.5 103.5t102.5 42.5h2zM502 1909q60 0 102.5 -42.5t42.5 -103.5t-42 -102t-103 -41h-2q-62 0 -105 41t-43 102t43 103.5t105 42.5h2zM160 1495h276v-1495h-276v1495z" />
    <glyph glyph-name="Eth" unicode="&#xd0;" horiz-adv-x="1499" 
d="M63 647v232h130v616h460q158 0 299.5 -57.5t244.5 -156t163.5 -237.5t60.5 -296q0 -209 -102.5 -381t-278.5 -269.5t-387 -97.5h-460v647h-130zM637 1266h-168v-387h315v-232h-315v-418h166q147 0 264.5 70t181.5 188.5t64 260.5t-64 260t-181 188t-263 70z" />
    <glyph glyph-name="Ntilde" unicode="&#xd1;" horiz-adv-x="1642" 
d="M997 1927h168q0 -136 -54 -224.5t-155 -88.5q-39 0 -76.5 18.5t-61.5 40t-54.5 40t-58.5 18.5q-36 0 -56 -31t-20 -80h-166q0 137 53.5 225t153.5 88q40 0 78 -18t62 -39t54.5 -39t57.5 -18q36 0 55.5 29.5t19.5 78.5zM1212 539v956h271v-1552l-1053 1013v-956h-270v1552
z" />
    <glyph glyph-name="Ograve" unicode="&#xd2;" horiz-adv-x="1683" 
d="M963 1620h-238l-352 311h356zM842 1520q208 0 384 -103.5t278 -281t102 -387.5q0 -157 -60 -300t-162.5 -246.5t-244 -165t-297.5 -61.5t-297.5 61.5t-244 165t-162.5 246.5t-60 300q0 210 102 387.5t278 281t384 103.5zM842 1264q-134 0 -245.5 -67t-177 -185.5
t-65.5 -263.5t65.5 -264t177 -186t245.5 -67q133 0 245 67t177 186t65 264t-65 263.5t-176.5 185.5t-245.5 67z" />
    <glyph glyph-name="Oacute" unicode="&#xd3;" horiz-adv-x="1683" 
d="M711 1620l233 311h356l-352 -311h-237zM842 1520q208 0 384 -103.5t278 -281t102 -387.5q0 -157 -60 -300t-162.5 -246.5t-244 -165t-297.5 -61.5t-297.5 61.5t-244 165t-162.5 246.5t-60 300q0 210 102 387.5t278 281t384 103.5zM842 1264q-134 0 -245.5 -67
t-177 -185.5t-65.5 -263.5t65.5 -264t177 -186t245.5 -67q133 0 245 67t177 186t65 264t-65 263.5t-176.5 185.5t-245.5 67z" />
    <glyph glyph-name="Ocircumflex" unicode="&#xd4;" horiz-adv-x="1683" 
d="M969 1931l252 -311h-203l-176 160l-176 -160h-203l252 311h254zM842 1520q208 0 384 -103.5t278 -281t102 -387.5q0 -157 -60 -300t-162.5 -246.5t-244 -165t-297.5 -61.5t-297.5 61.5t-244 165t-162.5 246.5t-60 300q0 210 102 387.5t278 281t384 103.5zM842 1264
q-134 0 -245.5 -67t-177 -185.5t-65.5 -263.5t65.5 -264t177 -186t245.5 -67q133 0 245 67t177 186t65 264t-65 263.5t-176.5 185.5t-245.5 67z" />
    <glyph glyph-name="Otilde" unicode="&#xd5;" horiz-adv-x="1683" 
d="M1026 1927h168q0 -136 -54 -224.5t-155 -88.5q-39 0 -76.5 18.5t-62 40t-55 40t-58.5 18.5q-36 0 -56 -31t-20 -80h-165q0 138 53 225.5t153 87.5q40 0 78 -18t62 -39t54.5 -39t57.5 -18q36 0 56 30t20 78zM842 1520q208 0 384 -103.5t278 -281t102 -387.5
q0 -157 -60 -300t-162.5 -246.5t-244 -165t-297.5 -61.5t-297.5 61.5t-244 165t-162.5 246.5t-60 300q0 210 102 387.5t278 281t384 103.5zM842 1264q-134 0 -245.5 -67t-177 -185.5t-65.5 -263.5t65.5 -264t177 -186t245.5 -67q133 0 245 67t177 186t65 264t-65 263.5
t-176.5 185.5t-245.5 67z" />
    <glyph glyph-name="Odieresis" unicode="&#xd6;" horiz-adv-x="1683" 
d="M639 1909q62 0 104.5 -42.5t42.5 -103.5t-42.5 -102t-104.5 -41h-2q-61 0 -103 41t-42 102t42.5 103.5t102.5 42.5h2zM1047 1909q60 0 102.5 -42.5t42.5 -103.5t-42 -102t-103 -41h-3q-62 0 -104.5 41t-42.5 102t42.5 103.5t104.5 42.5h3zM842 1520q208 0 384 -103.5
t278 -281t102 -387.5q0 -157 -60 -300t-162.5 -246.5t-244 -165t-297.5 -61.5t-297.5 61.5t-244 165t-162.5 246.5t-60 300q0 210 102 387.5t278 281t384 103.5zM842 1264q-134 0 -245.5 -67t-177 -185.5t-65.5 -263.5t65.5 -264t177 -186t245.5 -67q133 0 245 67t177 186
t65 264t-65 263.5t-176.5 185.5t-245.5 67z" />
    <glyph glyph-name="multiply" unicode="&#xd7;" 
d="M465 707l-340 342l151 149l338 -340l338 340l152 -149l-338 -342l338 -340l-152 -150l-338 338l-338 -338l-151 150z" />
    <glyph glyph-name="Oslash" unicode="&#xd8;" horiz-adv-x="1683" 
d="M78 53l182 193q-87 102 -134.5 231.5t-47.5 270.5q0 210 102 387.5t278 281t384 103.5q264 0 469 -162l151 162l135 -129l-155 -164q164 -214 164 -479q0 -157 -60 -300t-162.5 -246.5t-244 -165t-297.5 -61.5q-245 0 -445 144l-184 -195zM842 1274q-102 0 -194 -40
t-159.5 -109t-107 -167.5t-39.5 -209.5q0 -177 94 -314l701 742q-128 98 -295 98zM1341 748q0 159 -77 288l-695 -733q124 -82 273 -82q209 0 354 151t145 376z" />
    <glyph glyph-name="Ugrave" unicode="&#xd9;" horiz-adv-x="1454" 
d="M848 1620h-238l-352 311h356zM408 592q0 -178 87 -275.5t232 -97.5q146 0 233 97.5t87 275.5v903h276v-905q0 -190 -79.5 -331t-213.5 -212.5t-303 -71.5q-168 0 -302 71.5t-214 213t-80 330.5v905h277v-903z" />
    <glyph glyph-name="Uacute" unicode="&#xda;" horiz-adv-x="1454" 
d="M596 1620l233 311h357l-352 -311h-238zM408 592q0 -178 87 -275.5t232 -97.5q146 0 233 97.5t87 275.5v903h276v-905q0 -190 -79.5 -331t-213.5 -212.5t-303 -71.5q-168 0 -302 71.5t-214 213t-80 330.5v905h277v-903z" />
    <glyph glyph-name="Ucircumflex" unicode="&#xdb;" horiz-adv-x="1454" 
d="M854 1931l252 -311h-203l-176 160l-176 -160h-203l252 311h254zM408 592q0 -178 87 -275.5t232 -97.5q146 0 233 97.5t87 275.5v903h276v-905q0 -190 -79.5 -331t-213.5 -212.5t-303 -71.5q-168 0 -302 71.5t-214 213t-80 330.5v905h277v-903z" />
    <glyph glyph-name="Udieresis" unicode="&#xdc;" horiz-adv-x="1454" 
d="M524 1909q62 0 105 -42.5t43 -103.5t-43 -102t-105 -41h-2q-61 0 -103 41t-42 102t42.5 103.5t102.5 42.5h2zM932 1909q60 0 102.5 -42.5t42.5 -103.5t-42 -102t-103 -41h-2q-62 0 -105 41t-43 102t43 103.5t105 42.5h2zM408 592q0 -178 87 -275.5t232 -97.5
q146 0 233 97.5t87 275.5v903h276v-905q0 -190 -79.5 -331t-213.5 -212.5t-303 -71.5q-168 0 -302 71.5t-214 213t-80 330.5v905h277v-903z" />
    <glyph glyph-name="Yacute" unicode="&#xdd;" horiz-adv-x="1404" 
d="M588 1620l233 311h357l-353 -311h-237zM842 0h-279v672l-559 823h313l383 -567l387 567h312l-557 -823v-672z" />
    <glyph glyph-name="Thorn" unicode="&#xde;" horiz-adv-x="1187" 
d="M582 299h-146v-299h-276v1495h276v-272h146q254 0 409.5 -123.5t155.5 -339.5q0 -143 -72 -248t-199.5 -159t-293.5 -54zM436 995v-469h146q129 0 206.5 62.5t77.5 171.5q0 112 -77 173.5t-207 61.5h-146z" />
    <glyph glyph-name="germandbls" unicode="&#xdf;" horiz-adv-x="1298" 
d="M414 1087v-1087h-267v1098q0 211 135 347t351 136q201 0 319.5 -108.5t118.5 -274.5q0 -107 -50.5 -184.5t-131.5 -114.5q146 -37 241 -152t95 -276q0 -147 -70 -259.5t-186 -170t-258 -57.5q-83 0 -136 20v217q36 -14 95 -14q123 0 209 74t86 198q0 126 -91.5 198.5
t-236.5 72.5h-49v229h43q86 0 141 56t55 139q0 80 -52.5 132t-141.5 52q-103 0 -161 -74t-58 -197z" />
    <glyph glyph-name="agrave" unicode="&#xe0;" horiz-adv-x="1128" 
d="M664 1217h-205l-250 339h303zM727 0v80q-33 -42 -105 -73.5t-163 -31.5q-106 0 -195 42t-143.5 123.5t-54.5 185.5q0 149 116.5 244.5t284.5 95.5q83 0 153.5 -27.5t106.5 -65.5v78q0 82 -66.5 135.5t-181.5 53.5q-148 0 -295 -86v237q65 36 160 59t193 23
q211 0 331.5 -108.5t120.5 -300.5v-664h-262zM731 326q0 68 -63.5 109.5t-147.5 41.5t-145.5 -41t-61.5 -110t61.5 -109.5t145.5 -40.5t147.5 41t63.5 109z" />
    <glyph glyph-name="aacute" unicode="&#xe1;" horiz-adv-x="1128" 
d="M442 1217l152 339h303l-250 -339h-205zM727 0v80q-33 -42 -105 -73.5t-163 -31.5q-106 0 -195 42t-143.5 123.5t-54.5 185.5q0 149 116.5 244.5t284.5 95.5q83 0 153.5 -27.5t106.5 -65.5v78q0 82 -66.5 135.5t-181.5 53.5q-148 0 -295 -86v237q65 36 160 59t193 23
q211 0 331.5 -108.5t120.5 -300.5v-664h-262zM731 326q0 68 -63.5 109.5t-147.5 41.5t-145.5 -41t-61.5 -110t61.5 -109.5t145.5 -40.5t147.5 41t63.5 109z" />
    <glyph glyph-name="acircumflex" unicode="&#xe2;" horiz-adv-x="1128" 
d="M682 1556l225 -339h-186l-164 176l-162 -176h-188l227 339h248zM727 0v80q-33 -42 -105 -73.5t-163 -31.5q-106 0 -195 42t-143.5 123.5t-54.5 185.5q0 149 116.5 244.5t284.5 95.5q83 0 153.5 -27.5t106.5 -65.5v78q0 82 -66.5 135.5t-181.5 53.5q-148 0 -295 -86v237
q65 36 160 59t193 23q211 0 331.5 -108.5t120.5 -300.5v-664h-262zM731 326q0 68 -63.5 109.5t-147.5 41.5t-145.5 -41t-61.5 -110t61.5 -109.5t145.5 -40.5t147.5 41t63.5 109z" />
    <glyph glyph-name="atilde" unicode="&#xe3;" horiz-adv-x="1128" 
d="M741 1534h168q0 -136 -54 -224.5t-155 -88.5q-39 0 -76.5 18t-61.5 40t-54.5 40t-58.5 18q-36 0 -56 -30t-20 -78h-166q0 136 53.5 224.5t153.5 88.5q40 0 78 -18t62 -39.5t54.5 -39.5t57.5 -18q36 0 55.5 29t19.5 78zM727 0v80q-33 -42 -105 -73.5t-163 -31.5
q-106 0 -195 42t-143.5 123.5t-54.5 185.5q0 149 116.5 244.5t284.5 95.5q83 0 153.5 -27.5t106.5 -65.5v78q0 82 -66.5 135.5t-181.5 53.5q-148 0 -295 -86v237q65 36 160 59t193 23q211 0 331.5 -108.5t120.5 -300.5v-664h-262zM731 326q0 68 -63.5 109.5t-147.5 41.5
t-145.5 -41t-61.5 -110t61.5 -109.5t145.5 -40.5t147.5 41t63.5 109z" />
    <glyph glyph-name="adieresis" unicode="&#xe4;" horiz-adv-x="1128" 
d="M358 1518q62 0 105 -42.5t43 -103.5t-43 -102t-105 -41h-2q-62 0 -103.5 41t-41.5 102q0 62 42 104t103 42h2zM758 1518q61 0 103 -42t42 -104q0 -61 -41.5 -102t-103.5 -41h-2q-62 0 -105 41t-43 102t43 103.5t105 42.5h2zM727 0v80q-33 -42 -105 -73.5t-163 -31.5
q-106 0 -195 42t-143.5 123.5t-54.5 185.5q0 149 116.5 244.5t284.5 95.5q83 0 153.5 -27.5t106.5 -65.5v78q0 82 -66.5 135.5t-181.5 53.5q-148 0 -295 -86v237q65 36 160 59t193 23q211 0 331.5 -108.5t120.5 -300.5v-664h-262zM731 326q0 68 -63.5 109.5t-147.5 41.5
t-145.5 -41t-61.5 -110t61.5 -109.5t145.5 -40.5t147.5 41t63.5 109z" />
    <glyph glyph-name="aring" unicode="&#xe5;" horiz-adv-x="1128" 
d="M557 1628q98 0 166 -66t68 -163q0 -95 -68 -161.5t-166 -66.5t-165.5 66.5t-67.5 161.5q0 97 67.5 163t165.5 66zM557 1499q-43 0 -71.5 -28t-28.5 -72q0 -43 28.5 -72t71.5 -29t71.5 29t28.5 72q0 44 -28.5 72t-71.5 28zM727 0v80q-33 -42 -105 -73.5t-163 -31.5
q-106 0 -195 42t-143.5 123.5t-54.5 185.5q0 149 116.5 244.5t284.5 95.5q83 0 153.5 -27.5t106.5 -65.5v78q0 82 -66.5 135.5t-181.5 53.5q-148 0 -295 -86v237q65 36 160 59t193 23q211 0 331.5 -108.5t120.5 -300.5v-664h-262zM731 326q0 68 -63.5 109.5t-147.5 41.5
t-145.5 -41t-61.5 -110t61.5 -109.5t145.5 -40.5t147.5 41t63.5 109z" />
    <glyph glyph-name="ae" unicode="&#xe6;" horiz-adv-x="1818" 
d="M1741 455h-783q22 -120 118.5 -187t242.5 -67q94 0 187.5 30.5t158.5 85.5v-237q-75 -52 -175.5 -78.5t-203.5 -26.5q-136 0 -251 51t-193 142q-61 -89 -166.5 -141t-222.5 -52q-170 0 -278.5 87t-108.5 237q0 157 122.5 246.5t333.5 89.5h203q2 7 5 21.5t5 21.5
q-15 79 -81 122.5t-175 43.5q-142 0 -293 -88v235q65 36 159 59t192 23q233 0 346 -145q151 145 360 145q121 0 217.5 -43t157.5 -118.5t93 -175.5t32 -218q0 -40 -2 -63zM1239 856q-98 0 -171 -59.5t-101 -161.5h522q-10 91 -75.5 156t-174.5 65zM485 174q84 0 152 48
t102 130q-13 44 -20 103h-172q-110 0 -172 -36t-62 -108q0 -67 48 -102t124 -35z" />
    <glyph glyph-name="ccedilla" unicode="&#xe7;" horiz-adv-x="960" 
d="M645 211q128 0 227 80v-258q-103 -58 -243 -58h-19l-22 -59q88 -11 142 -57t54 -121q0 -88 -73.5 -140.5t-175.5 -52.5q-119 0 -193 52v151q65 -65 166 -65q42 0 69 17.5t27 51.5q0 75 -172 82l62 158q-183 45 -301.5 191t-118.5 341q0 115 45 218t120.5 175t177 114
t212.5 42q141 0 243 -57v-258q-100 78 -227 78q-129 0 -221 -89t-92 -223q0 -135 92 -224t221 -89z" />
    <glyph glyph-name="egrave" unicode="&#xe8;" horiz-adv-x="1181" 
d="M731 1217h-205l-250 339h304zM76 522q0 115 44 218.5t117.5 175.5t172 114.5t204.5 42.5q121 0 217.5 -43t157.5 -118.5t93 -175.5t32 -218q0 -40 -2 -63h-782q22 -120 118 -187t242 -67q94 0 186.5 30.5t159.5 85.5v-237q-75 -52 -175.5 -78.5t-203.5 -26.5
q-248 0 -414.5 156t-166.5 391zM610 856q-98 0 -171 -59.5t-101 -161.5h522q-10 91 -75.5 156t-174.5 65z" />
    <glyph glyph-name="eacute" unicode="&#xe9;" horiz-adv-x="1181" 
d="M512 1217l152 339h303l-250 -339h-205zM76 522q0 115 44 218.5t117.5 175.5t172 114.5t204.5 42.5q121 0 217.5 -43t157.5 -118.5t93 -175.5t32 -218q0 -40 -2 -63h-782q22 -120 118 -187t242 -67q94 0 186.5 30.5t159.5 85.5v-237q-75 -52 -175.5 -78.5t-203.5 -26.5
q-248 0 -414.5 156t-166.5 391zM610 856q-98 0 -171 -59.5t-101 -161.5h522q-10 91 -75.5 156t-174.5 65z" />
    <glyph glyph-name="ecircumflex" unicode="&#xea;" horiz-adv-x="1181" 
d="M750 1556l225 -339h-187l-163 176l-162 -176h-189l228 339h248zM76 522q0 115 44 218.5t117.5 175.5t172 114.5t204.5 42.5q121 0 217.5 -43t157.5 -118.5t93 -175.5t32 -218q0 -40 -2 -63h-782q22 -120 118 -187t242 -67q94 0 186.5 30.5t159.5 85.5v-237
q-75 -52 -175.5 -78.5t-203.5 -26.5q-248 0 -414.5 156t-166.5 391zM610 856q-98 0 -171 -59.5t-101 -161.5h522q-10 91 -75.5 156t-174.5 65z" />
    <glyph glyph-name="edieresis" unicode="&#xeb;" horiz-adv-x="1181" 
d="M426 1518q62 0 104.5 -42.5t42.5 -103.5t-42.5 -102t-104.5 -41h-2q-62 0 -103.5 41t-41.5 102q0 62 42 104t103 42h2zM825 1518q61 0 103.5 -42t42.5 -104q0 -61 -42 -102t-104 -41h-2q-62 0 -104.5 41t-42.5 102t42.5 103.5t104.5 42.5h2zM76 522q0 115 44 218.5
t117.5 175.5t172 114.5t204.5 42.5q121 0 217.5 -43t157.5 -118.5t93 -175.5t32 -218q0 -40 -2 -63h-782q22 -120 118 -187t242 -67q94 0 186.5 30.5t159.5 85.5v-237q-75 -52 -175.5 -78.5t-203.5 -26.5q-248 0 -414.5 156t-166.5 391zM610 856q-98 0 -171 -59.5
t-101 -161.5h522q-10 91 -75.5 156t-174.5 65z" />
    <glyph glyph-name="igrave" unicode="&#xec;" horiz-adv-x="563" 
d="M389 1217h-205l-250 339h304zM147 1049h271v-1049h-271v1049z" />
    <glyph glyph-name="iacute" unicode="&#xed;" horiz-adv-x="563" 
d="M168 1217l151 339h304l-250 -339h-205zM147 1049h271v-1049h-271v1049z" />
    <glyph glyph-name="icircumflex" unicode="&#xee;" horiz-adv-x="563" 
d="M408 1556l225 -339h-187l-163 176l-162 -176h-189l228 339h248zM147 1049h271v-1049h-271v1049z" />
    <glyph glyph-name="idieresis" unicode="&#xef;" horiz-adv-x="563" 
d="M82 1518q62 0 104.5 -42.5t42.5 -103.5t-42.5 -102t-104.5 -41h-2q-62 0 -104 41t-42 102q0 62 42 104t104 42h2zM481 1518q61 0 103.5 -42t42.5 -104q0 -61 -42 -102t-104 -41h-2q-62 0 -104.5 41t-42.5 102t42.5 103.5t104.5 42.5h2zM147 1049h271v-1049h-271v1049z
" />
    <glyph glyph-name="eth" unicode="&#xf0;" horiz-adv-x="1267" 
d="M291 1276l198 72q-149 126 -278 208h317q102 -60 185 -126l282 102v-189l-131 -47q154 -158 242 -343t88 -386q0 -133 -45 -245.5t-121.5 -188t-178.5 -117t-216 -41.5q-150 0 -278 70.5t-204.5 197.5t-76.5 281q0 155 76 278t203.5 189t279.5 66q88 0 170 -37
q-77 101 -168 192l-344 -125v189zM633 840q-125 0 -208 -90t-83 -226t83 -226.5t208 -90.5t209 90.5t84 226.5t-84 226t-209 90z" />
    <glyph glyph-name="ntilde" unicode="&#xf1;" horiz-adv-x="1236" 
d="M807 1534h168q0 -136 -54 -224.5t-155 -88.5q-39 0 -76.5 18t-62 40t-55 40t-58.5 18q-36 0 -56 -30t-20 -78h-166q0 136 53.5 224.5t153.5 88.5q40 0 78 -18t62 -39.5t54.5 -39.5t57.5 -18q36 0 56 29.5t20 77.5zM418 600v-600h-271v1049h271v-123q43 66 121.5 106.5
t175.5 40.5q178 0 280.5 -110.5t102.5 -288.5v-674h-271v602q0 97 -53.5 162t-150.5 65q-94 0 -149.5 -66t-55.5 -163z" />
    <glyph glyph-name="ograve" unicode="&#xf2;" horiz-adv-x="1267" 
d="M748 1217h-205l-250 339h303zM637 -25q-151 0 -279.5 70.5t-205 197.5t-76.5 281q0 153 76.5 280t205 198t279.5 71q150 0 278 -71t204.5 -198t76.5 -280q0 -154 -76.5 -281t-204.5 -197.5t-278 -70.5zM637 840q-125 0 -209 -90t-84 -226t84 -225.5t209 -89.5t208 89.5
t83 225.5t-83 226t-208 90z" />
    <glyph glyph-name="oacute" unicode="&#xf3;" horiz-adv-x="1267" 
d="M526 1217l152 339h303l-250 -339h-205zM637 -25q-151 0 -279.5 70.5t-205 197.5t-76.5 281q0 153 76.5 280t205 198t279.5 71q150 0 278 -71t204.5 -198t76.5 -280q0 -154 -76.5 -281t-204.5 -197.5t-278 -70.5zM637 840q-125 0 -209 -90t-84 -226t84 -225.5t209 -89.5
t208 89.5t83 225.5t-83 226t-208 90z" />
    <glyph glyph-name="ocircumflex" unicode="&#xf4;" horiz-adv-x="1267" 
d="M766 1556l225 -339h-186l-164 176l-162 -176h-188l227 339h248zM637 -25q-151 0 -279.5 70.5t-205 197.5t-76.5 281q0 153 76.5 280t205 198t279.5 71q150 0 278 -71t204.5 -198t76.5 -280q0 -154 -76.5 -281t-204.5 -197.5t-278 -70.5zM637 840q-125 0 -209 -90
t-84 -226t84 -225.5t209 -89.5t208 89.5t83 225.5t-83 226t-208 90z" />
    <glyph glyph-name="otilde" unicode="&#xf5;" horiz-adv-x="1267" 
d="M825 1534h168q0 -136 -54 -224.5t-155 -88.5q-39 0 -76.5 18t-62 40t-55 40t-58.5 18q-36 0 -55.5 -29.5t-19.5 -78.5h-166q0 136 53.5 224.5t153.5 88.5q40 0 78 -18t62 -39.5t54.5 -39.5t57.5 -18q36 0 55.5 29t19.5 78zM637 -25q-151 0 -279.5 70.5t-205 197.5
t-76.5 281q0 153 76.5 280t205 198t279.5 71q150 0 278 -71t204.5 -198t76.5 -280q0 -154 -76.5 -281t-204.5 -197.5t-278 -70.5zM637 840q-125 0 -209 -90t-84 -226t84 -225.5t209 -89.5t208 89.5t83 225.5t-83 226t-208 90z" />
    <glyph glyph-name="odieresis" unicode="&#xf6;" horiz-adv-x="1267" 
d="M442 1518q62 0 105 -42.5t43 -103.5t-43 -102t-105 -41h-2q-62 0 -103.5 41t-41.5 102q0 62 42 104t103 42h2zM842 1518q61 0 103 -42t42 -104q0 -61 -41.5 -102t-103.5 -41h-2q-62 0 -105 41t-43 102t43 103.5t105 42.5h2zM637 -25q-151 0 -279.5 70.5t-205 197.5
t-76.5 281q0 153 76.5 280t205 198t279.5 71q150 0 278 -71t204.5 -198t76.5 -280q0 -154 -76.5 -281t-204.5 -197.5t-278 -70.5zM637 840q-125 0 -209 -90t-84 -226t84 -225.5t209 -89.5t208 89.5t83 225.5t-83 226t-208 90z" />
    <glyph glyph-name="divide" unicode="&#xf7;" 
d="M467 993v279h293v-279h-293zM74 602v213h1081v-213h-1081zM467 143v281h293v-281h-293z" />
    <glyph glyph-name="oslash" unicode="&#xf8;" horiz-adv-x="1271" 
d="M72 51l129 129q-121 146 -121 344q0 153 76.5 280t205 198t279.5 71q189 0 340 -110l111 110l104 -102l-111 -111q115 -147 115 -336q0 -154 -76.5 -281t-204.5 -197.5t-278 -70.5q-186 0 -334 107l-131 -131zM641 856q-132 0 -220.5 -95t-88.5 -237q0 -98 41 -172
l444 447q-75 57 -176 57zM948 524q0 92 -37 162l-442 -442q76 -51 172 -51q131 0 219 94.5t88 236.5z" />
    <glyph glyph-name="ugrave" unicode="&#xf9;" horiz-adv-x="1232" 
d="M719 1217h-205l-250 339h303zM815 442v607h270v-1049h-270v123q-43 -66 -122 -107t-175 -41q-178 0 -278.5 110.5t-100.5 287.5v676h271v-607q0 -99 51.5 -163t148.5 -64q94 0 149.5 65.5t55.5 161.5z" />
    <glyph glyph-name="uacute" unicode="&#xfa;" horiz-adv-x="1232" 
d="M498 1217l151 339h303l-250 -339h-204zM815 442v607h270v-1049h-270v123q-43 -66 -122 -107t-175 -41q-178 0 -278.5 110.5t-100.5 287.5v676h271v-607q0 -99 51.5 -163t148.5 -64q94 0 149.5 65.5t55.5 161.5z" />
    <glyph glyph-name="ucircumflex" unicode="&#xfb;" horiz-adv-x="1232" 
d="M737 1556l226 -339h-187l-164 176l-161 -176h-189l227 339h248zM815 442v607h270v-1049h-270v123q-43 -66 -122 -107t-175 -41q-178 0 -278.5 110.5t-100.5 287.5v676h271v-607q0 -99 51.5 -163t148.5 -64q94 0 149.5 65.5t55.5 161.5z" />
    <glyph glyph-name="udieresis" unicode="&#xfc;" horiz-adv-x="1232" 
d="M414 1518q62 0 104.5 -42.5t42.5 -103.5t-42.5 -102t-104.5 -41h-2q-62 0 -104 41t-42 102q0 62 42 104t104 42h2zM813 1518q61 0 103 -42t42 -104q0 -61 -41.5 -102t-103.5 -41h-2q-62 0 -104.5 41t-42.5 102t42.5 103.5t104.5 42.5h2zM815 442v607h270v-1049h-270v123
q-43 -66 -122 -107t-175 -41q-178 0 -278.5 110.5t-100.5 287.5v676h271v-607q0 -99 51.5 -163t148.5 -64q94 0 149.5 65.5t55.5 161.5z" />
    <glyph glyph-name="yacute" unicode="&#xfd;" horiz-adv-x="1183" 
d="M494 1217l151 339h303l-250 -339h-204zM141 -430l312 584l-451 895h291l301 -619l301 619h287l-760 -1479h-281z" />
    <glyph glyph-name="thorn" unicode="&#xfe;" horiz-adv-x="1343" 
d="M760 1073q216 0 363 -158.5t147 -390.5q0 -153 -67 -279t-184 -198t-259 -72q-112 0 -204.5 49.5t-137.5 122.5v-577h-271v1986h271v-655q45 73 137.5 122.5t204.5 49.5zM707 840q-126 0 -211.5 -90.5t-85.5 -225.5t85.5 -226t211.5 -91q125 0 211 91t86 226
q0 134 -86 225t-211 91z" />
    <glyph glyph-name="ydieresis" unicode="&#xff;" horiz-adv-x="1183" 
d="M410 1518q62 0 104.5 -42.5t42.5 -103.5t-42.5 -102t-104.5 -41h-2q-62 0 -104 41t-42 102q0 62 42 104t104 42h2zM809 1518q61 0 103 -42t42 -104q0 -61 -41.5 -102t-103.5 -41h-2q-62 0 -105 41t-43 102t43 103.5t105 42.5h2zM141 -430l312 584l-451 895h291l301 -619
l301 619h287l-760 -1479h-281z" />
    <glyph glyph-name="Amacron" unicode="&#x100;" horiz-adv-x="1533" 
d="M434 1632v191h664v-191h-664zM766 1554l762 -1554h-291l-152 322h-636l-152 -322h-293zM766 997l-217 -462h436z" />
    <glyph glyph-name="amacron" unicode="&#x101;" horiz-adv-x="1128" 
d="M272 1241v191h570v-191h-570zM727 0v80q-33 -42 -105 -73.5t-163 -31.5q-106 0 -195 42t-143.5 123.5t-54.5 185.5q0 149 116.5 244.5t284.5 95.5q83 0 153.5 -27.5t106.5 -65.5v78q0 82 -66.5 135.5t-181.5 53.5q-148 0 -295 -86v237q65 36 160 59t193 23
q211 0 331.5 -108.5t120.5 -300.5v-664h-262zM731 326q0 68 -63.5 109.5t-147.5 41.5t-145.5 -41t-61.5 -110t61.5 -109.5t145.5 -40.5t147.5 41t63.5 109z" />
    <glyph glyph-name="Abreve" unicode="&#x102;" horiz-adv-x="1533" 
d="M1102 1931q-9 -150 -104.5 -237.5t-231.5 -87.5t-231.5 87.5t-104.5 237.5h199q4 -65 41.5 -101t95.5 -36t95.5 36t41.5 101h199zM766 1554l762 -1554h-291l-152 322h-636l-152 -322h-293zM766 997l-217 -462h436z" />
    <glyph glyph-name="abreve" unicode="&#x103;" horiz-adv-x="1128" 
d="M866 1534q0 -159 -86 -251.5t-223 -92.5q-135 0 -221 92.5t-86 251.5h182q0 -74 35 -118t90 -44q56 0 91.5 44t35.5 118h182zM727 0v80q-33 -42 -105 -73.5t-163 -31.5q-106 0 -195 42t-143.5 123.5t-54.5 185.5q0 149 116.5 244.5t284.5 95.5q83 0 153.5 -27.5
t106.5 -65.5v78q0 82 -66.5 135.5t-181.5 53.5q-148 0 -295 -86v237q65 36 160 59t193 23q211 0 331.5 -108.5t120.5 -300.5v-664h-262zM731 326q0 68 -63.5 109.5t-147.5 41.5t-145.5 -41t-61.5 -110t61.5 -109.5t145.5 -40.5t147.5 41t63.5 109z" />
    <glyph glyph-name="Aogonek" unicode="&#x104;" horiz-adv-x="1533" 
d="M766 1554l762 -1554h-127q-96 -111 -122 -148t-26 -73q0 -27 17.5 -42.5t44.5 -15.5q40 0 92 35v-170q-64 -41 -139 -41q-86 0 -140.5 44t-54.5 128q0 62 38.5 124.5t123.5 162.5l-150 318h-636l-152 -322h-293zM766 997l-217 -462h436z" />
    <glyph glyph-name="aogonek" unicode="&#x105;" horiz-adv-x="1128" 
d="M727 8v72q-33 -42 -105 -73.5t-163 -31.5q-106 0 -195 42t-143.5 123.5t-54.5 185.5q0 149 116.5 244.5t284.5 95.5q83 0 153.5 -27.5t106.5 -65.5v78q0 82 -66.5 135.5t-181.5 53.5q-148 0 -295 -86v237q65 36 160 59t193 23q211 0 331.5 -108.5t120.5 -300.5v-664h-100
q-96 -111 -122 -148t-26 -73q0 -27 17.5 -42.5t44.5 -15.5q40 0 92 35v-170q-64 -41 -139 -41q-86 0 -140.5 44t-54.5 128q0 62 39 125t127 166zM731 326q0 68 -63.5 109.5t-147.5 41.5t-145.5 -41t-61.5 -110t61.5 -109.5t145.5 -40.5t147.5 41t63.5 109z" />
    <glyph glyph-name="Cacute" unicode="&#x106;" horiz-adv-x="1327" 
d="M700 1620l234 311h356l-352 -311h-238zM854 240q116 0 215 42t166 117v-319q-171 -105 -387 -105q-157 0 -299.5 61.5t-245.5 165t-164 246.5t-61 300q0 210 103 387.5t280.5 281t386.5 103.5q216 0 387 -105v-319q-67 75 -166 117t-215 42q-212 0 -356 -146t-144 -361
t144 -361.5t356 -146.5z" />
    <glyph glyph-name="cacute" unicode="&#x107;" horiz-adv-x="960" 
d="M496 1217l151 339h303l-250 -339h-204zM645 211q128 0 227 80v-258q-103 -58 -243 -58q-111 0 -212.5 42t-177 114t-120.5 175t-45 218t45 218t120.5 175t177 114t212.5 42q141 0 243 -57v-258q-100 78 -227 78q-129 0 -221 -89t-92 -223q0 -135 92 -224t221 -89z" />
    <glyph glyph-name="Ccircumflex" unicode="&#x108;" horiz-adv-x="1327" 
d="M961 1931l251 -311h-202l-176 160l-177 -160h-202l252 311h254zM854 240q116 0 215 42t166 117v-319q-171 -105 -387 -105q-157 0 -299.5 61.5t-245.5 165t-164 246.5t-61 300q0 210 103 387.5t280.5 281t386.5 103.5q216 0 387 -105v-319q-67 75 -166 117t-215 42
q-212 0 -356 -146t-144 -361t144 -361.5t356 -146.5z" />
    <glyph glyph-name="ccircumflex" unicode="&#x109;" horiz-adv-x="960" 
d="M735 1556l226 -339h-187l-164 176l-161 -176h-189l227 339h248zM645 211q128 0 227 80v-258q-103 -58 -243 -58q-111 0 -212.5 42t-177 114t-120.5 175t-45 218t45 218t120.5 175t177 114t212.5 42q141 0 243 -57v-258q-100 78 -227 78q-129 0 -221 -89t-92 -223
q0 -135 92 -224t221 -89z" />
    <glyph glyph-name="Cdotaccent" unicode="&#x10a;" horiz-adv-x="1327" 
d="M836 1925q65 0 110 -45t45 -111q0 -65 -45.5 -110t-109.5 -45h-5q-65 0 -111 45.5t-46 109.5q0 66 46 111t111 45h5zM854 240q116 0 215 42t166 117v-319q-171 -105 -387 -105q-157 0 -299.5 61.5t-245.5 165t-164 246.5t-61 300q0 210 103 387.5t280.5 281t386.5 103.5
q216 0 387 -105v-319q-67 75 -166 117t-215 42q-212 0 -356 -146t-144 -361t144 -361.5t356 -146.5z" />
    <glyph glyph-name="cdotaccent" unicode="&#x10b;" horiz-adv-x="960" 
d="M614 1524q65 0 110.5 -45t45.5 -111t-45.5 -111t-110.5 -45h-4q-65 0 -111 45t-46 111t46 111t111 45h4zM645 211q128 0 227 80v-258q-103 -58 -243 -58q-111 0 -212.5 42t-177 114t-120.5 175t-45 218t45 218t120.5 175t177 114t212.5 42q141 0 243 -57v-258
q-100 78 -227 78q-129 0 -221 -89t-92 -223q0 -135 92 -224t221 -89z" />
    <glyph glyph-name="Ccaron" unicode="&#x10c;" horiz-adv-x="1327" 
d="M961 1618h-254l-252 311h202l177 -160l176 160h202zM854 240q116 0 215 42t166 117v-319q-171 -105 -387 -105q-157 0 -299.5 61.5t-245.5 165t-164 246.5t-61 300q0 210 103 387.5t280.5 281t386.5 103.5q216 0 387 -105v-319q-67 75 -166 117t-215 42q-212 0 -356 -146
t-144 -361t144 -361.5t356 -146.5z" />
    <glyph glyph-name="ccaron" unicode="&#x10d;" horiz-adv-x="960" 
d="M735 1217h-248l-227 339h189l161 -176l164 176h187zM645 211q128 0 227 80v-258q-103 -58 -243 -58q-111 0 -212.5 42t-177 114t-120.5 175t-45 218t45 218t120.5 175t177 114t212.5 42q141 0 243 -57v-258q-100 78 -227 78q-129 0 -221 -89t-92 -223q0 -135 92 -224
t221 -89z" />
    <glyph glyph-name="Dcaron" unicode="&#x10e;" horiz-adv-x="1466" 
d="M780 1618h-254l-252 311h203l176 -160l176 160h203zM160 1495h461q158 0 299.5 -57.5t244.5 -156t163.5 -237.5t60.5 -296q0 -209 -102.5 -381t-278.5 -269.5t-387 -97.5h-461v1495zM604 1266h-168v-1037h166q147 0 264.5 70t181.5 188.5t64 260.5t-64 260t-181 188
t-263 70z" />
    <glyph glyph-name="dcaron" unicode="&#x10f;" horiz-adv-x="1632" 
d="M584 1073q112 0 204.5 -49.5t137.5 -122.5v655h270v-1556h-270v147q-45 -73 -137.5 -122.5t-204.5 -49.5q-142 0 -259 72t-184 198t-67 279q0 232 147 390.5t363 158.5zM1518 1163h-181l64 393h258zM637 840q-125 0 -211 -91t-86 -225q0 -135 86 -226t211 -91
q126 0 211.5 91t85.5 226t-85.5 225.5t-211.5 90.5z" />
    <glyph glyph-name="Dcroat" unicode="&#x110;" horiz-adv-x="1499" 
d="M63 647v232h130v616h460q158 0 299.5 -57.5t244.5 -156t163.5 -237.5t60.5 -296q0 -209 -102.5 -381t-278.5 -269.5t-387 -97.5h-460v647h-130zM637 1266h-168v-387h315v-232h-315v-418h166q147 0 264.5 70t181.5 188.5t64 260.5t-64 260t-181 188t-263 70z" />
    <glyph glyph-name="dcroat" unicode="&#x111;" horiz-adv-x="1343" 
d="M584 1073q112 0 204.5 -49.5t137.5 -122.5v277h-234v190h234v188h270v-188h117v-190h-117v-1178h-270v147q-45 -73 -137.5 -122.5t-204.5 -49.5q-142 0 -259 72t-184 198t-67 279q0 232 147 390.5t363 158.5zM637 840q-125 0 -211 -91t-86 -225q0 -135 86 -226t211 -91
q126 0 211.5 91t85.5 226t-85.5 225.5t-211.5 90.5z" />
    <glyph glyph-name="Emacron" unicode="&#x112;" horiz-adv-x="1181" 
d="M305 1632v191h664v-191h-664zM160 0v1495h921v-229h-651v-387h600v-232h-600v-418h655v-229h-925z" />
    <glyph glyph-name="emacron" unicode="&#x113;" horiz-adv-x="1181" 
d="M340 1241v191h569v-191h-569zM76 522q0 115 44 218.5t117.5 175.5t172 114.5t204.5 42.5q121 0 217.5 -43t157.5 -118.5t93 -175.5t32 -218q0 -40 -2 -63h-782q22 -120 118 -187t242 -67q94 0 186.5 30.5t159.5 85.5v-237q-75 -52 -175.5 -78.5t-203.5 -26.5
q-248 0 -414.5 156t-166.5 391zM610 856q-98 0 -171 -59.5t-101 -161.5h522q-10 91 -75.5 156t-174.5 65z" />
    <glyph glyph-name="Ebreve" unicode="&#x114;" horiz-adv-x="1181" 
d="M973 1931q-9 -150 -104.5 -237.5t-231.5 -87.5t-231.5 87.5t-104.5 237.5h199q4 -65 41.5 -101t95.5 -36t95.5 36t41.5 101h199zM160 0v1495h921v-229h-651v-387h600v-232h-600v-418h655v-229h-925z" />
    <glyph glyph-name="ebreve" unicode="&#x115;" horiz-adv-x="1181" 
d="M934 1534q0 -159 -86 -251.5t-223 -92.5q-135 0 -221.5 92.5t-86.5 251.5h183q0 -74 35 -118t90 -44q56 0 91.5 44t35.5 118h182zM76 522q0 115 44 218.5t117.5 175.5t172 114.5t204.5 42.5q121 0 217.5 -43t157.5 -118.5t93 -175.5t32 -218q0 -40 -2 -63h-782
q22 -120 118 -187t242 -67q94 0 186.5 30.5t159.5 85.5v-237q-75 -52 -175.5 -78.5t-203.5 -26.5q-248 0 -414.5 156t-166.5 391zM610 856q-98 0 -171 -59.5t-101 -161.5h522q-10 91 -75.5 156t-174.5 65z" />
    <glyph glyph-name="Edotaccent" unicode="&#x116;" horiz-adv-x="1181" 
d="M641 1925q65 0 110.5 -45t45.5 -111q0 -64 -45.5 -109.5t-110.5 -45.5h-4q-65 0 -111.5 45.5t-46.5 109.5q0 65 46.5 110.5t111.5 45.5h4zM160 0v1495h921v-229h-651v-387h600v-232h-600v-418h655v-229h-925z" />
    <glyph glyph-name="edotaccent" unicode="&#x117;" horiz-adv-x="1181" 
d="M629 1524q65 0 110 -45t45 -111t-45 -111t-110 -45h-4q-65 0 -111.5 45.5t-46.5 110.5t46.5 110.5t111.5 45.5h4zM76 522q0 115 44 218.5t117.5 175.5t172 114.5t204.5 42.5q121 0 217.5 -43t157.5 -118.5t93 -175.5t32 -218q0 -40 -2 -63h-782q22 -120 118 -187t242 -67
q94 0 186.5 30.5t159.5 85.5v-237q-75 -52 -175.5 -78.5t-203.5 -26.5q-248 0 -414.5 156t-166.5 391zM610 856q-98 0 -171 -59.5t-101 -161.5h522q-10 91 -75.5 156t-174.5 65z" />
    <glyph glyph-name="Eogonek" unicode="&#x118;" horiz-adv-x="1181" 
d="M160 0v1495h921v-229h-651v-387h600v-232h-600v-418h655v-229h-112q-96 -111 -122 -148t-26 -73q0 -27 17.5 -42.5t44.5 -15.5q40 0 92 35v-170q-64 -41 -139 -41q-86 0 -140.5 44t-54.5 128q0 62 38.5 124.5t121.5 158.5h-645z" />
    <glyph glyph-name="eogonek" unicode="&#x119;" horiz-adv-x="1181" 
d="M76 522q0 115 44 218.5t117.5 175.5t172 114.5t204.5 42.5q121 0 217.5 -43t157.5 -118.5t93 -175.5t32 -218q0 -40 -2 -63h-782q22 -120 118 -187t242 -67q94 0 186.5 30.5t159.5 85.5v-237q-78 -52 -168 -76q-96 -112 -122.5 -150.5t-26.5 -74.5q0 -27 17 -42.5
t44 -15.5q40 0 92 35v-170q-64 -41 -139 -41q-86 0 -140 44t-54 128q0 57 33 115.5t104 142.5h-19q-248 0 -414.5 156t-166.5 391zM610 856q-98 0 -171 -59.5t-101 -161.5h522q-10 91 -75.5 156t-174.5 65z" />
    <glyph glyph-name="Ecaron" unicode="&#x11a;" horiz-adv-x="1181" 
d="M764 1618h-254l-252 311h203l176 -160l176 160h203zM160 0v1495h921v-229h-651v-387h600v-232h-600v-418h655v-229h-925z" />
    <glyph glyph-name="ecaron" unicode="&#x11b;" horiz-adv-x="1181" 
d="M750 1217h-248l-228 339h189l162 -176l163 176h187zM76 522q0 115 44 218.5t117.5 175.5t172 114.5t204.5 42.5q121 0 217.5 -43t157.5 -118.5t93 -175.5t32 -218q0 -40 -2 -63h-782q22 -120 118 -187t242 -67q94 0 186.5 30.5t159.5 85.5v-237q-75 -52 -175.5 -78.5
t-203.5 -26.5q-248 0 -414.5 156t-166.5 391zM610 856q-98 0 -171 -59.5t-101 -161.5h522q-10 91 -75.5 156t-174.5 65z" />
    <glyph glyph-name="Gcircumflex" unicode="&#x11c;" horiz-adv-x="1579" 
d="M995 1931l252 -311h-203l-176 160l-176 -160h-203l252 311h254zM1460 836v-568q-100 -135 -261 -214t-359 -79q-125 0 -241 38.5t-210 109.5t-164 165.5t-108.5 211.5t-38.5 243q0 158 59.5 300.5t163.5 248t254 167t322 61.5q163 0 298 -53.5t218 -133.5v-325
q-96 115 -232.5 185.5t-283.5 70.5q-227 0 -375 -148t-148 -373q0 -217 143 -366.5t355 -149.5q205 0 336 121v258h-373l66 230h579z" />
    <glyph glyph-name="gcircumflex" unicode="&#x11d;" horiz-adv-x="1339" 
d="M811 1556l225 -339h-186l-164 176l-162 -176h-188l227 339h248zM1192 1049v-963q0 -136 -50 -242t-136 -170t-193.5 -96.5t-230.5 -32.5q-108 0 -208.5 26t-168.5 71v268q147 -127 373 -127q95 0 171 30t124.5 96.5t48.5 162.5v118q-46 -70 -137 -118.5t-201 -48.5
q-136 0 -251 68t-183 189t-68 267q0 111 40 209t108 167t160.5 109.5t193.5 40.5q109 0 200.5 -49t137.5 -119v144h270zM928 547q0 125 -85 209t-204 84q-120 0 -204.5 -83.5t-84.5 -209.5q0 -125 84.5 -209t204.5 -84q119 0 204 84.5t85 208.5z" />
    <glyph glyph-name="Gbreve" unicode="&#x11e;" horiz-adv-x="1579" 
d="M1204 1931q-9 -150 -104.5 -237.5t-231.5 -87.5t-231.5 87.5t-104.5 237.5h199q4 -65 41.5 -101t95.5 -36t96 36t42 101h198zM1460 836v-568q-100 -135 -261 -214t-359 -79q-125 0 -241 38.5t-210 109.5t-164 165.5t-108.5 211.5t-38.5 243q0 158 59.5 300.5t163.5 248
t254 167t322 61.5q163 0 298 -53.5t218 -133.5v-325q-96 115 -232.5 185.5t-283.5 70.5q-227 0 -375 -148t-148 -373q0 -217 143 -366.5t355 -149.5q205 0 336 121v258h-373l66 230h579z" />
    <glyph glyph-name="gbreve" unicode="&#x11f;" horiz-adv-x="1339" 
d="M993 1534q0 -159 -86 -251.5t-223 -92.5q-135 0 -221 92.5t-86 251.5h182q0 -74 35 -118t90 -44q56 0 91.5 44t35.5 118h182zM1192 1049v-963q0 -136 -50 -242t-136 -170t-193.5 -96.5t-230.5 -32.5q-108 0 -208.5 26t-168.5 71v268q147 -127 373 -127q95 0 171 30
t124.5 96.5t48.5 162.5v118q-46 -70 -137 -118.5t-201 -48.5q-136 0 -251 68t-183 189t-68 267q0 111 40 209t108 167t160.5 109.5t193.5 40.5q109 0 200.5 -49t137.5 -119v144h270zM928 547q0 125 -85 209t-204 84q-120 0 -204.5 -83.5t-84.5 -209.5q0 -125 84.5 -209
t204.5 -84q119 0 204 84.5t85 208.5z" />
    <glyph glyph-name="Gdotaccent" unicode="&#x120;" horiz-adv-x="1579" 
d="M872 1925q65 0 110.5 -45t45.5 -111q0 -64 -45.5 -109.5t-110.5 -45.5h-4q-65 0 -111 45.5t-46 109.5q0 66 46 111t111 45h4zM1460 836v-568q-100 -135 -261 -214t-359 -79q-125 0 -241 38.5t-210 109.5t-164 165.5t-108.5 211.5t-38.5 243q0 158 59.5 300.5t163.5 248
t254 167t322 61.5q163 0 298 -53.5t218 -133.5v-325q-96 115 -232.5 185.5t-283.5 70.5q-227 0 -375 -148t-148 -373q0 -217 143 -366.5t355 -149.5q205 0 336 121v258h-373l66 230h579z" />
    <glyph glyph-name="gdotaccent" unicode="&#x121;" horiz-adv-x="1339" 
d="M690 1524q65 0 110.5 -45t45.5 -111t-45.5 -111t-110.5 -45h-4q-65 0 -111.5 45.5t-46.5 110.5t46.5 110.5t111.5 45.5h4zM1192 1049v-963q0 -136 -50 -242t-136 -170t-193.5 -96.5t-230.5 -32.5q-108 0 -208.5 26t-168.5 71v268q147 -127 373 -127q95 0 171 30
t124.5 96.5t48.5 162.5v118q-46 -70 -137 -118.5t-201 -48.5q-136 0 -251 68t-183 189t-68 267q0 111 40 209t108 167t160.5 109.5t193.5 40.5q109 0 200.5 -49t137.5 -119v144h270zM928 547q0 125 -85 209t-204 84q-120 0 -204.5 -83.5t-84.5 -209.5q0 -125 84.5 -209
t204.5 -84q119 0 204 84.5t85 208.5z" />
    <glyph glyph-name="uni0122" unicode="&#x122;" horiz-adv-x="1579" 
d="M1460 836v-568q-100 -135 -261 -214t-359 -79q-125 0 -241 38.5t-210 109.5t-164 165.5t-108.5 211.5t-38.5 243q0 158 59.5 300.5t163.5 248t254 167t322 61.5q163 0 298 -53.5t218 -133.5v-325q-96 115 -232.5 185.5t-283.5 70.5q-227 0 -375 -148t-148 -373
q0 -217 143 -366.5t355 -149.5q205 0 336 121v258h-373l66 230h579zM809 -494l-158 54l101 362l254 -92z" />
    <glyph glyph-name="uni0123" unicode="&#x123;" horiz-adv-x="1339" 
d="M739 1591l158 -53l-100 -362l-254 92zM1192 1049v-963q0 -136 -50 -242t-136 -170t-193.5 -96.5t-230.5 -32.5q-108 0 -208.5 26t-168.5 71v268q147 -127 373 -127q95 0 171 30t124.5 96.5t48.5 162.5v118q-46 -70 -137 -118.5t-201 -48.5q-136 0 -251 68t-183 189
t-68 267q0 111 40 209t108 167t160.5 109.5t193.5 40.5q109 0 200.5 -49t137.5 -119v144h270zM928 547q0 125 -85 209t-204 84q-120 0 -204.5 -83.5t-84.5 -209.5q0 -125 84.5 -209t204.5 -84q119 0 204 84.5t85 208.5z" />
    <glyph glyph-name="Hcircumflex" unicode="&#x124;" horiz-adv-x="1568" 
d="M911 1931l252 -311h-202l-177 160l-176 -160h-202l251 311h254zM1133 0v647h-697v-647h-276v1495h276v-616h697v616h276v-1495h-276z" />
    <glyph glyph-name="hcircumflex" unicode="&#x125;" horiz-adv-x="1236" 
d="M750 1931l251 -311h-202l-176 160l-177 -160h-202l252 311h254zM418 600v-600h-271v1556h271v-630q43 66 121.5 106.5t175.5 40.5q178 0 280.5 -110.5t102.5 -288.5v-674h-271v602q0 97 -53.5 162t-150.5 65q-94 0 -149.5 -66t-55.5 -163z" />
    <glyph glyph-name="Hbar" unicode="&#x126;" horiz-adv-x="1634" 
d="M63 981v231h130v283h276v-283h696v283h277v-283h131v-231h-131v-981h-277v535h-696v-535h-276v981h-130zM469 764h696v217h-696v-217z" />
    <glyph glyph-name="hbar" unicode="&#x127;" horiz-adv-x="1236" 
d="M418 600v-600h-271v1178h-110v190h110v188h271v-188h239v-190h-239v-252q43 66 121.5 106.5t175.5 40.5q178 0 280.5 -110.5t102.5 -288.5v-674h-271v602q0 97 -53.5 162t-150.5 65q-94 0 -149.5 -66t-55.5 -163z" />
    <glyph glyph-name="Itilde" unicode="&#x128;" horiz-adv-x="593" 
d="M481 1927h168q0 -136 -54 -224.5t-155 -88.5q-39 0 -76.5 18.5t-62 40t-55 40t-58.5 18.5q-36 0 -55.5 -31t-19.5 -80h-166q0 137 53.5 225t153.5 88q40 0 78 -18t62 -39t54.5 -39t57.5 -18q36 0 55.5 29.5t19.5 78.5zM160 1495h276v-1495h-276v1495z" />
    <glyph glyph-name="itilde" unicode="&#x129;" horiz-adv-x="563" 
d="M465 1534h168q0 -136 -54 -224.5t-155 -88.5q-39 0 -76.5 18t-62 40t-55 40t-58.5 18q-36 0 -56 -30t-20 -78h-166q0 136 53.5 224.5t153.5 88.5q40 0 78 -18t62 -39.5t54.5 -39.5t57.5 -18q36 0 56 29.5t20 77.5zM147 1049h271v-1049h-271v1049z" />
    <glyph glyph-name="Imacron" unicode="&#x12a;" horiz-adv-x="593" 
d="M-35 1632v191h664v-191h-664zM160 1495h276v-1495h-276v1495z" />
    <glyph glyph-name="imacron" unicode="&#x12b;" horiz-adv-x="563" 
d="M-4 1241v191h569v-191h-569zM147 1049h271v-1049h-271v1049z" />
    <glyph glyph-name="Ibreve" unicode="&#x12c;" horiz-adv-x="593" 
d="M633 1931q-9 -150 -104.5 -237.5t-231.5 -87.5t-231.5 87.5t-104.5 237.5h199q4 -65 41.5 -101t95.5 -36t95.5 36t41.5 101h199zM160 1495h276v-1495h-276v1495z" />
    <glyph glyph-name="ibreve" unicode="&#x12d;" horiz-adv-x="563" 
d="M590 1534q0 -159 -86 -251.5t-223 -92.5q-135 0 -221.5 92.5t-86.5 251.5h183q0 -74 35 -118t90 -44q56 0 91.5 44t35.5 118h182zM147 1049h271v-1049h-271v1049z" />
    <glyph glyph-name="Iogonek" unicode="&#x12e;" horiz-adv-x="593" 
d="M160 1495h276v-1495h-6q-94 -109 -120.5 -147t-26.5 -74q0 -27 17 -42.5t44 -15.5q40 0 92 35v-170q-64 -41 -139 -41q-86 0 -140.5 44t-54.5 128q0 62 38.5 124.5t121.5 158.5h-102v1495z" />
    <glyph glyph-name="iogonek" unicode="&#x12f;" horiz-adv-x="563" 
d="M283 1524q66 0 111.5 -45t45.5 -111t-45.5 -111t-111.5 -45h-2q-66 0 -112 45t-46 111t46 111t112 45h2zM147 1049h271v-1049h-6q-96 -111 -122 -148t-26 -73q0 -27 17.5 -42.5t44.5 -15.5q40 0 92 35v-170q-64 -41 -139 -41q-86 0 -140.5 44t-54.5 128q0 62 38.5 124.5
t121.5 158.5h-97v1049z" />
    <glyph glyph-name="Idotaccent" unicode="&#x130;" horiz-adv-x="593" 
d="M301 1925q65 0 110.5 -45t45.5 -111q0 -64 -45.5 -109.5t-110.5 -45.5h-4q-65 0 -111.5 45.5t-46.5 109.5q0 65 46.5 110.5t111.5 45.5h4zM160 1495h276v-1495h-276v1495z" />
    <glyph glyph-name="dotlessi" unicode="&#x131;" horiz-adv-x="563" 
d="M147 1049h271v-1049h-271v1049z" />
    <glyph glyph-name="Jcircumflex" unicode="&#x134;" horiz-adv-x="966" 
d="M821 1931l252 -311h-203l-176 160l-176 -160h-203l252 311h254zM836 496q0 -242 -137.5 -381.5t-362.5 -139.5q-159 0 -277 72v272q100 -100 246 -100q117 0 185.5 74t68.5 209v993h277v-999z" />
    <glyph glyph-name="jcircumflex" unicode="&#x135;" horiz-adv-x="563" 
d="M401 1556l226 -339h-187l-164 176l-161 -176h-189l228 339h247zM147 -45v1094h271v-1084q0 -180 -115 -292.5t-291 -112.5q-55 0 -94 10v217q33 -8 64 -8q78 0 121.5 47.5t43.5 128.5z" />
    <glyph glyph-name="uni0136" unicode="&#x136;" horiz-adv-x="1392" 
d="M721 807l653 -807h-325l-613 754v-754h-276v1495h276v-672l568 672h327zM645 -494l-158 54l101 362l254 -92z" />
    <glyph glyph-name="uni0137" unicode="&#x137;" horiz-adv-x="1183" 
d="M147 1556h269v-966l401 459h320l-445 -488l461 -561h-322l-415 520v-520h-269v1556zM543 -494l-158 54l100 362l254 -92z" />
    <glyph glyph-name="kgreenlandic" unicode="&#x138;" horiz-adv-x="1183" 
d="M147 1049h269v-459l401 459h320l-445 -488l461 -561h-322l-415 520v-520h-269v1049z" />
    <glyph glyph-name="Lacute" unicode="&#x139;" horiz-adv-x="1089" 
d="M190 1620l234 311h356l-352 -311h-238zM160 0v1495h276v-1266h613v-229h-889z" />
    <glyph glyph-name="lacute" unicode="&#x13a;" horiz-adv-x="563" 
d="M150 1620l233 311h356l-352 -311h-237zM147 1556h271v-1556h-271v1556z" />
    <glyph glyph-name="uni013B" unicode="&#x13b;" horiz-adv-x="1089" 
d="M160 0v1495h276v-1266h613v-229h-889zM543 -494l-158 54l100 362l254 -92z" />
    <glyph glyph-name="uni013C" unicode="&#x13c;" horiz-adv-x="563" 
d="M147 1556h271v-1556h-271v1556zM221 -494l-158 54l101 362l254 -92z" />
    <glyph glyph-name="Lcaron" unicode="&#x13d;" horiz-adv-x="1089" 
d="M160 0v1495h276v-1266h613v-229h-889zM834 1102h-181l64 393h258z" />
    <glyph glyph-name="lcaron" unicode="&#x13e;" horiz-adv-x="849" 
d="M147 1556h271v-1556h-271v1556zM737 1163h-180l64 393h258z" />
    <glyph glyph-name="Ldot" unicode="&#x13f;" horiz-adv-x="1089" 
d="M160 0v1495h276v-1266h613v-229h-889zM870 985q65 0 110.5 -45t45.5 -111t-45.5 -110.5t-110.5 -44.5h-4q-65 0 -111 45t-46 110q0 66 46 111t111 45h4z" />
    <glyph glyph-name="ldot" unicode="&#x140;" horiz-adv-x="833" 
d="M147 1556h271v-1556h-271v1556zM698 936q65 0 110.5 -45t45.5 -111t-45.5 -110.5t-110.5 -44.5h-4q-65 0 -111 45t-46 110q0 66 46 111t111 45h4z" />
    <glyph glyph-name="Lslash" unicode="&#x141;" horiz-adv-x="1107" 
d="M178 0v569l-123 -45v234l123 45v692h277v-590l333 123v-235l-333 -123v-441h612v-229h-889z" />
    <glyph glyph-name="lslash" unicode="&#x142;" horiz-adv-x="645" 
d="M29 524v226l159 86v720h271v-573l159 86v-227l-159 -86v-756h-271v610z" />
    <glyph glyph-name="Nacute" unicode="&#x143;" horiz-adv-x="1642" 
d="M655 1620l234 311h356l-352 -311h-238zM1212 539v956h271v-1552l-1053 1013v-956h-270v1552z" />
    <glyph glyph-name="nacute" unicode="&#x144;" horiz-adv-x="1236" 
d="M508 1217l151 339h304l-250 -339h-205zM418 600v-600h-271v1049h271v-123q43 66 121.5 106.5t175.5 40.5q178 0 280.5 -110.5t102.5 -288.5v-674h-271v602q0 97 -53.5 162t-150.5 65q-94 0 -149.5 -66t-55.5 -163z" />
    <glyph glyph-name="uni0145" unicode="&#x145;" horiz-adv-x="1642" 
d="M1212 539v956h271v-1552l-1053 1013v-956h-270v1552zM807 -494l-158 54l101 362l254 -92z" />
    <glyph glyph-name="uni0146" unicode="&#x146;" horiz-adv-x="1236" 
d="M418 600v-600h-271v1049h271v-123q43 66 121.5 106.5t175.5 40.5q178 0 280.5 -110.5t102.5 -288.5v-674h-271v602q0 97 -53.5 162t-150.5 65q-94 0 -149.5 -66t-55.5 -163zM563 -494l-157 54l100 362l254 -92z" />
    <glyph glyph-name="Ncaron" unicode="&#x147;" horiz-adv-x="1642" 
d="M928 1618h-254l-252 311h203l176 -160l176 160h203zM1212 539v956h271v-1552l-1053 1013v-956h-270v1552z" />
    <glyph glyph-name="ncaron" unicode="&#x148;" horiz-adv-x="1236" 
d="M748 1217h-248l-228 339h189l162 -176l163 176h187zM418 600v-600h-271v1049h271v-123q43 66 121.5 106.5t175.5 40.5q178 0 280.5 -110.5t102.5 -288.5v-674h-271v602q0 97 -53.5 162t-150.5 65q-94 0 -149.5 -66t-55.5 -163z" />
    <glyph glyph-name="Eng" unicode="&#x14a;" horiz-adv-x="1626" 
d="M1196 1509h270v-1544q0 -180 -113.5 -292.5t-289.5 -112.5q-55 0 -94 10v217q31 -8 61 -8q78 0 122 47.5t44 128.5v88l-766 1016v-1059h-270v1495h254l782 -1044v1058z" />
    <glyph glyph-name="eng" unicode="&#x14b;" horiz-adv-x="1236" 
d="M418 926q43 66 121.5 106.5t175.5 40.5q178 0 280.5 -110.5t102.5 -288.5v-709q0 -180 -114.5 -292.5t-289.5 -112.5q-58 0 -94 10v217q31 -8 62 -8q78 0 121.5 47.5t43.5 128.5v647q0 97 -53.5 162t-150.5 65q-94 0 -149.5 -66t-55.5 -163v-600h-271v1049h271v-123z" />
    <glyph glyph-name="Omacron" unicode="&#x14c;" horiz-adv-x="1683" 
d="M510 1632v191h664v-191h-664zM842 1520q208 0 384 -103.5t278 -281t102 -387.5q0 -157 -60 -300t-162.5 -246.5t-244 -165t-297.5 -61.5t-297.5 61.5t-244 165t-162.5 246.5t-60 300q0 210 102 387.5t278 281t384 103.5zM842 1264q-134 0 -245.5 -67t-177 -185.5
t-65.5 -263.5t65.5 -264t177 -186t245.5 -67q133 0 245 67t177 186t65 264t-65 263.5t-176.5 185.5t-245.5 67z" />
    <glyph glyph-name="omacron" unicode="&#x14d;" horiz-adv-x="1267" 
d="M356 1241v191h570v-191h-570zM637 -25q-151 0 -279.5 70.5t-205 197.5t-76.5 281q0 153 76.5 280t205 198t279.5 71q150 0 278 -71t204.5 -198t76.5 -280q0 -154 -76.5 -281t-204.5 -197.5t-278 -70.5zM637 840q-125 0 -209 -90t-84 -226t84 -225.5t209 -89.5t208 89.5
t83 225.5t-83 226t-208 90z" />
    <glyph glyph-name="Obreve" unicode="&#x14e;" horiz-adv-x="1683" 
d="M1178 1931q-9 -150 -104.5 -237.5t-231.5 -87.5t-231.5 87.5t-104.5 237.5h199q4 -65 41.5 -101t95.5 -36t95.5 36t41.5 101h199zM842 1520q208 0 384 -103.5t278 -281t102 -387.5q0 -157 -60 -300t-162.5 -246.5t-244 -165t-297.5 -61.5t-297.5 61.5t-244 165
t-162.5 246.5t-60 300q0 210 102 387.5t278 281t384 103.5zM842 1264q-134 0 -245.5 -67t-177 -185.5t-65.5 -263.5t65.5 -264t177 -186t245.5 -67q133 0 245 67t177 186t65 264t-65 263.5t-176.5 185.5t-245.5 67z" />
    <glyph glyph-name="obreve" unicode="&#x14f;" horiz-adv-x="1267" 
d="M948 1534q0 -159 -86 -251.5t-223 -92.5q-135 0 -221 92.5t-86 251.5h182q0 -74 35 -118t90 -44q56 0 91.5 44t35.5 118h182zM637 -25q-151 0 -279.5 70.5t-205 197.5t-76.5 281q0 153 76.5 280t205 198t279.5 71q150 0 278 -71t204.5 -198t76.5 -280q0 -154 -76.5 -281
t-204.5 -197.5t-278 -70.5zM637 840q-125 0 -209 -90t-84 -226t84 -225.5t209 -89.5t208 89.5t83 225.5t-83 226t-208 90z" />
    <glyph glyph-name="Ohungarumlaut" unicode="&#x150;" horiz-adv-x="1683" 
d="M532 1620l218 311h303l-324 -311h-197zM926 1620l219 311h301l-324 -311h-196zM842 1520q208 0 384 -103.5t278 -281t102 -387.5q0 -157 -60 -300t-162.5 -246.5t-244 -165t-297.5 -61.5t-297.5 61.5t-244 165t-162.5 246.5t-60 300q0 210 102 387.5t278 281t384 103.5z
M842 1264q-134 0 -245.5 -67t-177 -185.5t-65.5 -263.5t65.5 -264t177 -186t245.5 -67q133 0 245 67t177 186t65 264t-65 263.5t-176.5 185.5t-245.5 67z" />
    <glyph glyph-name="ohungarumlaut" unicode="&#x151;" horiz-adv-x="1267" 
d="M336 1217l139 339h289l-236 -339h-192zM715 1217l139 339h289l-236 -339h-192zM637 -25q-151 0 -279.5 70.5t-205 197.5t-76.5 281q0 153 76.5 280t205 198t279.5 71q150 0 278 -71t204.5 -198t76.5 -280q0 -154 -76.5 -281t-204.5 -197.5t-278 -70.5zM637 840
q-125 0 -209 -90t-84 -226t84 -225.5t209 -89.5t208 89.5t83 225.5t-83 226t-208 90z" />
    <glyph glyph-name="OE" unicode="&#x152;" horiz-adv-x="2052" 
d="M846 0q-211 0 -387.5 97.5t-278.5 269.5t-102 381q0 157 60 296t163 237.5t245 156t300 57.5h1106v-229h-645v-387h594v-232h-594v-418h649v-229h-1110zM1030 1266h-170q-145 0 -261.5 -70t-180.5 -188t-64 -260t64 -260.5t181.5 -188.5t264.5 -70h166v1037z" />
    <glyph glyph-name="oe" unicode="&#x153;" horiz-adv-x="2041" 
d="M1964 455h-780q22 -121 117 -187.5t241 -66.5q95 0 188 30.5t160 85.5v-237q-75 -52 -176 -78.5t-205 -26.5q-135 0 -251.5 54t-196.5 147q-77 -93 -188.5 -147t-235.5 -54q-152 0 -280.5 71t-204.5 197.5t-76 280.5q0 153 76 280t204.5 198t280.5 71q123 0 234.5 -54
t189.5 -147q75 93 182 147t223 54q121 0 217.5 -43t157.5 -118.5t93 -175.5t32 -218q0 -40 -2 -63zM1464 856q-98 0 -171 -59.5t-101 -161.5h520q-8 90 -74 155.5t-174 65.5zM637 840q-125 0 -209 -90.5t-84 -225.5q0 -136 84 -226.5t209 -90.5q124 0 207.5 90.5t83.5 226.5
q0 135 -84 225.5t-207 90.5z" />
    <glyph glyph-name="Racute" unicode="&#x154;" horiz-adv-x="1349" 
d="M467 1620l233 311h357l-352 -311h-238zM436 578v-578h-276v1495h422q166 0 293 -54t199.5 -159.5t72.5 -249.5q0 -149 -77 -253t-216 -156l465 -623h-322l-428 578h-133zM436 1268v-469h146q130 0 207 61t77 172q0 112 -77 174t-207 62h-146z" />
    <glyph glyph-name="racute" unicode="&#x155;" horiz-adv-x="815" 
d="M346 1217l152 339h303l-250 -339h-205zM752 1065v-270q-46 4 -64 4q-125 0 -200.5 -71t-75.5 -216v-512h-271v1049h271v-162q45 80 126 130t183 50q5 0 15.5 -1t15.5 -1z" />
    <glyph glyph-name="uni0156" unicode="&#x156;" horiz-adv-x="1349" 
d="M436 578v-578h-276v1495h422q166 0 293 -54t199.5 -159.5t72.5 -249.5q0 -149 -77 -253t-216 -156l465 -623h-322l-428 578h-133zM436 1268v-469h146q130 0 207 61t77 172q0 112 -77 174t-207 62h-146zM606 -494l-157 54l100 362l254 -92z" />
    <glyph glyph-name="uni0157" unicode="&#x157;" horiz-adv-x="815" 
d="M752 1065v-270q-46 4 -64 4q-125 0 -200.5 -71t-75.5 -216v-512h-271v1049h271v-162q45 80 126 130t183 50q5 0 15.5 -1t15.5 -1zM209 -494l-158 54l101 362l254 -92z" />
    <glyph glyph-name="Rcaron" unicode="&#x158;" horiz-adv-x="1349" 
d="M727 1618h-254l-252 311h203l176 -160l176 160h203zM436 578v-578h-276v1495h422q166 0 293 -54t199.5 -159.5t72.5 -249.5q0 -149 -77 -253t-216 -156l465 -623h-322l-428 578h-133zM436 1268v-469h146q130 0 207 61t77 172q0 112 -77 174t-207 62h-146z" />
    <glyph glyph-name="rcaron" unicode="&#x159;" horiz-adv-x="815" 
d="M584 1217h-248l-227 339h188l162 -176l164 176h186zM752 1065v-270q-46 4 -64 4q-125 0 -200.5 -71t-75.5 -216v-512h-271v1049h271v-162q45 80 126 130t183 50q5 0 15.5 -1t15.5 -1z" />
    <glyph glyph-name="Sacute" unicode="&#x15a;" horiz-adv-x="1124" 
d="M453 1620l233 311h356l-352 -311h-237zM68 408q243 -197 462 -197q117 0 187.5 50t70.5 140q0 66 -38 106.5t-119 80.5l-250 119q-68 33 -116 64.5t-93 77t-67.5 106t-22.5 135.5q0 192 139.5 311t351.5 119q120 0 228.5 -43t175.5 -105v-287q-91 91 -198.5 145
t-215.5 54q-97 0 -158 -45.5t-61 -126.5q0 -57 35.5 -94t105.5 -72l234 -108q86 -40 144 -78t102.5 -86.5t65 -109.5t20.5 -138q0 -136 -70.5 -239.5t-189.5 -157.5t-267 -54q-134 0 -255 43t-201 107v283z" />
    <glyph glyph-name="sacute" unicode="&#x15b;" horiz-adv-x="907" 
d="M379 1217l151 339h304l-250 -339h-205zM86 326q72 -66 164 -103t182 -37q67 0 108.5 27t41.5 76q0 36 -19.5 56.5t-70.5 45.5l-193 84q-46 20 -79 42.5t-62.5 54.5t-44.5 76t-15 100q0 138 108.5 231.5t272.5 93.5q168 0 297 -90v-244q-154 119 -295 119q-59 0 -95 -25.5
t-36 -70.5q0 -37 24.5 -58t86.5 -49l184 -80q97 -43 145 -106.5t48 -163.5q0 -148 -119.5 -239t-284.5 -91q-200 0 -348 99v252z" />
    <glyph glyph-name="Scircumflex" unicode="&#x15c;" horiz-adv-x="1124" 
d="M700 1931l252 -311h-202l-177 160l-176 -160h-202l251 311h254zM68 408q243 -197 462 -197q117 0 187.5 50t70.5 140q0 66 -38 106.5t-119 80.5l-250 119q-68 33 -116 64.5t-93 77t-67.5 106t-22.5 135.5q0 192 139.5 311t351.5 119q120 0 228.5 -43t175.5 -105v-287
q-91 91 -198.5 145t-215.5 54q-97 0 -158 -45.5t-61 -126.5q0 -57 35.5 -94t105.5 -72l234 -108q86 -40 144 -78t102.5 -86.5t65 -109.5t20.5 -138q0 -136 -70.5 -239.5t-189.5 -157.5t-267 -54q-134 0 -255 43t-201 107v283z" />
    <glyph glyph-name="scircumflex" unicode="&#x15d;" horiz-adv-x="907" 
d="M616 1556l226 -339h-187l-163 176l-162 -176h-189l228 339h247zM86 326q72 -66 164 -103t182 -37q67 0 108.5 27t41.5 76q0 36 -19.5 56.5t-70.5 45.5l-193 84q-46 20 -79 42.5t-62.5 54.5t-44.5 76t-15 100q0 138 108.5 231.5t272.5 93.5q168 0 297 -90v-244
q-154 119 -295 119q-59 0 -95 -25.5t-36 -70.5q0 -37 24.5 -58t86.5 -49l184 -80q97 -43 145 -106.5t48 -163.5q0 -148 -119.5 -239t-284.5 -91q-200 0 -348 99v252z" />
    <glyph glyph-name="uni015E" unicode="&#x15e;" horiz-adv-x="1124" 
d="M68 408q243 -197 462 -197q117 0 187.5 50t70.5 140q0 66 -38 106.5t-119 80.5l-250 119q-68 33 -116 64.5t-93 77t-67.5 106t-22.5 135.5q0 192 139.5 311t351.5 119q120 0 228.5 -43t175.5 -105v-287q-91 91 -198.5 145t-215.5 54q-97 0 -158 -45.5t-61 -126.5
q0 -57 35.5 -94t105.5 -72l234 -108q86 -40 144 -78t102.5 -86.5t65 -109.5t20.5 -138q0 -184 -124.5 -304t-320.5 -142l-24 -64q88 -11 142 -57t54 -121q0 -88 -74 -140.5t-176 -52.5q-118 0 -192 52v151q65 -65 166 -65q42 0 69 17.5t27 51.5q0 75 -172 82l55 143
q-121 6 -230 47.5t-183 100.5v283z" />
    <glyph glyph-name="uni015F" unicode="&#x15f;" horiz-adv-x="907" 
d="M86 326q72 -66 164 -103t182 -37q67 0 108.5 27t41.5 76q0 36 -19.5 56.5t-70.5 45.5l-193 84q-46 20 -79 42.5t-62.5 54.5t-44.5 76t-15 100q0 138 108.5 231.5t272.5 93.5q168 0 297 -90v-244q-154 119 -295 119q-59 0 -95 -25.5t-36 -70.5q0 -37 24.5 -58t86.5 -49
l184 -80q97 -43 145 -106.5t48 -163.5q0 -134 -99 -221.5t-247 -103.5l-23 -64q89 -11 143 -57t54 -121q0 -88 -74 -140.5t-176 -52.5q-119 0 -193 52v151q65 -65 166 -65q42 0 69 17.5t27 51.5q0 75 -172 82l56 143q-158 14 -283 97v252z" />
    <glyph glyph-name="Scaron" unicode="&#x160;" horiz-adv-x="1124" 
d="M705 1618h-254l-252 311h202l177 -160l176 160h202zM68 408q243 -197 462 -197q117 0 187.5 50t70.5 140q0 66 -38 106.5t-119 80.5l-250 119q-68 33 -116 64.5t-93 77t-67.5 106t-22.5 135.5q0 192 139.5 311t351.5 119q120 0 228.5 -43t175.5 -105v-287
q-91 91 -198.5 145t-215.5 54q-97 0 -158 -45.5t-61 -126.5q0 -57 35.5 -94t105.5 -72l234 -108q86 -40 144 -78t102.5 -86.5t65 -109.5t20.5 -138q0 -136 -70.5 -239.5t-189.5 -157.5t-267 -54q-134 0 -255 43t-201 107v283z" />
    <glyph glyph-name="scaron" unicode="&#x161;" horiz-adv-x="907" 
d="M616 1217h-247l-228 339h189l162 -176l163 176h187zM86 326q72 -66 164 -103t182 -37q67 0 108.5 27t41.5 76q0 36 -19.5 56.5t-70.5 45.5l-193 84q-46 20 -79 42.5t-62.5 54.5t-44.5 76t-15 100q0 138 108.5 231.5t272.5 93.5q168 0 297 -90v-244q-154 119 -295 119
q-59 0 -95 -25.5t-36 -70.5q0 -37 24.5 -58t86.5 -49l184 -80q97 -43 145 -106.5t48 -163.5q0 -148 -119.5 -239t-284.5 -91q-200 0 -348 99v252z" />
    <glyph glyph-name="Tcommaaccent" unicode="&#x162;" horiz-adv-x="1314" 
d="M623 -455q-119 0 -193 52v151q65 -65 166 -65q42 0 69 17.5t27 51.5q0 75 -172 82l64 166h-64v1266h-479v229h1233v-229h-477v-1266h-90l-31 -84q88 -11 142 -57t54 -121q0 -88 -73.5 -140.5t-175.5 -52.5z" />
    <glyph glyph-name="tcommaaccent" unicode="&#x163;" horiz-adv-x="858" 
d="M471 369q0 -77 40.5 -118.5t113.5 -41.5q90 0 157 55v-239q-85 -50 -211 -50q-31 0 -47 2l-22 -61q88 -11 142 -57t54 -121q0 -88 -73.5 -140.5t-175.5 -52.5q-119 0 -193 52v151q65 -65 166 -65q42 0 69 17.5t27 51.5q0 75 -172 82l66 170q-99 38 -155 123.5t-56 212.5
v494h-172v215h172v243l270 86v-329h281v-215h-281v-465z" />
    <glyph glyph-name="Tcaron" unicode="&#x164;" horiz-adv-x="1314" 
d="M784 1618h-254l-251 311h202l176 -160l177 160h202zM1274 1266h-477v-1266h-277v1266h-479v229h1233v-229z" />
    <glyph glyph-name="tcaron" unicode="&#x165;" horiz-adv-x="858" 
d="M745 1163h-180l64 393h258zM471 369q0 -77 40.5 -118.5t113.5 -41.5q90 0 157 55v-239q-85 -50 -211 -50q-165 0 -267.5 95t-102.5 270v494h-172v215h172v243l270 86v-329h281v-215h-281v-465z" />
    <glyph glyph-name="Tbar" unicode="&#x166;" horiz-adv-x="1314" 
d="M260 647v232h260v387h-479v229h1233v-229h-477v-387h260v-232h-260v-647h-277v647h-260z" />
    <glyph glyph-name="tbar" unicode="&#x167;" horiz-adv-x="858" 
d="M29 483v191h172v184h-172v191h172v243l270 86v-329h281v-191h-281v-184h281v-191h-281v-114q0 -77 40.5 -118.5t113.5 -41.5q90 0 157 55v-239q-85 -50 -211 -50q-165 0 -267.5 95t-102.5 270v143h-172z" />
    <glyph glyph-name="Utilde" unicode="&#x168;" horiz-adv-x="1454" 
d="M911 1927h168q0 -136 -54 -224.5t-155 -88.5q-39 0 -76.5 18.5t-62 40t-55 40t-58.5 18.5q-36 0 -55.5 -31t-19.5 -80h-166q0 137 53.5 225t153.5 88q40 0 78 -18t62 -39t54.5 -39t57.5 -18q36 0 55.5 29.5t19.5 78.5zM408 592q0 -178 87 -275.5t232 -97.5
q146 0 233 97.5t87 275.5v903h276v-905q0 -190 -79.5 -331t-213.5 -212.5t-303 -71.5q-168 0 -302 71.5t-214 213t-80 330.5v905h277v-903z" />
    <glyph glyph-name="utilde" unicode="&#x169;" horiz-adv-x="1232" 
d="M797 1534h168q0 -136 -54 -224.5t-155 -88.5q-39 0 -76.5 18t-62 40t-55 40t-58.5 18q-36 0 -56 -30t-20 -78h-166q0 136 53.5 224.5t153.5 88.5q40 0 78 -18t62 -39.5t54.5 -39.5t57.5 -18q36 0 56 29.5t20 77.5zM815 442v607h270v-1049h-270v123q-43 -66 -122 -107
t-175 -41q-178 0 -278.5 110.5t-100.5 287.5v676h271v-607q0 -99 51.5 -163t148.5 -64q94 0 149.5 65.5t55.5 161.5z" />
    <glyph glyph-name="Umacron" unicode="&#x16a;" horiz-adv-x="1454" 
d="M395 1632v191h664v-191h-664zM408 592q0 -178 87 -275.5t232 -97.5q146 0 233 97.5t87 275.5v903h276v-905q0 -190 -79.5 -331t-213.5 -212.5t-303 -71.5q-168 0 -302 71.5t-214 213t-80 330.5v905h277v-903z" />
    <glyph glyph-name="umacron" unicode="&#x16b;" horiz-adv-x="1232" 
d="M328 1241v191h569v-191h-569zM815 442v607h270v-1049h-270v123q-43 -66 -122 -107t-175 -41q-178 0 -278.5 110.5t-100.5 287.5v676h271v-607q0 -99 51.5 -163t148.5 -64q94 0 149.5 65.5t55.5 161.5z" />
    <glyph glyph-name="Ubreve" unicode="&#x16c;" horiz-adv-x="1454" 
d="M1063 1931q-9 -150 -104.5 -237.5t-231.5 -87.5t-231.5 87.5t-104.5 237.5h199q4 -65 41.5 -101t95.5 -36t95.5 36t41.5 101h199zM408 592q0 -178 87 -275.5t232 -97.5q146 0 233 97.5t87 275.5v903h276v-905q0 -190 -79.5 -331t-213.5 -212.5t-303 -71.5
q-168 0 -302 71.5t-214 213t-80 330.5v905h277v-903z" />
    <glyph glyph-name="ubreve" unicode="&#x16d;" horiz-adv-x="1232" 
d="M920 1534q0 -159 -86.5 -251.5t-223.5 -92.5q-135 0 -221 92.5t-86 251.5h182q0 -74 35 -118t90 -44q56 0 91.5 44t35.5 118h183zM815 442v607h270v-1049h-270v123q-43 -66 -122 -107t-175 -41q-178 0 -278.5 110.5t-100.5 287.5v676h271v-607q0 -99 51.5 -163t148.5 -64
q94 0 149.5 65.5t55.5 161.5z" />
    <glyph glyph-name="Uring" unicode="&#x16e;" horiz-adv-x="1454" 
d="M727 2064q107 0 182.5 -72.5t75.5 -176.5t-75.5 -177t-182.5 -73t-182.5 73t-75.5 177t75.5 176.5t182.5 72.5zM727 1927q-46 0 -79.5 -32.5t-33.5 -79.5q0 -49 33 -81t80 -32t80 32t33 81q0 47 -33.5 79.5t-79.5 32.5zM408 592q0 -178 87 -275.5t232 -97.5
q146 0 233 97.5t87 275.5v903h276v-905q0 -190 -79.5 -331t-213.5 -212.5t-303 -71.5q-168 0 -302 71.5t-214 213t-80 330.5v905h277v-903z" />
    <glyph glyph-name="uring" unicode="&#x16f;" horiz-adv-x="1232" 
d="M612 1628q98 0 166 -66t68 -163q0 -95 -68 -161.5t-166 -66.5t-165.5 66.5t-67.5 161.5q0 97 67.5 163t165.5 66zM612 1499q-43 0 -71.5 -28t-28.5 -72q0 -43 28.5 -72t71.5 -29t72 29t29 72q0 44 -29 72t-72 28zM815 442v607h270v-1049h-270v123q-43 -66 -122 -107
t-175 -41q-178 0 -278.5 110.5t-100.5 287.5v676h271v-607q0 -99 51.5 -163t148.5 -64q94 0 149.5 65.5t55.5 161.5z" />
    <glyph glyph-name="Uhungarumlaut" unicode="&#x170;" horiz-adv-x="1454" 
d="M418 1620l217 311h303l-324 -311h-196zM811 1620l219 311h301l-323 -311h-197zM408 592q0 -178 87 -275.5t232 -97.5q146 0 233 97.5t87 275.5v903h276v-905q0 -190 -79.5 -331t-213.5 -212.5t-303 -71.5q-168 0 -302 71.5t-214 213t-80 330.5v905h277v-903z" />
    <glyph glyph-name="uhungarumlaut" unicode="&#x171;" horiz-adv-x="1232" 
d="M307 1217l139 339h289l-235 -339h-193zM686 1217l139 339h289l-235 -339h-193zM815 442v607h270v-1049h-270v123q-43 -66 -122 -107t-175 -41q-178 0 -278.5 110.5t-100.5 287.5v676h271v-607q0 -99 51.5 -163t148.5 -64q94 0 149.5 65.5t55.5 161.5z" />
    <glyph glyph-name="Uogonek" unicode="&#x172;" horiz-adv-x="1454" 
d="M408 592q0 -178 87 -275.5t232 -97.5q146 0 233 97.5t87 275.5v903h276v-905q0 -239 -121.5 -395.5t-322.5 -202.5q-104 -124 -121 -153q-19 -32 -19 -60q0 -27 17.5 -42.5t44.5 -15.5q40 0 92 35v-170q-64 -41 -139 -41q-86 0 -140.5 44t-54.5 128q0 57 33.5 116
t105.5 142q-120 5 -223 49.5t-180 121.5t-120.5 191.5t-43.5 252.5v905h277v-903z" />
    <glyph glyph-name="uogonek" unicode="&#x173;" horiz-adv-x="1232" 
d="M815 442v607h270v-1049h-104q-94 -109 -120.5 -147t-26.5 -74q0 -27 17 -42.5t44 -15.5q40 0 92 35v-170q-64 -41 -139 -41q-86 0 -140.5 44t-54.5 128q0 62 38.5 124.5t123.5 162.5v119q-43 -66 -122 -107t-175 -41q-178 0 -278.5 110.5t-100.5 287.5v676h271v-607
q0 -99 51.5 -163t148.5 -64q94 0 149.5 65.5t55.5 161.5z" />
    <glyph glyph-name="Wcircumflex" unicode="&#x174;" horiz-adv-x="2111" 
d="M1184 1931l252 -311h-203l-176 160l-176 -160h-203l252 311h254zM1061 942l-416 -1001l-635 1554h299l363 -928l397 971l395 -971l361 928h286l-632 -1554z" />
    <glyph glyph-name="wcircumflex" unicode="&#x175;" horiz-adv-x="1685" 
d="M983 1556l225 -339h-186l-164 176l-162 -176h-188l227 339h248zM852 1094l289 -648l266 603h283l-537 -1106l-305 659l-307 -659l-535 1106h289l266 -603z" />
    <glyph glyph-name="Ycircumflex" unicode="&#x176;" horiz-adv-x="1404" 
d="M829 1931l252 -311h-202l-177 160l-176 -160h-202l251 311h254zM842 0h-279v672l-559 823h313l383 -567l387 567h312l-557 -823v-672z" />
    <glyph glyph-name="ycircumflex" unicode="&#x177;" horiz-adv-x="1183" 
d="M733 1556l225 -339h-186l-164 176l-162 -176h-188l227 339h248zM141 -430l312 584l-451 895h291l301 -619l301 619h287l-760 -1479h-281z" />
    <glyph glyph-name="Ydieresis" unicode="&#x178;" horiz-adv-x="1404" 
d="M498 1909q62 0 104.5 -42.5t42.5 -103.5t-42.5 -102t-104.5 -41h-2q-61 0 -103.5 41t-42.5 102t43 103.5t103 42.5h2zM905 1909q60 0 103 -42.5t43 -103.5t-42.5 -102t-103.5 -41h-2q-62 0 -104.5 41t-42.5 102t42.5 103.5t104.5 42.5h2zM842 0h-279v672l-559 823h313
l383 -567l387 567h312l-557 -823v-672z" />
    <glyph glyph-name="Zacute" unicode="&#x179;" horiz-adv-x="1351" 
d="M543 1620l233 311h357l-353 -311h-237zM494 229h782v-229h-1227l809 1266h-768v229h1210z" />
    <glyph glyph-name="zacute" unicode="&#x17a;" horiz-adv-x="1054" 
d="M420 1217l151 339h303l-249 -339h-205zM457 215h520v-215h-928l537 834h-504v215h911z" />
    <glyph glyph-name="Zdotaccent" unicode="&#x17b;" horiz-adv-x="1351" 
d="M680 1925q65 0 110.5 -45t45.5 -111q0 -64 -45.5 -109.5t-110.5 -45.5h-4q-65 0 -111.5 45.5t-46.5 109.5q0 65 46.5 110.5t111.5 45.5h4zM494 229h782v-229h-1227l809 1266h-768v229h1210z" />
    <glyph glyph-name="zdotaccent" unicode="&#x17c;" horiz-adv-x="1054" 
d="M539 1524q65 0 110 -45t45 -111t-45 -111t-110 -45h-4q-65 0 -111.5 45.5t-46.5 110.5t46.5 110.5t111.5 45.5h4zM457 215h520v-215h-928l537 834h-504v215h911z" />
    <glyph glyph-name="Zcaron" unicode="&#x17d;" horiz-adv-x="1351" 
d="M803 1618h-254l-252 311h203l176 -160l176 160h203zM494 229h782v-229h-1227l809 1266h-768v229h1210z" />
    <glyph glyph-name="zcaron" unicode="&#x17e;" horiz-adv-x="1054" 
d="M659 1217h-247l-228 339h189l162 -176l163 176h187zM457 215h520v-215h-928l537 834h-504v215h911z" />
    <glyph glyph-name="uni0192" unicode="&#x192;" horiz-adv-x="1077" 
d="M197 694v209h229l31 234q20 175 132 279t283 104q92 0 150 -27v-229q-54 28 -123 28q-74 0 -122 -46.5t-60 -135.5l-27 -207h230v-209h-256l-43 -336q-22 -175 -134 -279t-282 -104q-93 0 -152 27v229q54 -28 125 -28q73 0 120.5 46.5t59.5 135.5l41 309h-202z" />
    <glyph glyph-name="AEacute" unicode="&#x1fc;" horiz-adv-x="2179" 
d="M1331 1620l234 311h356l-352 -311h-238zM1157 0v401h-582l-260 -401h-292l970 1495h1086v-229h-649v-387h600v-232h-600v-418h653v-229h-926zM725 635h432v668z" />
    <glyph glyph-name="aeacute" unicode="&#x1fd;" horiz-adv-x="1812" 
d="M788 1217l152 339h303l-250 -339h-205zM1741 455h-783q22 -120 118.5 -187t242.5 -67q94 0 187.5 30.5t158.5 85.5v-237q-75 -52 -175.5 -78.5t-203.5 -26.5q-136 0 -251 51t-193 142q-61 -89 -166.5 -141t-222.5 -52q-170 0 -278.5 87t-108.5 237q0 157 122.5 246.5
t333.5 89.5h203q2 7 5 21.5t5 21.5q-15 79 -81 122.5t-175 43.5q-142 0 -293 -88v235q65 36 159 59t192 23q233 0 346 -145q151 145 360 145q121 0 217.5 -43t157.5 -118.5t93 -175.5t32 -218q0 -40 -2 -63zM1239 856q-98 0 -171 -59.5t-101 -161.5h522q-10 91 -75.5 156
t-174.5 65zM485 174q84 0 152 48t102 130q-13 44 -20 103h-172q-110 0 -172 -36t-62 -108q0 -67 48 -102t124 -35z" />
    <glyph glyph-name="Oslashacute" unicode="&#x1fe;" horiz-adv-x="1683" 
d="M709 1620l233 311h356l-352 -311h-237zM78 53l182 193q-87 102 -134.5 231.5t-47.5 270.5q0 210 102 387.5t278 281t384 103.5q264 0 469 -162l151 162l135 -129l-155 -164q164 -214 164 -479q0 -157 -60 -300t-162.5 -246.5t-244 -165t-297.5 -61.5q-245 0 -445 144
l-184 -195zM842 1274q-102 0 -194 -40t-159.5 -109t-107 -167.5t-39.5 -209.5q0 -177 94 -314l701 742q-128 98 -295 98zM1341 748q0 159 -77 288l-695 -733q124 -82 273 -82q209 0 354 151t145 376z" />
    <glyph glyph-name="oslashacute" unicode="&#x1ff;" horiz-adv-x="1267" 
d="M524 1217l152 339h303l-250 -339h-205zM72 51l129 129q-121 146 -121 344q0 153 76.5 280t205 198t279.5 71q189 0 340 -110l111 110l104 -102l-111 -111q115 -147 115 -336q0 -154 -76.5 -281t-204.5 -197.5t-278 -70.5q-186 0 -334 107l-131 -131zM641 856
q-132 0 -220.5 -95t-88.5 -237q0 -98 41 -172l444 447q-75 57 -176 57zM948 524q0 92 -37 162l-442 -442q76 -51 172 -51q131 0 219 94.5t88 236.5z" />
    <glyph glyph-name="uni0218" unicode="&#x218;" horiz-adv-x="1124" 
d="M68 408q243 -197 462 -197q117 0 187.5 50t70.5 140q0 66 -38 106.5t-119 80.5l-250 119q-68 33 -116 64.5t-93 77t-67.5 106t-22.5 135.5q0 192 139.5 311t351.5 119q120 0 228.5 -43t175.5 -105v-287q-91 91 -198.5 145t-215.5 54q-97 0 -158 -45.5t-61 -126.5
q0 -57 35.5 -94t105.5 -72l234 -108q86 -40 144 -78t102.5 -86.5t65 -109.5t20.5 -138q0 -136 -70.5 -239.5t-189.5 -157.5t-267 -54q-134 0 -255 43t-201 107v283zM512 -494l-158 54l101 362l254 -92z" />
    <glyph glyph-name="uni0219" unicode="&#x219;" horiz-adv-x="907" 
d="M86 326q72 -66 164 -103t182 -37q67 0 108.5 27t41.5 76q0 36 -19.5 56.5t-70.5 45.5l-193 84q-46 20 -79 42.5t-62.5 54.5t-44.5 76t-15 100q0 138 108.5 231.5t272.5 93.5q168 0 297 -90v-244q-154 119 -295 119q-59 0 -95 -25.5t-36 -70.5q0 -37 24.5 -58t86.5 -49
l184 -80q97 -43 145 -106.5t48 -163.5q0 -148 -119.5 -239t-284.5 -91q-200 0 -348 99v252zM406 -494l-158 54l100 362l254 -92z" />
    <glyph glyph-name="uni021A" unicode="&#x21a;" horiz-adv-x="1314" 
d="M1274 1266h-477v-1266h-277v1266h-479v229h1233v-229zM598 -494l-158 54l101 362l254 -92z" />
    <glyph glyph-name="uni021B" unicode="&#x21b;" horiz-adv-x="858" 
d="M471 369q0 -77 40.5 -118.5t113.5 -41.5q90 0 157 55v-239q-85 -50 -211 -50q-165 0 -267.5 95t-102.5 270v494h-172v215h172v243l270 86v-329h281v-215h-281v-465zM424 -494l-158 54l101 362l254 -92z" />
    <glyph glyph-name="uni0237" unicode="&#x237;" horiz-adv-x="563" 
d="M147 -45v1094h271v-1084q0 -180 -115 -292.5t-291 -112.5q-55 0 -94 10v217q33 -8 64 -8q78 0 121.5 47.5t43.5 128.5z" />
    <glyph glyph-name="circumflex" unicode="&#x2c6;" 
d="M729 1556l225 -339h-186l-164 176l-162 -176h-188l227 339h248z" />
    <glyph glyph-name="caron" unicode="&#x2c7;" 
d="M729 1217h-248l-227 339h188l162 -176l164 176h186z" />
    <glyph glyph-name="breve" unicode="&#x2d8;" 
d="M913 1534q0 -159 -86 -251.5t-223 -92.5q-135 0 -221 92.5t-86 251.5h182q0 -74 35 -118t90 -44q56 0 91.5 44t35.5 118h182z" />
    <glyph glyph-name="dotaccent" unicode="&#x2d9;" 
d="M616 1524q65 0 110.5 -45t45.5 -111t-45.5 -111t-110.5 -45h-4q-65 0 -111 45t-46 111t46 111t111 45h4z" />
    <glyph glyph-name="ring" unicode="&#x2da;" 
d="M614 1628q98 0 166 -66t68 -163q0 -95 -68 -161.5t-166 -66.5t-165.5 66.5t-67.5 161.5q0 97 67.5 163t165.5 66zM614 1499q-43 0 -71.5 -28t-28.5 -72q0 -43 28.5 -72t71.5 -29t72 29t29 72q0 44 -29 72t-72 28z" />
    <glyph glyph-name="ogonek" unicode="&#x2db;" 
d="M616 8h168q-98 -115 -125.5 -154t-27.5 -75q0 -27 17 -42.5t44 -15.5q40 0 92 35v-170q-64 -41 -139 -41q-86 0 -140 44t-54 128q0 62 39 125.5t126 165.5z" />
    <glyph glyph-name="tilde" unicode="&#x2dc;" 
d="M799 1534h168q0 -136 -54 -224.5t-155 -88.5q-39 0 -76.5 18t-62 40t-55 40t-58.5 18q-36 0 -56 -30t-20 -78h-166q0 136 53.5 224.5t153.5 88.5q40 0 78 -18t62 -39.5t54.5 -39.5t57.5 -18q36 0 56 29.5t20 77.5z" />
    <glyph glyph-name="hungarumlaut" unicode="&#x2dd;" 
d="M211 1217l139 339h289l-236 -339h-192zM590 1217l139 339h289l-236 -339h-192z" />
    <glyph glyph-name="Wgrave" unicode="&#x1e80;" horiz-adv-x="2111" 
d="M1196 1620h-238l-352 311h357zM1061 942l-416 -1001l-635 1554h299l363 -928l397 971l395 -971l361 928h286l-632 -1554z" />
    <glyph glyph-name="wgrave" unicode="&#x1e81;" horiz-adv-x="1685" 
d="M969 1217h-205l-250 339h303zM852 1094l289 -648l266 603h283l-537 -1106l-305 659l-307 -659l-535 1106h289l266 -603z" />
    <glyph glyph-name="Wacute" unicode="&#x1e82;" horiz-adv-x="2111" 
d="M944 1620l234 311h356l-352 -311h-238zM1061 942l-416 -1001l-635 1554h299l363 -928l397 971l395 -971l361 928h286l-632 -1554z" />
    <glyph glyph-name="wacute" unicode="&#x1e83;" horiz-adv-x="1685" 
d="M748 1217l151 339h303l-250 -339h-204zM852 1094l289 -648l266 603h283l-537 -1106l-305 659l-307 -659l-535 1106h289l266 -603z" />
    <glyph glyph-name="Wdieresis" unicode="&#x1e84;" horiz-adv-x="2111" 
d="M852 1909q62 0 104.5 -42.5t42.5 -103.5t-42.5 -102t-104.5 -41h-2q-61 0 -103 41t-42 102t42.5 103.5t102.5 42.5h2zM1260 1909q60 0 102.5 -42.5t42.5 -103.5t-42 -102t-103 -41h-3q-62 0 -104.5 41t-42.5 102t42.5 103.5t104.5 42.5h3zM1061 942l-416 -1001l-635 1554
h299l363 -928l397 971l395 -971l361 928h286l-632 -1554z" />
    <glyph glyph-name="wdieresis" unicode="&#x1e85;" horiz-adv-x="1685" 
d="M659 1518q62 0 105 -42.5t43 -103.5t-43 -102t-105 -41h-2q-62 0 -103.5 41t-41.5 102q0 62 42 104t103 42h2zM1059 1518q61 0 103 -42t42 -104q0 -61 -41.5 -102t-103.5 -41h-2q-62 0 -105 41t-43 102t43 103.5t105 42.5h2zM852 1094l289 -648l266 603h283l-537 -1106
l-305 659l-307 -659l-535 1106h289l266 -603z" />
    <glyph glyph-name="Ygrave" unicode="&#x1ef2;" horiz-adv-x="1404" 
d="M840 1620h-238l-352 311h356zM842 0h-279v672l-559 823h313l383 -567l387 567h312l-557 -823v-672z" />
    <glyph glyph-name="ygrave" unicode="&#x1ef3;" horiz-adv-x="1183" 
d="M715 1217h-205l-250 339h303zM141 -430l312 584l-451 895h291l301 -619l301 619h287l-760 -1479h-281z" />
    <glyph glyph-name="endash" unicode="&#x2013;" horiz-adv-x="1046" 
d="M115 729h819v-248h-819v248z" />
    <glyph glyph-name="emdash" unicode="&#x2014;" horiz-adv-x="1579" 
d="M115 729h1351v-248h-1351v248z" />
    <glyph glyph-name="quoteleft" unicode="&#x2018;" horiz-adv-x="561" 
d="M332 1534l174 -49l-141 -565l-295 96z" />
    <glyph glyph-name="quoteright" unicode="&#x2019;" horiz-adv-x="561" 
d="M229 915l-174 50l142 565l295 -96z" />
    <glyph glyph-name="quotesinglbase" unicode="&#x201a;" horiz-adv-x="561" 
d="M229 -291l-174 49l142 566l295 -97z" />
    <glyph glyph-name="quotedblleft" unicode="&#x201c;" horiz-adv-x="991" 
d="M762 1534l174 -49l-141 -565l-295 96zM332 1534l174 -49l-141 -565l-295 96z" />
    <glyph glyph-name="quotedblright" unicode="&#x201d;" horiz-adv-x="993" 
d="M229 915l-174 50l142 565l295 -96zM662 915l-175 50l142 565l295 -96z" />
    <glyph glyph-name="quotedblbase" unicode="&#x201e;" horiz-adv-x="993" 
d="M229 -291l-174 49l142 566l295 -97zM662 -291l-175 49l142 566l295 -97z" />
    <glyph glyph-name="dagger" unicode="&#x2020;" horiz-adv-x="784" 
d="M719 1163h-236v-456h-180v456h-237v174h237v222h180v-222h236v-174z" />
    <glyph glyph-name="daggerdbl" unicode="&#x2021;" horiz-adv-x="786" 
d="M721 891h-242v-184h-172v184h-241v156h241v170h-241v157h241v185h172v-185h242v-157h-242v-170h242v-156z" />
    <glyph glyph-name="bullet" unicode="&#x2022;" horiz-adv-x="950" 
d="M838 618q0 -149 -106.5 -254.5t-256.5 -105.5q-149 0 -254.5 105.5t-105.5 254.5q0 151 105.5 257t254.5 106q150 0 256.5 -106.5t106.5 -256.5z" />
    <glyph glyph-name="ellipsis" unicode="&#x2026;" horiz-adv-x="1622" 
d="M272 332q72 0 123 -50t51 -122q0 -73 -51 -123.5t-123 -50.5h-4q-72 0 -122 50.5t-50 123.5q0 72 50 122t122 50h4zM813 332q72 0 123 -50t51 -122q0 -73 -51 -123.5t-123 -50.5h-4q-72 0 -123 50.5t-51 123.5q0 72 51 122t123 50h4zM1354 332q72 0 123 -50t51 -122
q0 -73 -51 -123.5t-123 -50.5h-4q-72 0 -123 50.5t-51 123.5q0 72 51 122t123 50h4z" />
    <glyph glyph-name="guilsinglleft" unicode="&#x2039;" horiz-adv-x="630" 
d="M311 928h271l-260 -408l260 -405h-271l-262 405z" />
    <glyph glyph-name="guilsinglright" unicode="&#x203a;" horiz-adv-x="630" 
d="M319 928l263 -408l-263 -405h-270l260 405l-260 408h270z" />
    <glyph glyph-name="fraction" unicode="&#x2044;" horiz-adv-x="1624" 
d="M193 0l995 1495h244l-996 -1495h-243z" />
    <glyph glyph-name="Euro" unicode="&#x20ac;" horiz-adv-x="1236" 
d="M53 514v170h117q-2 20 -2 64q0 45 2 65h-117v172h146q64 236 235 385.5t391 149.5q191 0 336 -105v-301q-57 76 -139 119t-178 43q-128 0 -227.5 -78t-149.5 -213h457l-33 -172h-463q-2 -20 -2 -65q0 -44 2 -64h434l-35 -170h-362q50 -137 150 -216t229 -79q96 0 178 43
t139 119v-301q-145 -105 -336 -105q-221 0 -392 151t-234 388h-146z" />
    <glyph glyph-name="trademark" unicode="&#x2122;" horiz-adv-x="1587" 
d="M68 1348v147h524v-147h-176v-474h-174v474h-174zM1104 874h-115l-127 377l-84 -377h-157l133 621h151l144 -383l145 383h149l134 -621h-164l-82 377z" />
    <glyph glyph-name="uni2153" unicode="&#x2153;" horiz-adv-x="1871" 
d="M115 674v168h180v411l-182 -79v190l389 164v-686h147v-168h-534zM315 0l996 1495h245l-995 -1495h-246zM1245 649v168h555l-196 -317q83 -27 131.5 -88.5t48.5 -147.5q0 -127 -95.5 -204.5t-224.5 -77.5q-134 0 -235 69v193q99 -90 219 -90q59 0 99 29.5t40 80.5
q0 63 -61.5 96t-163.5 35l162 254h-279z" />
    <glyph glyph-name="uni2154" unicode="&#x2154;" horiz-adv-x="1871" 
d="M377 842h266v-168h-608l237 305q68 86 105 147.5t37 106.5q0 42 -26 65t-75 23q-57 0 -118 -31t-109 -71v194q47 42 117.5 69t146.5 27q121 0 197 -70.5t76 -178.5q0 -70 -30.5 -131.5t-96.5 -143.5zM315 0l996 1495h245l-995 -1495h-246zM1245 649v168h555l-196 -317
q83 -27 131.5 -88.5t48.5 -147.5q0 -127 -95.5 -204.5t-224.5 -77.5q-134 0 -235 69v193q99 -90 219 -90q59 0 99 29.5t40 80.5q0 63 -61.5 96t-163.5 35l162 254h-279z" />
    <glyph glyph-name="uni215B" unicode="&#x215b;" horiz-adv-x="1871" 
d="M115 674v168h180v411l-182 -79v190l389 164v-686h147v-168h-534zM315 0l996 1495h245l-995 -1495h-246zM1231 590q0 106 81 173.5t195 67.5q115 0 196 -67.5t81 -173.5q0 -56 -27 -102.5t-67 -73.5q46 -23 83 -72.5t37 -116.5q0 -106 -87 -174.5t-216 -68.5
q-128 0 -214.5 68.5t-86.5 174.5q0 67 37 117t84 72q-41 27 -68.5 73.5t-27.5 102.5zM1610 586q0 43 -29.5 70.5t-73.5 27.5q-42 0 -71 -27.5t-29 -70.5q0 -42 29 -69.5t71 -27.5q43 0 73 27.5t30 69.5zM1622 238q0 47 -33.5 77.5t-81.5 30.5q-47 0 -79.5 -30.5t-32.5 -77.5
q0 -46 32.5 -76.5t79.5 -30.5q48 0 81.5 30.5t33.5 76.5z" />
    <glyph glyph-name="uni215C" unicode="&#x215c;" horiz-adv-x="1871" 
d="M315 0l996 1495h245l-995 -1495h-246zM102 1327v168h555l-198 -319q85 -25 133.5 -86.5t48.5 -147.5q0 -128 -94.5 -205.5t-224.5 -77.5q-134 0 -236 70v193q101 -91 219 -91q59 0 99 30t40 81q0 63 -61 95.5t-164 35.5l162 254h-279zM1231 590q0 106 81 173.5t195 67.5
q115 0 196 -67.5t81 -173.5q0 -56 -27 -102.5t-67 -73.5q46 -23 83 -72.5t37 -116.5q0 -106 -87 -174.5t-216 -68.5q-128 0 -214.5 68.5t-86.5 174.5q0 67 37 117t84 72q-41 27 -68.5 73.5t-27.5 102.5zM1610 586q0 43 -29.5 70.5t-73.5 27.5q-42 0 -71 -27.5t-29 -70.5
q0 -42 29 -69.5t71 -27.5q43 0 73 27.5t30 69.5zM1622 238q0 47 -33.5 77.5t-81.5 30.5q-47 0 -79.5 -30.5t-32.5 -77.5q0 -46 32.5 -76.5t79.5 -30.5q48 0 81.5 30.5t33.5 76.5z" />
    <glyph glyph-name="uni215D" unicode="&#x215d;" horiz-adv-x="1871" 
d="M315 0l996 1495h245l-995 -1495h-246zM340 1327l-16 -119q134 -16 217.5 -83.5t83.5 -188.5q0 -127 -90 -202t-232 -75q-57 0 -115 17.5t-94 44.5v188q37 -32 93 -55t112 -23q57 0 95 27t38 76q0 68 -82 100.5t-213 32.5l49 428h422v-168h-268zM1231 590q0 106 81 173.5
t195 67.5q115 0 196 -67.5t81 -173.5q0 -56 -27 -102.5t-67 -73.5q46 -23 83 -72.5t37 -116.5q0 -106 -87 -174.5t-216 -68.5q-128 0 -214.5 68.5t-86.5 174.5q0 67 37 117t84 72q-41 27 -68.5 73.5t-27.5 102.5zM1610 586q0 43 -29.5 70.5t-73.5 27.5q-42 0 -71 -27.5
t-29 -70.5q0 -42 29 -69.5t71 -27.5q43 0 73 27.5t30 69.5zM1622 238q0 47 -33.5 77.5t-81.5 30.5q-47 0 -79.5 -30.5t-32.5 -77.5q0 -46 32.5 -76.5t79.5 -30.5q48 0 81.5 30.5t33.5 76.5z" />
    <glyph glyph-name="uni215E" unicode="&#x215e;" horiz-adv-x="1871" 
d="M315 0l996 1495h245l-995 -1495h-246zM748 1493l-338 -821h-211l274 653h-375v168h650zM1231 590q0 106 81 173.5t195 67.5q115 0 196 -67.5t81 -173.5q0 -56 -27 -102.5t-67 -73.5q46 -23 83 -72.5t37 -116.5q0 -106 -87 -174.5t-216 -68.5q-128 0 -214.5 68.5
t-86.5 174.5q0 67 37 117t84 72q-41 27 -68.5 73.5t-27.5 102.5zM1610 586q0 43 -29.5 70.5t-73.5 27.5q-42 0 -71 -27.5t-29 -70.5q0 -42 29 -69.5t71 -27.5q43 0 73 27.5t30 69.5zM1622 238q0 47 -33.5 77.5t-81.5 30.5q-47 0 -79.5 -30.5t-32.5 -77.5q0 -46 32.5 -76.5
t79.5 -30.5q48 0 81.5 30.5t33.5 76.5z" />
    <glyph glyph-name="minus" unicode="&#x2212;" 
d="M74 602v213h1079v-213h-1079z" />
    <glyph glyph-name="i.dot" horiz-adv-x="563" 
d="M283 1524q66 0 111.5 -45t45.5 -111t-45.5 -111t-111.5 -45h-2q-66 0 -112 45t-46 111t46 111t112 45h2zM147 1049h271v-1049h-271v1049z" />
    <glyph glyph-name="caron.Slovak" 
d="M645 1163h-180l63 393h258z" />
    <glyph glyph-name="commaturn" 
d="M635 1591l158 -53l-101 -362l-254 92z" />
    <glyph glyph-name="uni00200326" 
d="M592 -494l-158 54l101 362l253 -92z" />
    <glyph glyph-name="uni0192.lt" 
d="M270 694v209h230l30 234q20 175 132.5 279t283.5 104q92 0 150 -27v-229q-54 28 -123 28q-74 0 -122 -46.5t-60 -135.5l-27 -207h229v-209h-256l-43 -336q-22 -175 -133.5 -279t-281.5 -104q-94 0 -152 27v229q54 -28 125 -28q73 0 120.5 46.5t59.5 135.5l41 309h-203z
" />
    <glyph glyph-name="Euro.lt" 
d="M53 514v170h117q-2 20 -2 64q0 45 2 65h-117v172h146q64 236 235 385.5t391 149.5q191 0 336 -105v-301q-57 76 -139 119t-178 43q-128 0 -227.5 -78t-149.5 -213h457l-33 -172h-463q-2 -20 -2 -65q0 -44 2 -64h434l-35 -170h-362q50 -137 150 -216t229 -79q96 0 178 43
t139 119v-301q-145 -105 -336 -105q-221 0 -392 151t-234 388h-146z" />
    <glyph glyph-name="dollar.lt" 
d="M98 145v261q206 -167 420 -189v455l-96 37q-70 27 -122.5 57.5t-97.5 74.5t-69 104t-24 134q0 161 113.5 271t295.5 137v164h193v-162q100 -11 188 -49t148 -88v-258q-155 142 -336 176v-414l67 -25q179 -65 262.5 -156t83.5 -239q0 -168 -114 -280t-299 -144v-176h-193
v166q-125 7 -235.5 47t-184.5 96zM504 934l14 -6v344q-86 -15 -133 -59.5t-47 -112.5q0 -59 42 -96t124 -70zM729 592l-18 6v-371q89 20 137.5 68t48.5 117q0 66 -41 105t-127 75z" />
    <glyph glyph-name="cent.lt" 
d="M604 -164v182q-189 45 -311.5 191t-122.5 340t122.5 339.5t311.5 190.5v205h193v-188q115 -8 217 -62v-231q-94 72 -217 80v-668q123 8 217 80v-234q-103 -51 -217 -59v-166h-193zM399 549q0 -108 55.5 -188.5t149.5 -118.5v614q-94 -38 -149.5 -118.5t-55.5 -188.5z" />
    <glyph glyph-name="sterling.lt" 
d="M111 637v207h184v114q0 252 152 407t395 155q173 0 286 -70v-246q-118 76 -266 76q-144 0 -226.5 -92t-82.5 -250v-94h311v-207h-311v-172q0 -77 -24 -142t-62 -98h680v-225h-1065v225h37q91 0 133.5 62t42.5 164v186h-184z" />
    <glyph glyph-name="yen.lt" 
d="M166 319v185h315v141h-315v184h260l-410 666h299l297 -500l299 500h299l-409 -666h260v-184h-316v-141h316v-185h-316v-319h-264v319h-315z" />
    <glyph glyph-name="zero.lt" 
d="M612 1518q158 0 284.5 -98.5t198.5 -275.5t72 -399q0 -221 -72 -398t-198.5 -275.5t-284.5 -98.5q-157 0 -282.5 98.5t-197 275.5t-71.5 398q0 222 71.5 399t197 275.5t282.5 98.5zM612 1270q-91 0 -157.5 -69.5t-99.5 -187t-33 -268.5q0 -231 77 -376.5t213 -145.5
q93 0 160.5 68.5t101 185.5t33.5 268t-33.5 268.5t-101 187t-160.5 69.5z" />
    <glyph glyph-name="one.lt" 
d="M172 0v229h360v932l-352 -166v271l629 278v-1315h309v-229h-946z" />
    <glyph glyph-name="two.lt" 
d="M526 229h578v-229h-1059l463 563q68 83 107 134.5t84 121t66 127.5t21 111q0 98 -61 154.5t-174 56.5q-107 0 -221 -59t-197 -136v270q83 77 205.5 127t253.5 50q211 0 340 -120t129 -310q0 -138 -64.5 -260.5t-197.5 -278.5z" />
    <glyph glyph-name="three.lt" 
d="M158 1266v229h958l-379 -594q162 -37 259.5 -154t97.5 -276q0 -111 -45.5 -205.5t-122 -157.5t-176 -98t-207.5 -35q-248 0 -424 129v267q87 -79 190.5 -121.5t210.5 -42.5q131 0 222.5 74.5t91.5 189.5q0 93 -60.5 160t-159 98t-223.5 31h-8l334 506h-559z" />
    <glyph glyph-name="four.lt" 
d="M922 1495l-502 -938h342v326h248v-326h176v-219h-176v-338h-248v338h-733l624 1157h269z" />
    <glyph glyph-name="five.lt" 
d="M524 1266l-41 -301q94 -6 177.5 -27t158 -61.5t128.5 -97t85 -137t31 -177.5q0 -147 -73.5 -259.5t-199.5 -171.5t-284 -59q-112 0 -215 31.5t-170 83.5v266q71 -65 173 -107t204 -42q130 0 217.5 67.5t87.5 186.5q0 79 -45.5 138t-124.5 92t-173 49t-204 16h-33l90 739
h723v-229h-512z" />
    <glyph glyph-name="six.lt" 
d="M643 1024q215 0 361.5 -148t146.5 -366q0 -149 -70 -272t-193.5 -193t-273.5 -70q-226 0 -381 154t-155 379q0 90 28 176.5t97 204.5l360 606h291l-283 -481q42 10 72 10zM614 807q-121 0 -203.5 -86t-82.5 -211t82.5 -211t203.5 -86t204 86t83 211t-83 211t-204 86z" />
    <glyph glyph-name="seven.lt" 
d="M1190 1495l-623 -1495h-282l532 1266h-737v229h1110z" />
    <glyph glyph-name="eight.lt" 
d="M1145 416q0 -125 -70 -226t-191.5 -158t-269.5 -57q-226 0 -378 125.5t-152 315.5q0 127 73.5 223.5t176.5 136.5q-86 47 -142.5 133.5t-56.5 192.5q0 119 64.5 215.5t174 149.5t240.5 53q130 0 240 -53t175 -149.5t65 -215.5q0 -106 -56.5 -192.5t-144.5 -133.5
q104 -40 178 -136.5t74 -223.5zM614 1311q-102 0 -166.5 -60.5t-64.5 -152.5q0 -90 64.5 -150.5t166.5 -60.5q101 0 166.5 60.5t65.5 150.5q0 91 -65.5 152t-166.5 61zM614 670q-115 0 -190.5 -68.5t-75.5 -169.5q0 -102 75.5 -170.5t190.5 -68.5t191 68.5t76 170.5
q0 101 -76 169.5t-191 68.5z" />
    <glyph glyph-name="nine.lt" 
d="M586 471q-215 0 -361.5 148t-146.5 366q0 227 154 381t382 154q226 0 381.5 -154t155.5 -379q0 -90 -28 -176.5t-97 -204.5l-360 -606h-291l282 481q-42 -10 -71 -10zM614 688q121 0 204 86t83 211t-83 211t-204 86t-203.5 -86t-82.5 -211t82.5 -211t203.5 -86z" />
    <glyph glyph-name="percent.lt" 
d="M309 1520q127 0 216 -89t89 -217t-89 -216.5t-216 -88.5q-125 0 -213 89t-88 216t88 216.5t213 89.5zM-6 0l1010 1495h231l-1010 -1495h-231zM309 1354q-56 0 -95.5 -41t-39.5 -99t39.5 -98.5t95.5 -40.5q58 0 97.5 40t39.5 99t-39.5 99.5t-97.5 40.5zM920 -25
q-128 0 -217 89.5t-89 216.5t89 216t217 89q125 0 213 -89t88 -216t-88 -216.5t-213 -89.5zM920 141q56 0 95.5 41t39.5 99t-39.5 98.5t-95.5 40.5q-58 0 -98 -40t-40 -99t40 -99.5t98 -40.5z" />
    <glyph glyph-name="period.tab" horiz-adv-x="614" 
d="M309 332q72 0 123 -50t51 -122q0 -73 -51 -123.5t-123 -50.5h-4q-72 0 -122 50.5t-50 123.5q0 72 50 122t122 50h4z" />
    <glyph glyph-name="comma.tab" horiz-adv-x="614" 
d="M231 -285l-174 49l142 566l295 -97z" />
    <glyph glyph-name="colon.tab" horiz-adv-x="614" 
d="M309 1028q72 0 123 -50t51 -122q0 -73 -51 -123.5t-123 -50.5h-4q-72 0 -122 50.5t-50 123.5q0 72 50 122t122 50h4zM309 332q72 0 123 -50t51 -122q0 -73 -51 -123.5t-123 -50.5h-4q-72 0 -122 50.5t-50 123.5q0 72 50 122t122 50h4z" />
    <glyph glyph-name="semicolon.tab" horiz-adv-x="614" 
d="M309 1028q72 0 123 -50t51 -122q0 -73 -51 -123.5t-123 -50.5h-4q-72 0 -122 50.5t-50 123.5q0 72 50 122t122 50h4zM238 -285l-175 49l142 566l295 -97z" />
    <glyph glyph-name="space.tab" horiz-adv-x="614" 
 />
    <glyph glyph-name="uni0219.alt" horiz-adv-x="907" 
d="M446 -25q-146 0 -261 72t-160 201l223 88q62 -162 203 -162q61 0 99 33.5t38 85.5q0 41 -27.5 69t-71.5 44.5t-97 31.5t-106 36t-97 51t-71.5 84.5t-27.5 129.5q0 140 105 237t264 97q127 0 217.5 -57.5t136.5 -163.5l-213 -86q-15 47 -49 76.5t-88 29.5t-89.5 -31.5
t-35.5 -82.5q0 -32 21.5 -56t57 -38t80.5 -28.5t92 -27.5t92 -37t80.5 -54t57 -80t21.5 -115q0 -154 -117 -250.5t-277 -96.5zM399 -494l-157 54l100 362l254 -92z" />
    <glyph glyph-name="uni015E.alt" horiz-adv-x="1189" 
d="M555 -455q-119 0 -193 52v151q65 -65 166 -65q42 0 69.5 17.5t27.5 51.5q0 75 -172 82l55 146q-149 17 -275 92t-206 192l182 189q82 -120 175.5 -182t211.5 -62q108 0 182 60t74 155q0 50 -25 87.5t-67 62t-96 44.5t-114 38.5t-120.5 39.5t-114.5 52.5t-96 72.5
t-67 104.5t-25 143.5q0 191 138.5 321t352.5 130q273 0 457 -220l-166 -190q-118 180 -295 180q-95 0 -157 -53.5t-62 -144.5q0 -44 25 -78t67 -56.5t96 -41.5t114.5 -38t120.5 -41t114 -56t96 -78t67 -111.5t25 -151.5q0 -193 -140.5 -322t-348.5 -141l-23 -61
q89 -11 143 -57t54 -121q0 -88 -74 -140.5t-176 -52.5z" />
    <glyph glyph-name="aeacute.alt" horiz-adv-x="1851" 
d="M815 1217l152 339h303l-250 -339h-205zM496 627h229q2 7 5 22.5t5 22.5q-12 82 -78 126t-178 44q-145 0 -295 -84v233q65 36 160 59t193 23q230 0 348 -143q153 143 366 143q158 0 279 -73.5t184.5 -199t63.5 -282.5q0 -41 -2 -61h-822q19 -121 103 -194t200 -73
q181 0 250 142h258q-50 -170 -186.5 -263.5t-323.5 -93.5q-124 0 -232 51t-183 142q-59 -88 -165.5 -140.5t-221.5 -52.5q-172 0 -281 86.5t-109 237.5q0 155 119 241.5t314 86.5zM1251 856q-103 0 -181.5 -62.5t-106.5 -166.5h548q-11 97 -80 163t-180 66zM483 170
q88 0 156.5 47t103.5 133q-15 41 -22 107h-184q-103 0 -164.5 -37.5t-61.5 -108.5q0 -69 48.5 -105t123.5 -36z" />
    <glyph glyph-name="Gdotaccent.alt" horiz-adv-x="1640" 
d="M846 1925q65 0 110 -45t45 -111q0 -65 -45.5 -110t-109.5 -45h-4q-65 0 -111.5 45.5t-46.5 109.5q0 65 46.5 110.5t111.5 45.5h4zM860 795h701q2 -27 2 -80q0 -171 -57.5 -312t-156 -234t-229.5 -143.5t-280 -50.5q-155 0 -296.5 61.5t-243.5 165t-162 246.5t-60 300
q0 126 38.5 243.5t108.5 212.5t164 166.5t210.5 110.5t240.5 39q203 0 367.5 -98t262.5 -271l-231 -139q-62 116 -167 182t-232 66q-99 0 -189 -40t-155 -108t-103.5 -163t-38.5 -201q0 -141 65 -261t178 -190t247 -70q166 0 281 91.5t149 246.5h-414v230z" />
    <glyph glyph-name="ugrave.alt" horiz-adv-x="1193" 
d="M719 1217h-205l-250 339h303zM397 438q0 -108 53 -169.5t148 -61.5t148 61.5t53 169.5v611h270v-617q0 -204 -131.5 -330.5t-339.5 -126.5q-210 0 -340.5 126t-130.5 331v617h270v-611z" />
    <glyph glyph-name="a.alt" horiz-adv-x="1343" 
d="M584 -25q-142 0 -259 72t-184 198t-67 279q0 232 147 390.5t363 158.5q112 0 205.5 -49.5t138.5 -122.5v148h270v-1049h-270v147q-45 -73 -138.5 -122.5t-205.5 -49.5zM637 207q126 0 211.5 91t85.5 226t-85.5 225.5t-211.5 90.5q-125 0 -210 -90.5t-85 -225.5t85 -226
t210 -91z" />
    <glyph glyph-name="umacron.alt" horiz-adv-x="1193" 
d="M313 1241v191h570v-191h-570zM397 438q0 -108 53 -169.5t148 -61.5t148 61.5t53 169.5v611h270v-617q0 -204 -131.5 -330.5t-339.5 -126.5q-210 0 -340.5 126t-130.5 331v617h270v-611z" />
    <glyph glyph-name="s.alt" horiz-adv-x="907" 
d="M446 -25q-146 0 -261 72t-160 201l223 88q62 -162 203 -162q61 0 99 33.5t38 85.5q0 41 -27.5 69t-71.5 44.5t-97 31.5t-106 36t-97 51t-71.5 84.5t-27.5 129.5q0 140 105 237t264 97q127 0 217.5 -57.5t136.5 -163.5l-213 -86q-15 47 -49 76.5t-88 29.5t-89.5 -31.5
t-35.5 -82.5q0 -32 21.5 -56t57 -38t80.5 -28.5t92 -27.5t92 -37t80.5 -54t57 -80t21.5 -115q0 -154 -117 -250.5t-277 -96.5z" />
    <glyph glyph-name="cedillacmb" horiz-adv-x="0" 
d="M-29 -455q-118 0 -192 52v151q65 -65 166 -65q42 0 69 17.5t27 51.5q0 75 -172 82l72 186h122l-38 -104q88 -11 142 -57t54 -121q0 -88 -74 -140.5t-176 -52.5z" />
    <glyph glyph-name="uogonek.alt" horiz-adv-x="1193" 
d="M397 438q0 -108 53 -169.5t148 -61.5t148 61.5t53 169.5v611h270v-617q0 -158 -80.5 -271.5t-218.5 -158.5q-108 -129 -126 -159q-21 -34 -21 -64q0 -27 17 -42.5t44 -15.5q40 0 92 35v-170q-64 -41 -139 -41q-86 0 -140.5 44t-54.5 128q0 57 33.5 115t104.5 143
q-202 6 -327.5 131.5t-125.5 325.5v617h270v-611z" />
    <glyph glyph-name="aacute.alt" horiz-adv-x="1343" 
d="M561 1217l152 339h303l-250 -339h-205zM584 -25q-142 0 -259 72t-184 198t-67 279q0 232 147 390.5t363 158.5q112 0 205.5 -49.5t138.5 -122.5v148h270v-1049h-270v147q-45 -73 -138.5 -122.5t-205.5 -49.5zM637 207q126 0 211.5 91t85.5 226t-85.5 225.5t-211.5 90.5
q-125 0 -210 -90.5t-85 -225.5t85 -226t210 -91z" />
    <glyph glyph-name="commaturncmb" horiz-adv-x="0" 
d="M20 1591l158 -53l-100 -362l-256 92z" />
    <glyph glyph-name="atilde.alt" horiz-adv-x="1343" 
d="M877 1534h167q0 -137 -53.5 -225t-154.5 -88q-39 0 -76.5 18t-62 40t-55 40t-58.5 18q-36 0 -56 -30t-20 -78h-166q0 136 53.5 224.5t153.5 88.5q40 0 78 -18t62 -39.5t54.5 -39.5t57.5 -18q36 0 56 29.5t20 77.5zM584 -25q-142 0 -259 72t-184 198t-67 279
q0 232 147 390.5t363 158.5q112 0 205.5 -49.5t138.5 -122.5v148h270v-1049h-270v147q-45 -73 -138.5 -122.5t-205.5 -49.5zM637 207q126 0 211.5 91t85.5 226t-85.5 225.5t-211.5 90.5q-125 0 -210 -90.5t-85 -225.5t85 -226t210 -91z" />
    <glyph glyph-name="hungarumlautcmb" horiz-adv-x="0" 
d="M-403 1217l139 339h289l-236 -339h-192zM-25 1217l140 339h288l-235 -339h-193z" />
    <glyph glyph-name="dieresisCap" 
d="M412 1909q62 0 104.5 -42.5t42.5 -103.5t-42.5 -102t-104.5 -41h-2q-61 0 -103.5 41t-42.5 102t43 103.5t103 42.5h2zM819 1909q60 0 103 -42.5t43 -103.5t-42.5 -102t-103.5 -41h-2q-62 0 -104.5 41t-42.5 102t42.5 103.5t104.5 42.5h2z" />
    <glyph glyph-name="dotaccentcmb" horiz-adv-x="0" 
d="M4 1524q65 0 110.5 -45t45.5 -111t-45.5 -111t-110.5 -45h-6q-65 0 -111.5 45.5t-46.5 110.5t46.5 110.5t111.5 45.5h6z" />
    <glyph glyph-name="gravecmb" horiz-adv-x="0" 
d="M227 1217h-204l-250 339h303z" />
    <glyph glyph-name="G.alt" horiz-adv-x="1640" 
d="M860 795h701q2 -27 2 -80q0 -171 -57.5 -312t-156 -234t-229.5 -143.5t-280 -50.5q-155 0 -296.5 61.5t-243.5 165t-162 246.5t-60 300q0 126 38.5 243.5t108.5 212.5t164 166.5t210.5 110.5t240.5 39q203 0 367.5 -98t262.5 -271l-231 -139q-62 116 -167 182t-232 66
q-99 0 -189 -40t-155 -108t-103.5 -163t-38.5 -201q0 -141 65 -261t178 -190t247 -70q166 0 281 91.5t149 246.5h-414v230z" />
    <glyph glyph-name="eacute.alt" horiz-adv-x="1220" 
d="M518 1217l152 339h303l-250 -339h-205zM1139 332q-50 -169 -187.5 -263t-324.5 -94q-111 0 -212 42t-175.5 114t-119 174.5t-44.5 218.5t44 218.5t118.5 174.5t175.5 114t211 42q158 0 279 -74.5t184 -200.5t63 -282q0 -42 -2 -65h-821q22 -118 105 -188t196 -70
q184 0 252 139h258zM625 852q-103 0 -182 -61.5t-107 -163.5h555q-11 92 -82.5 158.5t-183.5 66.5z" />
    <glyph glyph-name="agrave.alt" horiz-adv-x="1343" 
d="M821 1217h-205l-249 339h303zM584 -25q-142 0 -259 72t-184 198t-67 279q0 232 147 390.5t363 158.5q112 0 205.5 -49.5t138.5 -122.5v148h270v-1049h-270v147q-45 -73 -138.5 -122.5t-205.5 -49.5zM637 207q126 0 211.5 91t85.5 226t-85.5 225.5t-211.5 90.5
q-125 0 -210 -90.5t-85 -225.5t85 -226t210 -91z" />
    <glyph glyph-name="tcommaaccent.alt" horiz-adv-x="768" 
d="M496 0h-78l-31 -84q89 -11 143 -57t54 -121q0 -88 -74 -140.5t-176 -52.5q-119 0 -193 52v151q65 -65 166 -65q42 0 69 17.5t27 51.5q0 75 -172 82l64 166h-70v834h-194v215h194v301h271v-301h243v-215h-243v-834z" />
    <glyph glyph-name="acutecmb" horiz-adv-x="0" 
d="M-227 1217l151 339h303l-250 -339h-204z" />
    <glyph glyph-name="aogonek.alt" horiz-adv-x="1343" 
d="M584 -25q-142 0 -259 72t-184 198t-67 279q0 232 147 390.5t363 158.5q112 0 205.5 -49.5t138.5 -122.5v148h270v-1049h-104q-96 -113 -122 -150t-26 -73q0 -27 17.5 -42.5t44.5 -15.5q40 0 92 35v-170q-64 -41 -139 -41q-86 0 -140.5 44t-54.5 128q0 62 38.5 124.5
t123.5 162.5v145q-45 -73 -138.5 -122.5t-205.5 -49.5zM637 207q126 0 211.5 91t85.5 226t-85.5 225.5t-211.5 90.5q-125 0 -210 -90.5t-85 -225.5t85 -226t210 -91z" />
    <glyph glyph-name="egrave.alt" horiz-adv-x="1220" 
d="M731 1217h-205l-250 339h304zM1139 332q-50 -169 -187.5 -263t-324.5 -94q-111 0 -212 42t-175.5 114t-119 174.5t-44.5 218.5t44 218.5t118.5 174.5t175.5 114t211 42q158 0 279 -74.5t184 -200.5t63 -282q0 -42 -2 -65h-821q22 -118 105 -188t196 -70q184 0 252 139
h258zM625 852q-103 0 -182 -61.5t-107 -163.5h555q-11 92 -82.5 158.5t-183.5 66.5z" />
    <glyph glyph-name="acircumflex.alt" horiz-adv-x="1343" 
d="M813 1556l225 -339h-186l-164 176l-162 -176h-188l227 339h248zM584 -25q-142 0 -259 72t-184 198t-67 279q0 232 147 390.5t363 158.5q112 0 205.5 -49.5t138.5 -122.5v148h270v-1049h-270v147q-45 -73 -138.5 -122.5t-205.5 -49.5zM637 207q126 0 211.5 91t85.5 226
t-85.5 225.5t-211.5 90.5q-125 0 -210 -90.5t-85 -225.5t85 -226t210 -91z" />
    <glyph glyph-name="caroncmb" horiz-adv-x="0" 
d="M125 1217h-248l-227 339h188l162 -176l164 176h186z" />
    <glyph glyph-name="scircumflex.alt" horiz-adv-x="907" 
d="M596 1556l225 -339h-186l-164 176l-162 -176h-188l227 339h248zM446 -25q-146 0 -261 72t-160 201l223 88q62 -162 203 -162q61 0 99 33.5t38 85.5q0 41 -27.5 69t-71.5 44.5t-97 31.5t-106 36t-97 51t-71.5 84.5t-27.5 129.5q0 140 105 237t264 97q127 0 217.5 -57.5
t136.5 -163.5l-213 -86q-15 47 -49 76.5t-88 29.5t-89.5 -31.5t-35.5 -82.5q0 -32 21.5 -56t57 -38t80.5 -28.5t92 -27.5t92 -37t80.5 -54t57 -80t21.5 -115q0 -154 -117 -250.5t-277 -96.5z" />
    <glyph glyph-name="ogonekcmb" horiz-adv-x="0" 
d="M-2 8h170q-100 -117 -127 -155t-27 -74q0 -27 17.5 -42.5t44.5 -15.5q40 0 92 35v-170q-64 -41 -139 -41q-88 0 -142.5 44t-54.5 128q0 62 39 125t127 166z" />
    <glyph glyph-name="W.brandalt" horiz-adv-x="2195" 
d="M770 -59l-766 1554h295l477 -1010l187 402l-297 608h282l150 -319l149 319h281l-295 -606l190 -408l473 1014h293l-764 -1554l-327 671z" />
    <glyph glyph-name="Wcircumflex.brandalt" horiz-adv-x="2195" 
d="M1225 1931l252 -311h-203l-176 160l-176 -160h-203l252 311h254zM770 -59l-766 1554h295l477 -1010l187 402l-297 608h282l150 -319l149 319h281l-295 -606l190 -408l473 1014h293l-764 -1554l-327 671z" />
    <glyph glyph-name="uni0123.alt" horiz-adv-x="1339" 
d="M739 1591l158 -53l-100 -362l-254 92zM922 51v139q-46 -70 -137 -118.5t-201 -48.5q-136 0 -251 68t-183 189t-68 267q0 111 40 209t108 167t160.5 109.5t193.5 40.5q109 0 200.5 -49t137.5 -119v144h270v-986q0 -155 -76.5 -274.5t-202 -181.5t-276.5 -62
q-210 0 -358.5 106.5t-178.5 295.5h267q25 -85 95.5 -130.5t174.5 -45.5q123 0 204 72.5t81 207.5zM928 547q0 125 -85 209t-204 84q-120 0 -204.5 -83.5t-84.5 -209.5q0 -125 84.5 -209t204.5 -84q119 0 204 84.5t85 208.5z" />
    <glyph glyph-name="sacute.alt" horiz-adv-x="907" 
d="M358 1217l152 339h303l-250 -339h-205zM446 -25q-146 0 -261 72t-160 201l223 88q62 -162 203 -162q61 0 99 33.5t38 85.5q0 41 -27.5 69t-71.5 44.5t-97 31.5t-106 36t-97 51t-71.5 84.5t-27.5 129.5q0 140 105 237t264 97q127 0 217.5 -57.5t136.5 -163.5l-213 -86
q-15 47 -49 76.5t-88 29.5t-89.5 -31.5t-35.5 -82.5q0 -32 21.5 -56t57 -38t80.5 -28.5t92 -27.5t92 -37t80.5 -54t57 -80t21.5 -115q0 -154 -117 -250.5t-277 -96.5z" />
    <glyph glyph-name="commaaccentcmb" horiz-adv-x="0" 
d="M-20 -494l-158 54l100 362l256 -92z" />
    <glyph glyph-name="gcircumflex.alt" horiz-adv-x="1339" 
d="M811 1556l225 -339h-186l-164 176l-162 -176h-188l227 339h248zM922 51v139q-46 -70 -137 -118.5t-201 -48.5q-136 0 -251 68t-183 189t-68 267q0 111 40 209t108 167t160.5 109.5t193.5 40.5q109 0 200.5 -49t137.5 -119v144h270v-986q0 -155 -76.5 -274.5t-202 -181.5
t-276.5 -62q-210 0 -358.5 106.5t-178.5 295.5h267q25 -85 95.5 -130.5t174.5 -45.5q123 0 204 72.5t81 207.5zM928 547q0 125 -85 209t-204 84q-120 0 -204.5 -83.5t-84.5 -209.5q0 -125 84.5 -209t204.5 -84q119 0 204 84.5t85 208.5z" />
    <glyph glyph-name="uring.alt" horiz-adv-x="1193" 
d="M598 1628q98 0 165.5 -66t67.5 -163q0 -95 -67.5 -161.5t-165.5 -66.5t-165.5 66.5t-67.5 161.5q0 97 67.5 163t165.5 66zM598 1499q-43 0 -71.5 -28t-28.5 -72q0 -43 28.5 -72t71.5 -29t71.5 29t28.5 72q0 44 -28.5 72t-71.5 28zM397 438q0 -108 53 -169.5t148 -61.5
t148 61.5t53 169.5v611h270v-617q0 -204 -131.5 -330.5t-339.5 -126.5q-210 0 -340.5 126t-130.5 331v617h270v-611z" />
    <glyph glyph-name="colon.mid" horiz-adv-x="542" 
d="M272 1268q72 0 123 -50t51 -122q0 -73 -51 -123.5t-123 -50.5h-4q-72 0 -122 50.5t-50 123.5q0 72 50 122t122 50h4zM272 571q72 0 123 -50t51 -122q0 -73 -51 -123.5t-123 -50.5h-4q-72 0 -122 50.5t-50 123.5q0 72 50 122t122 50h4z" />
    <glyph glyph-name="brevecmb" horiz-adv-x="0" 
d="M309 1534q0 -160 -86.5 -252t-224.5 -92q-135 0 -221 92.5t-86 251.5h182q0 -74 35 -118t90 -44q58 0 93.5 44t35.5 118h182z" />
    <glyph glyph-name="uacute.alt" horiz-adv-x="1193" 
d="M492 1217l151 339h303l-250 -339h-204zM397 438q0 -108 53 -169.5t148 -61.5t148 61.5t53 169.5v611h270v-617q0 -204 -131.5 -330.5t-339.5 -126.5q-210 0 -340.5 126t-130.5 331v617h270v-611z" />
    <glyph glyph-name="ecircumflex.alt" horiz-adv-x="1220" 
d="M750 1556l225 -339h-187l-163 176l-162 -176h-189l228 339h248zM1139 332q-50 -169 -187.5 -263t-324.5 -94q-111 0 -212 42t-175.5 114t-119 174.5t-44.5 218.5t44 218.5t118.5 174.5t175.5 114t211 42q158 0 279 -74.5t184 -200.5t63 -282q0 -42 -2 -65h-821
q22 -118 105 -188t196 -70q184 0 252 139h258zM625 852q-103 0 -182 -61.5t-107 -163.5h555q-11 92 -82.5 158.5t-183.5 66.5z" />
    <glyph glyph-name="ae.alt" horiz-adv-x="1851" 
d="M496 627h229q2 7 5 22.5t5 22.5q-12 82 -78 126t-178 44q-145 0 -295 -84v233q65 36 160 59t193 23q230 0 348 -143q153 143 366 143q158 0 279 -73.5t184.5 -199t63.5 -282.5q0 -41 -2 -61h-822q19 -121 103 -194t200 -73q181 0 250 142h258q-50 -170 -186.5 -263.5
t-323.5 -93.5q-124 0 -232 51t-183 142q-59 -88 -165.5 -140.5t-221.5 -52.5q-172 0 -281 86.5t-109 237.5q0 155 119 241.5t314 86.5zM1251 856q-103 0 -181.5 -62.5t-106.5 -166.5h548q-11 97 -80 163t-180 66zM483 170q88 0 156.5 47t103.5 133q-15 41 -22 107h-184
q-103 0 -164.5 -37.5t-61.5 -108.5q0 -69 48.5 -105t123.5 -36z" />
    <glyph glyph-name="ucircumflex.alt" horiz-adv-x="1193" 
d="M723 1556l225 -339h-186l-164 176l-162 -176h-188l227 339h248zM397 438q0 -108 53 -169.5t148 -61.5t148 61.5t53 169.5v611h270v-617q0 -204 -131.5 -330.5t-339.5 -126.5q-210 0 -340.5 126t-130.5 331v617h270v-611z" />
    <glyph glyph-name="gbreve.alt" horiz-adv-x="1339" 
d="M993 1534q0 -159 -86 -251.5t-223 -92.5q-135 0 -221 92.5t-86 251.5h182q0 -74 35 -118t90 -44q56 0 91.5 44t35.5 118h182zM922 51v139q-46 -70 -137 -118.5t-201 -48.5q-136 0 -251 68t-183 189t-68 267q0 111 40 209t108 167t160.5 109.5t193.5 40.5q109 0 200.5 -49
t137.5 -119v144h270v-986q0 -155 -76.5 -274.5t-202 -181.5t-276.5 -62q-210 0 -358.5 106.5t-178.5 295.5h267q25 -85 95.5 -130.5t174.5 -45.5q123 0 204 72.5t81 207.5zM928 547q0 125 -85 209t-204 84q-120 0 -204.5 -83.5t-84.5 -209.5q0 -125 84.5 -209t204.5 -84
q119 0 204 84.5t85 208.5z" />
    <glyph glyph-name="circumflexcmb" horiz-adv-x="0" 
d="M125 1556l225 -339h-186l-164 176l-162 -176h-188l227 339h248z" />
    <glyph glyph-name="gdotaccent.alt" horiz-adv-x="1339" 
d="M690 1524q65 0 110.5 -45t45.5 -111t-45.5 -111t-110.5 -45h-4q-65 0 -111.5 45.5t-46.5 110.5t46.5 110.5t111.5 45.5h4zM922 51v139q-46 -70 -137 -118.5t-201 -48.5q-136 0 -251 68t-183 189t-68 267q0 111 40 209t108 167t160.5 109.5t193.5 40.5q109 0 200.5 -49
t137.5 -119v144h270v-986q0 -155 -76.5 -274.5t-202 -181.5t-276.5 -62q-210 0 -358.5 106.5t-178.5 295.5h267q25 -85 95.5 -130.5t174.5 -45.5q123 0 204 72.5t81 207.5zM928 547q0 125 -85 209t-204 84q-120 0 -204.5 -83.5t-84.5 -209.5q0 -125 84.5 -209t204.5 -84
q119 0 204 84.5t85 208.5z" />
    <glyph glyph-name="adieresis.alt" horiz-adv-x="1343" 
d="M496 1518q62 0 104.5 -42.5t42.5 -103.5t-42.5 -102t-104.5 -41h-2q-62 0 -104 41t-42 102q0 62 42 104t104 42h2zM895 1518q61 0 103 -42t42 -104q0 -61 -41.5 -102t-103.5 -41h-2q-62 0 -105 41t-43 102t43 103.5t105 42.5h2zM584 -25q-142 0 -259 72t-184 198t-67 279
q0 232 147 390.5t363 158.5q112 0 205.5 -49.5t138.5 -122.5v148h270v-1049h-270v147q-45 -73 -138.5 -122.5t-205.5 -49.5zM637 207q126 0 211.5 91t85.5 226t-85.5 225.5t-211.5 90.5q-125 0 -210 -90.5t-85 -225.5t85 -226t210 -91z" />
    <glyph glyph-name="Wgrave.brandalt" horiz-adv-x="2195" 
d="M1235 1620h-238l-352 311h356zM770 -59l-766 1554h295l477 -1010l187 402l-297 608h282l150 -319l149 319h281l-295 -606l190 -408l473 1014h293l-764 -1554l-327 671z" />
    <glyph glyph-name="macroncmb" horiz-adv-x="0" 
d="M-285 1241v191h570v-191h-570z" />
    <glyph glyph-name="utilde.alt" horiz-adv-x="1193" 
d="M782 1534h168q0 -136 -54 -224.5t-155 -88.5q-39 0 -76.5 18t-62 40t-55 40t-58.5 18q-36 0 -55.5 -29.5t-19.5 -78.5h-166q0 136 53.5 224.5t153.5 88.5q40 0 78 -18t62 -39.5t54.5 -39.5t57.5 -18q36 0 55.5 29t19.5 78zM397 438q0 -108 53 -169.5t148 -61.5t148 61.5
t53 169.5v611h270v-617q0 -204 -131.5 -330.5t-339.5 -126.5q-210 0 -340.5 126t-130.5 331v617h270v-611z" />
    <glyph glyph-name="udieresis.alt" horiz-adv-x="1193" 
d="M399 1518q62 0 105 -42.5t43 -103.5t-43 -102t-105 -41h-2q-62 0 -103.5 41t-41.5 102q0 62 42 104t103 42h2zM799 1518q61 0 103 -42t42 -104q0 -61 -41.5 -102t-103.5 -41h-2q-62 0 -105 41t-43 102t43 103.5t105 42.5h2zM397 438q0 -108 53 -169.5t148 -61.5t148 61.5
t53 169.5v611h270v-617q0 -204 -131.5 -330.5t-339.5 -126.5q-210 0 -340.5 126t-130.5 331v617h270v-611z" />
    <glyph glyph-name="dotaccentCap" 
d="M616 1925q65 0 110.5 -45t45.5 -111q0 -64 -45.5 -109.5t-110.5 -45.5h-4q-65 0 -111 45.5t-46 109.5q0 66 46 111t111 45h4z" />
    <glyph glyph-name="uni0122.alt" horiz-adv-x="1640" 
d="M860 795h701q2 -27 2 -80q0 -171 -57.5 -312t-156 -234t-229.5 -143.5t-280 -50.5q-155 0 -296.5 61.5t-243.5 165t-162 246.5t-60 300q0 126 38.5 243.5t108.5 212.5t164 166.5t210.5 110.5t240.5 39q203 0 367.5 -98t262.5 -271l-231 -139q-62 116 -167 182t-232 66
q-99 0 -189 -40t-155 -108t-103.5 -163t-38.5 -201q0 -141 65 -261t178 -190t247 -70q166 0 281 91.5t149 246.5h-414v230zM782 -494l-157 54l100 362l254 -92z" />
    <glyph glyph-name="emacron.alt" horiz-adv-x="1220" 
d="M340 1241v191h569v-191h-569zM1139 332q-50 -169 -187.5 -263t-324.5 -94q-111 0 -212 42t-175.5 114t-119 174.5t-44.5 218.5t44 218.5t118.5 174.5t175.5 114t211 42q158 0 279 -74.5t184 -200.5t63 -282q0 -42 -2 -65h-821q22 -118 105 -188t196 -70q184 0 252 139
h258zM625 852q-103 0 -182 -61.5t-107 -163.5h555q-11 92 -82.5 158.5t-183.5 66.5z" />
    <glyph glyph-name="Gbreve.alt" horiz-adv-x="1640" 
d="M1178 1931q-9 -150 -104.5 -237.5t-231.5 -87.5t-231.5 87.5t-104.5 237.5h199q4 -65 41.5 -101t95.5 -36t95.5 36t41.5 101h199zM860 795h701q2 -27 2 -80q0 -171 -57.5 -312t-156 -234t-229.5 -143.5t-280 -50.5q-155 0 -296.5 61.5t-243.5 165t-162 246.5t-60 300
q0 126 38.5 243.5t108.5 212.5t164 166.5t210.5 110.5t240.5 39q203 0 367.5 -98t262.5 -271l-231 -139q-62 116 -167 182t-232 66q-99 0 -189 -40t-155 -108t-103.5 -163t-38.5 -201q0 -141 65 -261t178 -190t247 -70q166 0 281 91.5t149 246.5h-414v230z" />
    <glyph glyph-name="uhungarumlaut.alt" horiz-adv-x="1193" 
d="M307 1217l139 339h289l-235 -339h-193zM686 1217l139 339h289l-235 -339h-193zM397 438q0 -108 53 -169.5t148 -61.5t148 61.5t53 169.5v611h270v-617q0 -204 -131.5 -330.5t-339.5 -126.5q-210 0 -340.5 126t-130.5 331v617h270v-611z" />
    <glyph glyph-name="uni021B.alt" horiz-adv-x="768" 
d="M496 0h-271v834h-194v215h194v301h271v-301h243v-215h-243v-834zM299 -494l-158 54l101 362l254 -92z" />
    <glyph glyph-name="commaaboverightcmb" horiz-adv-x="0" 
d="M20 1163h-182l64 393h260z" />
    <glyph glyph-name="aring.alt" horiz-adv-x="1343" 
d="M694 1628q98 0 166 -66t68 -163q0 -95 -68 -161.5t-166 -66.5t-165.5 66.5t-67.5 161.5q0 97 67.5 163t165.5 66zM694 1499q-43 0 -71.5 -28t-28.5 -72q0 -43 28.5 -72t71.5 -29t72 29t29 72q0 44 -29 72t-72 28zM584 -25q-142 0 -259 72t-184 198t-67 279
q0 232 147 390.5t363 158.5q112 0 205.5 -49.5t138.5 -122.5v148h270v-1049h-270v147q-45 -73 -138.5 -122.5t-205.5 -49.5zM637 207q126 0 211.5 91t85.5 226t-85.5 225.5t-211.5 90.5q-125 0 -210 -90.5t-85 -225.5t85 -226t210 -91z" />
    <glyph glyph-name="ubreve.alt" horiz-adv-x="1193" 
d="M905 1534q0 -159 -86 -251.5t-223 -92.5q-135 0 -221 92.5t-86 251.5h182q0 -74 35 -118t90 -44q56 0 91.5 44t35.5 118h182zM397 438q0 -108 53 -169.5t148 -61.5t148 61.5t53 169.5v611h270v-617q0 -204 -131.5 -330.5t-339.5 -126.5q-210 0 -340.5 126t-130.5 331v617
h270v-611z" />
    <glyph glyph-name="tcaron.alt" horiz-adv-x="768" 
d="M766 1163h-180l63 393h258zM496 0h-271v834h-194v215h194v301h271v-301h243v-215h-243v-834z" />
    <glyph glyph-name="CR" horiz-adv-x="655" 
 />
    <glyph glyph-name="edieresis.alt" horiz-adv-x="1220" 
d="M426 1518q62 0 104.5 -42.5t42.5 -103.5t-42.5 -102t-104.5 -41h-2q-62 0 -103.5 41t-41.5 102q0 62 42 104t103 42h2zM825 1518q61 0 103.5 -42t42.5 -104q0 -61 -42 -102t-104 -41h-2q-62 0 -104.5 41t-42.5 102t42.5 103.5t104.5 42.5h2zM1139 332
q-50 -169 -187.5 -263t-324.5 -94q-111 0 -212 42t-175.5 114t-119 174.5t-44.5 218.5t44 218.5t118.5 174.5t175.5 114t211 42q158 0 279 -74.5t184 -200.5t63 -282q0 -42 -2 -65h-821q22 -118 105 -188t196 -70q184 0 252 139h258zM625 852q-103 0 -182 -61.5t-107 -163.5
h555q-11 92 -82.5 158.5t-183.5 66.5z" />
    <glyph glyph-name="edotaccent.alt" horiz-adv-x="1220" 
d="M629 1524q65 0 110 -45t45 -111t-45 -111t-110 -45h-4q-65 0 -111.5 45.5t-46.5 110.5t46.5 110.5t111.5 45.5h4zM1139 332q-50 -169 -187.5 -263t-324.5 -94q-111 0 -212 42t-175.5 114t-119 174.5t-44.5 218.5t44 218.5t118.5 174.5t175.5 114t211 42q158 0 279 -74.5
t184 -200.5t63 -282q0 -42 -2 -65h-821q22 -118 105 -188t196 -70q184 0 252 139h258zM625 852q-103 0 -182 -61.5t-107 -163.5h555q-11 92 -82.5 158.5t-183.5 66.5z" />
    <glyph glyph-name="t.alt" horiz-adv-x="768" 
d="M496 0h-271v834h-194v215h194v301h271v-301h243v-215h-243v-834z" />
    <glyph glyph-name="S.alt" horiz-adv-x="1189" 
d="M590 -25q-172 0 -321.5 78t-241.5 211l182 189q82 -120 175.5 -182t211.5 -62q108 0 182 60t74 155q0 50 -25 87.5t-67 62t-96 44.5t-114 38.5t-120.5 39.5t-114.5 52.5t-96 72.5t-67 104.5t-25 143.5q0 191 138.5 321t352.5 130q273 0 457 -220l-166 -190
q-118 180 -295 180q-95 0 -157 -53.5t-62 -144.5q0 -44 25 -78t67 -56.5t96 -41.5t114.5 -38t120.5 -41t114 -56t96 -78t67 -111.5t25 -151.5q0 -134 -71.5 -241t-192.5 -165.5t-266 -58.5z" />
    <glyph glyph-name="tbar.alt" horiz-adv-x="768" 
d="M496 0h-271v442h-192v191h192v201h-194v215h194v301h271v-301h243v-215h-243v-201h241v-191h-241v-442z" />
    <glyph glyph-name="u.alt" horiz-adv-x="1193" 
d="M397 438q0 -108 53 -169.5t148 -61.5t148 61.5t53 169.5v611h270v-617q0 -204 -131.5 -330.5t-339.5 -126.5q-210 0 -340.5 126t-130.5 331v617h270v-611z" />
    <glyph glyph-name="Sacute.alt" horiz-adv-x="1189" 
d="M500 1620l233 311h357l-353 -311h-237zM590 -25q-172 0 -321.5 78t-241.5 211l182 189q82 -120 175.5 -182t211.5 -62q108 0 182 60t74 155q0 50 -25 87.5t-67 62t-96 44.5t-114 38.5t-120.5 39.5t-114.5 52.5t-96 72.5t-67 104.5t-25 143.5q0 191 138.5 321t352.5 130
q273 0 457 -220l-166 -190q-118 180 -295 180q-95 0 -157 -53.5t-62 -144.5q0 -44 25 -78t67 -56.5t96 -41.5t114.5 -38t120.5 -41t114 -56t96 -78t67 -111.5t25 -151.5q0 -134 -71.5 -241t-192.5 -165.5t-266 -58.5z" />
    <glyph glyph-name="dieresiscmb" horiz-adv-x="0" 
d="M-199 1518q62 0 105 -42.5t43 -103.5t-43 -102t-105 -41h-2q-62 0 -103.5 41t-41.5 102q0 62 42 104t103 42h2zM201 1518q61 0 103 -42t42 -104q0 -61 -41.5 -102t-103.5 -41h-2q-62 0 -105 41t-43 102t43 103.5t105 42.5h2z" />
    <glyph glyph-name="e.alt" horiz-adv-x="1226" 
d="M1139 332q-50 -169 -187.5 -263t-324.5 -94q-111 0 -212 42t-175.5 114t-119 174.5t-44.5 218.5t44 218.5t118.5 174.5t175.5 114t211 42q158 0 279 -74.5t184 -200.5t63 -282q0 -42 -2 -65h-821q22 -118 105 -188t196 -70q184 0 252 139h258zM625 852q-103 0 -182 -61.5
t-107 -163.5h555q-11 92 -82.5 158.5t-183.5 66.5z" />
    <glyph glyph-name="j.brandalt" horiz-adv-x="563" 
d="M283 1524q66 0 111.5 -45t45.5 -111t-45.5 -111t-111.5 -45h-2q-66 0 -112 45t-46 111t46 111t112 45h2zM147 1049h271v-1479h-271v1479z" />
    <glyph glyph-name="Scircumflex.alt" horiz-adv-x="1189" 
d="M745 1931l252 -311h-202l-177 160l-176 -160h-202l252 311h253zM590 -25q-172 0 -321.5 78t-241.5 211l182 189q82 -120 175.5 -182t211.5 -62q108 0 182 60t74 155q0 50 -25 87.5t-67 62t-96 44.5t-114 38.5t-120.5 39.5t-114.5 52.5t-96 72.5t-67 104.5t-25 143.5
q0 191 138.5 321t352.5 130q273 0 457 -220l-166 -190q-118 180 -295 180q-95 0 -157 -53.5t-62 -144.5q0 -44 25 -78t67 -56.5t96 -41.5t114.5 -38t120.5 -41t114 -56t96 -78t67 -111.5t25 -151.5q0 -134 -71.5 -241t-192.5 -165.5t-266 -58.5z" />
    <glyph glyph-name="abreve.alt" horiz-adv-x="1343" 
d="M995 1534q0 -159 -86 -251.5t-223 -92.5q-135 0 -221 92.5t-86 251.5h182q0 -74 35 -118t90 -44q56 0 91.5 44t35.5 118h182zM584 -25q-142 0 -259 72t-184 198t-67 279q0 232 147 390.5t363 158.5q112 0 205.5 -49.5t138.5 -122.5v148h270v-1049h-270v147
q-45 -73 -138.5 -122.5t-205.5 -49.5zM637 207q126 0 211.5 91t85.5 226t-85.5 225.5t-211.5 90.5q-125 0 -210 -90.5t-85 -225.5t85 -226t210 -91z" />
    <glyph glyph-name="uni0218.alt" horiz-adv-x="1189" 
d="M590 -25q-172 0 -321.5 78t-241.5 211l182 189q82 -120 175.5 -182t211.5 -62q108 0 182 60t74 155q0 50 -25 87.5t-67 62t-96 44.5t-114 38.5t-120.5 39.5t-114.5 52.5t-96 72.5t-67 104.5t-25 143.5q0 191 138.5 321t352.5 130q273 0 457 -220l-166 -190
q-118 180 -295 180q-95 0 -157 -53.5t-62 -144.5q0 -44 25 -78t67 -56.5t96 -41.5t114.5 -38t120.5 -41t114 -56t96 -78t67 -111.5t25 -151.5q0 -134 -71.5 -241t-192.5 -165.5t-266 -58.5zM553 -494l-158 54l101 362l254 -92z" />
    <glyph glyph-name="Wacute.brandalt" horiz-adv-x="2195" 
d="M999 1620l234 311h356l-352 -311h-238zM770 -59l-766 1554h295l477 -1010l187 402l-297 608h282l150 -319l149 319h281l-295 -606l190 -408l473 1014h293l-764 -1554l-327 671z" />
    <glyph glyph-name="ecaron.alt" horiz-adv-x="1220" 
d="M748 1217h-248l-228 339h189l162 -176l163 176h187zM1139 332q-50 -169 -187.5 -263t-324.5 -94q-111 0 -212 42t-175.5 114t-119 174.5t-44.5 218.5t44 218.5t118.5 174.5t175.5 114t211 42q158 0 279 -74.5t184 -200.5t63 -282q0 -42 -2 -65h-821q22 -118 105 -188
t196 -70q184 0 252 139h258zM625 852q-103 0 -182 -61.5t-107 -163.5h555q-11 92 -82.5 158.5t-183.5 66.5z" />
    <glyph glyph-name="uni015F.alt" horiz-adv-x="907" 
d="M416 -455q-119 0 -193 52v151q65 -65 166 -65q42 0 69 17.5t27 51.5q0 75 -172 82l58 148q-123 18 -215 86.5t-131 179.5l223 88q62 -162 203 -162q61 0 99 33.5t38 85.5q0 41 -27.5 69t-71.5 44.5t-97 31.5t-106 36t-97 51t-71.5 84.5t-27.5 129.5q0 140 105 237t264 97
q127 0 217.5 -57.5t136.5 -163.5l-213 -86q-15 47 -49 76.5t-88 29.5t-89.5 -31.5t-35.5 -82.5q0 -32 21.5 -56t57 -38t80.5 -28.5t92 -27.5t92 -37t80.5 -54t57 -80t21.5 -115q0 -143 -101 -237t-247 -108l-23 -61q89 -11 143 -57t54 -121q0 -88 -74 -140.5t-176 -52.5z
" />
    <glyph glyph-name="scaron.alt" horiz-adv-x="907" 
d="M592 1217h-248l-227 339h188l162 -176l164 176h186zM446 -25q-146 0 -261 72t-160 201l223 88q62 -162 203 -162q61 0 99 33.5t38 85.5q0 41 -27.5 69t-71.5 44.5t-97 31.5t-106 36t-97 51t-71.5 84.5t-27.5 129.5q0 140 105 237t264 97q127 0 217.5 -57.5t136.5 -163.5
l-213 -86q-15 47 -49 76.5t-88 29.5t-89.5 -31.5t-35.5 -82.5q0 -32 21.5 -56t57 -38t80.5 -28.5t92 -27.5t92 -37t80.5 -54t57 -80t21.5 -115q0 -154 -117 -250.5t-277 -96.5z" />
    <glyph glyph-name="Gcircumflex.alt" horiz-adv-x="1640" 
d="M969 1931l252 -311h-203l-176 160l-176 -160h-203l252 311h254zM860 795h701q2 -27 2 -80q0 -171 -57.5 -312t-156 -234t-229.5 -143.5t-280 -50.5q-155 0 -296.5 61.5t-243.5 165t-162 246.5t-60 300q0 126 38.5 243.5t108.5 212.5t164 166.5t210.5 110.5t240.5 39
q203 0 367.5 -98t262.5 -271l-231 -139q-62 116 -167 182t-232 66q-99 0 -189 -40t-155 -108t-103.5 -163t-38.5 -201q0 -141 65 -261t178 -190t247 -70q166 0 281 91.5t149 246.5h-414v230z" />
    <glyph glyph-name="ebreve.alt" horiz-adv-x="1220" 
d="M934 1534q0 -159 -86 -251.5t-223 -92.5q-135 0 -221.5 92.5t-86.5 251.5h183q0 -74 35 -118t90 -44q56 0 91.5 44t35.5 118h182zM1139 332q-50 -169 -187.5 -263t-324.5 -94q-111 0 -212 42t-175.5 114t-119 174.5t-44.5 218.5t44 218.5t118.5 174.5t175.5 114t211 42
q158 0 279 -74.5t184 -200.5t63 -282q0 -42 -2 -65h-821q22 -118 105 -188t196 -70q184 0 252 139h258zM625 852q-103 0 -182 -61.5t-107 -163.5h555q-11 92 -82.5 158.5t-183.5 66.5z" />
    <glyph glyph-name="oe.alt" horiz-adv-x="2074" 
d="M1731 332h258q-50 -170 -186.5 -263.5t-323.5 -93.5q-127 0 -236 52.5t-184 146.5q-78 -93 -189.5 -146t-236.5 -53q-150 0 -278 70.5t-204.5 197.5t-76.5 281q0 153 76.5 280t204.5 198t278 71q125 0 236 -53.5t188 -145.5q75 94 183.5 146.5t234.5 52.5q158 0 279 -75
t184 -202t63 -284q0 -41 -2 -61h-821q22 -118 105.5 -189.5t197.5 -71.5q181 0 250 142zM1475 856q-106 0 -185.5 -64.5t-105.5 -173.5h557q-11 98 -82.5 168t-183.5 70zM633 840q-125 0 -208 -90t-83 -226t83 -226.5t208 -90.5t209 90.5t84 226.5t-84 226t-209 90z" />
    <glyph glyph-name="Wdieresis.brandalt" horiz-adv-x="2195" 
d="M895 1909q62 0 104.5 -42.5t42.5 -103.5t-42.5 -102t-104.5 -41h-2q-61 0 -103 41t-42 102t42.5 103.5t102.5 42.5h2zM1303 1909q60 0 102.5 -42.5t42.5 -103.5t-42 -102t-103 -41h-3q-62 0 -104.5 41t-42.5 102t42.5 103.5t104.5 42.5h3zM770 -59l-766 1554h295
l477 -1010l187 402l-297 608h282l150 -319l149 319h281l-295 -606l190 -408l473 1014h293l-764 -1554l-327 671z" />
    <glyph glyph-name="g.alt" horiz-adv-x="1339" 
d="M922 51v139q-46 -70 -137 -118.5t-201 -48.5q-136 0 -251 68t-183 189t-68 267q0 111 40 209t108 167t160.5 109.5t193.5 40.5q109 0 200.5 -49t137.5 -119v144h270v-986q0 -155 -76.5 -274.5t-202 -181.5t-276.5 -62q-210 0 -358.5 106.5t-178.5 295.5h267
q25 -85 95.5 -130.5t174.5 -45.5q123 0 204 72.5t81 207.5zM928 547q0 125 -85 209t-204 84q-120 0 -204.5 -83.5t-84.5 -209.5q0 -125 84.5 -209t204.5 -84q119 0 204 84.5t85 208.5z" />
    <glyph glyph-name="tildecmb" horiz-adv-x="0" 
d="M184 1534h168q0 -136 -54 -224.5t-155 -88.5q-39 0 -77 18t-62.5 40t-55.5 40t-59 18q-36 0 -55.5 -29.5t-19.5 -78.5h-166q0 136 53.5 224.5t153.5 88.5q40 0 78 -18t63 -39.5t55.5 -39.5t57.5 -18q36 0 55.5 29t19.5 78z" />
    <glyph glyph-name="eogonek.alt" horiz-adv-x="1220" 
d="M834 -414q-64 -41 -140 -41q-86 0 -140 44t-54 128q0 57 33 115.5t104 142.5h-10q-111 0 -212 42t-175.5 114t-119 174.5t-44.5 218.5t44 218.5t118.5 174.5t175.5 114t211 42q158 0 279 -74.5t184 -200.5t63 -282q0 -42 -2 -65h-821q22 -118 105 -188t196 -70
q184 0 252 139h258q-35 -120 -115.5 -202.5t-194.5 -121.5h5q-100 -117 -127 -155t-27 -74q0 -27 17 -42.5t44 -15.5q41 0 93 35v-170zM625 852q-103 0 -182 -61.5t-107 -163.5h555q-11 92 -82.5 158.5t-183.5 66.5z" />
    <glyph glyph-name="amacron.alt" horiz-adv-x="1343" 
d="M418 1241v191h569v-191h-569zM584 -25q-142 0 -259 72t-184 198t-67 279q0 232 147 390.5t363 158.5q112 0 205.5 -49.5t138.5 -122.5v148h270v-1049h-270v147q-45 -73 -138.5 -122.5t-205.5 -49.5zM637 207q126 0 211.5 91t85.5 226t-85.5 225.5t-211.5 90.5
q-125 0 -210 -90.5t-85 -225.5t85 -226t210 -91z" />
    <glyph glyph-name="Scaron.alt" horiz-adv-x="1189" 
d="M758 1618h-254l-252 311h203l176 -160l176 160h203zM590 -25q-172 0 -321.5 78t-241.5 211l182 189q82 -120 175.5 -182t211.5 -62q108 0 182 60t74 155q0 50 -25 87.5t-67 62t-96 44.5t-114 38.5t-120.5 39.5t-114.5 52.5t-96 72.5t-67 104.5t-25 143.5q0 191 138.5 321
t352.5 130q273 0 457 -220l-166 -190q-118 180 -295 180q-95 0 -157 -53.5t-62 -144.5q0 -44 25 -78t67 -56.5t96 -41.5t114.5 -38t120.5 -41t114 -56t96 -78t67 -111.5t25 -151.5q0 -134 -71.5 -241t-192.5 -165.5t-266 -58.5z" />
    <glyph glyph-name="ringcmb" horiz-adv-x="0" 
d="M0 1628q98 0 165.5 -66t67.5 -163q0 -95 -67.5 -161.5t-165.5 -66.5t-165.5 66.5t-67.5 161.5q0 97 67.5 163t165.5 66zM0 1499q-43 0 -71.5 -28t-28.5 -72q0 -43 28.5 -72t71.5 -29t71.5 29t28.5 72q0 44 -28.5 72t-71.5 28z" />
    </font>
</defs>
</svg>
